%TF.GenerationSoftware,KiCad,Pcbnew,(6.0.9)*%
%TF.CreationDate,2022-11-23T00:56:20+01:00*%
%TF.ProjectId,Testapparaat_io,54657374-6170-4706-9172-6161745f696f,rev?*%
%TF.SameCoordinates,Original*%
%TF.FileFunction,Legend,Top*%
%TF.FilePolarity,Positive*%
%FSLAX46Y46*%
G04 Gerber Fmt 4.6, Leading zero omitted, Abs format (unit mm)*
G04 Created by KiCad (PCBNEW (6.0.9)) date 2022-11-23 00:56:20*
%MOMM*%
%LPD*%
G01*
G04 APERTURE LIST*
G04 Aperture macros list*
%AMRoundRect*
0 Rectangle with rounded corners*
0 $1 Rounding radius*
0 $2 $3 $4 $5 $6 $7 $8 $9 X,Y pos of 4 corners*
0 Add a 4 corners polygon primitive as box body*
4,1,4,$2,$3,$4,$5,$6,$7,$8,$9,$2,$3,0*
0 Add four circle primitives for the rounded corners*
1,1,$1+$1,$2,$3*
1,1,$1+$1,$4,$5*
1,1,$1+$1,$6,$7*
1,1,$1+$1,$8,$9*
0 Add four rect primitives between the rounded corners*
20,1,$1+$1,$2,$3,$4,$5,0*
20,1,$1+$1,$4,$5,$6,$7,0*
20,1,$1+$1,$6,$7,$8,$9,0*
20,1,$1+$1,$8,$9,$2,$3,0*%
G04 Aperture macros list end*
%ADD10C,0.150000*%
%ADD11C,0.254000*%
%ADD12C,0.120000*%
%ADD13C,0.200000*%
%ADD14C,0.100000*%
%ADD15C,3.200000*%
%ADD16R,1.600000X1.600000*%
%ADD17O,1.600000X1.600000*%
%ADD18R,1.500000X1.500000*%
%ADD19C,1.500000*%
%ADD20C,4.800000*%
%ADD21R,1.700000X1.700000*%
%ADD22O,1.700000X1.700000*%
%ADD23RoundRect,0.237500X-0.237500X0.300000X-0.237500X-0.300000X0.237500X-0.300000X0.237500X0.300000X0*%
%ADD24RoundRect,0.237500X0.300000X0.237500X-0.300000X0.237500X-0.300000X-0.237500X0.300000X-0.237500X0*%
%ADD25RoundRect,0.237500X-0.300000X-0.237500X0.300000X-0.237500X0.300000X0.237500X-0.300000X0.237500X0*%
%ADD26RoundRect,0.100000X-0.637500X-0.100000X0.637500X-0.100000X0.637500X0.100000X-0.637500X0.100000X0*%
%ADD27R,1.400000X1.300000*%
%ADD28R,0.950000X1.000000*%
%ADD29R,1.900000X1.400000*%
%ADD30R,1.500000X0.800000*%
G04 APERTURE END LIST*
D10*
X147963095Y-83750000D02*
X147867857Y-83702380D01*
X147725000Y-83702380D01*
X147582142Y-83750000D01*
X147486904Y-83845238D01*
X147439285Y-83940476D01*
X147391666Y-84130952D01*
X147391666Y-84273809D01*
X147439285Y-84464285D01*
X147486904Y-84559523D01*
X147582142Y-84654761D01*
X147725000Y-84702380D01*
X147820238Y-84702380D01*
X147963095Y-84654761D01*
X148010714Y-84607142D01*
X148010714Y-84273809D01*
X147820238Y-84273809D01*
X148439285Y-84702380D02*
X148439285Y-83702380D01*
X149010714Y-84702380D01*
X149010714Y-83702380D01*
X149486904Y-84702380D02*
X149486904Y-83702380D01*
X149725000Y-83702380D01*
X149867857Y-83750000D01*
X149963095Y-83845238D01*
X150010714Y-83940476D01*
X150058333Y-84130952D01*
X150058333Y-84273809D01*
X150010714Y-84464285D01*
X149963095Y-84559523D01*
X149867857Y-84654761D01*
X149725000Y-84702380D01*
X149486904Y-84702380D01*
X148733333Y-82307142D02*
X148685714Y-82354761D01*
X148542857Y-82402380D01*
X148447619Y-82402380D01*
X148304761Y-82354761D01*
X148209523Y-82259523D01*
X148161904Y-82164285D01*
X148114285Y-81973809D01*
X148114285Y-81830952D01*
X148161904Y-81640476D01*
X148209523Y-81545238D01*
X148304761Y-81450000D01*
X148447619Y-81402380D01*
X148542857Y-81402380D01*
X148685714Y-81450000D01*
X148733333Y-81497619D01*
X149114285Y-82354761D02*
X149257142Y-82402380D01*
X149495238Y-82402380D01*
X149590476Y-82354761D01*
X149638095Y-82307142D01*
X149685714Y-82211904D01*
X149685714Y-82116666D01*
X149638095Y-82021428D01*
X149590476Y-81973809D01*
X149495238Y-81926190D01*
X149304761Y-81878571D01*
X149209523Y-81830952D01*
X149161904Y-81783333D01*
X149114285Y-81688095D01*
X149114285Y-81592857D01*
X149161904Y-81497619D01*
X149209523Y-81450000D01*
X149304761Y-81402380D01*
X149542857Y-81402380D01*
X149685714Y-81450000D01*
X146878571Y-79702380D02*
X146878571Y-78702380D01*
X147211904Y-79416666D01*
X147545238Y-78702380D01*
X147545238Y-79702380D01*
X148211904Y-78702380D02*
X148402380Y-78702380D01*
X148497619Y-78750000D01*
X148592857Y-78845238D01*
X148640476Y-79035714D01*
X148640476Y-79369047D01*
X148592857Y-79559523D01*
X148497619Y-79654761D01*
X148402380Y-79702380D01*
X148211904Y-79702380D01*
X148116666Y-79654761D01*
X148021428Y-79559523D01*
X147973809Y-79369047D01*
X147973809Y-79035714D01*
X148021428Y-78845238D01*
X148116666Y-78750000D01*
X148211904Y-78702380D01*
X149021428Y-79654761D02*
X149164285Y-79702380D01*
X149402380Y-79702380D01*
X149497619Y-79654761D01*
X149545238Y-79607142D01*
X149592857Y-79511904D01*
X149592857Y-79416666D01*
X149545238Y-79321428D01*
X149497619Y-79273809D01*
X149402380Y-79226190D01*
X149211904Y-79178571D01*
X149116666Y-79130952D01*
X149069047Y-79083333D01*
X149021428Y-78988095D01*
X149021428Y-78892857D01*
X149069047Y-78797619D01*
X149116666Y-78750000D01*
X149211904Y-78702380D01*
X149450000Y-78702380D01*
X149592857Y-78750000D01*
X150021428Y-79702380D02*
X150021428Y-78702380D01*
X147189285Y-77279761D02*
X147332142Y-77327380D01*
X147570238Y-77327380D01*
X147665476Y-77279761D01*
X147713095Y-77232142D01*
X147760714Y-77136904D01*
X147760714Y-77041666D01*
X147713095Y-76946428D01*
X147665476Y-76898809D01*
X147570238Y-76851190D01*
X147379761Y-76803571D01*
X147284523Y-76755952D01*
X147236904Y-76708333D01*
X147189285Y-76613095D01*
X147189285Y-76517857D01*
X147236904Y-76422619D01*
X147284523Y-76375000D01*
X147379761Y-76327380D01*
X147617857Y-76327380D01*
X147760714Y-76375000D01*
X148760714Y-77232142D02*
X148713095Y-77279761D01*
X148570238Y-77327380D01*
X148475000Y-77327380D01*
X148332142Y-77279761D01*
X148236904Y-77184523D01*
X148189285Y-77089285D01*
X148141666Y-76898809D01*
X148141666Y-76755952D01*
X148189285Y-76565476D01*
X148236904Y-76470238D01*
X148332142Y-76375000D01*
X148475000Y-76327380D01*
X148570238Y-76327380D01*
X148713095Y-76375000D01*
X148760714Y-76422619D01*
X149189285Y-77327380D02*
X149189285Y-76327380D01*
X149760714Y-77327380D02*
X149332142Y-76755952D01*
X149760714Y-76327380D02*
X149189285Y-76898809D01*
X146728571Y-74727380D02*
X146728571Y-73727380D01*
X147061904Y-74441666D01*
X147395238Y-73727380D01*
X147395238Y-74727380D01*
X147871428Y-74727380D02*
X147871428Y-73727380D01*
X148300000Y-74679761D02*
X148442857Y-74727380D01*
X148680952Y-74727380D01*
X148776190Y-74679761D01*
X148823809Y-74632142D01*
X148871428Y-74536904D01*
X148871428Y-74441666D01*
X148823809Y-74346428D01*
X148776190Y-74298809D01*
X148680952Y-74251190D01*
X148490476Y-74203571D01*
X148395238Y-74155952D01*
X148347619Y-74108333D01*
X148300000Y-74013095D01*
X148300000Y-73917857D01*
X148347619Y-73822619D01*
X148395238Y-73775000D01*
X148490476Y-73727380D01*
X148728571Y-73727380D01*
X148871428Y-73775000D01*
X149490476Y-73727380D02*
X149680952Y-73727380D01*
X149776190Y-73775000D01*
X149871428Y-73870238D01*
X149919047Y-74060714D01*
X149919047Y-74394047D01*
X149871428Y-74584523D01*
X149776190Y-74679761D01*
X149680952Y-74727380D01*
X149490476Y-74727380D01*
X149395238Y-74679761D01*
X149300000Y-74584523D01*
X149252380Y-74394047D01*
X149252380Y-74060714D01*
X149300000Y-73870238D01*
X149395238Y-73775000D01*
X149490476Y-73727380D01*
X146603571Y-71721428D02*
X147365476Y-71721428D01*
X146984523Y-72102380D02*
X146984523Y-71340476D01*
X147746428Y-71102380D02*
X148365476Y-71102380D01*
X148032142Y-71483333D01*
X148175000Y-71483333D01*
X148270238Y-71530952D01*
X148317857Y-71578571D01*
X148365476Y-71673809D01*
X148365476Y-71911904D01*
X148317857Y-72007142D01*
X148270238Y-72054761D01*
X148175000Y-72102380D01*
X147889285Y-72102380D01*
X147794047Y-72054761D01*
X147746428Y-72007142D01*
X148794047Y-72007142D02*
X148841666Y-72054761D01*
X148794047Y-72102380D01*
X148746428Y-72054761D01*
X148794047Y-72007142D01*
X148794047Y-72102380D01*
X149175000Y-71102380D02*
X149794047Y-71102380D01*
X149460714Y-71483333D01*
X149603571Y-71483333D01*
X149698809Y-71530952D01*
X149746428Y-71578571D01*
X149794047Y-71673809D01*
X149794047Y-71911904D01*
X149746428Y-72007142D01*
X149698809Y-72054761D01*
X149603571Y-72102380D01*
X149317857Y-72102380D01*
X149222619Y-72054761D01*
X149175000Y-72007142D01*
X147838095Y-62625000D02*
X147742857Y-62577380D01*
X147600000Y-62577380D01*
X147457142Y-62625000D01*
X147361904Y-62720238D01*
X147314285Y-62815476D01*
X147266666Y-63005952D01*
X147266666Y-63148809D01*
X147314285Y-63339285D01*
X147361904Y-63434523D01*
X147457142Y-63529761D01*
X147600000Y-63577380D01*
X147695238Y-63577380D01*
X147838095Y-63529761D01*
X147885714Y-63482142D01*
X147885714Y-63148809D01*
X147695238Y-63148809D01*
X148314285Y-63577380D02*
X148314285Y-62577380D01*
X148885714Y-63577380D01*
X148885714Y-62577380D01*
X149361904Y-63577380D02*
X149361904Y-62577380D01*
X149600000Y-62577380D01*
X149742857Y-62625000D01*
X149838095Y-62720238D01*
X149885714Y-62815476D01*
X149933333Y-63005952D01*
X149933333Y-63148809D01*
X149885714Y-63339285D01*
X149838095Y-63434523D01*
X149742857Y-63529761D01*
X149600000Y-63577380D01*
X149361904Y-63577380D01*
X148858333Y-60827380D02*
X148525000Y-60351190D01*
X148286904Y-60827380D02*
X148286904Y-59827380D01*
X148667857Y-59827380D01*
X148763095Y-59875000D01*
X148810714Y-59922619D01*
X148858333Y-60017857D01*
X148858333Y-60160714D01*
X148810714Y-60255952D01*
X148763095Y-60303571D01*
X148667857Y-60351190D01*
X148286904Y-60351190D01*
X149191666Y-59827380D02*
X149858333Y-60827380D01*
X149858333Y-59827380D02*
X149191666Y-60827380D01*
X148413095Y-57402380D02*
X148984523Y-57402380D01*
X148698809Y-58402380D02*
X148698809Y-57402380D01*
X149222619Y-57402380D02*
X149889285Y-58402380D01*
X149889285Y-57402380D02*
X149222619Y-58402380D01*
X148528571Y-53421428D02*
X149290476Y-53421428D01*
X148909523Y-53802380D02*
X148909523Y-53040476D01*
X149671428Y-52802380D02*
X150290476Y-52802380D01*
X149957142Y-53183333D01*
X150100000Y-53183333D01*
X150195238Y-53230952D01*
X150242857Y-53278571D01*
X150290476Y-53373809D01*
X150290476Y-53611904D01*
X150242857Y-53707142D01*
X150195238Y-53754761D01*
X150100000Y-53802380D01*
X149814285Y-53802380D01*
X149719047Y-53754761D01*
X149671428Y-53707142D01*
X150719047Y-53707142D02*
X150766666Y-53754761D01*
X150719047Y-53802380D01*
X150671428Y-53754761D01*
X150719047Y-53707142D01*
X150719047Y-53802380D01*
X151100000Y-52802380D02*
X151719047Y-52802380D01*
X151385714Y-53183333D01*
X151528571Y-53183333D01*
X151623809Y-53230952D01*
X151671428Y-53278571D01*
X151719047Y-53373809D01*
X151719047Y-53611904D01*
X151671428Y-53707142D01*
X151623809Y-53754761D01*
X151528571Y-53802380D01*
X151242857Y-53802380D01*
X151147619Y-53754761D01*
X151100000Y-53707142D01*
X146402380Y-80040476D02*
X145926190Y-80373809D01*
X146402380Y-80611904D02*
X145402380Y-80611904D01*
X145402380Y-80230952D01*
X145450000Y-80135714D01*
X145497619Y-80088095D01*
X145592857Y-80040476D01*
X145735714Y-80040476D01*
X145830952Y-80088095D01*
X145878571Y-80135714D01*
X145926190Y-80230952D01*
X145926190Y-80611904D01*
X146402380Y-79611904D02*
X145402380Y-79611904D01*
X146402380Y-79040476D01*
X145402380Y-79040476D01*
X146402380Y-78040476D02*
X146402380Y-78611904D01*
X146402380Y-78326190D02*
X145402380Y-78326190D01*
X145545238Y-78421428D01*
X145640476Y-78516666D01*
X145688095Y-78611904D01*
D11*
X123129523Y-54428333D02*
X124036666Y-54428333D01*
X124218095Y-54488809D01*
X124339047Y-54609761D01*
X124399523Y-54791190D01*
X124399523Y-54912142D01*
X123552857Y-53279285D02*
X124399523Y-53279285D01*
X123069047Y-53581666D02*
X123976190Y-53884047D01*
X123976190Y-53097857D01*
D10*
X155426666Y-68832380D02*
X155426666Y-69546666D01*
X155379047Y-69689523D01*
X155283809Y-69784761D01*
X155140952Y-69832380D01*
X155045714Y-69832380D01*
X155855238Y-68927619D02*
X155902857Y-68880000D01*
X155998095Y-68832380D01*
X156236190Y-68832380D01*
X156331428Y-68880000D01*
X156379047Y-68927619D01*
X156426666Y-69022857D01*
X156426666Y-69118095D01*
X156379047Y-69260952D01*
X155807619Y-69832380D01*
X156426666Y-69832380D01*
X147657142Y-53266666D02*
X147704761Y-53314285D01*
X147752380Y-53457142D01*
X147752380Y-53552380D01*
X147704761Y-53695238D01*
X147609523Y-53790476D01*
X147514285Y-53838095D01*
X147323809Y-53885714D01*
X147180952Y-53885714D01*
X146990476Y-53838095D01*
X146895238Y-53790476D01*
X146800000Y-53695238D01*
X146752380Y-53552380D01*
X146752380Y-53457142D01*
X146800000Y-53314285D01*
X146847619Y-53266666D01*
X146847619Y-52885714D02*
X146800000Y-52838095D01*
X146752380Y-52742857D01*
X146752380Y-52504761D01*
X146800000Y-52409523D01*
X146847619Y-52361904D01*
X146942857Y-52314285D01*
X147038095Y-52314285D01*
X147180952Y-52361904D01*
X147752380Y-52933333D01*
X147752380Y-52314285D01*
X134350333Y-54490142D02*
X134302714Y-54537761D01*
X134159857Y-54585380D01*
X134064619Y-54585380D01*
X133921761Y-54537761D01*
X133826523Y-54442523D01*
X133778904Y-54347285D01*
X133731285Y-54156809D01*
X133731285Y-54013952D01*
X133778904Y-53823476D01*
X133826523Y-53728238D01*
X133921761Y-53633000D01*
X134064619Y-53585380D01*
X134159857Y-53585380D01*
X134302714Y-53633000D01*
X134350333Y-53680619D01*
X135302714Y-54585380D02*
X134731285Y-54585380D01*
X135017000Y-54585380D02*
X135017000Y-53585380D01*
X134921761Y-53728238D01*
X134826523Y-53823476D01*
X134731285Y-53871095D01*
X143808333Y-62282142D02*
X143760714Y-62329761D01*
X143617857Y-62377380D01*
X143522619Y-62377380D01*
X143379761Y-62329761D01*
X143284523Y-62234523D01*
X143236904Y-62139285D01*
X143189285Y-61948809D01*
X143189285Y-61805952D01*
X143236904Y-61615476D01*
X143284523Y-61520238D01*
X143379761Y-61425000D01*
X143522619Y-61377380D01*
X143617857Y-61377380D01*
X143760714Y-61425000D01*
X143808333Y-61472619D01*
X144713095Y-61377380D02*
X144236904Y-61377380D01*
X144189285Y-61853571D01*
X144236904Y-61805952D01*
X144332142Y-61758333D01*
X144570238Y-61758333D01*
X144665476Y-61805952D01*
X144713095Y-61853571D01*
X144760714Y-61948809D01*
X144760714Y-62186904D01*
X144713095Y-62282142D01*
X144665476Y-62329761D01*
X144570238Y-62377380D01*
X144332142Y-62377380D01*
X144236904Y-62329761D01*
X144189285Y-62282142D01*
X136607142Y-59366666D02*
X136654761Y-59414285D01*
X136702380Y-59557142D01*
X136702380Y-59652380D01*
X136654761Y-59795238D01*
X136559523Y-59890476D01*
X136464285Y-59938095D01*
X136273809Y-59985714D01*
X136130952Y-59985714D01*
X135940476Y-59938095D01*
X135845238Y-59890476D01*
X135750000Y-59795238D01*
X135702380Y-59652380D01*
X135702380Y-59557142D01*
X135750000Y-59414285D01*
X135797619Y-59366666D01*
X135702380Y-59033333D02*
X135702380Y-58414285D01*
X136083333Y-58747619D01*
X136083333Y-58604761D01*
X136130952Y-58509523D01*
X136178571Y-58461904D01*
X136273809Y-58414285D01*
X136511904Y-58414285D01*
X136607142Y-58461904D01*
X136654761Y-58509523D01*
X136702380Y-58604761D01*
X136702380Y-58890476D01*
X136654761Y-58985714D01*
X136607142Y-59033333D01*
X137763095Y-61102380D02*
X137763095Y-61911904D01*
X137810714Y-62007142D01*
X137858333Y-62054761D01*
X137953571Y-62102380D01*
X138144047Y-62102380D01*
X138239285Y-62054761D01*
X138286904Y-62007142D01*
X138334523Y-61911904D01*
X138334523Y-61102380D01*
X139334523Y-62102380D02*
X138763095Y-62102380D01*
X139048809Y-62102380D02*
X139048809Y-61102380D01*
X138953571Y-61245238D01*
X138858333Y-61340476D01*
X138763095Y-61388095D01*
D11*
X128804523Y-81673333D02*
X129711666Y-81673333D01*
X129893095Y-81733809D01*
X130014047Y-81854761D01*
X130074523Y-82036190D01*
X130074523Y-82157142D01*
X128804523Y-81189523D02*
X128804523Y-80403333D01*
X129288333Y-80826666D01*
X129288333Y-80645238D01*
X129348809Y-80524285D01*
X129409285Y-80463809D01*
X129530238Y-80403333D01*
X129832619Y-80403333D01*
X129953571Y-80463809D01*
X130014047Y-80524285D01*
X130074523Y-80645238D01*
X130074523Y-81008095D01*
X130014047Y-81129047D01*
X129953571Y-81189523D01*
D10*
X143065333Y-54455142D02*
X143017714Y-54502761D01*
X142874857Y-54550380D01*
X142779619Y-54550380D01*
X142636761Y-54502761D01*
X142541523Y-54407523D01*
X142493904Y-54312285D01*
X142446285Y-54121809D01*
X142446285Y-53978952D01*
X142493904Y-53788476D01*
X142541523Y-53693238D01*
X142636761Y-53598000D01*
X142779619Y-53550380D01*
X142874857Y-53550380D01*
X143017714Y-53598000D01*
X143065333Y-53645619D01*
X143922476Y-53883714D02*
X143922476Y-54550380D01*
X143684380Y-53502761D02*
X143446285Y-54217047D01*
X144065333Y-54217047D01*
X155234666Y-52499380D02*
X155234666Y-53213666D01*
X155187047Y-53356523D01*
X155091809Y-53451761D01*
X154948952Y-53499380D01*
X154853714Y-53499380D01*
X156234666Y-53499380D02*
X155663238Y-53499380D01*
X155948952Y-53499380D02*
X155948952Y-52499380D01*
X155853714Y-52642238D01*
X155758476Y-52737476D01*
X155663238Y-52785095D01*
D12*
X144950000Y-71560000D02*
X142150000Y-71560000D01*
X144950000Y-74270000D02*
X142150000Y-74270000D01*
X144950000Y-84600000D02*
X144950000Y-71560000D01*
X142150000Y-84600000D02*
X144950000Y-84600000D01*
X142150000Y-71560000D02*
X142150000Y-84600000D01*
D13*
X120830000Y-62322000D02*
X114920000Y-62322000D01*
X120830000Y-69425000D02*
X126720000Y-69425000D01*
D14*
X133250000Y-59550000D02*
X133250000Y-59550000D01*
D13*
X120830000Y-38585000D02*
X120830000Y-69425000D01*
D14*
X133150000Y-59550000D02*
X133150000Y-59550000D01*
D13*
X114920000Y-62322000D02*
X114920000Y-45688000D01*
X126720000Y-38585000D02*
X120830000Y-38585000D01*
X114920000Y-45688000D02*
X120820000Y-45688000D01*
D14*
X133250000Y-59550000D02*
G75*
G03*
X133150000Y-59550000I-50000J0D01*
G01*
X133150000Y-59550000D02*
G75*
G03*
X133250000Y-59550000I50000J0D01*
G01*
D12*
X155475000Y-83970000D02*
X161475000Y-83970000D01*
X161475000Y-78890000D02*
X161475000Y-79650000D01*
X161475000Y-79650000D02*
X155475000Y-79650000D01*
X152815000Y-85680000D02*
X155475000Y-85680000D01*
X152417929Y-77110000D02*
X152815000Y-77110000D01*
X155475000Y-71690000D02*
X161475000Y-71690000D01*
X155475000Y-76350000D02*
X161475000Y-76350000D01*
X152417929Y-79650000D02*
X152815000Y-79650000D01*
X155475000Y-71270000D02*
X161475000Y-71270000D01*
X155475000Y-70320000D02*
X152815000Y-70320000D01*
X152815000Y-75460000D02*
X155475000Y-75460000D01*
X152815000Y-72920000D02*
X155475000Y-72920000D01*
X152417929Y-81430000D02*
X152815000Y-81430000D01*
X161475000Y-82190000D02*
X155475000Y-82190000D01*
X155475000Y-85680000D02*
X155475000Y-70320000D01*
X150105000Y-71650000D02*
X150105000Y-70380000D01*
X150105000Y-70380000D02*
X151375000Y-70380000D01*
X161475000Y-71270000D02*
X161475000Y-72030000D01*
X155475000Y-71930000D02*
X161475000Y-71930000D01*
X152815000Y-70320000D02*
X152815000Y-85680000D01*
X152417929Y-73810000D02*
X152815000Y-73810000D01*
X161475000Y-72030000D02*
X155475000Y-72030000D01*
X161475000Y-76350000D02*
X161475000Y-77110000D01*
X161475000Y-81430000D02*
X161475000Y-82190000D01*
X152485000Y-71270000D02*
X152815000Y-71270000D01*
X155475000Y-71450000D02*
X161475000Y-71450000D01*
X161475000Y-77110000D02*
X155475000Y-77110000D01*
X155475000Y-71330000D02*
X161475000Y-71330000D01*
X152815000Y-80540000D02*
X155475000Y-80540000D01*
X152417929Y-74570000D02*
X152815000Y-74570000D01*
X152815000Y-78000000D02*
X155475000Y-78000000D01*
X155475000Y-78890000D02*
X161475000Y-78890000D01*
X161475000Y-84730000D02*
X155475000Y-84730000D01*
X152485000Y-72030000D02*
X152815000Y-72030000D01*
X152815000Y-83080000D02*
X155475000Y-83080000D01*
X161475000Y-73810000D02*
X161475000Y-74570000D01*
X152417929Y-83970000D02*
X152815000Y-83970000D01*
X155475000Y-81430000D02*
X161475000Y-81430000D01*
X152417929Y-78890000D02*
X152815000Y-78890000D01*
X152417929Y-82190000D02*
X152815000Y-82190000D01*
X155475000Y-71810000D02*
X161475000Y-71810000D01*
X161475000Y-83970000D02*
X161475000Y-84730000D01*
X152417929Y-84730000D02*
X152815000Y-84730000D01*
X155475000Y-73810000D02*
X161475000Y-73810000D01*
X152417929Y-76350000D02*
X152815000Y-76350000D01*
X161475000Y-74570000D02*
X155475000Y-74570000D01*
X155475000Y-71570000D02*
X161475000Y-71570000D01*
X147718000Y-55583233D02*
X147718000Y-55875767D01*
X146698000Y-55583233D02*
X146698000Y-55875767D01*
X137258767Y-54635000D02*
X136966233Y-54635000D01*
X137258767Y-53615000D02*
X136966233Y-53615000D01*
X141174233Y-61332000D02*
X141466767Y-61332000D01*
X141174233Y-62352000D02*
X141466767Y-62352000D01*
X135698000Y-56558233D02*
X135698000Y-56850767D01*
X136718000Y-56558233D02*
X136718000Y-56850767D01*
X141708000Y-55357000D02*
X138108000Y-55357000D01*
X141708000Y-55357000D02*
X143908000Y-55357000D01*
X141708000Y-60827000D02*
X143908000Y-60827000D01*
X141708000Y-60827000D02*
X139508000Y-60827000D01*
D13*
X125839000Y-88850000D02*
X125839000Y-88850000D01*
X137337000Y-78750000D02*
X137337000Y-80750000D01*
X125839000Y-89050000D02*
X125839000Y-89050000D01*
X137337000Y-74250000D02*
X125237000Y-74250000D01*
X137337000Y-74750000D02*
X137337000Y-74250000D01*
X124237000Y-88250000D02*
X137337000Y-88250000D01*
X122138000Y-74250000D02*
X122138000Y-86250000D01*
X137337000Y-88250000D02*
X137337000Y-83250000D01*
X125839000Y-89050000D02*
G75*
G03*
X125840000Y-88850000I500J100000D01*
G01*
X125839000Y-88850000D02*
G75*
G03*
X125840000Y-89050000I500J-100000D01*
G01*
D12*
X140748767Y-53630000D02*
X140456233Y-53630000D01*
X140748767Y-54650000D02*
X140456233Y-54650000D01*
X155283000Y-55477000D02*
X161283000Y-55477000D01*
X155283000Y-54937000D02*
X161283000Y-54937000D01*
X152623000Y-64267000D02*
X155283000Y-64267000D01*
X161283000Y-60777000D02*
X155283000Y-60777000D01*
X161283000Y-57477000D02*
X161283000Y-58237000D01*
X155283000Y-55597000D02*
X161283000Y-55597000D01*
X152623000Y-59127000D02*
X155283000Y-59127000D01*
X152225929Y-57477000D02*
X152623000Y-57477000D01*
X155283000Y-55357000D02*
X161283000Y-55357000D01*
X152225929Y-60777000D02*
X152623000Y-60777000D01*
X149913000Y-55317000D02*
X149913000Y-54047000D01*
X152225929Y-62557000D02*
X152623000Y-62557000D01*
X152623000Y-56587000D02*
X155283000Y-56587000D01*
X155283000Y-55237000D02*
X161283000Y-55237000D01*
X152225929Y-58237000D02*
X152623000Y-58237000D01*
X161283000Y-54937000D02*
X161283000Y-55697000D01*
X152293000Y-55697000D02*
X152623000Y-55697000D01*
X152293000Y-54937000D02*
X152623000Y-54937000D01*
X155283000Y-64267000D02*
X155283000Y-53987000D01*
X152623000Y-61667000D02*
X155283000Y-61667000D01*
X155283000Y-55117000D02*
X161283000Y-55117000D01*
X155283000Y-53987000D02*
X152623000Y-53987000D01*
X155283000Y-62557000D02*
X161283000Y-62557000D01*
X161283000Y-63317000D02*
X155283000Y-63317000D01*
X161283000Y-58237000D02*
X155283000Y-58237000D01*
X155283000Y-54997000D02*
X161283000Y-54997000D01*
X152623000Y-53987000D02*
X152623000Y-64267000D01*
X152225929Y-63317000D02*
X152623000Y-63317000D01*
X149913000Y-54047000D02*
X151183000Y-54047000D01*
X155283000Y-57477000D02*
X161283000Y-57477000D01*
X152225929Y-60017000D02*
X152623000Y-60017000D01*
X161283000Y-55697000D02*
X155283000Y-55697000D01*
X155283000Y-60017000D02*
X161283000Y-60017000D01*
X161283000Y-62557000D02*
X161283000Y-63317000D01*
X161283000Y-60017000D02*
X161283000Y-60777000D01*
%LPC*%
D15*
X124275000Y-93575000D03*
D16*
X143550000Y-73000000D03*
D17*
X143550000Y-75540000D03*
X143550000Y-78080000D03*
X143550000Y-80620000D03*
X143550000Y-83160000D03*
D18*
X131750000Y-59550000D03*
D19*
X131750000Y-56778000D03*
X131750000Y-54005000D03*
X131750000Y-51233000D03*
X131750000Y-48460000D03*
X128910000Y-58164000D03*
X128910000Y-55391000D03*
X128910000Y-52619000D03*
X128910000Y-49846000D03*
D20*
X130330000Y-66500000D03*
X130330000Y-41510000D03*
D21*
X151375000Y-71650000D03*
D22*
X151375000Y-74190000D03*
X151375000Y-76730000D03*
X151375000Y-79270000D03*
X151375000Y-81810000D03*
X151375000Y-84350000D03*
D15*
X152250000Y-93500000D03*
X151875000Y-34200000D03*
D23*
X147208000Y-54867000D03*
X147208000Y-56592000D03*
D24*
X137975000Y-54125000D03*
X136250000Y-54125000D03*
D25*
X140458000Y-61842000D03*
X142183000Y-61842000D03*
D23*
X136208000Y-55842000D03*
X136208000Y-57567000D03*
D26*
X138845500Y-55817000D03*
X138845500Y-56467000D03*
X138845500Y-57117000D03*
X138845500Y-57767000D03*
X138845500Y-58417000D03*
X138845500Y-59067000D03*
X138845500Y-59717000D03*
X138845500Y-60367000D03*
X144570500Y-60367000D03*
X144570500Y-59717000D03*
X144570500Y-59067000D03*
X144570500Y-58417000D03*
X144570500Y-57767000D03*
X144570500Y-57117000D03*
X144570500Y-56467000D03*
X144570500Y-55817000D03*
D15*
X125000000Y-34080000D03*
D27*
X136699000Y-76275000D03*
D28*
X136925000Y-77665000D03*
D27*
X136699000Y-81975000D03*
D29*
X123550000Y-74675000D03*
X122550000Y-87825000D03*
D30*
X125839000Y-83165000D03*
X126239000Y-82065000D03*
X125839000Y-80965000D03*
X125639000Y-79865000D03*
X125839000Y-78765000D03*
X125639000Y-77665000D03*
X125839000Y-76565000D03*
X125839000Y-75465000D03*
D24*
X141465000Y-54140000D03*
X139740000Y-54140000D03*
D21*
X151183000Y-55317000D03*
D22*
X151183000Y-57857000D03*
X151183000Y-60397000D03*
X151183000Y-62937000D03*
M02*
