%TF.GenerationSoftware,KiCad,Pcbnew,(6.0.9)*%
%TF.CreationDate,2022-11-23T00:56:14+01:00*%
%TF.ProjectId,Testapparaat_io,54657374-6170-4706-9172-6161745f696f,rev?*%
%TF.SameCoordinates,Original*%
%TF.FileFunction,Copper,L1,Top*%
%TF.FilePolarity,Positive*%
%FSLAX46Y46*%
G04 Gerber Fmt 4.6, Leading zero omitted, Abs format (unit mm)*
G04 Created by KiCad (PCBNEW (6.0.9)) date 2022-11-23 00:56:14*
%MOMM*%
%LPD*%
G01*
G04 APERTURE LIST*
G04 Aperture macros list*
%AMRoundRect*
0 Rectangle with rounded corners*
0 $1 Rounding radius*
0 $2 $3 $4 $5 $6 $7 $8 $9 X,Y pos of 4 corners*
0 Add a 4 corners polygon primitive as box body*
4,1,4,$2,$3,$4,$5,$6,$7,$8,$9,$2,$3,0*
0 Add four circle primitives for the rounded corners*
1,1,$1+$1,$2,$3*
1,1,$1+$1,$4,$5*
1,1,$1+$1,$6,$7*
1,1,$1+$1,$8,$9*
0 Add four rect primitives between the rounded corners*
20,1,$1+$1,$2,$3,$4,$5,0*
20,1,$1+$1,$4,$5,$6,$7,0*
20,1,$1+$1,$6,$7,$8,$9,0*
20,1,$1+$1,$8,$9,$2,$3,0*%
G04 Aperture macros list end*
%TA.AperFunction,ComponentPad*%
%ADD10R,1.600000X1.600000*%
%TD*%
%TA.AperFunction,ComponentPad*%
%ADD11O,1.600000X1.600000*%
%TD*%
%TA.AperFunction,ComponentPad*%
%ADD12R,1.500000X1.500000*%
%TD*%
%TA.AperFunction,ComponentPad*%
%ADD13C,1.500000*%
%TD*%
%TA.AperFunction,ComponentPad*%
%ADD14C,4.800000*%
%TD*%
%TA.AperFunction,ComponentPad*%
%ADD15R,1.700000X1.700000*%
%TD*%
%TA.AperFunction,ComponentPad*%
%ADD16O,1.700000X1.700000*%
%TD*%
%TA.AperFunction,SMDPad,CuDef*%
%ADD17RoundRect,0.237500X-0.237500X0.300000X-0.237500X-0.300000X0.237500X-0.300000X0.237500X0.300000X0*%
%TD*%
%TA.AperFunction,SMDPad,CuDef*%
%ADD18RoundRect,0.237500X0.300000X0.237500X-0.300000X0.237500X-0.300000X-0.237500X0.300000X-0.237500X0*%
%TD*%
%TA.AperFunction,SMDPad,CuDef*%
%ADD19RoundRect,0.237500X-0.300000X-0.237500X0.300000X-0.237500X0.300000X0.237500X-0.300000X0.237500X0*%
%TD*%
%TA.AperFunction,SMDPad,CuDef*%
%ADD20RoundRect,0.100000X-0.637500X-0.100000X0.637500X-0.100000X0.637500X0.100000X-0.637500X0.100000X0*%
%TD*%
%TA.AperFunction,SMDPad,CuDef*%
%ADD21R,1.400000X1.300000*%
%TD*%
%TA.AperFunction,SMDPad,CuDef*%
%ADD22R,0.950000X1.000000*%
%TD*%
%TA.AperFunction,SMDPad,CuDef*%
%ADD23R,1.900000X1.400000*%
%TD*%
%TA.AperFunction,SMDPad,CuDef*%
%ADD24R,1.500000X0.800000*%
%TD*%
%TA.AperFunction,ViaPad*%
%ADD25C,0.800000*%
%TD*%
%TA.AperFunction,Conductor*%
%ADD26C,0.250000*%
%TD*%
G04 APERTURE END LIST*
D10*
X143550000Y-73000000D03*
D11*
X143550000Y-75540000D03*
X143550000Y-78080000D03*
X143550000Y-80620000D03*
X143550000Y-83160000D03*
D12*
X131750000Y-59550000D03*
D13*
X131750000Y-56778000D03*
X131750000Y-54005000D03*
X131750000Y-51233000D03*
X131750000Y-48460000D03*
X128910000Y-58164000D03*
X128910000Y-55391000D03*
X128910000Y-52619000D03*
X128910000Y-49846000D03*
D14*
X130330000Y-66500000D03*
X130330000Y-41510000D03*
D15*
X151375000Y-71650000D03*
D16*
X151375000Y-74190000D03*
X151375000Y-76730000D03*
X151375000Y-79270000D03*
X151375000Y-81810000D03*
X151375000Y-84350000D03*
D17*
X147208000Y-54867000D03*
X147208000Y-56592000D03*
D18*
X137975000Y-54125000D03*
X136250000Y-54125000D03*
D19*
X140458000Y-61842000D03*
X142183000Y-61842000D03*
D17*
X136208000Y-55842000D03*
X136208000Y-57567000D03*
D20*
X138845500Y-55817000D03*
X138845500Y-56467000D03*
X138845500Y-57117000D03*
X138845500Y-57767000D03*
X138845500Y-58417000D03*
X138845500Y-59067000D03*
X138845500Y-59717000D03*
X138845500Y-60367000D03*
X144570500Y-60367000D03*
X144570500Y-59717000D03*
X144570500Y-59067000D03*
X144570500Y-58417000D03*
X144570500Y-57767000D03*
X144570500Y-57117000D03*
X144570500Y-56467000D03*
X144570500Y-55817000D03*
D21*
X136699000Y-76275000D03*
D22*
X136925000Y-77665000D03*
D21*
X136699000Y-81975000D03*
D23*
X123550000Y-74675000D03*
X122550000Y-87825000D03*
D24*
X125839000Y-83165000D03*
X126239000Y-82065000D03*
X125839000Y-80965000D03*
X125639000Y-79865000D03*
X125839000Y-78765000D03*
X125639000Y-77665000D03*
X125839000Y-76565000D03*
X125839000Y-75465000D03*
D18*
X141465000Y-54140000D03*
X139740000Y-54140000D03*
D15*
X151183000Y-55317000D03*
D16*
X151183000Y-57857000D03*
X151183000Y-60397000D03*
X151183000Y-62937000D03*
D25*
X131400000Y-80150000D03*
X129850000Y-77500000D03*
X130050000Y-82000000D03*
X128050000Y-82100000D03*
D26*
X130433000Y-55817000D02*
X131110000Y-55140000D01*
X131750000Y-54005000D02*
X131750000Y-54500000D01*
X131750000Y-54500000D02*
X131110000Y-55140000D01*
X138845500Y-60367000D02*
X136233000Y-60367000D01*
X136233000Y-60367000D02*
X133966000Y-58100000D01*
X133966000Y-58100000D02*
X131180000Y-58100000D01*
X131180000Y-58100000D02*
X130433000Y-57353000D01*
X130433000Y-57353000D02*
X130433000Y-55817000D01*
X131933000Y-54567000D02*
X131933000Y-53772000D01*
X138845500Y-55229500D02*
X137958000Y-54342000D01*
X138845500Y-55817000D02*
X138845500Y-55229500D01*
X138156959Y-57117000D02*
X137008000Y-55968041D01*
X138845500Y-57117000D02*
X138156959Y-57117000D01*
X137008000Y-55968041D02*
X137008000Y-55117000D01*
X137008000Y-55117000D02*
X136233000Y-54342000D01*
X128600000Y-80100000D02*
X131350000Y-80100000D01*
X151375000Y-70375000D02*
X153750000Y-68000000D01*
X147658000Y-55317000D02*
X147208000Y-54867000D01*
X151375000Y-71650000D02*
X151375000Y-70375000D01*
X128600000Y-80100000D02*
X128365000Y-79865000D01*
X153750000Y-68000000D02*
X153750000Y-57884000D01*
X153750000Y-57884000D02*
X151183000Y-55317000D01*
X147208000Y-54867000D02*
X146258000Y-55817000D01*
X131350000Y-80100000D02*
X131400000Y-80150000D01*
X128365000Y-79865000D02*
X125639000Y-79865000D01*
X146258000Y-55817000D02*
X144570500Y-55817000D01*
X151183000Y-55317000D02*
X147658000Y-55317000D01*
X125639000Y-77665000D02*
X129685000Y-77665000D01*
X144570500Y-56467000D02*
X142833000Y-56467000D01*
X142617000Y-59067000D02*
X142617000Y-58733000D01*
X144570500Y-56467000D02*
X147083000Y-56467000D01*
X129685000Y-77665000D02*
X129850000Y-77500000D01*
X147083000Y-56467000D02*
X147208000Y-56592000D01*
X142617000Y-56683000D02*
X142617000Y-58733000D01*
X144570500Y-59067000D02*
X142617000Y-59067000D01*
X143583000Y-57767000D02*
X144570500Y-57767000D01*
X142617000Y-58733000D02*
X143583000Y-57767000D01*
X142833000Y-56467000D02*
X142617000Y-56683000D01*
X136958000Y-56592000D02*
X136208000Y-55842000D01*
X137733000Y-57767000D02*
X136958000Y-56992000D01*
X138845500Y-57767000D02*
X137733000Y-57767000D01*
X136958000Y-56992000D02*
X136958000Y-56592000D01*
X137058000Y-58417000D02*
X136208000Y-57567000D01*
X138845500Y-58417000D02*
X137058000Y-58417000D01*
X138845500Y-56467000D02*
X139833000Y-56467000D01*
X140083000Y-56217000D02*
X140083000Y-54692000D01*
X140083000Y-54692000D02*
X139733000Y-54342000D01*
X139833000Y-56467000D02*
X140083000Y-56217000D01*
X138845500Y-59067000D02*
X139933000Y-59067000D01*
X140458000Y-59592000D02*
X140458000Y-61842000D01*
X139933000Y-59067000D02*
X140458000Y-59592000D01*
X151183000Y-57857000D02*
X149323000Y-59717000D01*
X149323000Y-59717000D02*
X144570500Y-59717000D01*
X151183000Y-60397000D02*
X144600500Y-60397000D01*
X144600500Y-60397000D02*
X144570500Y-60367000D01*
X138695000Y-81745000D02*
X137915000Y-80965000D01*
X137915000Y-80965000D02*
X125839000Y-80965000D01*
X151375000Y-79270000D02*
X148900000Y-81745000D01*
X148900000Y-81745000D02*
X138695000Y-81745000D01*
X143550000Y-78080000D02*
X142230000Y-78080000D01*
X142230000Y-78080000D02*
X139300000Y-75150000D01*
X128950000Y-75150000D02*
X127535000Y-76565000D01*
X127535000Y-76565000D02*
X125839000Y-76565000D01*
X147485000Y-78080000D02*
X151375000Y-74190000D01*
X139300000Y-75150000D02*
X128950000Y-75150000D01*
X143550000Y-78080000D02*
X147485000Y-78080000D01*
X151375000Y-76730000D02*
X148855000Y-79250000D01*
X148855000Y-79250000D02*
X127324000Y-79250000D01*
X126839000Y-78765000D02*
X125839000Y-78765000D01*
X127324000Y-79250000D02*
X126839000Y-78765000D01*
X126239000Y-82065000D02*
X128015000Y-82065000D01*
X128015000Y-82065000D02*
X128050000Y-82100000D01*
X142040000Y-75540000D02*
X140650000Y-74150000D01*
X140650000Y-74150000D02*
X127154000Y-74150000D01*
X143550000Y-75540000D02*
X142040000Y-75540000D01*
X127154000Y-74150000D02*
X125839000Y-75465000D01*
X137025005Y-59717000D02*
X138845500Y-59717000D01*
X133911000Y-56602995D02*
X137025005Y-59717000D01*
X131933000Y-56545000D02*
X133911000Y-56545000D01*
X133911000Y-56545000D02*
X133911000Y-56602995D01*
X127683000Y-51567000D02*
X128250000Y-51000000D01*
X127683000Y-56521000D02*
X127683000Y-51567000D01*
X129093000Y-57931000D02*
X127683000Y-56521000D01*
X128250000Y-51000000D02*
X131933000Y-51000000D01*
X129093000Y-55158000D02*
X129093000Y-52386000D01*
X143550000Y-83160000D02*
X125844000Y-83160000D01*
X125844000Y-83160000D02*
X125839000Y-83165000D01*
%TA.AperFunction,Conductor*%
G36*
X154933139Y-31228502D02*
G01*
X154979632Y-31282158D01*
X154991018Y-31334596D01*
X154973084Y-54953939D01*
X154942172Y-95665755D01*
X154941982Y-95915596D01*
X154921928Y-95983701D01*
X154868237Y-96030153D01*
X154815982Y-96041500D01*
X121585460Y-96041500D01*
X121517339Y-96021498D01*
X121470846Y-95967842D01*
X121459460Y-95915309D01*
X121462800Y-93707703D01*
X122165743Y-93707703D01*
X122203268Y-93992734D01*
X122279129Y-94270036D01*
X122280813Y-94273984D01*
X122369881Y-94482799D01*
X122391923Y-94534476D01*
X122403693Y-94554142D01*
X122496678Y-94709508D01*
X122539561Y-94781161D01*
X122719313Y-95005528D01*
X122927851Y-95203423D01*
X123161317Y-95371186D01*
X123165112Y-95373195D01*
X123165113Y-95373196D01*
X123186869Y-95384715D01*
X123415392Y-95505712D01*
X123550383Y-95555112D01*
X123653929Y-95593004D01*
X123685373Y-95604511D01*
X123966264Y-95665755D01*
X123994841Y-95668004D01*
X124189282Y-95683307D01*
X124189291Y-95683307D01*
X124191739Y-95683500D01*
X124347271Y-95683500D01*
X124349407Y-95683354D01*
X124349418Y-95683354D01*
X124557548Y-95669165D01*
X124557554Y-95669164D01*
X124561825Y-95668873D01*
X124566020Y-95668004D01*
X124566022Y-95668004D01*
X124702583Y-95639724D01*
X124843342Y-95610574D01*
X125114343Y-95514607D01*
X125369812Y-95382750D01*
X125373313Y-95380289D01*
X125373317Y-95380287D01*
X125496547Y-95293679D01*
X125605023Y-95217441D01*
X125815622Y-95021740D01*
X125997713Y-94799268D01*
X126147927Y-94554142D01*
X126189483Y-94459476D01*
X126261757Y-94294830D01*
X126263483Y-94290898D01*
X126342244Y-94014406D01*
X126382751Y-93729784D01*
X126382845Y-93711951D01*
X126383260Y-93632703D01*
X150140743Y-93632703D01*
X150178268Y-93917734D01*
X150254129Y-94195036D01*
X150366923Y-94459476D01*
X150514561Y-94706161D01*
X150694313Y-94930528D01*
X150902851Y-95128423D01*
X151136317Y-95296186D01*
X151140112Y-95298195D01*
X151140113Y-95298196D01*
X151161869Y-95309715D01*
X151390392Y-95430712D01*
X151414699Y-95439607D01*
X151614274Y-95512641D01*
X151660373Y-95529511D01*
X151941264Y-95590755D01*
X151969841Y-95593004D01*
X152164282Y-95608307D01*
X152164291Y-95608307D01*
X152166739Y-95608500D01*
X152322271Y-95608500D01*
X152324407Y-95608354D01*
X152324418Y-95608354D01*
X152532548Y-95594165D01*
X152532554Y-95594164D01*
X152536825Y-95593873D01*
X152541020Y-95593004D01*
X152541022Y-95593004D01*
X152677583Y-95564724D01*
X152818342Y-95535574D01*
X153089343Y-95439607D01*
X153344812Y-95307750D01*
X153348313Y-95305289D01*
X153348317Y-95305287D01*
X153497452Y-95200473D01*
X153580023Y-95142441D01*
X153713484Y-95018421D01*
X153787479Y-94949661D01*
X153787481Y-94949658D01*
X153790622Y-94946740D01*
X153972713Y-94724268D01*
X154122927Y-94479142D01*
X154238483Y-94215898D01*
X154317244Y-93939406D01*
X154357751Y-93654784D01*
X154357845Y-93636951D01*
X154359235Y-93371583D01*
X154359235Y-93371576D01*
X154359257Y-93367297D01*
X154321732Y-93082266D01*
X154245871Y-92804964D01*
X154166753Y-92619476D01*
X154134763Y-92544476D01*
X154134761Y-92544472D01*
X154133077Y-92540524D01*
X154030326Y-92368839D01*
X153987643Y-92297521D01*
X153987640Y-92297517D01*
X153985439Y-92293839D01*
X153805687Y-92069472D01*
X153597149Y-91871577D01*
X153363683Y-91703814D01*
X153341843Y-91692250D01*
X153248472Y-91642813D01*
X153109608Y-91569288D01*
X152876299Y-91483909D01*
X152843658Y-91471964D01*
X152843656Y-91471963D01*
X152839627Y-91470489D01*
X152558736Y-91409245D01*
X152527685Y-91406801D01*
X152335718Y-91391693D01*
X152335709Y-91391693D01*
X152333261Y-91391500D01*
X152177729Y-91391500D01*
X152175593Y-91391646D01*
X152175582Y-91391646D01*
X151967452Y-91405835D01*
X151967446Y-91405836D01*
X151963175Y-91406127D01*
X151958980Y-91406996D01*
X151958978Y-91406996D01*
X151822417Y-91435276D01*
X151681658Y-91464426D01*
X151410657Y-91560393D01*
X151155188Y-91692250D01*
X151151687Y-91694711D01*
X151151683Y-91694713D01*
X151141594Y-91701804D01*
X150919977Y-91857559D01*
X150709378Y-92053260D01*
X150527287Y-92275732D01*
X150377073Y-92520858D01*
X150375347Y-92524791D01*
X150375346Y-92524792D01*
X150333783Y-92619476D01*
X150261517Y-92784102D01*
X150182756Y-93060594D01*
X150142249Y-93345216D01*
X150142227Y-93349505D01*
X150142226Y-93349512D01*
X150141740Y-93442297D01*
X150140743Y-93632703D01*
X126383260Y-93632703D01*
X126384235Y-93446583D01*
X126384235Y-93446576D01*
X126384257Y-93442297D01*
X126346732Y-93157266D01*
X126270871Y-92879964D01*
X126158077Y-92615524D01*
X126010439Y-92368839D01*
X125830687Y-92144472D01*
X125622149Y-91946577D01*
X125388683Y-91778814D01*
X125366843Y-91767250D01*
X125343654Y-91754972D01*
X125134608Y-91644288D01*
X124925630Y-91567813D01*
X124868658Y-91546964D01*
X124868656Y-91546963D01*
X124864627Y-91545489D01*
X124583736Y-91484245D01*
X124552685Y-91481801D01*
X124360718Y-91466693D01*
X124360709Y-91466693D01*
X124358261Y-91466500D01*
X124202729Y-91466500D01*
X124200593Y-91466646D01*
X124200582Y-91466646D01*
X123992452Y-91480835D01*
X123992446Y-91480836D01*
X123988175Y-91481127D01*
X123983980Y-91481996D01*
X123983978Y-91481996D01*
X123847417Y-91510276D01*
X123706658Y-91539426D01*
X123435657Y-91635393D01*
X123180188Y-91767250D01*
X123176687Y-91769711D01*
X123176683Y-91769713D01*
X123166594Y-91776804D01*
X122944977Y-91932559D01*
X122929892Y-91946577D01*
X122800813Y-92066525D01*
X122734378Y-92128260D01*
X122552287Y-92350732D01*
X122402073Y-92595858D01*
X122286517Y-92859102D01*
X122207756Y-93135594D01*
X122167249Y-93420216D01*
X122167227Y-93424505D01*
X122167226Y-93424512D01*
X122165765Y-93703417D01*
X122165743Y-93707703D01*
X121462800Y-93707703D01*
X121469682Y-89158809D01*
X121489787Y-89090719D01*
X121543513Y-89044307D01*
X121595682Y-89033000D01*
X122277885Y-89033000D01*
X122293124Y-89028525D01*
X122294329Y-89027135D01*
X122296000Y-89019452D01*
X122296000Y-89014884D01*
X122804000Y-89014884D01*
X122808475Y-89030123D01*
X122809865Y-89031328D01*
X122817548Y-89032999D01*
X123544669Y-89032999D01*
X123551490Y-89032629D01*
X123602352Y-89027105D01*
X123617604Y-89023479D01*
X123738054Y-88978324D01*
X123753649Y-88969786D01*
X123855724Y-88893285D01*
X123868285Y-88880724D01*
X123944786Y-88778649D01*
X123953324Y-88763054D01*
X123998478Y-88642606D01*
X124002105Y-88627351D01*
X124007631Y-88576486D01*
X124008000Y-88569672D01*
X124008000Y-88097115D01*
X124003525Y-88081876D01*
X124002135Y-88080671D01*
X123994452Y-88079000D01*
X122822115Y-88079000D01*
X122806876Y-88083475D01*
X122805671Y-88084865D01*
X122804000Y-88092548D01*
X122804000Y-89014884D01*
X122296000Y-89014884D01*
X122296000Y-87552885D01*
X122804000Y-87552885D01*
X122808475Y-87568124D01*
X122809865Y-87569329D01*
X122817548Y-87571000D01*
X123989884Y-87571000D01*
X124005123Y-87566525D01*
X124006328Y-87565135D01*
X124007999Y-87557452D01*
X124007999Y-87080331D01*
X124007629Y-87073510D01*
X124002105Y-87022648D01*
X123998479Y-87007396D01*
X123953324Y-86886946D01*
X123944786Y-86871351D01*
X123868285Y-86769276D01*
X123855724Y-86756715D01*
X123753649Y-86680214D01*
X123738054Y-86671676D01*
X123617606Y-86626522D01*
X123602351Y-86622895D01*
X123551486Y-86617369D01*
X123544672Y-86617000D01*
X122822115Y-86617000D01*
X122806876Y-86621475D01*
X122805671Y-86622865D01*
X122804000Y-86630548D01*
X122804000Y-87552885D01*
X122296000Y-87552885D01*
X122296000Y-86635116D01*
X122291525Y-86619877D01*
X122290135Y-86618672D01*
X122282452Y-86617001D01*
X121599718Y-86617001D01*
X121531597Y-86596999D01*
X121485104Y-86543343D01*
X121473718Y-86490810D01*
X121476552Y-84617966D01*
X150043257Y-84617966D01*
X150073565Y-84752446D01*
X150076645Y-84762275D01*
X150156770Y-84959603D01*
X150161413Y-84968794D01*
X150272694Y-85150388D01*
X150278777Y-85158699D01*
X150418213Y-85319667D01*
X150425580Y-85326883D01*
X150589434Y-85462916D01*
X150597881Y-85468831D01*
X150781756Y-85576279D01*
X150791042Y-85580729D01*
X150990001Y-85656703D01*
X150999899Y-85659579D01*
X151103250Y-85680606D01*
X151117299Y-85679410D01*
X151121000Y-85669065D01*
X151121000Y-85668517D01*
X151629000Y-85668517D01*
X151633064Y-85682359D01*
X151646478Y-85684393D01*
X151653184Y-85683534D01*
X151663262Y-85681392D01*
X151867255Y-85620191D01*
X151876842Y-85616433D01*
X152068095Y-85522739D01*
X152076945Y-85517464D01*
X152250328Y-85393792D01*
X152258200Y-85387139D01*
X152409052Y-85236812D01*
X152415730Y-85228965D01*
X152540003Y-85056020D01*
X152545313Y-85047183D01*
X152639670Y-84856267D01*
X152643469Y-84846672D01*
X152705377Y-84642910D01*
X152707555Y-84632837D01*
X152708986Y-84621962D01*
X152706775Y-84607778D01*
X152693617Y-84604000D01*
X151647115Y-84604000D01*
X151631876Y-84608475D01*
X151630671Y-84609865D01*
X151629000Y-84617548D01*
X151629000Y-85668517D01*
X151121000Y-85668517D01*
X151121000Y-84622115D01*
X151116525Y-84606876D01*
X151115135Y-84605671D01*
X151107452Y-84604000D01*
X150058225Y-84604000D01*
X150044694Y-84607973D01*
X150043257Y-84617966D01*
X121476552Y-84617966D01*
X121476800Y-84454022D01*
X121482497Y-80688359D01*
X121490468Y-75419669D01*
X122092001Y-75419669D01*
X122092371Y-75426490D01*
X122097895Y-75477352D01*
X122101521Y-75492604D01*
X122146676Y-75613054D01*
X122155214Y-75628649D01*
X122231715Y-75730724D01*
X122244276Y-75743285D01*
X122346351Y-75819786D01*
X122361946Y-75828324D01*
X122482394Y-75873478D01*
X122497649Y-75877105D01*
X122548514Y-75882631D01*
X122555328Y-75883000D01*
X123277885Y-75883000D01*
X123293124Y-75878525D01*
X123294329Y-75877135D01*
X123296000Y-75869452D01*
X123296000Y-75864884D01*
X123804000Y-75864884D01*
X123808475Y-75880123D01*
X123809865Y-75881328D01*
X123817548Y-75882999D01*
X124466765Y-75882999D01*
X124534886Y-75903001D01*
X124581379Y-75956657D01*
X124587008Y-75973041D01*
X124587255Y-75975316D01*
X124590027Y-75982711D01*
X124590774Y-75985851D01*
X124590775Y-76044146D01*
X124590029Y-76047285D01*
X124587255Y-76054684D01*
X124580500Y-76116866D01*
X124580500Y-76798295D01*
X124560498Y-76866416D01*
X124538895Y-76889632D01*
X124539627Y-76890364D01*
X124520715Y-76909276D01*
X124444214Y-77011351D01*
X124435676Y-77026946D01*
X124390522Y-77147394D01*
X124386895Y-77162649D01*
X124381369Y-77213514D01*
X124381000Y-77220328D01*
X124381000Y-77392885D01*
X124385475Y-77408124D01*
X124386865Y-77409329D01*
X124394548Y-77411000D01*
X124807142Y-77411000D01*
X124851371Y-77419018D01*
X124971282Y-77463971D01*
X124971288Y-77463973D01*
X124978684Y-77466745D01*
X125040866Y-77473500D01*
X126637134Y-77473500D01*
X126699316Y-77466745D01*
X126706712Y-77463973D01*
X126706718Y-77463971D01*
X126826629Y-77419018D01*
X126870858Y-77411000D01*
X126878884Y-77411000D01*
X126894123Y-77406525D01*
X126899784Y-77399992D01*
X126928263Y-77347837D01*
X126941793Y-77336106D01*
X126945081Y-77333642D01*
X126952261Y-77328261D01*
X126978474Y-77293285D01*
X127011713Y-77248935D01*
X127068573Y-77206420D01*
X127112539Y-77198500D01*
X127456233Y-77198500D01*
X127467416Y-77199027D01*
X127474909Y-77200702D01*
X127482835Y-77200453D01*
X127482836Y-77200453D01*
X127542986Y-77198562D01*
X127546945Y-77198500D01*
X127574856Y-77198500D01*
X127578791Y-77198003D01*
X127578856Y-77197995D01*
X127590693Y-77197062D01*
X127622951Y-77196048D01*
X127626970Y-77195922D01*
X127634889Y-77195673D01*
X127654343Y-77190021D01*
X127673700Y-77186013D01*
X127685930Y-77184468D01*
X127685931Y-77184468D01*
X127693797Y-77183474D01*
X127701168Y-77180555D01*
X127701170Y-77180555D01*
X127734912Y-77167196D01*
X127746142Y-77163351D01*
X127780983Y-77153229D01*
X127780984Y-77153229D01*
X127788593Y-77151018D01*
X127795412Y-77146985D01*
X127795417Y-77146983D01*
X127806028Y-77140707D01*
X127823776Y-77132012D01*
X127842617Y-77124552D01*
X127878387Y-77098564D01*
X127888307Y-77092048D01*
X127919535Y-77073580D01*
X127919538Y-77073578D01*
X127926362Y-77069542D01*
X127940683Y-77055221D01*
X127955717Y-77042380D01*
X127965694Y-77035131D01*
X127972107Y-77030472D01*
X128000298Y-76996395D01*
X128008288Y-76987616D01*
X128026235Y-76969669D01*
X135491001Y-76969669D01*
X135491371Y-76976490D01*
X135496895Y-77027352D01*
X135500521Y-77042604D01*
X135545676Y-77163054D01*
X135554214Y-77178649D01*
X135630715Y-77280724D01*
X135643276Y-77293285D01*
X135745351Y-77369786D01*
X135760946Y-77378324D01*
X135881399Y-77423480D01*
X135887909Y-77425028D01*
X135931089Y-77417287D01*
X135939727Y-77412976D01*
X135961957Y-77411000D01*
X136426885Y-77411000D01*
X136442124Y-77406525D01*
X136443329Y-77405135D01*
X136445000Y-77397452D01*
X136445000Y-76598885D01*
X136953000Y-76598885D01*
X136957475Y-76614124D01*
X136958865Y-76615329D01*
X136966548Y-76617000D01*
X137053000Y-76617000D01*
X137121121Y-76637002D01*
X137167614Y-76690658D01*
X137179000Y-76743000D01*
X137179000Y-77392885D01*
X137183475Y-77408124D01*
X137184865Y-77409329D01*
X137192548Y-77411000D01*
X137889884Y-77411000D01*
X137905123Y-77406525D01*
X137906328Y-77405135D01*
X137907999Y-77397452D01*
X137907999Y-77120331D01*
X137907629Y-77113510D01*
X137901252Y-77054793D01*
X137902868Y-77054617D01*
X137901134Y-77027085D01*
X137906631Y-76976486D01*
X137907000Y-76969672D01*
X137907000Y-76547115D01*
X137902525Y-76531876D01*
X137901135Y-76530671D01*
X137893452Y-76529000D01*
X136971115Y-76529000D01*
X136955876Y-76533475D01*
X136954671Y-76534865D01*
X136953000Y-76542548D01*
X136953000Y-76598885D01*
X136445000Y-76598885D01*
X136445000Y-76547115D01*
X136440525Y-76531876D01*
X136439135Y-76530671D01*
X136431452Y-76529000D01*
X135509116Y-76529000D01*
X135493877Y-76533475D01*
X135492672Y-76534865D01*
X135491001Y-76542548D01*
X135491001Y-76969669D01*
X128026235Y-76969669D01*
X129175499Y-75820405D01*
X129237811Y-75786379D01*
X129264594Y-75783500D01*
X135365000Y-75783500D01*
X135433121Y-75803502D01*
X135479614Y-75857158D01*
X135491000Y-75909500D01*
X135491000Y-76002885D01*
X135495475Y-76018124D01*
X135496865Y-76019329D01*
X135504548Y-76021000D01*
X137888884Y-76021000D01*
X137904123Y-76016525D01*
X137905328Y-76015135D01*
X137906999Y-76007452D01*
X137906999Y-75909500D01*
X137927001Y-75841379D01*
X137980657Y-75794886D01*
X138032999Y-75783500D01*
X138985406Y-75783500D01*
X139053527Y-75803502D01*
X139074501Y-75820405D01*
X141655500Y-78401405D01*
X141689526Y-78463717D01*
X141684461Y-78534533D01*
X141641914Y-78591368D01*
X141575394Y-78616179D01*
X141566405Y-78616500D01*
X137948395Y-78616500D01*
X137880274Y-78596498D01*
X137833781Y-78542842D01*
X137823677Y-78472568D01*
X137842345Y-78427539D01*
X137840478Y-78426517D01*
X137853324Y-78403054D01*
X137898478Y-78282606D01*
X137902105Y-78267351D01*
X137907631Y-78216486D01*
X137908000Y-78209672D01*
X137908000Y-77937115D01*
X137903525Y-77921876D01*
X137902135Y-77920671D01*
X137894452Y-77919000D01*
X135960116Y-77919000D01*
X135944877Y-77923475D01*
X135943672Y-77924865D01*
X135942001Y-77932548D01*
X135942001Y-78209669D01*
X135942371Y-78216490D01*
X135947895Y-78267352D01*
X135951521Y-78282604D01*
X135996676Y-78403054D01*
X136009522Y-78426517D01*
X136007227Y-78427774D01*
X136027279Y-78481438D01*
X136012228Y-78550821D01*
X135962055Y-78601053D01*
X135901605Y-78616500D01*
X127638595Y-78616500D01*
X127570474Y-78596498D01*
X127549499Y-78579595D01*
X127457646Y-78487741D01*
X127342647Y-78372742D01*
X127335113Y-78364463D01*
X127331000Y-78357982D01*
X127281348Y-78311356D01*
X127278507Y-78308602D01*
X127258770Y-78288865D01*
X127255573Y-78286385D01*
X127246551Y-78278680D01*
X127220100Y-78253841D01*
X127214321Y-78248414D01*
X127207375Y-78244595D01*
X127207372Y-78244593D01*
X127196566Y-78238652D01*
X127180047Y-78227801D01*
X127179583Y-78227441D01*
X127164041Y-78215386D01*
X127156772Y-78212241D01*
X127156768Y-78212238D01*
X127123463Y-78197826D01*
X127112800Y-78192602D01*
X127096408Y-78183590D01*
X127046592Y-78133687D01*
X127042765Y-78126697D01*
X127039615Y-78118295D01*
X126952261Y-78001739D01*
X126945081Y-77996358D01*
X126945079Y-77996356D01*
X126939263Y-77991997D01*
X126896748Y-77935137D01*
X126893933Y-77926670D01*
X126892525Y-77921876D01*
X126891135Y-77920671D01*
X126883452Y-77919000D01*
X126870858Y-77919000D01*
X126826629Y-77910982D01*
X126706718Y-77866029D01*
X126706712Y-77866027D01*
X126699316Y-77863255D01*
X126637134Y-77856500D01*
X125040866Y-77856500D01*
X124978684Y-77863255D01*
X124971288Y-77866027D01*
X124971282Y-77866029D01*
X124851371Y-77910982D01*
X124807142Y-77919000D01*
X124399116Y-77919000D01*
X124383877Y-77923475D01*
X124382672Y-77924865D01*
X124381001Y-77932548D01*
X124381001Y-78109669D01*
X124381371Y-78116490D01*
X124386895Y-78167352D01*
X124390521Y-78182604D01*
X124435676Y-78303054D01*
X124444214Y-78318649D01*
X124520715Y-78420724D01*
X124539627Y-78439636D01*
X124537902Y-78441361D01*
X124572581Y-78487741D01*
X124580500Y-78531705D01*
X124580500Y-78997671D01*
X124560498Y-79065792D01*
X124538593Y-79089332D01*
X124539269Y-79090008D01*
X124532919Y-79096358D01*
X124525739Y-79101739D01*
X124438385Y-79218295D01*
X124387255Y-79354684D01*
X124380500Y-79416866D01*
X124380500Y-80313134D01*
X124387255Y-80375316D01*
X124438385Y-80511705D01*
X124525739Y-80628261D01*
X124532919Y-80633642D01*
X124539269Y-80639992D01*
X124537634Y-80641627D01*
X124572579Y-80688359D01*
X124580500Y-80732329D01*
X124580500Y-81413134D01*
X124587255Y-81475316D01*
X124638385Y-81611705D01*
X124725739Y-81728261D01*
X124842295Y-81815615D01*
X124850703Y-81818767D01*
X124898730Y-81836772D01*
X124955495Y-81879414D01*
X124980194Y-81945976D01*
X124980500Y-81954754D01*
X124980500Y-82175246D01*
X124960498Y-82243367D01*
X124906842Y-82289860D01*
X124898730Y-82293228D01*
X124880960Y-82299890D01*
X124842295Y-82314385D01*
X124725739Y-82401739D01*
X124638385Y-82518295D01*
X124587255Y-82654684D01*
X124580500Y-82716866D01*
X124580500Y-83613134D01*
X124587255Y-83675316D01*
X124638385Y-83811705D01*
X124725739Y-83928261D01*
X124842295Y-84015615D01*
X124978684Y-84066745D01*
X125040866Y-84073500D01*
X126637134Y-84073500D01*
X126699316Y-84066745D01*
X126835705Y-84015615D01*
X126952261Y-83928261D01*
X127015460Y-83843935D01*
X127072319Y-83801420D01*
X127116286Y-83793500D01*
X142330606Y-83793500D01*
X142398727Y-83813502D01*
X142433819Y-83847229D01*
X142540643Y-83999789D01*
X142543802Y-84004300D01*
X142705700Y-84166198D01*
X142710208Y-84169355D01*
X142710211Y-84169357D01*
X142788389Y-84224098D01*
X142893251Y-84297523D01*
X142898233Y-84299846D01*
X142898238Y-84299849D01*
X143095775Y-84391961D01*
X143100757Y-84394284D01*
X143106065Y-84395706D01*
X143106067Y-84395707D01*
X143316598Y-84452119D01*
X143316600Y-84452119D01*
X143321913Y-84453543D01*
X143550000Y-84473498D01*
X143778087Y-84453543D01*
X143783400Y-84452119D01*
X143783402Y-84452119D01*
X143993933Y-84395707D01*
X143993935Y-84395706D01*
X143999243Y-84394284D01*
X144004225Y-84391961D01*
X144201762Y-84299849D01*
X144201767Y-84299846D01*
X144206749Y-84297523D01*
X144311611Y-84224098D01*
X144389789Y-84169357D01*
X144389792Y-84169355D01*
X144394300Y-84166198D01*
X144556198Y-84004300D01*
X144687523Y-83816749D01*
X144689846Y-83811767D01*
X144689849Y-83811762D01*
X144781961Y-83614225D01*
X144781961Y-83614224D01*
X144784284Y-83609243D01*
X144843543Y-83388087D01*
X144863498Y-83160000D01*
X144843543Y-82931913D01*
X144842119Y-82926598D01*
X144785707Y-82716067D01*
X144785706Y-82716065D01*
X144784284Y-82710757D01*
X144712936Y-82557750D01*
X144702275Y-82487558D01*
X144731255Y-82422745D01*
X144790675Y-82383889D01*
X144827131Y-82378500D01*
X148821233Y-82378500D01*
X148832416Y-82379027D01*
X148839909Y-82380702D01*
X148847835Y-82380453D01*
X148847836Y-82380453D01*
X148907986Y-82378562D01*
X148911945Y-82378500D01*
X148939856Y-82378500D01*
X148943791Y-82378003D01*
X148943856Y-82377995D01*
X148955693Y-82377062D01*
X148987951Y-82376048D01*
X148991970Y-82375922D01*
X148999889Y-82375673D01*
X149019343Y-82370021D01*
X149038700Y-82366013D01*
X149050930Y-82364468D01*
X149050931Y-82364468D01*
X149058797Y-82363474D01*
X149066168Y-82360555D01*
X149066170Y-82360555D01*
X149099912Y-82347196D01*
X149111142Y-82343351D01*
X149145983Y-82333229D01*
X149145984Y-82333229D01*
X149153593Y-82331018D01*
X149160412Y-82326985D01*
X149160417Y-82326983D01*
X149171028Y-82320707D01*
X149188776Y-82312012D01*
X149207617Y-82304552D01*
X149219105Y-82296206D01*
X149243387Y-82278564D01*
X149253307Y-82272048D01*
X149284535Y-82253580D01*
X149284538Y-82253578D01*
X149291362Y-82249542D01*
X149305683Y-82235221D01*
X149320717Y-82222380D01*
X149322431Y-82221135D01*
X149337107Y-82210472D01*
X149365298Y-82176395D01*
X149373288Y-82167616D01*
X149800019Y-81740885D01*
X149862331Y-81706859D01*
X149933146Y-81711924D01*
X149989982Y-81754471D01*
X150014905Y-81822727D01*
X150017818Y-81873240D01*
X150025110Y-81999715D01*
X150026247Y-82004761D01*
X150026248Y-82004767D01*
X150048387Y-82103000D01*
X150074222Y-82217639D01*
X150114346Y-82316453D01*
X150148474Y-82400500D01*
X150158266Y-82424616D01*
X150274987Y-82615088D01*
X150421250Y-82783938D01*
X150593126Y-82926632D01*
X150666955Y-82969774D01*
X150715679Y-83021412D01*
X150728750Y-83091195D01*
X150702019Y-83156967D01*
X150661562Y-83190327D01*
X150653457Y-83194546D01*
X150644738Y-83200036D01*
X150474433Y-83327905D01*
X150466726Y-83334748D01*
X150319590Y-83488717D01*
X150313104Y-83496727D01*
X150193098Y-83672649D01*
X150188000Y-83681623D01*
X150098338Y-83874783D01*
X150094775Y-83884470D01*
X150039389Y-84084183D01*
X150040912Y-84092607D01*
X150053292Y-84096000D01*
X152693344Y-84096000D01*
X152706875Y-84092027D01*
X152708180Y-84082947D01*
X152666214Y-83915875D01*
X152662894Y-83906124D01*
X152577972Y-83710814D01*
X152573105Y-83701739D01*
X152457426Y-83522926D01*
X152451136Y-83514757D01*
X152307806Y-83357240D01*
X152300273Y-83350215D01*
X152133139Y-83218222D01*
X152124556Y-83212520D01*
X152087602Y-83192120D01*
X152037631Y-83141687D01*
X152022859Y-83072245D01*
X152047975Y-83005839D01*
X152075327Y-82979232D01*
X152141666Y-82931913D01*
X152254860Y-82851173D01*
X152413096Y-82693489D01*
X152472594Y-82610689D01*
X152540435Y-82516277D01*
X152543453Y-82512077D01*
X152546211Y-82506498D01*
X152640136Y-82316453D01*
X152640137Y-82316451D01*
X152642430Y-82311811D01*
X152692800Y-82146026D01*
X152705865Y-82103023D01*
X152705865Y-82103021D01*
X152707370Y-82098069D01*
X152736529Y-81876590D01*
X152738156Y-81810000D01*
X152719852Y-81587361D01*
X152665431Y-81370702D01*
X152576354Y-81165840D01*
X152513863Y-81069243D01*
X152457822Y-80982617D01*
X152457820Y-80982614D01*
X152455014Y-80978277D01*
X152304670Y-80813051D01*
X152300619Y-80809852D01*
X152300615Y-80809848D01*
X152133414Y-80677800D01*
X152133410Y-80677798D01*
X152129359Y-80674598D01*
X152088053Y-80651796D01*
X152038084Y-80601364D01*
X152023312Y-80531921D01*
X152048428Y-80465516D01*
X152075780Y-80438909D01*
X152164934Y-80375316D01*
X152254860Y-80311173D01*
X152413096Y-80153489D01*
X152543453Y-79972077D01*
X152550827Y-79957158D01*
X152640136Y-79776453D01*
X152640137Y-79776451D01*
X152642430Y-79771811D01*
X152707370Y-79558069D01*
X152736529Y-79336590D01*
X152738156Y-79270000D01*
X152719852Y-79047361D01*
X152665431Y-78830702D01*
X152576354Y-78625840D01*
X152455014Y-78438277D01*
X152304670Y-78273051D01*
X152300619Y-78269852D01*
X152300615Y-78269848D01*
X152133414Y-78137800D01*
X152133410Y-78137798D01*
X152129359Y-78134598D01*
X152088053Y-78111796D01*
X152038084Y-78061364D01*
X152023312Y-77991921D01*
X152048428Y-77925516D01*
X152075780Y-77898909D01*
X152135235Y-77856500D01*
X152254860Y-77771173D01*
X152413096Y-77613489D01*
X152543453Y-77432077D01*
X152546211Y-77426498D01*
X152640136Y-77236453D01*
X152640137Y-77236451D01*
X152642430Y-77231811D01*
X152707370Y-77018069D01*
X152736529Y-76796590D01*
X152737074Y-76774284D01*
X152738074Y-76733365D01*
X152738074Y-76733361D01*
X152738156Y-76730000D01*
X152719852Y-76507361D01*
X152665431Y-76290702D01*
X152576354Y-76085840D01*
X152486546Y-75947018D01*
X152457822Y-75902617D01*
X152457820Y-75902614D01*
X152455014Y-75898277D01*
X152304670Y-75733051D01*
X152300619Y-75729852D01*
X152300615Y-75729848D01*
X152133414Y-75597800D01*
X152133410Y-75597798D01*
X152129359Y-75594598D01*
X152088053Y-75571796D01*
X152038084Y-75521364D01*
X152023312Y-75451921D01*
X152048428Y-75385516D01*
X152075780Y-75358909D01*
X152149117Y-75306598D01*
X152254860Y-75231173D01*
X152413096Y-75073489D01*
X152466913Y-74998595D01*
X152540435Y-74896277D01*
X152543453Y-74892077D01*
X152556605Y-74865467D01*
X152640136Y-74696453D01*
X152640137Y-74696451D01*
X152642430Y-74691811D01*
X152683541Y-74556500D01*
X152705865Y-74483023D01*
X152705865Y-74483021D01*
X152707370Y-74478069D01*
X152736529Y-74256590D01*
X152738156Y-74190000D01*
X152719852Y-73967361D01*
X152665431Y-73750702D01*
X152576354Y-73545840D01*
X152455014Y-73358277D01*
X152451532Y-73354450D01*
X152307798Y-73196488D01*
X152276746Y-73132642D01*
X152285141Y-73062143D01*
X152330317Y-73007375D01*
X152356761Y-72993706D01*
X152463297Y-72953767D01*
X152471705Y-72950615D01*
X152588261Y-72863261D01*
X152675615Y-72746705D01*
X152726745Y-72610316D01*
X152733500Y-72548134D01*
X152733500Y-70751866D01*
X152726745Y-70689684D01*
X152675615Y-70553295D01*
X152588261Y-70436739D01*
X152487858Y-70361491D01*
X152445346Y-70304635D01*
X152440320Y-70233817D01*
X152474331Y-70171573D01*
X154142247Y-68503657D01*
X154150537Y-68496113D01*
X154157018Y-68492000D01*
X154203659Y-68442332D01*
X154206413Y-68439491D01*
X154226134Y-68419770D01*
X154228612Y-68416575D01*
X154236318Y-68407553D01*
X154261158Y-68381101D01*
X154266586Y-68375321D01*
X154276346Y-68357568D01*
X154287199Y-68341045D01*
X154294753Y-68331306D01*
X154299613Y-68325041D01*
X154317176Y-68284457D01*
X154322383Y-68273827D01*
X154343695Y-68235060D01*
X154345666Y-68227383D01*
X154345668Y-68227378D01*
X154348732Y-68215442D01*
X154355138Y-68196730D01*
X154360033Y-68185419D01*
X154363181Y-68178145D01*
X154364421Y-68170317D01*
X154364423Y-68170310D01*
X154370099Y-68134476D01*
X154372505Y-68122856D01*
X154381528Y-68087711D01*
X154381528Y-68087710D01*
X154383500Y-68080030D01*
X154383500Y-68059776D01*
X154385051Y-68040065D01*
X154386980Y-68027886D01*
X154388220Y-68020057D01*
X154384059Y-67976038D01*
X154383500Y-67964181D01*
X154383500Y-57962767D01*
X154384027Y-57951584D01*
X154385702Y-57944091D01*
X154384533Y-57906885D01*
X154383562Y-57876014D01*
X154383500Y-57872055D01*
X154383500Y-57844144D01*
X154382995Y-57840144D01*
X154382062Y-57828301D01*
X154380922Y-57792029D01*
X154380673Y-57784110D01*
X154375022Y-57764658D01*
X154371014Y-57745306D01*
X154369467Y-57733063D01*
X154368474Y-57725203D01*
X154365556Y-57717832D01*
X154352200Y-57684097D01*
X154348355Y-57672870D01*
X154346661Y-57667039D01*
X154336018Y-57630407D01*
X154331984Y-57623585D01*
X154331981Y-57623579D01*
X154325706Y-57612968D01*
X154317010Y-57595218D01*
X154312472Y-57583756D01*
X154312469Y-57583751D01*
X154309552Y-57576383D01*
X154289960Y-57549417D01*
X154283573Y-57540625D01*
X154277057Y-57530707D01*
X154258575Y-57499457D01*
X154254542Y-57492637D01*
X154240218Y-57478313D01*
X154227376Y-57463278D01*
X154215472Y-57446893D01*
X154181406Y-57418711D01*
X154172627Y-57410722D01*
X152578405Y-55816500D01*
X152544379Y-55754188D01*
X152541500Y-55727405D01*
X152541500Y-54418866D01*
X152534745Y-54356684D01*
X152483615Y-54220295D01*
X152396261Y-54103739D01*
X152279705Y-54016385D01*
X152143316Y-53965255D01*
X152081134Y-53958500D01*
X150284866Y-53958500D01*
X150222684Y-53965255D01*
X150086295Y-54016385D01*
X149969739Y-54103739D01*
X149882385Y-54220295D01*
X149831255Y-54356684D01*
X149824500Y-54418866D01*
X149824500Y-54557500D01*
X149804498Y-54625621D01*
X149750842Y-54672114D01*
X149698500Y-54683500D01*
X148317500Y-54683500D01*
X148249379Y-54663498D01*
X148202886Y-54609842D01*
X148191500Y-54557500D01*
X148191500Y-54517428D01*
X148182453Y-54430230D01*
X148181419Y-54420265D01*
X148181418Y-54420261D01*
X148180707Y-54413407D01*
X148177004Y-54402306D01*
X148127972Y-54255341D01*
X148125654Y-54248393D01*
X148034116Y-54100469D01*
X148028934Y-54095296D01*
X147916184Y-53982742D01*
X147916179Y-53982738D01*
X147911003Y-53977571D01*
X147762920Y-53886291D01*
X147597809Y-53831526D01*
X147590973Y-53830826D01*
X147590970Y-53830825D01*
X147539474Y-53825549D01*
X147495072Y-53821000D01*
X146920928Y-53821000D01*
X146917682Y-53821337D01*
X146917678Y-53821337D01*
X146823765Y-53831081D01*
X146823761Y-53831082D01*
X146816907Y-53831793D01*
X146810371Y-53833974D01*
X146810369Y-53833974D01*
X146743648Y-53856234D01*
X146651893Y-53886846D01*
X146503969Y-53978384D01*
X146498796Y-53983566D01*
X146386242Y-54096316D01*
X146386238Y-54096321D01*
X146381071Y-54101497D01*
X146377231Y-54107727D01*
X146377230Y-54107728D01*
X146294364Y-54242162D01*
X146289791Y-54249580D01*
X146235026Y-54414691D01*
X146234326Y-54421527D01*
X146234325Y-54421530D01*
X146232222Y-54442061D01*
X146224500Y-54517428D01*
X146224500Y-54902405D01*
X146204498Y-54970526D01*
X146187595Y-54991500D01*
X146032500Y-55146595D01*
X145970188Y-55180621D01*
X145943405Y-55183500D01*
X145535168Y-55183500D01*
X145486950Y-55173909D01*
X145374479Y-55127322D01*
X145366850Y-55124162D01*
X145358024Y-55123000D01*
X145251972Y-55109038D01*
X145251971Y-55109038D01*
X145247885Y-55108500D01*
X144570583Y-55108500D01*
X143893116Y-55108501D01*
X143889031Y-55109039D01*
X143889027Y-55109039D01*
X143782337Y-55123084D01*
X143782335Y-55123084D01*
X143774150Y-55124162D01*
X143719992Y-55146595D01*
X143633752Y-55182316D01*
X143633750Y-55182317D01*
X143626124Y-55185476D01*
X143619574Y-55190502D01*
X143545044Y-55247692D01*
X143499013Y-55283013D01*
X143493987Y-55289563D01*
X143493984Y-55289566D01*
X143475182Y-55314070D01*
X143401476Y-55410125D01*
X143340162Y-55558150D01*
X143324500Y-55677115D01*
X143324501Y-55956884D01*
X143325039Y-55960969D01*
X143325039Y-55960973D01*
X143338979Y-56066866D01*
X143340162Y-56075850D01*
X143343322Y-56083478D01*
X143347860Y-56094434D01*
X143355450Y-56165023D01*
X143347860Y-56190874D01*
X143343811Y-56200649D01*
X143339572Y-56216469D01*
X143335284Y-56249040D01*
X143337495Y-56263222D01*
X143350652Y-56267000D01*
X143372431Y-56267000D01*
X143440552Y-56287002D01*
X143472391Y-56316294D01*
X143499013Y-56350987D01*
X143505562Y-56356012D01*
X143519932Y-56367039D01*
X143561798Y-56424378D01*
X143566018Y-56495249D01*
X143531253Y-56557152D01*
X143519930Y-56566962D01*
X143505567Y-56577983D01*
X143505563Y-56577987D01*
X143499013Y-56583013D01*
X143473021Y-56616887D01*
X143472393Y-56617705D01*
X143415054Y-56659572D01*
X143372431Y-56667000D01*
X143351035Y-56667000D01*
X143337264Y-56671044D01*
X143335235Y-56684583D01*
X143339572Y-56717533D01*
X143343810Y-56733348D01*
X143347860Y-56743126D01*
X143355450Y-56813715D01*
X143347861Y-56839564D01*
X143340162Y-56858150D01*
X143339084Y-56866337D01*
X143339084Y-56866338D01*
X143332098Y-56919406D01*
X143324500Y-56977115D01*
X143324501Y-57256884D01*
X143325039Y-57260969D01*
X143325039Y-57260973D01*
X143339084Y-57367662D01*
X143340162Y-57375850D01*
X143347589Y-57393780D01*
X143347860Y-57394434D01*
X143355450Y-57465023D01*
X143347860Y-57490874D01*
X143343811Y-57500649D01*
X143339572Y-57516469D01*
X143335284Y-57549040D01*
X143337495Y-57563222D01*
X143350652Y-57567000D01*
X143372431Y-57567000D01*
X143440552Y-57587002D01*
X143472391Y-57616294D01*
X143499013Y-57650987D01*
X143513586Y-57662169D01*
X143519932Y-57667039D01*
X143561798Y-57724378D01*
X143566018Y-57795249D01*
X143531253Y-57857152D01*
X143519930Y-57866962D01*
X143505567Y-57877983D01*
X143505563Y-57877987D01*
X143499013Y-57883013D01*
X143493987Y-57889563D01*
X143472393Y-57917705D01*
X143415054Y-57959572D01*
X143372431Y-57967000D01*
X143351035Y-57967000D01*
X143337264Y-57971044D01*
X143335235Y-57984583D01*
X143339572Y-58017533D01*
X143343810Y-58033348D01*
X143347860Y-58043126D01*
X143355450Y-58113715D01*
X143347861Y-58139564D01*
X143340162Y-58158150D01*
X143339084Y-58166337D01*
X143339084Y-58166338D01*
X143326027Y-58265520D01*
X143324500Y-58277115D01*
X143324501Y-58556884D01*
X143325039Y-58560969D01*
X143325039Y-58560973D01*
X143339084Y-58667662D01*
X143340162Y-58675850D01*
X143347860Y-58694434D01*
X143355450Y-58765023D01*
X143347860Y-58790874D01*
X143343811Y-58800649D01*
X143339572Y-58816469D01*
X143335284Y-58849040D01*
X143337495Y-58863222D01*
X143350652Y-58867000D01*
X143372431Y-58867000D01*
X143440552Y-58887002D01*
X143472391Y-58916294D01*
X143499013Y-58950987D01*
X143505562Y-58956012D01*
X143519932Y-58967039D01*
X143561798Y-59024378D01*
X143566018Y-59095249D01*
X143531253Y-59157152D01*
X143519930Y-59166962D01*
X143505567Y-59177983D01*
X143505563Y-59177987D01*
X143499013Y-59183013D01*
X143493987Y-59189563D01*
X143472393Y-59217705D01*
X143415054Y-59259572D01*
X143372431Y-59267000D01*
X143351035Y-59267000D01*
X143337264Y-59271044D01*
X143335235Y-59284583D01*
X143339572Y-59317533D01*
X143343810Y-59333348D01*
X143347860Y-59343126D01*
X143355450Y-59413715D01*
X143347861Y-59439564D01*
X143340162Y-59458150D01*
X143339084Y-59466338D01*
X143328306Y-59548209D01*
X143324500Y-59577115D01*
X143324501Y-59856884D01*
X143325039Y-59860969D01*
X143325039Y-59860973D01*
X143339084Y-59967663D01*
X143340162Y-59975850D01*
X143343322Y-59983478D01*
X143347589Y-59993780D01*
X143355179Y-60064370D01*
X143347590Y-60090218D01*
X143340162Y-60108150D01*
X143324500Y-60227115D01*
X143324501Y-60506884D01*
X143340162Y-60625850D01*
X143343322Y-60633478D01*
X143395417Y-60759247D01*
X143401476Y-60773876D01*
X143406502Y-60780426D01*
X143485661Y-60883586D01*
X143499013Y-60900987D01*
X143505563Y-60906013D01*
X143505566Y-60906016D01*
X143541649Y-60933703D01*
X143626125Y-60998524D01*
X143774150Y-61059838D01*
X143782338Y-61060916D01*
X143889021Y-61074961D01*
X143893115Y-61075500D01*
X144570417Y-61075500D01*
X145247884Y-61075499D01*
X145251969Y-61074961D01*
X145251973Y-61074961D01*
X145358663Y-61060916D01*
X145358665Y-61060916D01*
X145366850Y-61059838D01*
X145414524Y-61040091D01*
X145462742Y-61030500D01*
X149907274Y-61030500D01*
X149975395Y-61050502D01*
X150014707Y-61090665D01*
X150082987Y-61202088D01*
X150229250Y-61370938D01*
X150401126Y-61513632D01*
X150471796Y-61554928D01*
X150474955Y-61556774D01*
X150523679Y-61608412D01*
X150536750Y-61678195D01*
X150510019Y-61743967D01*
X150469562Y-61777327D01*
X150461457Y-61781546D01*
X150452738Y-61787036D01*
X150282433Y-61914905D01*
X150274726Y-61921748D01*
X150127590Y-62075717D01*
X150121104Y-62083727D01*
X150001098Y-62259649D01*
X149996000Y-62268623D01*
X149906338Y-62461783D01*
X149902775Y-62471470D01*
X149847389Y-62671183D01*
X149848912Y-62679607D01*
X149861292Y-62683000D01*
X152501344Y-62683000D01*
X152514875Y-62679027D01*
X152516180Y-62669947D01*
X152474214Y-62502875D01*
X152470894Y-62493124D01*
X152385972Y-62297814D01*
X152381105Y-62288739D01*
X152265426Y-62109926D01*
X152259136Y-62101757D01*
X152115806Y-61944240D01*
X152108273Y-61937215D01*
X151941139Y-61805222D01*
X151932556Y-61799520D01*
X151895602Y-61779120D01*
X151845631Y-61728687D01*
X151830859Y-61659245D01*
X151855975Y-61592839D01*
X151883327Y-61566232D01*
X151906797Y-61549491D01*
X152062860Y-61438173D01*
X152221096Y-61280489D01*
X152351453Y-61099077D01*
X152355611Y-61090665D01*
X152448136Y-60903453D01*
X152448137Y-60903451D01*
X152450430Y-60898811D01*
X152515370Y-60685069D01*
X152544529Y-60463590D01*
X152546156Y-60397000D01*
X152527852Y-60174361D01*
X152473431Y-59957702D01*
X152384354Y-59752840D01*
X152331259Y-59670767D01*
X152265822Y-59569617D01*
X152265820Y-59569614D01*
X152263014Y-59565277D01*
X152112670Y-59400051D01*
X152108619Y-59396852D01*
X152108615Y-59396848D01*
X151941414Y-59264800D01*
X151941410Y-59264798D01*
X151937359Y-59261598D01*
X151896053Y-59238796D01*
X151846084Y-59188364D01*
X151831312Y-59118921D01*
X151856428Y-59052516D01*
X151883780Y-59025909D01*
X151948233Y-58979935D01*
X152062860Y-58898173D01*
X152101669Y-58859500D01*
X152213088Y-58748469D01*
X152221096Y-58740489D01*
X152273427Y-58667663D01*
X152348435Y-58563277D01*
X152351453Y-58559077D01*
X152355735Y-58550414D01*
X152448136Y-58363453D01*
X152448137Y-58363451D01*
X152450430Y-58358811D01*
X152515370Y-58145069D01*
X152544529Y-57923590D01*
X152545038Y-57902763D01*
X152545676Y-57876654D01*
X152567336Y-57809042D01*
X152622111Y-57763874D01*
X152692611Y-57755490D01*
X152760733Y-57790637D01*
X153079595Y-58109499D01*
X153113621Y-58171811D01*
X153116500Y-58198594D01*
X153116500Y-67685405D01*
X153096498Y-67753526D01*
X153079595Y-67774500D01*
X150982747Y-69871348D01*
X150974461Y-69878888D01*
X150967982Y-69883000D01*
X150962557Y-69888777D01*
X150921357Y-69932651D01*
X150918602Y-69935493D01*
X150898865Y-69955230D01*
X150896385Y-69958427D01*
X150888682Y-69967447D01*
X150858414Y-69999679D01*
X150854595Y-70006625D01*
X150854593Y-70006628D01*
X150848652Y-70017434D01*
X150837801Y-70033953D01*
X150825386Y-70049959D01*
X150822241Y-70057228D01*
X150822238Y-70057232D01*
X150807826Y-70090537D01*
X150802609Y-70101187D01*
X150781305Y-70139940D01*
X150779334Y-70147615D01*
X150779334Y-70147616D01*
X150776267Y-70159562D01*
X150769863Y-70178266D01*
X150764967Y-70189579D01*
X150764966Y-70189583D01*
X150761819Y-70196855D01*
X150761041Y-70201764D01*
X150723535Y-70260490D01*
X150659038Y-70290166D01*
X150640753Y-70291500D01*
X150476866Y-70291500D01*
X150414684Y-70298255D01*
X150278295Y-70349385D01*
X150161739Y-70436739D01*
X150074385Y-70553295D01*
X150023255Y-70689684D01*
X150016500Y-70751866D01*
X150016500Y-72548134D01*
X150023255Y-72610316D01*
X150074385Y-72746705D01*
X150161739Y-72863261D01*
X150278295Y-72950615D01*
X150286704Y-72953767D01*
X150286705Y-72953768D01*
X150395451Y-72994535D01*
X150452216Y-73037176D01*
X150476916Y-73103738D01*
X150461709Y-73173087D01*
X150442316Y-73199568D01*
X150315629Y-73332138D01*
X150189743Y-73516680D01*
X150163000Y-73574293D01*
X150106963Y-73695016D01*
X150095688Y-73719305D01*
X150035989Y-73934570D01*
X150012251Y-74156695D01*
X150012548Y-74161848D01*
X150012548Y-74161851D01*
X150017848Y-74253767D01*
X150025110Y-74379715D01*
X150026247Y-74384761D01*
X150026248Y-74384767D01*
X150058453Y-74527668D01*
X150053917Y-74598520D01*
X150024631Y-74644464D01*
X147259500Y-77409595D01*
X147197188Y-77443621D01*
X147170405Y-77446500D01*
X144769394Y-77446500D01*
X144701273Y-77426498D01*
X144666181Y-77392771D01*
X144559357Y-77240211D01*
X144559355Y-77240208D01*
X144556198Y-77235700D01*
X144394300Y-77073802D01*
X144389792Y-77070645D01*
X144389789Y-77070643D01*
X144305111Y-77011351D01*
X144206749Y-76942477D01*
X144201767Y-76940154D01*
X144201762Y-76940151D01*
X144167543Y-76924195D01*
X144114258Y-76877278D01*
X144094797Y-76809001D01*
X144115339Y-76741041D01*
X144167543Y-76695805D01*
X144201762Y-76679849D01*
X144201767Y-76679846D01*
X144206749Y-76677523D01*
X144319055Y-76598885D01*
X144389789Y-76549357D01*
X144389792Y-76549355D01*
X144394300Y-76546198D01*
X144556198Y-76384300D01*
X144687523Y-76196749D01*
X144689846Y-76191767D01*
X144689849Y-76191762D01*
X144781961Y-75994225D01*
X144781961Y-75994224D01*
X144784284Y-75989243D01*
X144793016Y-75956657D01*
X144842119Y-75773402D01*
X144842119Y-75773400D01*
X144843543Y-75768087D01*
X144863498Y-75540000D01*
X144843543Y-75311913D01*
X144820932Y-75227529D01*
X144785707Y-75096067D01*
X144785706Y-75096065D01*
X144784284Y-75090757D01*
X144772507Y-75065500D01*
X144689849Y-74888238D01*
X144689846Y-74888233D01*
X144687523Y-74883251D01*
X144556198Y-74695700D01*
X144394300Y-74533802D01*
X144389789Y-74530643D01*
X144385576Y-74527108D01*
X144386527Y-74525974D01*
X144346529Y-74475929D01*
X144339224Y-74405310D01*
X144371258Y-74341951D01*
X144432462Y-74305970D01*
X144449517Y-74302918D01*
X144460316Y-74301745D01*
X144596705Y-74250615D01*
X144713261Y-74163261D01*
X144800615Y-74046705D01*
X144851745Y-73910316D01*
X144858500Y-73848134D01*
X144858500Y-72151866D01*
X144851745Y-72089684D01*
X144800615Y-71953295D01*
X144713261Y-71836739D01*
X144596705Y-71749385D01*
X144460316Y-71698255D01*
X144398134Y-71691500D01*
X142701866Y-71691500D01*
X142639684Y-71698255D01*
X142503295Y-71749385D01*
X142386739Y-71836739D01*
X142299385Y-71953295D01*
X142248255Y-72089684D01*
X142241500Y-72151866D01*
X142241500Y-73848134D01*
X142248255Y-73910316D01*
X142299385Y-74046705D01*
X142386739Y-74163261D01*
X142503295Y-74250615D01*
X142639684Y-74301745D01*
X142650474Y-74302917D01*
X142652606Y-74303803D01*
X142655222Y-74304425D01*
X142655121Y-74304848D01*
X142716035Y-74330155D01*
X142756463Y-74388517D01*
X142758922Y-74459471D01*
X142722629Y-74520490D01*
X142713969Y-74527489D01*
X142710207Y-74530646D01*
X142705700Y-74533802D01*
X142543802Y-74695700D01*
X142540645Y-74700208D01*
X142540643Y-74700211D01*
X142443698Y-74838662D01*
X142388240Y-74882990D01*
X142317621Y-74890299D01*
X142251390Y-74855486D01*
X141704405Y-74308500D01*
X141153652Y-73757747D01*
X141146112Y-73749461D01*
X141142000Y-73742982D01*
X141116034Y-73718598D01*
X141092349Y-73696357D01*
X141089507Y-73693602D01*
X141069770Y-73673865D01*
X141066573Y-73671385D01*
X141057551Y-73663680D01*
X141044122Y-73651069D01*
X141025321Y-73633414D01*
X141018375Y-73629595D01*
X141018372Y-73629593D01*
X141007566Y-73623652D01*
X140991047Y-73612801D01*
X140990583Y-73612441D01*
X140975041Y-73600386D01*
X140967772Y-73597241D01*
X140967768Y-73597238D01*
X140934463Y-73582826D01*
X140923813Y-73577609D01*
X140885060Y-73556305D01*
X140865437Y-73551267D01*
X140846734Y-73544863D01*
X140835420Y-73539967D01*
X140835419Y-73539967D01*
X140828145Y-73536819D01*
X140820322Y-73535580D01*
X140820312Y-73535577D01*
X140784476Y-73529901D01*
X140772856Y-73527495D01*
X140737711Y-73518472D01*
X140737710Y-73518472D01*
X140730030Y-73516500D01*
X140709776Y-73516500D01*
X140690065Y-73514949D01*
X140677886Y-73513020D01*
X140670057Y-73511780D01*
X140640786Y-73514547D01*
X140626039Y-73515941D01*
X140614181Y-73516500D01*
X127232767Y-73516500D01*
X127221584Y-73515973D01*
X127214091Y-73514298D01*
X127206165Y-73514547D01*
X127206164Y-73514547D01*
X127146001Y-73516438D01*
X127142043Y-73516500D01*
X127114144Y-73516500D01*
X127110154Y-73517004D01*
X127098320Y-73517936D01*
X127054111Y-73519326D01*
X127046497Y-73521538D01*
X127046492Y-73521539D01*
X127034659Y-73524977D01*
X127015296Y-73528988D01*
X126995203Y-73531526D01*
X126987836Y-73534443D01*
X126987831Y-73534444D01*
X126954092Y-73547802D01*
X126942865Y-73551646D01*
X126900407Y-73563982D01*
X126893581Y-73568019D01*
X126882972Y-73574293D01*
X126865224Y-73582988D01*
X126846383Y-73590448D01*
X126839967Y-73595110D01*
X126839966Y-73595110D01*
X126810613Y-73616436D01*
X126800693Y-73622952D01*
X126769465Y-73641420D01*
X126769462Y-73641422D01*
X126762638Y-73645458D01*
X126748317Y-73659779D01*
X126733284Y-73672619D01*
X126716893Y-73684528D01*
X126711843Y-73690632D01*
X126711838Y-73690637D01*
X126688707Y-73718598D01*
X126680717Y-73727379D01*
X125888499Y-74519596D01*
X125826187Y-74553621D01*
X125799404Y-74556500D01*
X125133999Y-74556500D01*
X125065878Y-74536498D01*
X125019385Y-74482842D01*
X125007999Y-74430500D01*
X125007999Y-73930331D01*
X125007629Y-73923510D01*
X125002105Y-73872648D01*
X124998479Y-73857396D01*
X124953324Y-73736946D01*
X124944786Y-73721351D01*
X124868285Y-73619276D01*
X124855724Y-73606715D01*
X124753649Y-73530214D01*
X124738054Y-73521676D01*
X124617606Y-73476522D01*
X124602351Y-73472895D01*
X124551486Y-73467369D01*
X124544672Y-73467000D01*
X123822115Y-73467000D01*
X123806876Y-73471475D01*
X123805671Y-73472865D01*
X123804000Y-73480548D01*
X123804000Y-75864884D01*
X123296000Y-75864884D01*
X123296000Y-74947115D01*
X123291525Y-74931876D01*
X123290135Y-74930671D01*
X123282452Y-74929000D01*
X122110116Y-74929000D01*
X122094877Y-74933475D01*
X122093672Y-74934865D01*
X122092001Y-74942548D01*
X122092001Y-75419669D01*
X121490468Y-75419669D01*
X121492006Y-74402885D01*
X122092000Y-74402885D01*
X122096475Y-74418124D01*
X122097865Y-74419329D01*
X122105548Y-74421000D01*
X123277885Y-74421000D01*
X123293124Y-74416525D01*
X123294329Y-74415135D01*
X123296000Y-74407452D01*
X123296000Y-73485116D01*
X123291525Y-73469877D01*
X123290135Y-73468672D01*
X123282452Y-73467001D01*
X122555331Y-73467001D01*
X122548510Y-73467371D01*
X122497648Y-73472895D01*
X122482396Y-73476521D01*
X122361946Y-73521676D01*
X122346351Y-73530214D01*
X122244276Y-73606715D01*
X122231715Y-73619276D01*
X122155214Y-73721351D01*
X122146676Y-73736946D01*
X122101522Y-73857394D01*
X122097895Y-73872649D01*
X122092369Y-73923514D01*
X122092000Y-73930328D01*
X122092000Y-74402885D01*
X121492006Y-74402885D01*
X121504101Y-66408487D01*
X127418009Y-66408487D01*
X127418104Y-66412117D01*
X127418104Y-66412119D01*
X127425268Y-66685715D01*
X127426789Y-66743789D01*
X127474050Y-67075861D01*
X127559164Y-67400299D01*
X127681005Y-67712805D01*
X127682709Y-67716023D01*
X127820381Y-67976039D01*
X127837957Y-68009235D01*
X127840009Y-68012220D01*
X127840014Y-68012229D01*
X127973075Y-68205833D01*
X128027939Y-68285661D01*
X128030316Y-68288385D01*
X128030320Y-68288391D01*
X128218110Y-68503657D01*
X128248435Y-68538419D01*
X128496520Y-68764160D01*
X128768907Y-68959889D01*
X129061985Y-69123015D01*
X129371870Y-69251374D01*
X129375364Y-69252369D01*
X129375366Y-69252370D01*
X129690954Y-69342267D01*
X129690959Y-69342268D01*
X129694455Y-69343264D01*
X129921998Y-69380526D01*
X130021884Y-69396883D01*
X130021888Y-69396883D01*
X130025464Y-69397469D01*
X130029090Y-69397640D01*
X130356882Y-69413098D01*
X130356883Y-69413098D01*
X130360509Y-69413269D01*
X130373430Y-69412388D01*
X130691518Y-69390704D01*
X130691526Y-69390703D01*
X130695149Y-69390456D01*
X130698725Y-69389793D01*
X130698727Y-69389793D01*
X131021385Y-69329992D01*
X131021389Y-69329991D01*
X131024950Y-69329331D01*
X131345540Y-69230705D01*
X131587697Y-69124405D01*
X131649346Y-69097343D01*
X131649350Y-69097341D01*
X131652669Y-69095884D01*
X131942267Y-68926657D01*
X131945176Y-68924473D01*
X132207588Y-68727448D01*
X132207592Y-68727445D01*
X132210495Y-68725265D01*
X132453798Y-68494379D01*
X132668952Y-68237059D01*
X132670940Y-68234033D01*
X132851117Y-67959740D01*
X132851122Y-67959731D01*
X132853104Y-67956714D01*
X133003813Y-67657062D01*
X133099060Y-67396787D01*
X133117834Y-67345486D01*
X133117837Y-67345476D01*
X133119082Y-67342074D01*
X133119927Y-67338552D01*
X133119930Y-67338544D01*
X133196537Y-67019453D01*
X133196538Y-67019449D01*
X133197384Y-67015924D01*
X133197821Y-67012314D01*
X133237344Y-66685715D01*
X133237345Y-66685708D01*
X133237680Y-66682936D01*
X133243429Y-66500000D01*
X133238362Y-66412119D01*
X133224330Y-66168759D01*
X133224329Y-66168754D01*
X133224121Y-66165139D01*
X133166453Y-65834716D01*
X133071189Y-65513111D01*
X132939593Y-65204587D01*
X132891437Y-65120160D01*
X132775210Y-64916393D01*
X132775205Y-64916386D01*
X132773407Y-64913233D01*
X132574836Y-64642910D01*
X132346510Y-64397203D01*
X132119635Y-64203433D01*
X132094229Y-64181734D01*
X132094224Y-64181730D01*
X132091457Y-64179367D01*
X132010823Y-64125183D01*
X131816064Y-63994310D01*
X131816060Y-63994308D01*
X131813056Y-63992289D01*
X131514998Y-63838450D01*
X131201234Y-63719889D01*
X130875922Y-63638176D01*
X130735625Y-63619705D01*
X130546978Y-63594869D01*
X130546970Y-63594868D01*
X130543374Y-63594395D01*
X130404939Y-63592221D01*
X130211640Y-63589184D01*
X130211636Y-63589184D01*
X130207998Y-63589127D01*
X130204383Y-63589488D01*
X130204378Y-63589488D01*
X129967374Y-63613144D01*
X129874239Y-63622440D01*
X129546521Y-63693894D01*
X129543094Y-63695067D01*
X129543088Y-63695069D01*
X129232619Y-63801367D01*
X129232614Y-63801369D01*
X129229188Y-63802542D01*
X129225920Y-63804101D01*
X129225912Y-63804104D01*
X129071604Y-63877706D01*
X128926445Y-63946943D01*
X128642305Y-64125183D01*
X128639471Y-64127453D01*
X128639466Y-64127457D01*
X128460877Y-64270534D01*
X128380535Y-64334900D01*
X128144605Y-64573315D01*
X128142369Y-64576167D01*
X128142367Y-64576169D01*
X127939877Y-64834414D01*
X127937640Y-64837267D01*
X127762385Y-65123257D01*
X127760858Y-65126547D01*
X127760853Y-65126556D01*
X127723085Y-65207921D01*
X127621162Y-65427495D01*
X127515844Y-65745949D01*
X127447825Y-66074397D01*
X127447502Y-66078019D01*
X127447501Y-66078024D01*
X127418332Y-66404865D01*
X127418009Y-66408487D01*
X121504101Y-66408487D01*
X121508440Y-63540198D01*
X121508451Y-63539929D01*
X121508500Y-63539614D01*
X121508500Y-63500610D01*
X121508555Y-63464256D01*
X121508510Y-63463937D01*
X121508500Y-63463659D01*
X121508500Y-63204966D01*
X149851257Y-63204966D01*
X149881565Y-63339446D01*
X149884645Y-63349275D01*
X149964770Y-63546603D01*
X149969413Y-63555794D01*
X150080694Y-63737388D01*
X150086777Y-63745699D01*
X150226213Y-63906667D01*
X150233580Y-63913883D01*
X150397434Y-64049916D01*
X150405881Y-64055831D01*
X150589756Y-64163279D01*
X150599042Y-64167729D01*
X150798001Y-64243703D01*
X150807899Y-64246579D01*
X150911250Y-64267606D01*
X150925299Y-64266410D01*
X150929000Y-64256065D01*
X150929000Y-64255517D01*
X151437000Y-64255517D01*
X151441064Y-64269359D01*
X151454478Y-64271393D01*
X151461184Y-64270534D01*
X151471262Y-64268392D01*
X151675255Y-64207191D01*
X151684842Y-64203433D01*
X151876095Y-64109739D01*
X151884945Y-64104464D01*
X152058328Y-63980792D01*
X152066200Y-63974139D01*
X152217052Y-63823812D01*
X152223730Y-63815965D01*
X152348003Y-63643020D01*
X152353313Y-63634183D01*
X152447670Y-63443267D01*
X152451469Y-63433672D01*
X152513377Y-63229910D01*
X152515555Y-63219837D01*
X152516986Y-63208962D01*
X152514775Y-63194778D01*
X152501617Y-63191000D01*
X151455115Y-63191000D01*
X151439876Y-63195475D01*
X151438671Y-63196865D01*
X151437000Y-63204548D01*
X151437000Y-64255517D01*
X150929000Y-64255517D01*
X150929000Y-63209115D01*
X150924525Y-63193876D01*
X150923135Y-63192671D01*
X150915452Y-63191000D01*
X149866225Y-63191000D01*
X149852694Y-63194973D01*
X149851257Y-63204966D01*
X121508500Y-63204966D01*
X121508500Y-51546943D01*
X127044780Y-51546943D01*
X127045526Y-51554835D01*
X127048941Y-51590961D01*
X127049500Y-51602819D01*
X127049500Y-56442233D01*
X127048973Y-56453416D01*
X127047298Y-56460909D01*
X127047547Y-56468834D01*
X127047547Y-56468836D01*
X127049438Y-56528983D01*
X127049500Y-56532942D01*
X127049500Y-56560856D01*
X127049997Y-56564790D01*
X127049997Y-56564791D01*
X127050005Y-56564856D01*
X127050938Y-56576693D01*
X127052327Y-56620889D01*
X127056941Y-56636770D01*
X127057978Y-56640339D01*
X127061987Y-56659700D01*
X127064526Y-56679797D01*
X127067445Y-56687168D01*
X127067445Y-56687170D01*
X127080804Y-56720912D01*
X127084649Y-56732142D01*
X127085000Y-56733350D01*
X127096982Y-56774593D01*
X127101015Y-56781412D01*
X127101017Y-56781417D01*
X127107293Y-56792028D01*
X127115988Y-56809776D01*
X127123448Y-56828617D01*
X127128110Y-56835033D01*
X127128110Y-56835034D01*
X127149436Y-56864387D01*
X127155952Y-56874307D01*
X127170198Y-56898395D01*
X127178458Y-56912362D01*
X127192779Y-56926683D01*
X127205619Y-56941716D01*
X127217528Y-56958107D01*
X127223632Y-56963157D01*
X127223637Y-56963162D01*
X127251598Y-56986293D01*
X127260379Y-56994283D01*
X127747993Y-57481898D01*
X127782018Y-57544210D01*
X127776953Y-57615026D01*
X127773092Y-57624242D01*
X127725206Y-57726934D01*
X127725203Y-57726942D01*
X127722880Y-57731924D01*
X127665885Y-57944629D01*
X127646693Y-58164000D01*
X127665885Y-58383371D01*
X127722880Y-58596076D01*
X127760079Y-58675850D01*
X127813618Y-58790666D01*
X127813621Y-58790671D01*
X127815944Y-58795653D01*
X127819100Y-58800160D01*
X127819101Y-58800162D01*
X127935950Y-58967039D01*
X127942251Y-58976038D01*
X128097962Y-59131749D01*
X128102471Y-59134906D01*
X128102473Y-59134908D01*
X128131015Y-59154893D01*
X128278346Y-59258056D01*
X128477924Y-59351120D01*
X128690629Y-59408115D01*
X128910000Y-59427307D01*
X129129371Y-59408115D01*
X129342076Y-59351120D01*
X129541654Y-59258056D01*
X129688985Y-59154893D01*
X129717527Y-59134908D01*
X129717529Y-59134906D01*
X129722038Y-59131749D01*
X129877749Y-58976038D01*
X129884051Y-58967039D01*
X130000899Y-58800162D01*
X130000900Y-58800160D01*
X130004056Y-58795653D01*
X130006379Y-58790671D01*
X130006382Y-58790666D01*
X130059921Y-58675850D01*
X130097120Y-58596076D01*
X130154115Y-58383371D01*
X130163819Y-58272452D01*
X130189682Y-58206334D01*
X130247186Y-58164695D01*
X130318073Y-58160754D01*
X130378435Y-58194339D01*
X130552681Y-58368585D01*
X130586707Y-58430897D01*
X130581642Y-58501712D01*
X130564411Y-58533246D01*
X130549385Y-58553295D01*
X130498255Y-58689684D01*
X130491500Y-58751866D01*
X130491500Y-60348134D01*
X130498255Y-60410316D01*
X130549385Y-60546705D01*
X130636739Y-60663261D01*
X130753295Y-60750615D01*
X130889684Y-60801745D01*
X130951866Y-60808500D01*
X132548134Y-60808500D01*
X132610316Y-60801745D01*
X132746705Y-60750615D01*
X132863261Y-60663261D01*
X132950615Y-60546705D01*
X133001745Y-60410316D01*
X133008500Y-60348134D01*
X133008500Y-58859500D01*
X133028502Y-58791379D01*
X133082158Y-58744886D01*
X133134500Y-58733500D01*
X133651406Y-58733500D01*
X133719527Y-58753502D01*
X133740501Y-58770405D01*
X135729343Y-60759247D01*
X135736887Y-60767537D01*
X135741000Y-60774018D01*
X135746777Y-60779443D01*
X135790667Y-60820658D01*
X135793509Y-60823413D01*
X135813230Y-60843134D01*
X135816425Y-60845612D01*
X135825447Y-60853318D01*
X135857679Y-60883586D01*
X135864628Y-60887406D01*
X135875432Y-60893346D01*
X135891956Y-60904199D01*
X135907959Y-60916613D01*
X135948543Y-60934176D01*
X135959173Y-60939383D01*
X135997940Y-60960695D01*
X136005617Y-60962666D01*
X136005622Y-60962668D01*
X136017558Y-60965732D01*
X136036266Y-60972137D01*
X136054855Y-60980181D01*
X136062683Y-60981421D01*
X136062690Y-60981423D01*
X136098524Y-60987099D01*
X136110144Y-60989505D01*
X136145289Y-60998528D01*
X136152970Y-61000500D01*
X136173224Y-61000500D01*
X136192934Y-61002051D01*
X136212943Y-61005220D01*
X136220835Y-61004474D01*
X136246467Y-61002051D01*
X136256962Y-61001059D01*
X136268819Y-61000500D01*
X137880832Y-61000500D01*
X137929050Y-61010091D01*
X138049150Y-61059838D01*
X138057338Y-61060916D01*
X138164021Y-61074961D01*
X138168115Y-61075500D01*
X138206634Y-61075500D01*
X139382029Y-61075499D01*
X139450150Y-61095501D01*
X139496643Y-61149157D01*
X139506747Y-61219431D01*
X139489290Y-61267613D01*
X139481132Y-61280848D01*
X139477291Y-61287080D01*
X139422526Y-61452191D01*
X139412000Y-61554928D01*
X139412000Y-62129072D01*
X139412337Y-62132318D01*
X139412337Y-62132322D01*
X139421940Y-62224868D01*
X139422793Y-62233093D01*
X139424974Y-62239629D01*
X139424974Y-62239631D01*
X139469268Y-62372395D01*
X139477846Y-62398107D01*
X139569384Y-62546031D01*
X139574566Y-62551204D01*
X139687316Y-62663758D01*
X139687321Y-62663762D01*
X139692497Y-62668929D01*
X139840580Y-62760209D01*
X140005691Y-62814974D01*
X140012527Y-62815674D01*
X140012530Y-62815675D01*
X140059870Y-62820525D01*
X140108428Y-62825500D01*
X140807572Y-62825500D01*
X140810818Y-62825163D01*
X140810822Y-62825163D01*
X140904735Y-62815419D01*
X140904739Y-62815418D01*
X140911593Y-62814707D01*
X140918129Y-62812526D01*
X140918131Y-62812526D01*
X141050895Y-62768232D01*
X141076607Y-62759654D01*
X141224531Y-62668116D01*
X141231774Y-62660861D01*
X141233538Y-62659895D01*
X141235441Y-62658387D01*
X141235699Y-62658713D01*
X141294054Y-62626781D01*
X141364875Y-62631782D01*
X141409970Y-62660708D01*
X141412631Y-62663364D01*
X141424040Y-62672375D01*
X141559563Y-62755912D01*
X141572741Y-62762056D01*
X141724266Y-62812315D01*
X141737632Y-62815181D01*
X141830270Y-62824672D01*
X141836685Y-62825000D01*
X141910885Y-62825000D01*
X141926124Y-62820525D01*
X141927329Y-62819135D01*
X141929000Y-62811452D01*
X141929000Y-62806885D01*
X142437000Y-62806885D01*
X142441475Y-62822124D01*
X142442865Y-62823329D01*
X142450548Y-62825000D01*
X142529266Y-62825000D01*
X142535782Y-62824663D01*
X142629632Y-62814925D01*
X142643028Y-62812032D01*
X142794453Y-62761512D01*
X142807615Y-62755347D01*
X142942992Y-62671574D01*
X142954390Y-62662540D01*
X143066863Y-62549871D01*
X143075875Y-62538460D01*
X143159412Y-62402937D01*
X143165556Y-62389759D01*
X143215815Y-62238234D01*
X143218681Y-62224868D01*
X143228172Y-62132230D01*
X143228500Y-62125815D01*
X143228500Y-62114115D01*
X143224025Y-62098876D01*
X143222635Y-62097671D01*
X143214952Y-62096000D01*
X142455115Y-62096000D01*
X142439876Y-62100475D01*
X142438671Y-62101865D01*
X142437000Y-62109548D01*
X142437000Y-62806885D01*
X141929000Y-62806885D01*
X141929000Y-61569885D01*
X142437000Y-61569885D01*
X142441475Y-61585124D01*
X142442865Y-61586329D01*
X142450548Y-61588000D01*
X143210385Y-61588000D01*
X143225624Y-61583525D01*
X143226829Y-61582135D01*
X143228500Y-61574452D01*
X143228500Y-61558234D01*
X143228163Y-61551718D01*
X143218425Y-61457868D01*
X143215532Y-61444472D01*
X143165012Y-61293047D01*
X143158847Y-61279885D01*
X143075074Y-61144508D01*
X143066040Y-61133110D01*
X142953371Y-61020637D01*
X142941960Y-61011625D01*
X142806437Y-60928088D01*
X142793259Y-60921944D01*
X142641734Y-60871685D01*
X142628368Y-60868819D01*
X142535730Y-60859328D01*
X142529315Y-60859000D01*
X142455115Y-60859000D01*
X142439876Y-60863475D01*
X142438671Y-60864865D01*
X142437000Y-60872548D01*
X142437000Y-61569885D01*
X141929000Y-61569885D01*
X141929000Y-60877115D01*
X141924525Y-60861876D01*
X141923135Y-60860671D01*
X141915452Y-60859000D01*
X141836734Y-60859000D01*
X141830218Y-60859337D01*
X141736368Y-60869075D01*
X141722972Y-60871968D01*
X141571547Y-60922488D01*
X141558385Y-60928653D01*
X141423008Y-61012426D01*
X141411606Y-61021464D01*
X141409933Y-61023139D01*
X141408507Y-61023919D01*
X141405873Y-61026007D01*
X141405516Y-61025556D01*
X141347651Y-61057219D01*
X141276831Y-61052216D01*
X141231746Y-61023299D01*
X141228685Y-61020244D01*
X141223503Y-61015071D01*
X141201786Y-61001684D01*
X141151384Y-60970616D01*
X141103891Y-60917844D01*
X141091500Y-60863356D01*
X141091500Y-59670767D01*
X141092027Y-59659584D01*
X141093702Y-59652091D01*
X141091562Y-59584014D01*
X141091500Y-59580055D01*
X141091500Y-59552144D01*
X141090995Y-59548144D01*
X141090062Y-59536301D01*
X141088922Y-59500029D01*
X141088673Y-59492110D01*
X141083022Y-59472658D01*
X141079014Y-59453306D01*
X141077467Y-59441063D01*
X141076474Y-59433203D01*
X141073556Y-59425832D01*
X141060200Y-59392097D01*
X141056355Y-59380870D01*
X141055721Y-59378687D01*
X141044018Y-59338407D01*
X141033707Y-59320972D01*
X141025012Y-59303224D01*
X141017552Y-59284383D01*
X140991564Y-59248613D01*
X140985048Y-59238693D01*
X140966580Y-59207465D01*
X140966578Y-59207462D01*
X140962542Y-59200638D01*
X140948221Y-59186317D01*
X140935380Y-59171283D01*
X140928132Y-59161307D01*
X140923472Y-59154893D01*
X140889407Y-59126712D01*
X140880626Y-59118722D01*
X140436647Y-58674742D01*
X140429113Y-58666463D01*
X140425000Y-58659982D01*
X140375348Y-58613356D01*
X140372507Y-58610602D01*
X140352770Y-58590865D01*
X140349573Y-58588385D01*
X140340551Y-58580680D01*
X140322019Y-58563277D01*
X140308321Y-58550414D01*
X140301375Y-58546595D01*
X140301372Y-58546593D01*
X140290566Y-58540652D01*
X140274047Y-58529801D01*
X140273583Y-58529441D01*
X140258041Y-58517386D01*
X140250772Y-58514241D01*
X140250768Y-58514238D01*
X140217463Y-58499826D01*
X140206813Y-58494609D01*
X140168060Y-58473305D01*
X140168059Y-58473305D01*
X140168100Y-58473230D01*
X140115145Y-58431914D01*
X140091499Y-58358432D01*
X140091499Y-58277116D01*
X140089973Y-58265520D01*
X140076916Y-58166337D01*
X140076916Y-58166335D01*
X140075838Y-58158150D01*
X140068411Y-58140219D01*
X140060821Y-58069630D01*
X140068411Y-58043780D01*
X140072678Y-58033480D01*
X140072679Y-58033477D01*
X140075838Y-58025850D01*
X140091500Y-57906885D01*
X140091499Y-57627116D01*
X140090482Y-57619385D01*
X140076916Y-57516337D01*
X140076916Y-57516335D01*
X140075838Y-57508150D01*
X140068411Y-57490219D01*
X140060821Y-57419630D01*
X140068411Y-57393780D01*
X140072678Y-57383480D01*
X140072679Y-57383477D01*
X140075838Y-57375850D01*
X140091500Y-57256885D01*
X140091499Y-57126438D01*
X140111501Y-57058318D01*
X140143437Y-57024503D01*
X140176392Y-57000561D01*
X140186307Y-56994048D01*
X140217535Y-56975580D01*
X140217538Y-56975578D01*
X140224362Y-56971542D01*
X140238683Y-56957221D01*
X140253717Y-56944380D01*
X140257382Y-56941717D01*
X140270107Y-56932472D01*
X140298298Y-56898395D01*
X140306288Y-56889616D01*
X140475247Y-56720657D01*
X140483537Y-56713113D01*
X140490018Y-56709000D01*
X140536659Y-56659332D01*
X140539413Y-56656491D01*
X140559134Y-56636770D01*
X140561612Y-56633575D01*
X140569318Y-56624553D01*
X140576517Y-56616887D01*
X140599586Y-56592321D01*
X140609346Y-56574568D01*
X140620199Y-56558045D01*
X140627753Y-56548306D01*
X140632613Y-56542041D01*
X140650176Y-56501457D01*
X140655383Y-56490827D01*
X140676695Y-56452060D01*
X140678666Y-56444383D01*
X140678668Y-56444378D01*
X140681732Y-56432442D01*
X140688138Y-56413730D01*
X140693034Y-56402417D01*
X140696181Y-56395145D01*
X140697946Y-56384006D01*
X140703097Y-56351481D01*
X140705504Y-56339860D01*
X140714528Y-56304711D01*
X140714528Y-56304710D01*
X140716500Y-56297030D01*
X140716500Y-56276769D01*
X140718051Y-56257058D01*
X140719979Y-56244885D01*
X140721219Y-56237057D01*
X140717059Y-56193046D01*
X140716500Y-56181189D01*
X140716500Y-55188746D01*
X140736502Y-55120625D01*
X140790158Y-55074132D01*
X140860432Y-55064028D01*
X140882167Y-55069153D01*
X141006266Y-55110315D01*
X141019632Y-55113181D01*
X141112270Y-55122672D01*
X141118685Y-55123000D01*
X141192885Y-55123000D01*
X141208124Y-55118525D01*
X141209329Y-55117135D01*
X141211000Y-55109452D01*
X141211000Y-55104885D01*
X141719000Y-55104885D01*
X141723475Y-55120124D01*
X141724865Y-55121329D01*
X141732548Y-55123000D01*
X141811266Y-55123000D01*
X141817782Y-55122663D01*
X141911632Y-55112925D01*
X141925028Y-55110032D01*
X142076453Y-55059512D01*
X142089615Y-55053347D01*
X142224992Y-54969574D01*
X142236390Y-54960540D01*
X142348863Y-54847871D01*
X142357875Y-54836460D01*
X142441412Y-54700937D01*
X142447556Y-54687759D01*
X142497815Y-54536234D01*
X142500681Y-54522868D01*
X142510172Y-54430230D01*
X142510500Y-54423815D01*
X142510500Y-54412115D01*
X142506025Y-54396876D01*
X142504635Y-54395671D01*
X142496952Y-54394000D01*
X141737115Y-54394000D01*
X141721876Y-54398475D01*
X141720671Y-54399865D01*
X141719000Y-54407548D01*
X141719000Y-55104885D01*
X141211000Y-55104885D01*
X141211000Y-53867885D01*
X141719000Y-53867885D01*
X141723475Y-53883124D01*
X141724865Y-53884329D01*
X141732548Y-53886000D01*
X142492385Y-53886000D01*
X142507624Y-53881525D01*
X142508829Y-53880135D01*
X142510500Y-53872452D01*
X142510500Y-53856234D01*
X142510163Y-53849718D01*
X142500425Y-53755868D01*
X142497532Y-53742472D01*
X142447012Y-53591047D01*
X142440847Y-53577885D01*
X142357074Y-53442508D01*
X142348040Y-53431110D01*
X142235371Y-53318637D01*
X142223960Y-53309625D01*
X142088437Y-53226088D01*
X142075259Y-53219944D01*
X141923734Y-53169685D01*
X141910368Y-53166819D01*
X141817730Y-53157328D01*
X141811315Y-53157000D01*
X141737115Y-53157000D01*
X141721876Y-53161475D01*
X141720671Y-53162865D01*
X141719000Y-53170548D01*
X141719000Y-53867885D01*
X141211000Y-53867885D01*
X141211000Y-53175115D01*
X141206525Y-53159876D01*
X141205135Y-53158671D01*
X141197452Y-53157000D01*
X141118734Y-53157000D01*
X141112218Y-53157337D01*
X141018368Y-53167075D01*
X141004972Y-53169968D01*
X140853547Y-53220488D01*
X140840385Y-53226653D01*
X140705008Y-53310426D01*
X140693606Y-53319464D01*
X140691933Y-53321139D01*
X140690507Y-53321919D01*
X140687873Y-53324007D01*
X140687516Y-53323556D01*
X140629651Y-53355219D01*
X140558831Y-53350216D01*
X140513746Y-53321299D01*
X140510685Y-53318244D01*
X140505503Y-53313071D01*
X140497559Y-53308174D01*
X140363650Y-53225631D01*
X140363648Y-53225630D01*
X140357420Y-53221791D01*
X140192309Y-53167026D01*
X140185473Y-53166326D01*
X140185470Y-53166325D01*
X140133974Y-53161049D01*
X140089572Y-53156500D01*
X139390428Y-53156500D01*
X139387182Y-53156837D01*
X139387178Y-53156837D01*
X139293265Y-53166581D01*
X139293261Y-53166582D01*
X139286407Y-53167293D01*
X139279871Y-53169474D01*
X139279869Y-53169474D01*
X139195946Y-53197473D01*
X139121393Y-53222346D01*
X138973469Y-53313884D01*
X138968295Y-53319067D01*
X138954111Y-53333275D01*
X138891828Y-53367353D01*
X138821008Y-53362348D01*
X138775923Y-53333428D01*
X138745688Y-53303246D01*
X138745683Y-53303242D01*
X138740503Y-53298071D01*
X138624642Y-53226653D01*
X138598650Y-53210631D01*
X138598648Y-53210630D01*
X138592420Y-53206791D01*
X138427309Y-53152026D01*
X138420473Y-53151326D01*
X138420470Y-53151325D01*
X138368974Y-53146049D01*
X138324572Y-53141500D01*
X137625428Y-53141500D01*
X137622182Y-53141837D01*
X137622178Y-53141837D01*
X137528265Y-53151581D01*
X137528261Y-53151582D01*
X137521407Y-53152293D01*
X137514871Y-53154474D01*
X137514869Y-53154474D01*
X137466690Y-53170548D01*
X137356393Y-53207346D01*
X137336035Y-53219944D01*
X137215990Y-53294230D01*
X137208469Y-53298884D01*
X137201577Y-53305788D01*
X137200113Y-53306589D01*
X137197562Y-53308611D01*
X137197216Y-53308174D01*
X137139296Y-53339866D01*
X137068476Y-53334863D01*
X137023390Y-53305944D01*
X137020684Y-53303243D01*
X137015503Y-53298071D01*
X136899642Y-53226653D01*
X136873650Y-53210631D01*
X136873648Y-53210630D01*
X136867420Y-53206791D01*
X136702309Y-53152026D01*
X136695473Y-53151326D01*
X136695470Y-53151325D01*
X136643974Y-53146049D01*
X136599572Y-53141500D01*
X135900428Y-53141500D01*
X135897182Y-53141837D01*
X135897178Y-53141837D01*
X135803265Y-53151581D01*
X135803261Y-53151582D01*
X135796407Y-53152293D01*
X135789871Y-53154474D01*
X135789869Y-53154474D01*
X135741690Y-53170548D01*
X135631393Y-53207346D01*
X135483469Y-53298884D01*
X135478296Y-53304066D01*
X135365742Y-53416816D01*
X135365738Y-53416821D01*
X135360571Y-53421997D01*
X135356731Y-53428227D01*
X135356730Y-53428228D01*
X135351959Y-53435969D01*
X135269291Y-53570080D01*
X135214526Y-53735191D01*
X135213826Y-53742027D01*
X135213825Y-53742030D01*
X135209902Y-53780319D01*
X135204000Y-53837928D01*
X135204000Y-54412072D01*
X135204337Y-54415318D01*
X135204337Y-54415322D01*
X135207112Y-54442061D01*
X135214793Y-54516093D01*
X135216974Y-54522629D01*
X135216974Y-54522631D01*
X135235768Y-54578962D01*
X135269846Y-54681107D01*
X135361384Y-54829031D01*
X135366566Y-54834204D01*
X135405804Y-54873373D01*
X135439884Y-54935656D01*
X135434881Y-55006476D01*
X135405960Y-55051565D01*
X135381071Y-55076497D01*
X135377231Y-55082727D01*
X135377230Y-55082728D01*
X135308923Y-55193543D01*
X135289791Y-55224580D01*
X135235026Y-55389691D01*
X135224500Y-55492428D01*
X135224500Y-56191572D01*
X135224837Y-56194818D01*
X135224837Y-56194822D01*
X135234402Y-56287002D01*
X135235293Y-56295593D01*
X135237474Y-56302129D01*
X135237474Y-56302131D01*
X135251981Y-56345614D01*
X135290346Y-56460607D01*
X135305735Y-56485476D01*
X135362063Y-56576500D01*
X135381884Y-56608531D01*
X135388788Y-56615423D01*
X135389589Y-56616887D01*
X135391611Y-56619438D01*
X135391174Y-56619784D01*
X135422866Y-56677704D01*
X135417863Y-56748524D01*
X135388944Y-56793610D01*
X135381071Y-56801497D01*
X135377231Y-56807727D01*
X135377230Y-56807728D01*
X135321455Y-56898211D01*
X135268682Y-56945705D01*
X135198611Y-56957128D01*
X135133487Y-56928853D01*
X135125100Y-56921190D01*
X134512665Y-56308755D01*
X134489745Y-56276143D01*
X134488764Y-56273125D01*
X134484516Y-56266432D01*
X134484514Y-56266427D01*
X134484350Y-56266169D01*
X134473585Y-56245042D01*
X134473471Y-56244754D01*
X134473468Y-56244749D01*
X134470552Y-56237383D01*
X134465896Y-56230975D01*
X134465893Y-56230969D01*
X134437542Y-56191948D01*
X134433092Y-56185401D01*
X134420160Y-56165023D01*
X134403000Y-56137982D01*
X134396993Y-56132341D01*
X134381312Y-56114554D01*
X134381134Y-56114309D01*
X134381132Y-56114307D01*
X134376472Y-56107893D01*
X134370362Y-56102838D01*
X134333204Y-56072097D01*
X134327270Y-56066866D01*
X134292102Y-56033842D01*
X134292099Y-56033840D01*
X134286321Y-56028414D01*
X134279097Y-56024442D01*
X134259494Y-56011119D01*
X134259254Y-56010920D01*
X134259247Y-56010916D01*
X134253144Y-56005867D01*
X134202324Y-55981953D01*
X134195292Y-55978371D01*
X134146060Y-55951305D01*
X134138385Y-55949335D01*
X134138379Y-55949332D01*
X134138081Y-55949256D01*
X134115772Y-55941224D01*
X134115497Y-55941094D01*
X134115489Y-55941091D01*
X134108318Y-55937717D01*
X134053151Y-55927194D01*
X134045442Y-55925471D01*
X134011449Y-55916743D01*
X133998707Y-55913471D01*
X133998706Y-55913471D01*
X133991030Y-55911500D01*
X133982793Y-55911500D01*
X133959184Y-55909268D01*
X133958881Y-55909210D01*
X133958877Y-55909210D01*
X133951094Y-55907725D01*
X133895049Y-55911251D01*
X133887138Y-55911500D01*
X132715477Y-55911500D01*
X132647356Y-55891498D01*
X132626382Y-55874595D01*
X132562038Y-55810251D01*
X132381654Y-55683944D01*
X132182076Y-55590880D01*
X131969371Y-55533885D01*
X131949166Y-55532117D01*
X131909947Y-55528686D01*
X131843829Y-55502822D01*
X131802189Y-55445319D01*
X131798249Y-55374431D01*
X131831834Y-55314070D01*
X131857401Y-55288503D01*
X131919713Y-55254477D01*
X131935515Y-55252077D01*
X131969371Y-55249115D01*
X132060936Y-55224580D01*
X132176765Y-55193543D01*
X132176764Y-55193543D01*
X132182076Y-55192120D01*
X132381654Y-55099056D01*
X132535259Y-54991500D01*
X132557527Y-54975908D01*
X132557529Y-54975906D01*
X132562038Y-54972749D01*
X132717749Y-54817038D01*
X132776147Y-54733638D01*
X132840899Y-54641162D01*
X132840900Y-54641160D01*
X132844056Y-54636653D01*
X132846379Y-54631671D01*
X132846382Y-54631666D01*
X132934795Y-54442061D01*
X132937120Y-54437076D01*
X132994115Y-54224371D01*
X133013307Y-54005000D01*
X132994115Y-53785629D01*
X132937120Y-53572924D01*
X132872775Y-53434935D01*
X132846382Y-53378334D01*
X132846379Y-53378329D01*
X132844056Y-53373347D01*
X132839859Y-53367353D01*
X132720908Y-53197473D01*
X132720906Y-53197470D01*
X132717749Y-53192962D01*
X132562038Y-53037251D01*
X132381654Y-52910944D01*
X132182076Y-52817880D01*
X131969371Y-52760885D01*
X131782325Y-52744521D01*
X131751026Y-52732278D01*
X131731521Y-52742530D01*
X131717675Y-52744521D01*
X131530629Y-52760885D01*
X131317924Y-52817880D01*
X131224562Y-52861415D01*
X131123334Y-52908618D01*
X131123329Y-52908621D01*
X131118347Y-52910944D01*
X131113840Y-52914100D01*
X131113838Y-52914101D01*
X130942473Y-53034092D01*
X130942470Y-53034094D01*
X130937962Y-53037251D01*
X130782251Y-53192962D01*
X130779094Y-53197470D01*
X130779092Y-53197473D01*
X130660141Y-53367353D01*
X130655944Y-53373347D01*
X130653621Y-53378329D01*
X130653618Y-53378334D01*
X130627225Y-53434935D01*
X130562880Y-53572924D01*
X130505885Y-53785629D01*
X130486693Y-54005000D01*
X130505885Y-54224371D01*
X130562880Y-54437076D01*
X130629043Y-54578962D01*
X130638216Y-54598634D01*
X130648877Y-54668826D01*
X130619897Y-54733638D01*
X130613116Y-54740979D01*
X130314424Y-55039671D01*
X130252112Y-55073697D01*
X130181297Y-55068632D01*
X130124461Y-55026085D01*
X130103623Y-54983189D01*
X130098546Y-54964244D01*
X130098544Y-54964239D01*
X130097120Y-54958924D01*
X130028854Y-54812527D01*
X130006382Y-54764334D01*
X130006379Y-54764329D01*
X130004056Y-54759347D01*
X129991195Y-54740979D01*
X129880908Y-54583473D01*
X129880906Y-54583470D01*
X129877749Y-54578962D01*
X129763405Y-54464618D01*
X129729379Y-54402306D01*
X129726500Y-54375523D01*
X129726500Y-53634477D01*
X129746502Y-53566356D01*
X129763405Y-53545382D01*
X129877749Y-53431038D01*
X129884800Y-53420969D01*
X130000899Y-53255162D01*
X130000900Y-53255160D01*
X130004056Y-53250653D01*
X130006379Y-53245671D01*
X130006382Y-53245666D01*
X130094795Y-53056061D01*
X130097120Y-53051076D01*
X130154115Y-52838371D01*
X130173307Y-52619000D01*
X130154115Y-52399629D01*
X130097120Y-52186924D01*
X130028854Y-52040527D01*
X130006382Y-51992334D01*
X130006379Y-51992329D01*
X130004056Y-51987347D01*
X129895120Y-51831770D01*
X129872432Y-51764497D01*
X129889717Y-51695637D01*
X129941486Y-51647052D01*
X129998333Y-51633500D01*
X130467885Y-51633500D01*
X130536006Y-51653502D01*
X130582080Y-51706250D01*
X130653618Y-51859666D01*
X130653621Y-51859671D01*
X130655944Y-51864653D01*
X130659100Y-51869160D01*
X130659101Y-51869162D01*
X130738699Y-51982839D01*
X130782251Y-52045038D01*
X130937962Y-52200749D01*
X131118346Y-52327056D01*
X131317924Y-52420120D01*
X131530629Y-52477115D01*
X131716608Y-52493386D01*
X131717675Y-52493479D01*
X131748974Y-52505722D01*
X131768479Y-52495470D01*
X131782325Y-52493479D01*
X131783392Y-52493386D01*
X131969371Y-52477115D01*
X132182076Y-52420120D01*
X132381654Y-52327056D01*
X132562038Y-52200749D01*
X132717749Y-52045038D01*
X132761302Y-51982839D01*
X132840899Y-51869162D01*
X132840900Y-51869160D01*
X132844056Y-51864653D01*
X132846379Y-51859671D01*
X132846382Y-51859666D01*
X132934795Y-51670061D01*
X132937120Y-51665076D01*
X132994115Y-51452371D01*
X133013307Y-51233000D01*
X132994115Y-51013629D01*
X132937120Y-50800924D01*
X132893585Y-50707562D01*
X132846382Y-50606334D01*
X132846379Y-50606329D01*
X132844056Y-50601347D01*
X132779495Y-50509144D01*
X132720908Y-50425473D01*
X132720906Y-50425470D01*
X132717749Y-50420962D01*
X132562038Y-50265251D01*
X132381654Y-50138944D01*
X132182076Y-50045880D01*
X131969371Y-49988885D01*
X131773741Y-49971770D01*
X131752284Y-49963377D01*
X131740104Y-49969779D01*
X131726259Y-49971770D01*
X131530629Y-49988885D01*
X131317924Y-50045880D01*
X131264738Y-50070681D01*
X131123334Y-50136618D01*
X131123329Y-50136621D01*
X131118347Y-50138944D01*
X131113840Y-50142100D01*
X131113838Y-50142101D01*
X130942473Y-50262092D01*
X130942470Y-50262094D01*
X130937962Y-50265251D01*
X130873618Y-50329595D01*
X130811306Y-50363621D01*
X130784523Y-50366500D01*
X130237634Y-50366500D01*
X130169513Y-50346498D01*
X130123020Y-50292842D01*
X130112916Y-50222568D01*
X130115927Y-50207888D01*
X130152692Y-50070681D01*
X130154115Y-50065371D01*
X130173307Y-49846000D01*
X130154115Y-49626629D01*
X130122907Y-49510161D01*
X131064393Y-49510161D01*
X131073687Y-49522175D01*
X131114088Y-49550464D01*
X131123584Y-49555947D01*
X131313113Y-49644326D01*
X131323405Y-49648072D01*
X131525401Y-49702196D01*
X131536196Y-49704099D01*
X131726260Y-49720728D01*
X131747715Y-49729121D01*
X131759895Y-49722719D01*
X131773740Y-49720728D01*
X131963804Y-49704099D01*
X131974599Y-49702196D01*
X132176595Y-49648072D01*
X132186887Y-49644326D01*
X132376416Y-49555947D01*
X132385912Y-49550464D01*
X132427148Y-49521590D01*
X132435523Y-49511112D01*
X132428457Y-49497668D01*
X131762811Y-48832021D01*
X131748868Y-48824408D01*
X131747034Y-48824539D01*
X131740420Y-48828790D01*
X131070820Y-49498391D01*
X131064393Y-49510161D01*
X130122907Y-49510161D01*
X130097120Y-49413924D01*
X130053585Y-49320562D01*
X130006382Y-49219334D01*
X130006379Y-49219329D01*
X130004056Y-49214347D01*
X129955865Y-49145523D01*
X129880908Y-49038473D01*
X129880906Y-49038470D01*
X129877749Y-49033962D01*
X129722038Y-48878251D01*
X129541654Y-48751944D01*
X129342076Y-48658880D01*
X129129371Y-48601885D01*
X128910000Y-48582693D01*
X128690629Y-48601885D01*
X128477924Y-48658880D01*
X128384562Y-48702415D01*
X128283334Y-48749618D01*
X128283329Y-48749621D01*
X128278347Y-48751944D01*
X128273840Y-48755100D01*
X128273838Y-48755101D01*
X128102473Y-48875092D01*
X128102470Y-48875094D01*
X128097962Y-48878251D01*
X127942251Y-49033962D01*
X127939094Y-49038470D01*
X127939092Y-49038473D01*
X127864135Y-49145523D01*
X127815944Y-49214347D01*
X127813621Y-49219329D01*
X127813618Y-49219334D01*
X127766415Y-49320562D01*
X127722880Y-49413924D01*
X127665885Y-49626629D01*
X127646693Y-49846000D01*
X127665885Y-50065371D01*
X127722880Y-50278076D01*
X127797898Y-50438954D01*
X127808559Y-50509144D01*
X127779579Y-50573956D01*
X127772798Y-50581298D01*
X127290742Y-51063353D01*
X127282463Y-51070887D01*
X127275982Y-51075000D01*
X127229357Y-51124651D01*
X127226602Y-51127493D01*
X127206865Y-51147230D01*
X127204385Y-51150427D01*
X127196682Y-51159447D01*
X127166414Y-51191679D01*
X127162595Y-51198625D01*
X127162593Y-51198628D01*
X127156652Y-51209434D01*
X127145801Y-51225953D01*
X127133386Y-51241959D01*
X127130241Y-51249228D01*
X127130238Y-51249232D01*
X127115826Y-51282537D01*
X127110609Y-51293187D01*
X127089305Y-51331940D01*
X127087334Y-51339615D01*
X127087334Y-51339616D01*
X127084267Y-51351562D01*
X127077863Y-51370266D01*
X127069819Y-51388855D01*
X127068580Y-51396678D01*
X127068577Y-51396688D01*
X127062901Y-51432524D01*
X127060495Y-51444144D01*
X127049500Y-51486970D01*
X127049500Y-51507224D01*
X127047949Y-51526934D01*
X127044780Y-51546943D01*
X121508500Y-51546943D01*
X121508500Y-48465475D01*
X130487674Y-48465475D01*
X130505901Y-48673804D01*
X130507804Y-48684599D01*
X130561928Y-48886595D01*
X130565674Y-48896887D01*
X130654054Y-49086417D01*
X130659534Y-49095907D01*
X130688411Y-49137149D01*
X130698887Y-49145523D01*
X130712334Y-49138455D01*
X131377979Y-48472811D01*
X131384356Y-48461132D01*
X132114408Y-48461132D01*
X132114539Y-48462966D01*
X132118790Y-48469580D01*
X132788391Y-49139180D01*
X132800161Y-49145607D01*
X132812176Y-49136311D01*
X132840466Y-49095907D01*
X132845946Y-49086417D01*
X132934326Y-48896887D01*
X132938072Y-48886595D01*
X132992196Y-48684599D01*
X132994099Y-48673804D01*
X133012326Y-48465475D01*
X133012326Y-48454525D01*
X132994099Y-48246196D01*
X132992196Y-48235401D01*
X132938072Y-48033405D01*
X132934326Y-48023113D01*
X132845946Y-47833583D01*
X132840466Y-47824093D01*
X132811589Y-47782851D01*
X132801113Y-47774477D01*
X132787666Y-47781545D01*
X132122021Y-48447189D01*
X132114408Y-48461132D01*
X131384356Y-48461132D01*
X131385592Y-48458868D01*
X131385461Y-48457034D01*
X131381210Y-48450420D01*
X130711609Y-47780820D01*
X130699839Y-47774393D01*
X130687824Y-47783689D01*
X130659534Y-47824093D01*
X130654054Y-47833583D01*
X130565674Y-48023113D01*
X130561928Y-48033405D01*
X130507804Y-48235401D01*
X130505901Y-48246196D01*
X130487674Y-48454525D01*
X130487674Y-48465475D01*
X121508500Y-48465475D01*
X121508500Y-47408887D01*
X131064477Y-47408887D01*
X131071545Y-47422334D01*
X131737189Y-48087979D01*
X131751132Y-48095592D01*
X131752966Y-48095461D01*
X131759580Y-48091210D01*
X132429180Y-47421609D01*
X132435607Y-47409839D01*
X132426313Y-47397825D01*
X132385912Y-47369536D01*
X132376416Y-47364053D01*
X132186887Y-47275674D01*
X132176595Y-47271928D01*
X131974599Y-47217804D01*
X131963804Y-47215901D01*
X131755475Y-47197674D01*
X131744525Y-47197674D01*
X131536196Y-47215901D01*
X131525401Y-47217804D01*
X131323405Y-47271928D01*
X131313113Y-47275674D01*
X131123583Y-47364054D01*
X131114093Y-47369534D01*
X131072851Y-47398411D01*
X131064477Y-47408887D01*
X121508500Y-47408887D01*
X121508500Y-41418487D01*
X127418009Y-41418487D01*
X127418104Y-41422117D01*
X127418104Y-41422119D01*
X127425268Y-41695715D01*
X127426789Y-41753789D01*
X127474050Y-42085861D01*
X127559164Y-42410299D01*
X127681005Y-42722805D01*
X127682709Y-42726023D01*
X127811751Y-42969740D01*
X127837957Y-43019235D01*
X127840009Y-43022220D01*
X127840014Y-43022229D01*
X127973714Y-43216763D01*
X128027939Y-43295661D01*
X128030316Y-43298385D01*
X128030320Y-43298391D01*
X128246055Y-43545691D01*
X128248435Y-43548419D01*
X128496520Y-43774160D01*
X128768907Y-43969889D01*
X129061985Y-44133015D01*
X129371870Y-44261374D01*
X129375364Y-44262369D01*
X129375366Y-44262370D01*
X129690954Y-44352267D01*
X129690959Y-44352268D01*
X129694455Y-44353264D01*
X129921998Y-44390526D01*
X130021884Y-44406883D01*
X130021888Y-44406883D01*
X130025464Y-44407469D01*
X130029090Y-44407640D01*
X130356882Y-44423098D01*
X130356883Y-44423098D01*
X130360509Y-44423269D01*
X130373430Y-44422388D01*
X130691518Y-44400704D01*
X130691526Y-44400703D01*
X130695149Y-44400456D01*
X130698725Y-44399793D01*
X130698727Y-44399793D01*
X131021385Y-44339992D01*
X131021389Y-44339991D01*
X131024950Y-44339331D01*
X131345540Y-44240705D01*
X131587697Y-44134405D01*
X131649346Y-44107343D01*
X131649350Y-44107341D01*
X131652669Y-44105884D01*
X131942267Y-43936657D01*
X131945176Y-43934473D01*
X132207588Y-43737448D01*
X132207592Y-43737445D01*
X132210495Y-43735265D01*
X132453798Y-43504379D01*
X132668952Y-43247059D01*
X132816638Y-43022229D01*
X132851117Y-42969740D01*
X132851122Y-42969731D01*
X132853104Y-42966714D01*
X133003813Y-42667062D01*
X133099060Y-42406787D01*
X133117834Y-42355486D01*
X133117837Y-42355476D01*
X133119082Y-42352074D01*
X133119927Y-42348552D01*
X133119930Y-42348544D01*
X133196537Y-42029453D01*
X133196538Y-42029449D01*
X133197384Y-42025924D01*
X133197821Y-42022314D01*
X133237344Y-41695715D01*
X133237345Y-41695708D01*
X133237680Y-41692936D01*
X133243429Y-41510000D01*
X133238362Y-41422119D01*
X133224330Y-41178759D01*
X133224329Y-41178754D01*
X133224121Y-41175139D01*
X133166453Y-40844716D01*
X133071189Y-40523111D01*
X132939593Y-40214587D01*
X132891437Y-40130160D01*
X132775210Y-39926393D01*
X132775205Y-39926386D01*
X132773407Y-39923233D01*
X132574836Y-39652910D01*
X132346510Y-39407203D01*
X132213991Y-39294021D01*
X132094229Y-39191734D01*
X132094224Y-39191730D01*
X132091457Y-39189367D01*
X132010823Y-39135183D01*
X131816064Y-39004310D01*
X131816060Y-39004308D01*
X131813056Y-39002289D01*
X131514998Y-38848450D01*
X131201234Y-38729889D01*
X130875922Y-38648176D01*
X130735625Y-38629705D01*
X130546978Y-38604869D01*
X130546970Y-38604868D01*
X130543374Y-38604395D01*
X130404939Y-38602221D01*
X130211640Y-38599184D01*
X130211636Y-38599184D01*
X130207998Y-38599127D01*
X130204383Y-38599488D01*
X130204378Y-38599488D01*
X129967374Y-38623144D01*
X129874239Y-38632440D01*
X129546521Y-38703894D01*
X129543094Y-38705067D01*
X129543088Y-38705069D01*
X129232619Y-38811367D01*
X129232614Y-38811369D01*
X129229188Y-38812542D01*
X129225920Y-38814101D01*
X129225912Y-38814104D01*
X129071604Y-38887706D01*
X128926445Y-38956943D01*
X128642305Y-39135183D01*
X128639471Y-39137453D01*
X128639466Y-39137457D01*
X128383367Y-39342631D01*
X128380535Y-39344900D01*
X128144605Y-39583315D01*
X128142369Y-39586167D01*
X128142367Y-39586169D01*
X127939877Y-39844414D01*
X127937640Y-39847267D01*
X127762385Y-40133257D01*
X127760858Y-40136547D01*
X127760853Y-40136556D01*
X127723085Y-40217921D01*
X127621162Y-40437495D01*
X127515844Y-40755949D01*
X127447825Y-41084397D01*
X127447502Y-41088019D01*
X127447501Y-41088024D01*
X127418332Y-41414865D01*
X127418009Y-41418487D01*
X121508500Y-41418487D01*
X121508500Y-34212703D01*
X122890743Y-34212703D01*
X122928268Y-34497734D01*
X123004129Y-34775036D01*
X123116923Y-35039476D01*
X123264561Y-35286161D01*
X123444313Y-35510528D01*
X123652851Y-35708423D01*
X123886317Y-35876186D01*
X123890112Y-35878195D01*
X123890113Y-35878196D01*
X123911869Y-35889715D01*
X124140392Y-36010712D01*
X124410373Y-36109511D01*
X124691264Y-36170755D01*
X124719841Y-36173004D01*
X124914282Y-36188307D01*
X124914291Y-36188307D01*
X124916739Y-36188500D01*
X125072271Y-36188500D01*
X125074407Y-36188354D01*
X125074418Y-36188354D01*
X125282548Y-36174165D01*
X125282554Y-36174164D01*
X125286825Y-36173873D01*
X125291020Y-36173004D01*
X125291022Y-36173004D01*
X125495243Y-36130712D01*
X125568342Y-36115574D01*
X125839343Y-36019607D01*
X126094812Y-35887750D01*
X126098313Y-35885289D01*
X126098317Y-35885287D01*
X126212418Y-35805095D01*
X126330023Y-35722441D01*
X126540622Y-35526740D01*
X126722713Y-35304268D01*
X126872927Y-35059142D01*
X126944965Y-34895036D01*
X126986757Y-34799830D01*
X126988483Y-34795898D01*
X127067244Y-34519406D01*
X127093815Y-34332703D01*
X149765743Y-34332703D01*
X149803268Y-34617734D01*
X149879129Y-34895036D01*
X149880813Y-34898984D01*
X149949127Y-35059142D01*
X149991923Y-35159476D01*
X150139561Y-35406161D01*
X150319313Y-35630528D01*
X150527851Y-35828423D01*
X150761317Y-35996186D01*
X150765112Y-35998195D01*
X150765113Y-35998196D01*
X150806346Y-36020028D01*
X151015392Y-36130712D01*
X151285373Y-36229511D01*
X151566264Y-36290755D01*
X151594841Y-36293004D01*
X151789282Y-36308307D01*
X151789291Y-36308307D01*
X151791739Y-36308500D01*
X151947271Y-36308500D01*
X151949407Y-36308354D01*
X151949418Y-36308354D01*
X152157548Y-36294165D01*
X152157554Y-36294164D01*
X152161825Y-36293873D01*
X152166020Y-36293004D01*
X152166022Y-36293004D01*
X152302583Y-36264724D01*
X152443342Y-36235574D01*
X152714343Y-36139607D01*
X152944067Y-36021038D01*
X152966005Y-36009715D01*
X152966006Y-36009715D01*
X152969812Y-36007750D01*
X152973313Y-36005289D01*
X152973317Y-36005287D01*
X153144059Y-35885287D01*
X153205023Y-35842441D01*
X153334158Y-35722441D01*
X153412479Y-35649661D01*
X153412481Y-35649658D01*
X153415622Y-35646740D01*
X153597713Y-35424268D01*
X153747927Y-35179142D01*
X153863483Y-34915898D01*
X153942244Y-34639406D01*
X153982751Y-34354784D01*
X153982845Y-34336951D01*
X153984235Y-34071583D01*
X153984235Y-34071576D01*
X153984257Y-34067297D01*
X153946732Y-33782266D01*
X153870871Y-33504964D01*
X153758077Y-33240524D01*
X153610439Y-32993839D01*
X153430687Y-32769472D01*
X153222149Y-32571577D01*
X152988683Y-32403814D01*
X152966843Y-32392250D01*
X152943654Y-32379972D01*
X152734608Y-32269288D01*
X152464627Y-32170489D01*
X152183736Y-32109245D01*
X152152685Y-32106801D01*
X151960718Y-32091693D01*
X151960709Y-32091693D01*
X151958261Y-32091500D01*
X151802729Y-32091500D01*
X151800593Y-32091646D01*
X151800582Y-32091646D01*
X151592452Y-32105835D01*
X151592446Y-32105836D01*
X151588175Y-32106127D01*
X151583980Y-32106996D01*
X151583978Y-32106996D01*
X151447416Y-32135277D01*
X151306658Y-32164426D01*
X151035657Y-32260393D01*
X150780188Y-32392250D01*
X150776687Y-32394711D01*
X150776683Y-32394713D01*
X150695774Y-32451577D01*
X150544977Y-32557559D01*
X150334378Y-32753260D01*
X150152287Y-32975732D01*
X150002073Y-33220858D01*
X150000347Y-33224791D01*
X150000346Y-33224792D01*
X149928219Y-33389103D01*
X149886517Y-33484102D01*
X149807756Y-33760594D01*
X149767249Y-34045216D01*
X149767227Y-34049505D01*
X149767226Y-34049512D01*
X149765765Y-34328417D01*
X149765743Y-34332703D01*
X127093815Y-34332703D01*
X127107751Y-34234784D01*
X127107845Y-34216951D01*
X127109235Y-33951583D01*
X127109235Y-33951576D01*
X127109257Y-33947297D01*
X127071732Y-33662266D01*
X126995871Y-33384964D01*
X126985295Y-33360170D01*
X126884763Y-33124476D01*
X126884761Y-33124472D01*
X126883077Y-33120524D01*
X126735439Y-32873839D01*
X126555687Y-32649472D01*
X126347149Y-32451577D01*
X126113683Y-32283814D01*
X126091843Y-32272250D01*
X125902435Y-32171964D01*
X125859608Y-32149288D01*
X125589627Y-32050489D01*
X125308736Y-31989245D01*
X125277685Y-31986801D01*
X125085718Y-31971693D01*
X125085709Y-31971693D01*
X125083261Y-31971500D01*
X124927729Y-31971500D01*
X124925593Y-31971646D01*
X124925582Y-31971646D01*
X124717452Y-31985835D01*
X124717446Y-31985836D01*
X124713175Y-31986127D01*
X124708980Y-31986996D01*
X124708978Y-31986996D01*
X124572416Y-32015277D01*
X124431658Y-32044426D01*
X124160657Y-32140393D01*
X124156848Y-32142359D01*
X123913785Y-32267813D01*
X123905188Y-32272250D01*
X123901687Y-32274711D01*
X123901683Y-32274713D01*
X123891594Y-32281804D01*
X123669977Y-32437559D01*
X123654892Y-32451577D01*
X123537701Y-32560478D01*
X123459378Y-32633260D01*
X123277287Y-32855732D01*
X123127073Y-33100858D01*
X123011517Y-33364102D01*
X122932756Y-33640594D01*
X122892249Y-33925216D01*
X122892227Y-33929505D01*
X122892226Y-33929512D01*
X122891482Y-34071583D01*
X122890743Y-34212703D01*
X121508500Y-34212703D01*
X121508500Y-31334500D01*
X121528502Y-31266379D01*
X121582158Y-31219886D01*
X121634500Y-31208500D01*
X154865018Y-31208500D01*
X154933139Y-31228502D01*
G37*
%TD.AperFunction*%
%TA.AperFunction,Conductor*%
G36*
X135434149Y-81618502D02*
G01*
X135480642Y-81672158D01*
X135486924Y-81689002D01*
X135495475Y-81718124D01*
X135496865Y-81719329D01*
X135504548Y-81721000D01*
X136827000Y-81721000D01*
X136895121Y-81741002D01*
X136941614Y-81794658D01*
X136953000Y-81847000D01*
X136953000Y-82103000D01*
X136932998Y-82171121D01*
X136879342Y-82217614D01*
X136827000Y-82229000D01*
X135509116Y-82229000D01*
X135493877Y-82233475D01*
X135492672Y-82234865D01*
X135491001Y-82242548D01*
X135491001Y-82400500D01*
X135470999Y-82468621D01*
X135417343Y-82515114D01*
X135365001Y-82526500D01*
X129040099Y-82526500D01*
X128971978Y-82506498D01*
X128925485Y-82452842D01*
X128915381Y-82382568D01*
X128920266Y-82361564D01*
X128936432Y-82311811D01*
X128943542Y-82289928D01*
X128944737Y-82278564D01*
X128962814Y-82106565D01*
X128963504Y-82100000D01*
X128962345Y-82088973D01*
X128944232Y-81916635D01*
X128944232Y-81916633D01*
X128943542Y-81910072D01*
X128927698Y-81861310D01*
X128895897Y-81763436D01*
X128893869Y-81692469D01*
X128930532Y-81631671D01*
X128994244Y-81600345D01*
X129015730Y-81598500D01*
X135366028Y-81598500D01*
X135434149Y-81618502D01*
G37*
%TD.AperFunction*%
%TA.AperFunction,Conductor*%
G36*
X149766621Y-55970502D02*
G01*
X149813114Y-56024158D01*
X149824500Y-56076500D01*
X149824500Y-56215134D01*
X149831255Y-56277316D01*
X149882385Y-56413705D01*
X149969739Y-56530261D01*
X150086295Y-56617615D01*
X150094704Y-56620767D01*
X150094705Y-56620768D01*
X150203451Y-56661535D01*
X150260216Y-56704176D01*
X150284916Y-56770738D01*
X150269709Y-56840087D01*
X150250316Y-56866568D01*
X150128269Y-56994283D01*
X150123629Y-56999138D01*
X150120715Y-57003410D01*
X150120714Y-57003411D01*
X150046872Y-57111659D01*
X149997743Y-57183680D01*
X149983017Y-57215405D01*
X149912342Y-57367662D01*
X149903688Y-57386305D01*
X149843989Y-57601570D01*
X149820251Y-57823695D01*
X149820548Y-57828848D01*
X149820548Y-57828851D01*
X149829549Y-57984960D01*
X149833110Y-58046715D01*
X149834247Y-58051761D01*
X149834248Y-58051767D01*
X149866453Y-58194668D01*
X149861917Y-58265520D01*
X149832631Y-58311464D01*
X149097500Y-59046595D01*
X149035188Y-59080621D01*
X149008405Y-59083500D01*
X145941999Y-59083500D01*
X145873878Y-59063498D01*
X145827385Y-59009842D01*
X145815999Y-58957500D01*
X145815999Y-58931276D01*
X145815461Y-58923065D01*
X145801428Y-58816467D01*
X145797190Y-58800652D01*
X145793140Y-58790874D01*
X145785550Y-58720285D01*
X145793140Y-58694434D01*
X145797678Y-58683479D01*
X145797678Y-58683478D01*
X145800838Y-58675850D01*
X145811657Y-58593669D01*
X145815962Y-58560972D01*
X145815962Y-58560971D01*
X145816500Y-58556885D01*
X145816499Y-58277116D01*
X145814973Y-58265520D01*
X145801916Y-58166337D01*
X145801916Y-58166335D01*
X145800838Y-58158150D01*
X145793140Y-58139565D01*
X145785550Y-58068977D01*
X145793140Y-58043126D01*
X145797189Y-58033351D01*
X145801428Y-58017531D01*
X145805716Y-57984960D01*
X145803505Y-57970778D01*
X145790348Y-57967000D01*
X145768569Y-57967000D01*
X145700448Y-57946998D01*
X145668607Y-57917705D01*
X145641987Y-57883013D01*
X145621068Y-57866961D01*
X145579202Y-57809622D01*
X145574982Y-57738751D01*
X145609747Y-57676848D01*
X145621070Y-57667038D01*
X145635433Y-57656017D01*
X145635438Y-57656012D01*
X145641987Y-57650987D01*
X145668608Y-57616295D01*
X145725946Y-57574428D01*
X145768569Y-57567000D01*
X145789965Y-57567000D01*
X145803736Y-57562956D01*
X145805765Y-57549417D01*
X145801428Y-57516467D01*
X145797190Y-57500652D01*
X145793140Y-57490874D01*
X145785550Y-57420285D01*
X145793140Y-57394434D01*
X145793800Y-57392842D01*
X145800838Y-57375850D01*
X145816500Y-57256885D01*
X145816499Y-56977116D01*
X145815766Y-56971542D01*
X145811385Y-56938266D01*
X146225000Y-56938266D01*
X146225337Y-56944782D01*
X146235075Y-57038632D01*
X146237968Y-57052028D01*
X146288488Y-57203453D01*
X146294653Y-57216615D01*
X146378426Y-57351992D01*
X146387460Y-57363390D01*
X146500129Y-57475863D01*
X146511540Y-57484875D01*
X146647063Y-57568412D01*
X146660241Y-57574556D01*
X146811766Y-57624815D01*
X146825132Y-57627681D01*
X146917770Y-57637172D01*
X146924185Y-57637500D01*
X146935885Y-57637500D01*
X146951124Y-57633025D01*
X146952329Y-57631635D01*
X146954000Y-57623952D01*
X146954000Y-57619385D01*
X147462000Y-57619385D01*
X147466475Y-57634624D01*
X147467865Y-57635829D01*
X147475548Y-57637500D01*
X147491766Y-57637500D01*
X147498282Y-57637163D01*
X147592132Y-57627425D01*
X147605528Y-57624532D01*
X147756953Y-57574012D01*
X147770115Y-57567847D01*
X147905492Y-57484074D01*
X147916890Y-57475040D01*
X148029363Y-57362371D01*
X148038375Y-57350960D01*
X148121912Y-57215437D01*
X148128056Y-57202259D01*
X148178315Y-57050734D01*
X148181181Y-57037368D01*
X148190672Y-56944730D01*
X148191000Y-56938315D01*
X148191000Y-56864115D01*
X148186525Y-56848876D01*
X148185135Y-56847671D01*
X148177452Y-56846000D01*
X147480115Y-56846000D01*
X147464876Y-56850475D01*
X147463671Y-56851865D01*
X147462000Y-56859548D01*
X147462000Y-57619385D01*
X146954000Y-57619385D01*
X146954000Y-56864115D01*
X146949525Y-56848876D01*
X146948135Y-56847671D01*
X146940452Y-56846000D01*
X146243115Y-56846000D01*
X146227876Y-56850475D01*
X146226671Y-56851865D01*
X146225000Y-56859548D01*
X146225000Y-56938266D01*
X145811385Y-56938266D01*
X145801916Y-56866337D01*
X145801916Y-56866335D01*
X145800838Y-56858150D01*
X145793140Y-56839565D01*
X145785550Y-56768977D01*
X145793140Y-56743126D01*
X145797190Y-56733350D01*
X145801428Y-56717532D01*
X145815462Y-56610934D01*
X145816000Y-56602724D01*
X145816000Y-56576500D01*
X145836002Y-56508379D01*
X145889658Y-56461886D01*
X145942000Y-56450500D01*
X146179233Y-56450500D01*
X146190416Y-56451027D01*
X146197909Y-56452702D01*
X146205835Y-56452453D01*
X146205836Y-56452453D01*
X146265986Y-56450562D01*
X146269945Y-56450500D01*
X146297856Y-56450500D01*
X146301791Y-56450003D01*
X146301856Y-56449995D01*
X146313693Y-56449062D01*
X146345951Y-56448048D01*
X146349970Y-56447922D01*
X146357889Y-56447673D01*
X146377343Y-56442021D01*
X146396700Y-56438013D01*
X146408930Y-56436468D01*
X146408931Y-56436468D01*
X146416797Y-56435474D01*
X146424168Y-56432555D01*
X146424170Y-56432555D01*
X146457912Y-56419196D01*
X146469142Y-56415351D01*
X146503983Y-56405229D01*
X146503984Y-56405229D01*
X146511593Y-56403018D01*
X146518412Y-56398985D01*
X146518417Y-56398983D01*
X146529028Y-56392707D01*
X146546776Y-56384012D01*
X146565617Y-56376552D01*
X146572035Y-56371889D01*
X146572039Y-56371887D01*
X146585561Y-56362063D01*
X146659620Y-56338000D01*
X148172885Y-56338000D01*
X148188124Y-56333525D01*
X148189329Y-56332135D01*
X148191000Y-56324452D01*
X148191000Y-56245734D01*
X148190663Y-56239218D01*
X148180925Y-56145368D01*
X148178030Y-56131965D01*
X148172829Y-56116374D01*
X148170245Y-56045424D01*
X148206430Y-55984341D01*
X148269895Y-55952518D01*
X148292353Y-55950500D01*
X149698500Y-55950500D01*
X149766621Y-55970502D01*
G37*
%TD.AperFunction*%
M02*
