%TF.GenerationSoftware,KiCad,Pcbnew,(6.0.9)*%
%TF.CreationDate,2022-11-23T00:56:17+01:00*%
%TF.ProjectId,Testapparaat_io,54657374-6170-4706-9172-6161745f696f,rev?*%
%TF.SameCoordinates,Original*%
%TF.FileFunction,Copper,L2,Bot*%
%TF.FilePolarity,Positive*%
%FSLAX46Y46*%
G04 Gerber Fmt 4.6, Leading zero omitted, Abs format (unit mm)*
G04 Created by KiCad (PCBNEW (6.0.9)) date 2022-11-23 00:56:17*
%MOMM*%
%LPD*%
G01*
G04 APERTURE LIST*
%TA.AperFunction,ComponentPad*%
%ADD10R,1.600000X1.600000*%
%TD*%
%TA.AperFunction,ComponentPad*%
%ADD11O,1.600000X1.600000*%
%TD*%
%TA.AperFunction,ComponentPad*%
%ADD12R,1.500000X1.500000*%
%TD*%
%TA.AperFunction,ComponentPad*%
%ADD13C,1.500000*%
%TD*%
%TA.AperFunction,ComponentPad*%
%ADD14C,4.800000*%
%TD*%
%TA.AperFunction,ComponentPad*%
%ADD15R,1.700000X1.700000*%
%TD*%
%TA.AperFunction,ComponentPad*%
%ADD16O,1.700000X1.700000*%
%TD*%
%TA.AperFunction,ViaPad*%
%ADD17C,0.800000*%
%TD*%
%TA.AperFunction,Conductor*%
%ADD18C,0.250000*%
%TD*%
G04 APERTURE END LIST*
D10*
X143550000Y-73000000D03*
D11*
X143550000Y-75540000D03*
X143550000Y-78080000D03*
X143550000Y-80620000D03*
X143550000Y-83160000D03*
D12*
X131750000Y-59550000D03*
D13*
X131750000Y-56778000D03*
X131750000Y-54005000D03*
X131750000Y-51233000D03*
X131750000Y-48460000D03*
X128910000Y-58164000D03*
X128910000Y-55391000D03*
X128910000Y-52619000D03*
X128910000Y-49846000D03*
D14*
X130330000Y-66500000D03*
X130330000Y-41510000D03*
D15*
X151375000Y-71650000D03*
D16*
X151375000Y-74190000D03*
X151375000Y-76730000D03*
X151375000Y-79270000D03*
X151375000Y-81810000D03*
X151375000Y-84350000D03*
D15*
X151183000Y-55317000D03*
D16*
X151183000Y-57857000D03*
X151183000Y-60397000D03*
X151183000Y-62937000D03*
D17*
X131400000Y-80150000D03*
X129850000Y-77500000D03*
X130050000Y-82000000D03*
X128050000Y-82100000D03*
D18*
X143550000Y-73000000D02*
X150025000Y-73000000D01*
X150025000Y-73000000D02*
X151375000Y-71650000D01*
X143550000Y-73000000D02*
X136450000Y-80100000D01*
X136450000Y-80100000D02*
X131450000Y-80100000D01*
X131450000Y-80100000D02*
X131400000Y-80150000D01*
X130050000Y-77700000D02*
X129850000Y-77500000D01*
X130050000Y-82000000D02*
X130050000Y-77700000D01*
X140280000Y-80620000D02*
X143550000Y-80620000D01*
X150185000Y-80620000D02*
X151375000Y-81810000D01*
X137300000Y-83600000D02*
X140280000Y-80620000D01*
X128050000Y-82100000D02*
X129550000Y-83600000D01*
X129550000Y-83600000D02*
X137300000Y-83600000D01*
X143550000Y-80620000D02*
X150185000Y-80620000D01*
M02*
