%TF.GenerationSoftware,KiCad,Pcbnew,(6.0.9)*%
%TF.CreationDate,2022-11-23T00:56:36+01:00*%
%TF.ProjectId,Testapparaat_io,54657374-6170-4706-9172-6161745f696f,rev?*%
%TF.SameCoordinates,Original*%
%TF.FileFunction,Drillmap*%
%TF.FilePolarity,Positive*%
%FSLAX45Y45*%
G04 Gerber Fmt 4.5, Leading zero omitted, Abs format (unit mm)*
G04 Created by KiCad (PCBNEW (6.0.9)) date 2022-11-23 00:56:36*
%MOMM*%
%LPD*%
G01*
G04 APERTURE LIST*
%ADD10C,0.100000*%
%ADD11C,0.200000*%
%ADD12C,0.040000*%
%ADD13C,0.080000*%
%ADD14C,0.320000*%
G04 APERTURE END LIST*
D10*
X15550000Y-3070000D02*
X12100000Y-3070000D01*
X12100000Y-6350000D02*
X12095000Y-9655000D01*
X12095000Y-9655000D02*
X15545000Y-9655000D01*
X15545000Y-9655000D02*
X15550000Y-3070000D01*
X12100000Y-3070000D02*
X12100000Y-6350000D01*
D11*
D12*
X12785000Y-8190000D02*
X12825000Y-8230000D01*
X12825000Y-8190000D02*
X12785000Y-8230000D01*
X12965000Y-7730000D02*
X13005000Y-7770000D01*
X13005000Y-7730000D02*
X12965000Y-7770000D01*
X12985000Y-8180000D02*
X13025000Y-8220000D01*
X13025000Y-8180000D02*
X12985000Y-8220000D01*
X13120000Y-7995000D02*
X13160000Y-8035000D01*
X13160000Y-7995000D02*
X13120000Y-8035000D01*
D13*
X14395000Y-7300000D02*
G75*
G03*
X14395000Y-7300000I-40000J0D01*
G01*
X14395000Y-7554000D02*
G75*
G03*
X14395000Y-7554000I-40000J0D01*
G01*
X14395000Y-7808000D02*
G75*
G03*
X14395000Y-7808000I-40000J0D01*
G01*
X14395000Y-8062000D02*
G75*
G03*
X14395000Y-8062000I-40000J0D01*
G01*
X14395000Y-8316000D02*
G75*
G03*
X14395000Y-8316000I-40000J0D01*
G01*
D10*
X12891000Y-4934600D02*
X12891000Y-5034600D01*
X12841000Y-4984600D02*
X12941000Y-4984600D01*
X12891000Y-5211900D02*
X12891000Y-5311900D01*
X12841000Y-5261900D02*
X12941000Y-5261900D01*
X12891000Y-5489100D02*
X12891000Y-5589100D01*
X12841000Y-5539100D02*
X12941000Y-5539100D01*
X12891000Y-5766400D02*
X12891000Y-5866400D01*
X12841000Y-5816400D02*
X12941000Y-5816400D01*
X13175000Y-4796000D02*
X13175000Y-4896000D01*
X13125000Y-4846000D02*
X13225000Y-4846000D01*
X13175000Y-5073300D02*
X13175000Y-5173300D01*
X13125000Y-5123300D02*
X13225000Y-5123300D01*
X13175000Y-5350500D02*
X13175000Y-5450500D01*
X13125000Y-5400500D02*
X13225000Y-5400500D01*
X13175000Y-5627800D02*
X13175000Y-5727800D01*
X13125000Y-5677800D02*
X13225000Y-5677800D01*
X13175000Y-5905000D02*
X13175000Y-6005000D01*
X13125000Y-5955000D02*
X13225000Y-5955000D01*
X15118300Y-5481700D02*
X15118300Y-5581700D01*
X15068300Y-5531700D02*
X15168300Y-5531700D01*
X15118300Y-5735700D02*
X15118300Y-5835700D01*
X15068300Y-5785700D02*
X15168300Y-5785700D01*
X15118300Y-5989700D02*
X15118300Y-6089700D01*
X15068300Y-6039700D02*
X15168300Y-6039700D01*
X15118300Y-6243700D02*
X15118300Y-6343700D01*
X15068300Y-6293700D02*
X15168300Y-6293700D01*
X15137500Y-7115000D02*
X15137500Y-7215000D01*
X15087500Y-7165000D02*
X15187500Y-7165000D01*
X15137500Y-7369000D02*
X15137500Y-7469000D01*
X15087500Y-7419000D02*
X15187500Y-7419000D01*
X15137500Y-7623000D02*
X15137500Y-7723000D01*
X15087500Y-7673000D02*
X15187500Y-7673000D01*
X15137500Y-7877000D02*
X15137500Y-7977000D01*
X15087500Y-7927000D02*
X15187500Y-7927000D01*
X15137500Y-8131000D02*
X15137500Y-8231000D01*
X15087500Y-8181000D02*
X15187500Y-8181000D01*
X15137500Y-8385000D02*
X15137500Y-8485000D01*
X15087500Y-8435000D02*
X15187500Y-8435000D01*
D14*
X13146138Y-4264138D02*
X13146138Y-4037862D01*
X12919862Y-4037862D01*
X12919862Y-4264138D01*
X13146138Y-4264138D01*
X13146138Y-6763138D02*
X13146138Y-6536862D01*
X12919862Y-6536862D01*
X12919862Y-6763138D01*
X13146138Y-6763138D01*
D11*
X12347619Y-9970476D02*
X12347619Y-9770476D01*
X12395238Y-9770476D01*
X12423809Y-9780000D01*
X12442857Y-9799048D01*
X12452381Y-9818095D01*
X12461905Y-9856190D01*
X12461905Y-9884762D01*
X12452381Y-9922857D01*
X12442857Y-9941905D01*
X12423809Y-9960952D01*
X12395238Y-9970476D01*
X12347619Y-9970476D01*
X12547619Y-9970476D02*
X12547619Y-9837143D01*
X12547619Y-9875238D02*
X12557143Y-9856190D01*
X12566667Y-9846667D01*
X12585714Y-9837143D01*
X12604762Y-9837143D01*
X12671428Y-9970476D02*
X12671428Y-9837143D01*
X12671428Y-9770476D02*
X12661905Y-9780000D01*
X12671428Y-9789524D01*
X12680952Y-9780000D01*
X12671428Y-9770476D01*
X12671428Y-9789524D01*
X12795238Y-9970476D02*
X12776190Y-9960952D01*
X12766667Y-9941905D01*
X12766667Y-9770476D01*
X12900000Y-9970476D02*
X12880952Y-9960952D01*
X12871428Y-9941905D01*
X12871428Y-9770476D01*
X13128571Y-9970476D02*
X13128571Y-9770476D01*
X13195238Y-9913333D01*
X13261905Y-9770476D01*
X13261905Y-9970476D01*
X13442857Y-9970476D02*
X13442857Y-9865714D01*
X13433333Y-9846667D01*
X13414286Y-9837143D01*
X13376190Y-9837143D01*
X13357143Y-9846667D01*
X13442857Y-9960952D02*
X13423809Y-9970476D01*
X13376190Y-9970476D01*
X13357143Y-9960952D01*
X13347619Y-9941905D01*
X13347619Y-9922857D01*
X13357143Y-9903810D01*
X13376190Y-9894286D01*
X13423809Y-9894286D01*
X13442857Y-9884762D01*
X13538095Y-9837143D02*
X13538095Y-10037143D01*
X13538095Y-9846667D02*
X13557143Y-9837143D01*
X13595238Y-9837143D01*
X13614286Y-9846667D01*
X13623809Y-9856190D01*
X13633333Y-9875238D01*
X13633333Y-9932381D01*
X13623809Y-9951429D01*
X13614286Y-9960952D01*
X13595238Y-9970476D01*
X13557143Y-9970476D01*
X13538095Y-9960952D01*
X13719048Y-9951429D02*
X13728571Y-9960952D01*
X13719048Y-9970476D01*
X13709524Y-9960952D01*
X13719048Y-9951429D01*
X13719048Y-9970476D01*
X13719048Y-9846667D02*
X13728571Y-9856190D01*
X13719048Y-9865714D01*
X13709524Y-9856190D01*
X13719048Y-9846667D01*
X13719048Y-9865714D01*
D12*
X12050000Y-10280000D02*
X12090000Y-10320000D01*
X12090000Y-10280000D02*
X12050000Y-10320000D01*
D11*
X12385714Y-10190476D02*
X12404762Y-10190476D01*
X12423809Y-10200000D01*
X12433333Y-10209524D01*
X12442857Y-10228571D01*
X12452381Y-10266667D01*
X12452381Y-10314286D01*
X12442857Y-10352381D01*
X12433333Y-10371429D01*
X12423809Y-10380952D01*
X12404762Y-10390476D01*
X12385714Y-10390476D01*
X12366667Y-10380952D01*
X12357143Y-10371429D01*
X12347619Y-10352381D01*
X12338095Y-10314286D01*
X12338095Y-10266667D01*
X12347619Y-10228571D01*
X12357143Y-10209524D01*
X12366667Y-10200000D01*
X12385714Y-10190476D01*
X12538095Y-10371429D02*
X12547619Y-10380952D01*
X12538095Y-10390476D01*
X12528571Y-10380952D01*
X12538095Y-10371429D01*
X12538095Y-10390476D01*
X12719048Y-10257143D02*
X12719048Y-10390476D01*
X12671428Y-10180952D02*
X12623809Y-10323810D01*
X12747619Y-10323810D01*
X12861905Y-10190476D02*
X12880952Y-10190476D01*
X12900000Y-10200000D01*
X12909524Y-10209524D01*
X12919048Y-10228571D01*
X12928571Y-10266667D01*
X12928571Y-10314286D01*
X12919048Y-10352381D01*
X12909524Y-10371429D01*
X12900000Y-10380952D01*
X12880952Y-10390476D01*
X12861905Y-10390476D01*
X12842857Y-10380952D01*
X12833333Y-10371429D01*
X12823809Y-10352381D01*
X12814286Y-10314286D01*
X12814286Y-10266667D01*
X12823809Y-10228571D01*
X12833333Y-10209524D01*
X12842857Y-10200000D01*
X12861905Y-10190476D01*
X13052381Y-10190476D02*
X13071428Y-10190476D01*
X13090476Y-10200000D01*
X13100000Y-10209524D01*
X13109524Y-10228571D01*
X13119048Y-10266667D01*
X13119048Y-10314286D01*
X13109524Y-10352381D01*
X13100000Y-10371429D01*
X13090476Y-10380952D01*
X13071428Y-10390476D01*
X13052381Y-10390476D01*
X13033333Y-10380952D01*
X13023809Y-10371429D01*
X13014286Y-10352381D01*
X13004762Y-10314286D01*
X13004762Y-10266667D01*
X13014286Y-10228571D01*
X13023809Y-10209524D01*
X13033333Y-10200000D01*
X13052381Y-10190476D01*
X13204762Y-10390476D02*
X13204762Y-10257143D01*
X13204762Y-10276190D02*
X13214286Y-10266667D01*
X13233333Y-10257143D01*
X13261905Y-10257143D01*
X13280952Y-10266667D01*
X13290476Y-10285714D01*
X13290476Y-10390476D01*
X13290476Y-10285714D02*
X13300000Y-10266667D01*
X13319048Y-10257143D01*
X13347619Y-10257143D01*
X13366667Y-10266667D01*
X13376190Y-10285714D01*
X13376190Y-10390476D01*
X13471428Y-10390476D02*
X13471428Y-10257143D01*
X13471428Y-10276190D02*
X13480952Y-10266667D01*
X13500000Y-10257143D01*
X13528571Y-10257143D01*
X13547619Y-10266667D01*
X13557143Y-10285714D01*
X13557143Y-10390476D01*
X13557143Y-10285714D02*
X13566667Y-10266667D01*
X13585714Y-10257143D01*
X13614286Y-10257143D01*
X13633333Y-10266667D01*
X13642857Y-10285714D01*
X13642857Y-10390476D01*
X14033333Y-10180952D02*
X13861905Y-10438095D01*
X14290476Y-10190476D02*
X14309524Y-10190476D01*
X14328571Y-10200000D01*
X14338095Y-10209524D01*
X14347619Y-10228571D01*
X14357143Y-10266667D01*
X14357143Y-10314286D01*
X14347619Y-10352381D01*
X14338095Y-10371429D01*
X14328571Y-10380952D01*
X14309524Y-10390476D01*
X14290476Y-10390476D01*
X14271428Y-10380952D01*
X14261905Y-10371429D01*
X14252381Y-10352381D01*
X14242857Y-10314286D01*
X14242857Y-10266667D01*
X14252381Y-10228571D01*
X14261905Y-10209524D01*
X14271428Y-10200000D01*
X14290476Y-10190476D01*
X14442857Y-10371429D02*
X14452381Y-10380952D01*
X14442857Y-10390476D01*
X14433333Y-10380952D01*
X14442857Y-10371429D01*
X14442857Y-10390476D01*
X14576190Y-10190476D02*
X14595238Y-10190476D01*
X14614286Y-10200000D01*
X14623809Y-10209524D01*
X14633333Y-10228571D01*
X14642857Y-10266667D01*
X14642857Y-10314286D01*
X14633333Y-10352381D01*
X14623809Y-10371429D01*
X14614286Y-10380952D01*
X14595238Y-10390476D01*
X14576190Y-10390476D01*
X14557143Y-10380952D01*
X14547619Y-10371429D01*
X14538095Y-10352381D01*
X14528571Y-10314286D01*
X14528571Y-10266667D01*
X14538095Y-10228571D01*
X14547619Y-10209524D01*
X14557143Y-10200000D01*
X14576190Y-10190476D01*
X14833333Y-10390476D02*
X14719048Y-10390476D01*
X14776190Y-10390476D02*
X14776190Y-10190476D01*
X14757143Y-10219048D01*
X14738095Y-10238095D01*
X14719048Y-10247619D01*
X15014286Y-10190476D02*
X14919048Y-10190476D01*
X14909524Y-10285714D01*
X14919048Y-10276190D01*
X14938095Y-10266667D01*
X14985714Y-10266667D01*
X15004762Y-10276190D01*
X15014286Y-10285714D01*
X15023809Y-10304762D01*
X15023809Y-10352381D01*
X15014286Y-10371429D01*
X15004762Y-10380952D01*
X14985714Y-10390476D01*
X14938095Y-10390476D01*
X14919048Y-10380952D01*
X14909524Y-10371429D01*
X15090476Y-10190476D02*
X15223809Y-10190476D01*
X15138095Y-10390476D01*
X15290476Y-10190476D02*
X15290476Y-10228571D01*
X15366667Y-10190476D02*
X15366667Y-10228571D01*
X15661905Y-10466667D02*
X15652381Y-10457143D01*
X15633333Y-10428571D01*
X15623809Y-10409524D01*
X15614286Y-10380952D01*
X15604762Y-10333333D01*
X15604762Y-10295238D01*
X15614286Y-10247619D01*
X15623809Y-10219048D01*
X15633333Y-10200000D01*
X15652381Y-10171429D01*
X15661905Y-10161905D01*
X15823809Y-10257143D02*
X15823809Y-10390476D01*
X15776190Y-10180952D02*
X15728571Y-10323810D01*
X15852381Y-10323810D01*
X16080952Y-10390476D02*
X16080952Y-10190476D01*
X16166667Y-10390476D02*
X16166667Y-10285714D01*
X16157143Y-10266667D01*
X16138095Y-10257143D01*
X16109524Y-10257143D01*
X16090476Y-10266667D01*
X16080952Y-10276190D01*
X16290476Y-10390476D02*
X16271428Y-10380952D01*
X16261905Y-10371429D01*
X16252381Y-10352381D01*
X16252381Y-10295238D01*
X16261905Y-10276190D01*
X16271428Y-10266667D01*
X16290476Y-10257143D01*
X16319048Y-10257143D01*
X16338095Y-10266667D01*
X16347619Y-10276190D01*
X16357143Y-10295238D01*
X16357143Y-10352381D01*
X16347619Y-10371429D01*
X16338095Y-10380952D01*
X16319048Y-10390476D01*
X16290476Y-10390476D01*
X16471428Y-10390476D02*
X16452381Y-10380952D01*
X16442857Y-10361905D01*
X16442857Y-10190476D01*
X16623809Y-10380952D02*
X16604762Y-10390476D01*
X16566667Y-10390476D01*
X16547619Y-10380952D01*
X16538095Y-10361905D01*
X16538095Y-10285714D01*
X16547619Y-10266667D01*
X16566667Y-10257143D01*
X16604762Y-10257143D01*
X16623809Y-10266667D01*
X16633333Y-10285714D01*
X16633333Y-10304762D01*
X16538095Y-10323810D01*
X16709524Y-10380952D02*
X16728571Y-10390476D01*
X16766667Y-10390476D01*
X16785714Y-10380952D01*
X16795238Y-10361905D01*
X16795238Y-10352381D01*
X16785714Y-10333333D01*
X16766667Y-10323810D01*
X16738095Y-10323810D01*
X16719048Y-10314286D01*
X16709524Y-10295238D01*
X16709524Y-10285714D01*
X16719048Y-10266667D01*
X16738095Y-10257143D01*
X16766667Y-10257143D01*
X16785714Y-10266667D01*
X16861905Y-10466667D02*
X16871429Y-10457143D01*
X16890476Y-10428571D01*
X16900000Y-10409524D01*
X16909524Y-10380952D01*
X16919048Y-10333333D01*
X16919048Y-10295238D01*
X16909524Y-10247619D01*
X16900000Y-10219048D01*
X16890476Y-10200000D01*
X16871429Y-10171429D01*
X16861905Y-10161905D01*
D13*
X12090000Y-10564000D02*
G75*
G03*
X12090000Y-10564000I-40000J0D01*
G01*
D11*
X12385714Y-10454476D02*
X12404762Y-10454476D01*
X12423809Y-10464000D01*
X12433333Y-10473524D01*
X12442857Y-10492571D01*
X12452381Y-10530667D01*
X12452381Y-10578286D01*
X12442857Y-10616381D01*
X12433333Y-10635429D01*
X12423809Y-10644952D01*
X12404762Y-10654476D01*
X12385714Y-10654476D01*
X12366667Y-10644952D01*
X12357143Y-10635429D01*
X12347619Y-10616381D01*
X12338095Y-10578286D01*
X12338095Y-10530667D01*
X12347619Y-10492571D01*
X12357143Y-10473524D01*
X12366667Y-10464000D01*
X12385714Y-10454476D01*
X12538095Y-10635429D02*
X12547619Y-10644952D01*
X12538095Y-10654476D01*
X12528571Y-10644952D01*
X12538095Y-10635429D01*
X12538095Y-10654476D01*
X12661905Y-10540190D02*
X12642857Y-10530667D01*
X12633333Y-10521143D01*
X12623809Y-10502095D01*
X12623809Y-10492571D01*
X12633333Y-10473524D01*
X12642857Y-10464000D01*
X12661905Y-10454476D01*
X12700000Y-10454476D01*
X12719048Y-10464000D01*
X12728571Y-10473524D01*
X12738095Y-10492571D01*
X12738095Y-10502095D01*
X12728571Y-10521143D01*
X12719048Y-10530667D01*
X12700000Y-10540190D01*
X12661905Y-10540190D01*
X12642857Y-10549714D01*
X12633333Y-10559238D01*
X12623809Y-10578286D01*
X12623809Y-10616381D01*
X12633333Y-10635429D01*
X12642857Y-10644952D01*
X12661905Y-10654476D01*
X12700000Y-10654476D01*
X12719048Y-10644952D01*
X12728571Y-10635429D01*
X12738095Y-10616381D01*
X12738095Y-10578286D01*
X12728571Y-10559238D01*
X12719048Y-10549714D01*
X12700000Y-10540190D01*
X12861905Y-10454476D02*
X12880952Y-10454476D01*
X12900000Y-10464000D01*
X12909524Y-10473524D01*
X12919048Y-10492571D01*
X12928571Y-10530667D01*
X12928571Y-10578286D01*
X12919048Y-10616381D01*
X12909524Y-10635429D01*
X12900000Y-10644952D01*
X12880952Y-10654476D01*
X12861905Y-10654476D01*
X12842857Y-10644952D01*
X12833333Y-10635429D01*
X12823809Y-10616381D01*
X12814286Y-10578286D01*
X12814286Y-10530667D01*
X12823809Y-10492571D01*
X12833333Y-10473524D01*
X12842857Y-10464000D01*
X12861905Y-10454476D01*
X13052381Y-10454476D02*
X13071428Y-10454476D01*
X13090476Y-10464000D01*
X13100000Y-10473524D01*
X13109524Y-10492571D01*
X13119048Y-10530667D01*
X13119048Y-10578286D01*
X13109524Y-10616381D01*
X13100000Y-10635429D01*
X13090476Y-10644952D01*
X13071428Y-10654476D01*
X13052381Y-10654476D01*
X13033333Y-10644952D01*
X13023809Y-10635429D01*
X13014286Y-10616381D01*
X13004762Y-10578286D01*
X13004762Y-10530667D01*
X13014286Y-10492571D01*
X13023809Y-10473524D01*
X13033333Y-10464000D01*
X13052381Y-10454476D01*
X13204762Y-10654476D02*
X13204762Y-10521143D01*
X13204762Y-10540190D02*
X13214286Y-10530667D01*
X13233333Y-10521143D01*
X13261905Y-10521143D01*
X13280952Y-10530667D01*
X13290476Y-10549714D01*
X13290476Y-10654476D01*
X13290476Y-10549714D02*
X13300000Y-10530667D01*
X13319048Y-10521143D01*
X13347619Y-10521143D01*
X13366667Y-10530667D01*
X13376190Y-10549714D01*
X13376190Y-10654476D01*
X13471428Y-10654476D02*
X13471428Y-10521143D01*
X13471428Y-10540190D02*
X13480952Y-10530667D01*
X13500000Y-10521143D01*
X13528571Y-10521143D01*
X13547619Y-10530667D01*
X13557143Y-10549714D01*
X13557143Y-10654476D01*
X13557143Y-10549714D02*
X13566667Y-10530667D01*
X13585714Y-10521143D01*
X13614286Y-10521143D01*
X13633333Y-10530667D01*
X13642857Y-10549714D01*
X13642857Y-10654476D01*
X14033333Y-10444952D02*
X13861905Y-10702095D01*
X14290476Y-10454476D02*
X14309524Y-10454476D01*
X14328571Y-10464000D01*
X14338095Y-10473524D01*
X14347619Y-10492571D01*
X14357143Y-10530667D01*
X14357143Y-10578286D01*
X14347619Y-10616381D01*
X14338095Y-10635429D01*
X14328571Y-10644952D01*
X14309524Y-10654476D01*
X14290476Y-10654476D01*
X14271428Y-10644952D01*
X14261905Y-10635429D01*
X14252381Y-10616381D01*
X14242857Y-10578286D01*
X14242857Y-10530667D01*
X14252381Y-10492571D01*
X14261905Y-10473524D01*
X14271428Y-10464000D01*
X14290476Y-10454476D01*
X14442857Y-10635429D02*
X14452381Y-10644952D01*
X14442857Y-10654476D01*
X14433333Y-10644952D01*
X14442857Y-10635429D01*
X14442857Y-10654476D01*
X14576190Y-10454476D02*
X14595238Y-10454476D01*
X14614286Y-10464000D01*
X14623809Y-10473524D01*
X14633333Y-10492571D01*
X14642857Y-10530667D01*
X14642857Y-10578286D01*
X14633333Y-10616381D01*
X14623809Y-10635429D01*
X14614286Y-10644952D01*
X14595238Y-10654476D01*
X14576190Y-10654476D01*
X14557143Y-10644952D01*
X14547619Y-10635429D01*
X14538095Y-10616381D01*
X14528571Y-10578286D01*
X14528571Y-10530667D01*
X14538095Y-10492571D01*
X14547619Y-10473524D01*
X14557143Y-10464000D01*
X14576190Y-10454476D01*
X14709524Y-10454476D02*
X14833333Y-10454476D01*
X14766667Y-10530667D01*
X14795238Y-10530667D01*
X14814286Y-10540190D01*
X14823809Y-10549714D01*
X14833333Y-10568762D01*
X14833333Y-10616381D01*
X14823809Y-10635429D01*
X14814286Y-10644952D01*
X14795238Y-10654476D01*
X14738095Y-10654476D01*
X14719048Y-10644952D01*
X14709524Y-10635429D01*
X15023809Y-10654476D02*
X14909524Y-10654476D01*
X14966667Y-10654476D02*
X14966667Y-10454476D01*
X14947619Y-10483048D01*
X14928571Y-10502095D01*
X14909524Y-10511619D01*
X15204762Y-10454476D02*
X15109524Y-10454476D01*
X15100000Y-10549714D01*
X15109524Y-10540190D01*
X15128571Y-10530667D01*
X15176190Y-10530667D01*
X15195238Y-10540190D01*
X15204762Y-10549714D01*
X15214286Y-10568762D01*
X15214286Y-10616381D01*
X15204762Y-10635429D01*
X15195238Y-10644952D01*
X15176190Y-10654476D01*
X15128571Y-10654476D01*
X15109524Y-10644952D01*
X15100000Y-10635429D01*
X15290476Y-10454476D02*
X15290476Y-10492571D01*
X15366667Y-10454476D02*
X15366667Y-10492571D01*
X15661905Y-10730667D02*
X15652381Y-10721143D01*
X15633333Y-10692571D01*
X15623809Y-10673524D01*
X15614286Y-10644952D01*
X15604762Y-10597333D01*
X15604762Y-10559238D01*
X15614286Y-10511619D01*
X15623809Y-10483048D01*
X15633333Y-10464000D01*
X15652381Y-10435429D01*
X15661905Y-10425905D01*
X15833333Y-10454476D02*
X15738095Y-10454476D01*
X15728571Y-10549714D01*
X15738095Y-10540190D01*
X15757143Y-10530667D01*
X15804762Y-10530667D01*
X15823809Y-10540190D01*
X15833333Y-10549714D01*
X15842857Y-10568762D01*
X15842857Y-10616381D01*
X15833333Y-10635429D01*
X15823809Y-10644952D01*
X15804762Y-10654476D01*
X15757143Y-10654476D01*
X15738095Y-10644952D01*
X15728571Y-10635429D01*
X16080952Y-10654476D02*
X16080952Y-10454476D01*
X16166667Y-10654476D02*
X16166667Y-10549714D01*
X16157143Y-10530667D01*
X16138095Y-10521143D01*
X16109524Y-10521143D01*
X16090476Y-10530667D01*
X16080952Y-10540190D01*
X16290476Y-10654476D02*
X16271428Y-10644952D01*
X16261905Y-10635429D01*
X16252381Y-10616381D01*
X16252381Y-10559238D01*
X16261905Y-10540190D01*
X16271428Y-10530667D01*
X16290476Y-10521143D01*
X16319048Y-10521143D01*
X16338095Y-10530667D01*
X16347619Y-10540190D01*
X16357143Y-10559238D01*
X16357143Y-10616381D01*
X16347619Y-10635429D01*
X16338095Y-10644952D01*
X16319048Y-10654476D01*
X16290476Y-10654476D01*
X16471428Y-10654476D02*
X16452381Y-10644952D01*
X16442857Y-10625905D01*
X16442857Y-10454476D01*
X16623809Y-10644952D02*
X16604762Y-10654476D01*
X16566667Y-10654476D01*
X16547619Y-10644952D01*
X16538095Y-10625905D01*
X16538095Y-10549714D01*
X16547619Y-10530667D01*
X16566667Y-10521143D01*
X16604762Y-10521143D01*
X16623809Y-10530667D01*
X16633333Y-10549714D01*
X16633333Y-10568762D01*
X16538095Y-10587810D01*
X16709524Y-10644952D02*
X16728571Y-10654476D01*
X16766667Y-10654476D01*
X16785714Y-10644952D01*
X16795238Y-10625905D01*
X16795238Y-10616381D01*
X16785714Y-10597333D01*
X16766667Y-10587810D01*
X16738095Y-10587810D01*
X16719048Y-10578286D01*
X16709524Y-10559238D01*
X16709524Y-10549714D01*
X16719048Y-10530667D01*
X16738095Y-10521143D01*
X16766667Y-10521143D01*
X16785714Y-10530667D01*
X16861905Y-10730667D02*
X16871429Y-10721143D01*
X16890476Y-10692571D01*
X16900000Y-10673524D01*
X16909524Y-10644952D01*
X16919048Y-10597333D01*
X16919048Y-10559238D01*
X16909524Y-10511619D01*
X16900000Y-10483048D01*
X16890476Y-10464000D01*
X16871429Y-10435429D01*
X16861905Y-10425905D01*
D10*
X12040000Y-10778000D02*
X12040000Y-10878000D01*
X11990000Y-10828000D02*
X12090000Y-10828000D01*
D11*
X12452381Y-10918476D02*
X12338095Y-10918476D01*
X12395238Y-10918476D02*
X12395238Y-10718476D01*
X12376190Y-10747048D01*
X12357143Y-10766095D01*
X12338095Y-10775619D01*
X12538095Y-10899429D02*
X12547619Y-10908952D01*
X12538095Y-10918476D01*
X12528571Y-10908952D01*
X12538095Y-10899429D01*
X12538095Y-10918476D01*
X12671428Y-10718476D02*
X12690476Y-10718476D01*
X12709524Y-10728000D01*
X12719048Y-10737524D01*
X12728571Y-10756571D01*
X12738095Y-10794667D01*
X12738095Y-10842286D01*
X12728571Y-10880381D01*
X12719048Y-10899429D01*
X12709524Y-10908952D01*
X12690476Y-10918476D01*
X12671428Y-10918476D01*
X12652381Y-10908952D01*
X12642857Y-10899429D01*
X12633333Y-10880381D01*
X12623809Y-10842286D01*
X12623809Y-10794667D01*
X12633333Y-10756571D01*
X12642857Y-10737524D01*
X12652381Y-10728000D01*
X12671428Y-10718476D01*
X12861905Y-10718476D02*
X12880952Y-10718476D01*
X12900000Y-10728000D01*
X12909524Y-10737524D01*
X12919048Y-10756571D01*
X12928571Y-10794667D01*
X12928571Y-10842286D01*
X12919048Y-10880381D01*
X12909524Y-10899429D01*
X12900000Y-10908952D01*
X12880952Y-10918476D01*
X12861905Y-10918476D01*
X12842857Y-10908952D01*
X12833333Y-10899429D01*
X12823809Y-10880381D01*
X12814286Y-10842286D01*
X12814286Y-10794667D01*
X12823809Y-10756571D01*
X12833333Y-10737524D01*
X12842857Y-10728000D01*
X12861905Y-10718476D01*
X13052381Y-10718476D02*
X13071428Y-10718476D01*
X13090476Y-10728000D01*
X13100000Y-10737524D01*
X13109524Y-10756571D01*
X13119048Y-10794667D01*
X13119048Y-10842286D01*
X13109524Y-10880381D01*
X13100000Y-10899429D01*
X13090476Y-10908952D01*
X13071428Y-10918476D01*
X13052381Y-10918476D01*
X13033333Y-10908952D01*
X13023809Y-10899429D01*
X13014286Y-10880381D01*
X13004762Y-10842286D01*
X13004762Y-10794667D01*
X13014286Y-10756571D01*
X13023809Y-10737524D01*
X13033333Y-10728000D01*
X13052381Y-10718476D01*
X13204762Y-10918476D02*
X13204762Y-10785143D01*
X13204762Y-10804190D02*
X13214286Y-10794667D01*
X13233333Y-10785143D01*
X13261905Y-10785143D01*
X13280952Y-10794667D01*
X13290476Y-10813714D01*
X13290476Y-10918476D01*
X13290476Y-10813714D02*
X13300000Y-10794667D01*
X13319048Y-10785143D01*
X13347619Y-10785143D01*
X13366667Y-10794667D01*
X13376190Y-10813714D01*
X13376190Y-10918476D01*
X13471428Y-10918476D02*
X13471428Y-10785143D01*
X13471428Y-10804190D02*
X13480952Y-10794667D01*
X13500000Y-10785143D01*
X13528571Y-10785143D01*
X13547619Y-10794667D01*
X13557143Y-10813714D01*
X13557143Y-10918476D01*
X13557143Y-10813714D02*
X13566667Y-10794667D01*
X13585714Y-10785143D01*
X13614286Y-10785143D01*
X13633333Y-10794667D01*
X13642857Y-10813714D01*
X13642857Y-10918476D01*
X14033333Y-10708952D02*
X13861905Y-10966095D01*
X14290476Y-10718476D02*
X14309524Y-10718476D01*
X14328571Y-10728000D01*
X14338095Y-10737524D01*
X14347619Y-10756571D01*
X14357143Y-10794667D01*
X14357143Y-10842286D01*
X14347619Y-10880381D01*
X14338095Y-10899429D01*
X14328571Y-10908952D01*
X14309524Y-10918476D01*
X14290476Y-10918476D01*
X14271428Y-10908952D01*
X14261905Y-10899429D01*
X14252381Y-10880381D01*
X14242857Y-10842286D01*
X14242857Y-10794667D01*
X14252381Y-10756571D01*
X14261905Y-10737524D01*
X14271428Y-10728000D01*
X14290476Y-10718476D01*
X14442857Y-10899429D02*
X14452381Y-10908952D01*
X14442857Y-10918476D01*
X14433333Y-10908952D01*
X14442857Y-10899429D01*
X14442857Y-10918476D01*
X14576190Y-10718476D02*
X14595238Y-10718476D01*
X14614286Y-10728000D01*
X14623809Y-10737524D01*
X14633333Y-10756571D01*
X14642857Y-10794667D01*
X14642857Y-10842286D01*
X14633333Y-10880381D01*
X14623809Y-10899429D01*
X14614286Y-10908952D01*
X14595238Y-10918476D01*
X14576190Y-10918476D01*
X14557143Y-10908952D01*
X14547619Y-10899429D01*
X14538095Y-10880381D01*
X14528571Y-10842286D01*
X14528571Y-10794667D01*
X14538095Y-10756571D01*
X14547619Y-10737524D01*
X14557143Y-10728000D01*
X14576190Y-10718476D01*
X14709524Y-10718476D02*
X14833333Y-10718476D01*
X14766667Y-10794667D01*
X14795238Y-10794667D01*
X14814286Y-10804190D01*
X14823809Y-10813714D01*
X14833333Y-10832762D01*
X14833333Y-10880381D01*
X14823809Y-10899429D01*
X14814286Y-10908952D01*
X14795238Y-10918476D01*
X14738095Y-10918476D01*
X14719048Y-10908952D01*
X14709524Y-10899429D01*
X14928571Y-10918476D02*
X14966667Y-10918476D01*
X14985714Y-10908952D01*
X14995238Y-10899429D01*
X15014286Y-10870857D01*
X15023809Y-10832762D01*
X15023809Y-10756571D01*
X15014286Y-10737524D01*
X15004762Y-10728000D01*
X14985714Y-10718476D01*
X14947619Y-10718476D01*
X14928571Y-10728000D01*
X14919048Y-10737524D01*
X14909524Y-10756571D01*
X14909524Y-10804190D01*
X14919048Y-10823238D01*
X14928571Y-10832762D01*
X14947619Y-10842286D01*
X14985714Y-10842286D01*
X15004762Y-10832762D01*
X15014286Y-10823238D01*
X15023809Y-10804190D01*
X15195238Y-10785143D02*
X15195238Y-10918476D01*
X15147619Y-10708952D02*
X15100000Y-10851810D01*
X15223809Y-10851810D01*
X15290476Y-10718476D02*
X15290476Y-10756571D01*
X15366667Y-10718476D02*
X15366667Y-10756571D01*
X15661905Y-10994667D02*
X15652381Y-10985143D01*
X15633333Y-10956571D01*
X15623809Y-10937524D01*
X15614286Y-10908952D01*
X15604762Y-10861333D01*
X15604762Y-10823238D01*
X15614286Y-10775619D01*
X15623809Y-10747048D01*
X15633333Y-10728000D01*
X15652381Y-10699429D01*
X15661905Y-10689905D01*
X15842857Y-10918476D02*
X15728571Y-10918476D01*
X15785714Y-10918476D02*
X15785714Y-10718476D01*
X15766667Y-10747048D01*
X15747619Y-10766095D01*
X15728571Y-10775619D01*
X15938095Y-10918476D02*
X15976190Y-10918476D01*
X15995238Y-10908952D01*
X16004762Y-10899429D01*
X16023809Y-10870857D01*
X16033333Y-10832762D01*
X16033333Y-10756571D01*
X16023809Y-10737524D01*
X16014286Y-10728000D01*
X15995238Y-10718476D01*
X15957143Y-10718476D01*
X15938095Y-10728000D01*
X15928571Y-10737524D01*
X15919048Y-10756571D01*
X15919048Y-10804190D01*
X15928571Y-10823238D01*
X15938095Y-10832762D01*
X15957143Y-10842286D01*
X15995238Y-10842286D01*
X16014286Y-10832762D01*
X16023809Y-10823238D01*
X16033333Y-10804190D01*
X16271428Y-10918476D02*
X16271428Y-10718476D01*
X16357143Y-10918476D02*
X16357143Y-10813714D01*
X16347619Y-10794667D01*
X16328571Y-10785143D01*
X16300000Y-10785143D01*
X16280952Y-10794667D01*
X16271428Y-10804190D01*
X16480952Y-10918476D02*
X16461905Y-10908952D01*
X16452381Y-10899429D01*
X16442857Y-10880381D01*
X16442857Y-10823238D01*
X16452381Y-10804190D01*
X16461905Y-10794667D01*
X16480952Y-10785143D01*
X16509524Y-10785143D01*
X16528571Y-10794667D01*
X16538095Y-10804190D01*
X16547619Y-10823238D01*
X16547619Y-10880381D01*
X16538095Y-10899429D01*
X16528571Y-10908952D01*
X16509524Y-10918476D01*
X16480952Y-10918476D01*
X16661905Y-10918476D02*
X16642857Y-10908952D01*
X16633333Y-10889905D01*
X16633333Y-10718476D01*
X16814286Y-10908952D02*
X16795238Y-10918476D01*
X16757143Y-10918476D01*
X16738095Y-10908952D01*
X16728571Y-10889905D01*
X16728571Y-10813714D01*
X16738095Y-10794667D01*
X16757143Y-10785143D01*
X16795238Y-10785143D01*
X16814286Y-10794667D01*
X16823810Y-10813714D01*
X16823810Y-10832762D01*
X16728571Y-10851810D01*
X16900000Y-10908952D02*
X16919048Y-10918476D01*
X16957143Y-10918476D01*
X16976190Y-10908952D01*
X16985714Y-10889905D01*
X16985714Y-10880381D01*
X16976190Y-10861333D01*
X16957143Y-10851810D01*
X16928571Y-10851810D01*
X16909524Y-10842286D01*
X16900000Y-10823238D01*
X16900000Y-10813714D01*
X16909524Y-10794667D01*
X16928571Y-10785143D01*
X16957143Y-10785143D01*
X16976190Y-10794667D01*
X17052381Y-10994667D02*
X17061905Y-10985143D01*
X17080952Y-10956571D01*
X17090476Y-10937524D01*
X17100000Y-10908952D01*
X17109524Y-10861333D01*
X17109524Y-10823238D01*
X17100000Y-10775619D01*
X17090476Y-10747048D01*
X17080952Y-10728000D01*
X17061905Y-10699429D01*
X17052381Y-10689905D01*
X12060711Y-11162711D02*
X12060711Y-11021289D01*
X11919289Y-11021289D01*
X11919289Y-11162711D01*
X12060711Y-11162711D01*
X12328571Y-10982476D02*
X12452381Y-10982476D01*
X12385714Y-11058667D01*
X12414286Y-11058667D01*
X12433333Y-11068190D01*
X12442857Y-11077714D01*
X12452381Y-11096762D01*
X12452381Y-11144381D01*
X12442857Y-11163429D01*
X12433333Y-11172952D01*
X12414286Y-11182476D01*
X12357143Y-11182476D01*
X12338095Y-11172952D01*
X12328571Y-11163429D01*
X12538095Y-11163429D02*
X12547619Y-11172952D01*
X12538095Y-11182476D01*
X12528571Y-11172952D01*
X12538095Y-11163429D01*
X12538095Y-11182476D01*
X12623809Y-11001524D02*
X12633333Y-10992000D01*
X12652381Y-10982476D01*
X12700000Y-10982476D01*
X12719048Y-10992000D01*
X12728571Y-11001524D01*
X12738095Y-11020571D01*
X12738095Y-11039619D01*
X12728571Y-11068190D01*
X12614286Y-11182476D01*
X12738095Y-11182476D01*
X12861905Y-10982476D02*
X12880952Y-10982476D01*
X12900000Y-10992000D01*
X12909524Y-11001524D01*
X12919048Y-11020571D01*
X12928571Y-11058667D01*
X12928571Y-11106286D01*
X12919048Y-11144381D01*
X12909524Y-11163429D01*
X12900000Y-11172952D01*
X12880952Y-11182476D01*
X12861905Y-11182476D01*
X12842857Y-11172952D01*
X12833333Y-11163429D01*
X12823809Y-11144381D01*
X12814286Y-11106286D01*
X12814286Y-11058667D01*
X12823809Y-11020571D01*
X12833333Y-11001524D01*
X12842857Y-10992000D01*
X12861905Y-10982476D01*
X13052381Y-10982476D02*
X13071428Y-10982476D01*
X13090476Y-10992000D01*
X13100000Y-11001524D01*
X13109524Y-11020571D01*
X13119048Y-11058667D01*
X13119048Y-11106286D01*
X13109524Y-11144381D01*
X13100000Y-11163429D01*
X13090476Y-11172952D01*
X13071428Y-11182476D01*
X13052381Y-11182476D01*
X13033333Y-11172952D01*
X13023809Y-11163429D01*
X13014286Y-11144381D01*
X13004762Y-11106286D01*
X13004762Y-11058667D01*
X13014286Y-11020571D01*
X13023809Y-11001524D01*
X13033333Y-10992000D01*
X13052381Y-10982476D01*
X13204762Y-11182476D02*
X13204762Y-11049143D01*
X13204762Y-11068190D02*
X13214286Y-11058667D01*
X13233333Y-11049143D01*
X13261905Y-11049143D01*
X13280952Y-11058667D01*
X13290476Y-11077714D01*
X13290476Y-11182476D01*
X13290476Y-11077714D02*
X13300000Y-11058667D01*
X13319048Y-11049143D01*
X13347619Y-11049143D01*
X13366667Y-11058667D01*
X13376190Y-11077714D01*
X13376190Y-11182476D01*
X13471428Y-11182476D02*
X13471428Y-11049143D01*
X13471428Y-11068190D02*
X13480952Y-11058667D01*
X13500000Y-11049143D01*
X13528571Y-11049143D01*
X13547619Y-11058667D01*
X13557143Y-11077714D01*
X13557143Y-11182476D01*
X13557143Y-11077714D02*
X13566667Y-11058667D01*
X13585714Y-11049143D01*
X13614286Y-11049143D01*
X13633333Y-11058667D01*
X13642857Y-11077714D01*
X13642857Y-11182476D01*
X14033333Y-10972952D02*
X13861905Y-11230095D01*
X14290476Y-10982476D02*
X14309524Y-10982476D01*
X14328571Y-10992000D01*
X14338095Y-11001524D01*
X14347619Y-11020571D01*
X14357143Y-11058667D01*
X14357143Y-11106286D01*
X14347619Y-11144381D01*
X14338095Y-11163429D01*
X14328571Y-11172952D01*
X14309524Y-11182476D01*
X14290476Y-11182476D01*
X14271428Y-11172952D01*
X14261905Y-11163429D01*
X14252381Y-11144381D01*
X14242857Y-11106286D01*
X14242857Y-11058667D01*
X14252381Y-11020571D01*
X14261905Y-11001524D01*
X14271428Y-10992000D01*
X14290476Y-10982476D01*
X14442857Y-11163429D02*
X14452381Y-11172952D01*
X14442857Y-11182476D01*
X14433333Y-11172952D01*
X14442857Y-11163429D01*
X14442857Y-11182476D01*
X14642857Y-11182476D02*
X14528571Y-11182476D01*
X14585714Y-11182476D02*
X14585714Y-10982476D01*
X14566667Y-11011048D01*
X14547619Y-11030095D01*
X14528571Y-11039619D01*
X14719048Y-11001524D02*
X14728571Y-10992000D01*
X14747619Y-10982476D01*
X14795238Y-10982476D01*
X14814286Y-10992000D01*
X14823809Y-11001524D01*
X14833333Y-11020571D01*
X14833333Y-11039619D01*
X14823809Y-11068190D01*
X14709524Y-11182476D01*
X14833333Y-11182476D01*
X15004762Y-10982476D02*
X14966667Y-10982476D01*
X14947619Y-10992000D01*
X14938095Y-11001524D01*
X14919048Y-11030095D01*
X14909524Y-11068190D01*
X14909524Y-11144381D01*
X14919048Y-11163429D01*
X14928571Y-11172952D01*
X14947619Y-11182476D01*
X14985714Y-11182476D01*
X15004762Y-11172952D01*
X15014286Y-11163429D01*
X15023809Y-11144381D01*
X15023809Y-11096762D01*
X15014286Y-11077714D01*
X15004762Y-11068190D01*
X14985714Y-11058667D01*
X14947619Y-11058667D01*
X14928571Y-11068190D01*
X14919048Y-11077714D01*
X14909524Y-11096762D01*
X15147619Y-10982476D02*
X15166667Y-10982476D01*
X15185714Y-10992000D01*
X15195238Y-11001524D01*
X15204762Y-11020571D01*
X15214286Y-11058667D01*
X15214286Y-11106286D01*
X15204762Y-11144381D01*
X15195238Y-11163429D01*
X15185714Y-11172952D01*
X15166667Y-11182476D01*
X15147619Y-11182476D01*
X15128571Y-11172952D01*
X15119048Y-11163429D01*
X15109524Y-11144381D01*
X15100000Y-11106286D01*
X15100000Y-11058667D01*
X15109524Y-11020571D01*
X15119048Y-11001524D01*
X15128571Y-10992000D01*
X15147619Y-10982476D01*
X15290476Y-10982476D02*
X15290476Y-11020571D01*
X15366667Y-10982476D02*
X15366667Y-11020571D01*
X15661905Y-11258667D02*
X15652381Y-11249143D01*
X15633333Y-11220571D01*
X15623809Y-11201524D01*
X15614286Y-11172952D01*
X15604762Y-11125333D01*
X15604762Y-11087238D01*
X15614286Y-11039619D01*
X15623809Y-11011048D01*
X15633333Y-10992000D01*
X15652381Y-10963429D01*
X15661905Y-10953905D01*
X15728571Y-11001524D02*
X15738095Y-10992000D01*
X15757143Y-10982476D01*
X15804762Y-10982476D01*
X15823809Y-10992000D01*
X15833333Y-11001524D01*
X15842857Y-11020571D01*
X15842857Y-11039619D01*
X15833333Y-11068190D01*
X15719048Y-11182476D01*
X15842857Y-11182476D01*
X16080952Y-11182476D02*
X16080952Y-10982476D01*
X16166667Y-11182476D02*
X16166667Y-11077714D01*
X16157143Y-11058667D01*
X16138095Y-11049143D01*
X16109524Y-11049143D01*
X16090476Y-11058667D01*
X16080952Y-11068190D01*
X16290476Y-11182476D02*
X16271428Y-11172952D01*
X16261905Y-11163429D01*
X16252381Y-11144381D01*
X16252381Y-11087238D01*
X16261905Y-11068190D01*
X16271428Y-11058667D01*
X16290476Y-11049143D01*
X16319048Y-11049143D01*
X16338095Y-11058667D01*
X16347619Y-11068190D01*
X16357143Y-11087238D01*
X16357143Y-11144381D01*
X16347619Y-11163429D01*
X16338095Y-11172952D01*
X16319048Y-11182476D01*
X16290476Y-11182476D01*
X16471428Y-11182476D02*
X16452381Y-11172952D01*
X16442857Y-11153905D01*
X16442857Y-10982476D01*
X16623809Y-11172952D02*
X16604762Y-11182476D01*
X16566667Y-11182476D01*
X16547619Y-11172952D01*
X16538095Y-11153905D01*
X16538095Y-11077714D01*
X16547619Y-11058667D01*
X16566667Y-11049143D01*
X16604762Y-11049143D01*
X16623809Y-11058667D01*
X16633333Y-11077714D01*
X16633333Y-11096762D01*
X16538095Y-11115810D01*
X16709524Y-11172952D02*
X16728571Y-11182476D01*
X16766667Y-11182476D01*
X16785714Y-11172952D01*
X16795238Y-11153905D01*
X16795238Y-11144381D01*
X16785714Y-11125333D01*
X16766667Y-11115810D01*
X16738095Y-11115810D01*
X16719048Y-11106286D01*
X16709524Y-11087238D01*
X16709524Y-11077714D01*
X16719048Y-11058667D01*
X16738095Y-11049143D01*
X16766667Y-11049143D01*
X16785714Y-11058667D01*
X16861905Y-11258667D02*
X16871429Y-11249143D01*
X16890476Y-11220571D01*
X16900000Y-11201524D01*
X16909524Y-11172952D01*
X16919048Y-11125333D01*
X16919048Y-11087238D01*
X16909524Y-11039619D01*
X16900000Y-11011048D01*
X16890476Y-10992000D01*
X16871429Y-10963429D01*
X16861905Y-10953905D01*
M02*
