M48
; DRILL file {KiCad (6.0.9)} date Wed 23 Nov 2022 12:56:34 AM CET
; FORMAT={-:-/ absolute / metric / decimal}
; #@! TF.CreationDate,2022-11-23T00:56:34+01:00
; #@! TF.GenerationSoftware,Kicad,Pcbnew,(6.0.9)
; #@! TF.FileFunction,Plated,1,2,PTH
FMAT,2
METRIC
; #@! TA.AperFunction,Plated,PTH,ViaDrill
T1C0.400
; #@! TA.AperFunction,Plated,PTH,ComponentDrill
T2C0.800
; #@! TA.AperFunction,Plated,PTH,ComponentDrill
T3C1.000
; #@! TA.AperFunction,Plated,PTH,ComponentDrill
T4C3.200
%
G90
G05
T1
X128.05Y-82.1
X129.85Y-77.5
X130.05Y-82.0
X131.4Y-80.15
T2
X143.55Y-73.0
X143.55Y-75.54
X143.55Y-78.08
X143.55Y-80.62
X143.55Y-83.16
T3
X128.91Y-49.846
X128.91Y-52.619
X128.91Y-55.391
X128.91Y-58.164
X131.75Y-48.46
X131.75Y-51.233
X131.75Y-54.005
X131.75Y-56.778
X131.75Y-59.55
X151.183Y-55.317
X151.183Y-57.857
X151.183Y-60.397
X151.183Y-62.937
X151.375Y-71.65
X151.375Y-74.19
X151.375Y-76.73
X151.375Y-79.27
X151.375Y-81.81
X151.375Y-84.35
T4
X130.33Y-41.51
X130.33Y-66.5
T0
M30
