%TF.GenerationSoftware,KiCad,Pcbnew,(6.0.9)*%
%TF.CreationDate,2022-11-23T00:56:36+01:00*%
%TF.ProjectId,Testapparaat_io,54657374-6170-4706-9172-6161745f696f,rev?*%
%TF.SameCoordinates,Original*%
%TF.FileFunction,Drillmap*%
%TF.FilePolarity,Positive*%
%FSLAX45Y45*%
G04 Gerber Fmt 4.5, Leading zero omitted, Abs format (unit mm)*
G04 Created by KiCad (PCBNEW (6.0.9)) date 2022-11-23 00:56:36*
%MOMM*%
%LPD*%
G01*
G04 APERTURE LIST*
%ADD10C,0.100000*%
%ADD11C,0.200000*%
%ADD12C,0.320000*%
G04 APERTURE END LIST*
D10*
X15550000Y-3070000D02*
X12100000Y-3070000D01*
X12100000Y-6350000D02*
X12095000Y-9655000D01*
X12095000Y-9655000D02*
X15545000Y-9655000D01*
X15545000Y-9655000D02*
X15550000Y-3070000D01*
X12100000Y-3070000D02*
X12100000Y-6350000D01*
D11*
D12*
X12267500Y-9197500D02*
X12587500Y-9517500D01*
X12587500Y-9197500D02*
X12267500Y-9517500D01*
X12340000Y-3248000D02*
X12660000Y-3568000D01*
X12660000Y-3248000D02*
X12340000Y-3568000D01*
X15027500Y-3260000D02*
X15347500Y-3580000D01*
X15347500Y-3260000D02*
X15027500Y-3580000D01*
X15065000Y-9190000D02*
X15385000Y-9510000D01*
X15385000Y-9190000D02*
X15065000Y-9510000D01*
D11*
X12347619Y-9970476D02*
X12347619Y-9770476D01*
X12395238Y-9770476D01*
X12423809Y-9780000D01*
X12442857Y-9799048D01*
X12452381Y-9818095D01*
X12461905Y-9856190D01*
X12461905Y-9884762D01*
X12452381Y-9922857D01*
X12442857Y-9941905D01*
X12423809Y-9960952D01*
X12395238Y-9970476D01*
X12347619Y-9970476D01*
X12547619Y-9970476D02*
X12547619Y-9837143D01*
X12547619Y-9875238D02*
X12557143Y-9856190D01*
X12566667Y-9846667D01*
X12585714Y-9837143D01*
X12604762Y-9837143D01*
X12671428Y-9970476D02*
X12671428Y-9837143D01*
X12671428Y-9770476D02*
X12661905Y-9780000D01*
X12671428Y-9789524D01*
X12680952Y-9780000D01*
X12671428Y-9770476D01*
X12671428Y-9789524D01*
X12795238Y-9970476D02*
X12776190Y-9960952D01*
X12766667Y-9941905D01*
X12766667Y-9770476D01*
X12900000Y-9970476D02*
X12880952Y-9960952D01*
X12871428Y-9941905D01*
X12871428Y-9770476D01*
X13128571Y-9970476D02*
X13128571Y-9770476D01*
X13195238Y-9913333D01*
X13261905Y-9770476D01*
X13261905Y-9970476D01*
X13442857Y-9970476D02*
X13442857Y-9865714D01*
X13433333Y-9846667D01*
X13414286Y-9837143D01*
X13376190Y-9837143D01*
X13357143Y-9846667D01*
X13442857Y-9960952D02*
X13423809Y-9970476D01*
X13376190Y-9970476D01*
X13357143Y-9960952D01*
X13347619Y-9941905D01*
X13347619Y-9922857D01*
X13357143Y-9903810D01*
X13376190Y-9894286D01*
X13423809Y-9894286D01*
X13442857Y-9884762D01*
X13538095Y-9837143D02*
X13538095Y-10037143D01*
X13538095Y-9846667D02*
X13557143Y-9837143D01*
X13595238Y-9837143D01*
X13614286Y-9846667D01*
X13623809Y-9856190D01*
X13633333Y-9875238D01*
X13633333Y-9932381D01*
X13623809Y-9951429D01*
X13614286Y-9960952D01*
X13595238Y-9970476D01*
X13557143Y-9970476D01*
X13538095Y-9960952D01*
X13719048Y-9951429D02*
X13728571Y-9960952D01*
X13719048Y-9970476D01*
X13709524Y-9960952D01*
X13719048Y-9951429D01*
X13719048Y-9970476D01*
X13719048Y-9846667D02*
X13728571Y-9856190D01*
X13719048Y-9865714D01*
X13709524Y-9856190D01*
X13719048Y-9846667D01*
X13719048Y-9865714D01*
X11890000Y-10200000D02*
X12090000Y-10400000D01*
X12090000Y-10200000D02*
X11890000Y-10400000D01*
X12328571Y-10190476D02*
X12452381Y-10190476D01*
X12385714Y-10266667D01*
X12414286Y-10266667D01*
X12433333Y-10276190D01*
X12442857Y-10285714D01*
X12452381Y-10304762D01*
X12452381Y-10352381D01*
X12442857Y-10371429D01*
X12433333Y-10380952D01*
X12414286Y-10390476D01*
X12357143Y-10390476D01*
X12338095Y-10380952D01*
X12328571Y-10371429D01*
X12538095Y-10371429D02*
X12547619Y-10380952D01*
X12538095Y-10390476D01*
X12528571Y-10380952D01*
X12538095Y-10371429D01*
X12538095Y-10390476D01*
X12623809Y-10209524D02*
X12633333Y-10200000D01*
X12652381Y-10190476D01*
X12700000Y-10190476D01*
X12719048Y-10200000D01*
X12728571Y-10209524D01*
X12738095Y-10228571D01*
X12738095Y-10247619D01*
X12728571Y-10276190D01*
X12614286Y-10390476D01*
X12738095Y-10390476D01*
X12861905Y-10190476D02*
X12880952Y-10190476D01*
X12900000Y-10200000D01*
X12909524Y-10209524D01*
X12919048Y-10228571D01*
X12928571Y-10266667D01*
X12928571Y-10314286D01*
X12919048Y-10352381D01*
X12909524Y-10371429D01*
X12900000Y-10380952D01*
X12880952Y-10390476D01*
X12861905Y-10390476D01*
X12842857Y-10380952D01*
X12833333Y-10371429D01*
X12823809Y-10352381D01*
X12814286Y-10314286D01*
X12814286Y-10266667D01*
X12823809Y-10228571D01*
X12833333Y-10209524D01*
X12842857Y-10200000D01*
X12861905Y-10190476D01*
X13052381Y-10190476D02*
X13071428Y-10190476D01*
X13090476Y-10200000D01*
X13100000Y-10209524D01*
X13109524Y-10228571D01*
X13119048Y-10266667D01*
X13119048Y-10314286D01*
X13109524Y-10352381D01*
X13100000Y-10371429D01*
X13090476Y-10380952D01*
X13071428Y-10390476D01*
X13052381Y-10390476D01*
X13033333Y-10380952D01*
X13023809Y-10371429D01*
X13014286Y-10352381D01*
X13004762Y-10314286D01*
X13004762Y-10266667D01*
X13014286Y-10228571D01*
X13023809Y-10209524D01*
X13033333Y-10200000D01*
X13052381Y-10190476D01*
X13204762Y-10390476D02*
X13204762Y-10257143D01*
X13204762Y-10276190D02*
X13214286Y-10266667D01*
X13233333Y-10257143D01*
X13261905Y-10257143D01*
X13280952Y-10266667D01*
X13290476Y-10285714D01*
X13290476Y-10390476D01*
X13290476Y-10285714D02*
X13300000Y-10266667D01*
X13319048Y-10257143D01*
X13347619Y-10257143D01*
X13366667Y-10266667D01*
X13376190Y-10285714D01*
X13376190Y-10390476D01*
X13471428Y-10390476D02*
X13471428Y-10257143D01*
X13471428Y-10276190D02*
X13480952Y-10266667D01*
X13500000Y-10257143D01*
X13528571Y-10257143D01*
X13547619Y-10266667D01*
X13557143Y-10285714D01*
X13557143Y-10390476D01*
X13557143Y-10285714D02*
X13566667Y-10266667D01*
X13585714Y-10257143D01*
X13614286Y-10257143D01*
X13633333Y-10266667D01*
X13642857Y-10285714D01*
X13642857Y-10390476D01*
X14033333Y-10180952D02*
X13861905Y-10438095D01*
X14290476Y-10190476D02*
X14309524Y-10190476D01*
X14328571Y-10200000D01*
X14338095Y-10209524D01*
X14347619Y-10228571D01*
X14357143Y-10266667D01*
X14357143Y-10314286D01*
X14347619Y-10352381D01*
X14338095Y-10371429D01*
X14328571Y-10380952D01*
X14309524Y-10390476D01*
X14290476Y-10390476D01*
X14271428Y-10380952D01*
X14261905Y-10371429D01*
X14252381Y-10352381D01*
X14242857Y-10314286D01*
X14242857Y-10266667D01*
X14252381Y-10228571D01*
X14261905Y-10209524D01*
X14271428Y-10200000D01*
X14290476Y-10190476D01*
X14442857Y-10371429D02*
X14452381Y-10380952D01*
X14442857Y-10390476D01*
X14433333Y-10380952D01*
X14442857Y-10371429D01*
X14442857Y-10390476D01*
X14642857Y-10390476D02*
X14528571Y-10390476D01*
X14585714Y-10390476D02*
X14585714Y-10190476D01*
X14566667Y-10219048D01*
X14547619Y-10238095D01*
X14528571Y-10247619D01*
X14719048Y-10209524D02*
X14728571Y-10200000D01*
X14747619Y-10190476D01*
X14795238Y-10190476D01*
X14814286Y-10200000D01*
X14823809Y-10209524D01*
X14833333Y-10228571D01*
X14833333Y-10247619D01*
X14823809Y-10276190D01*
X14709524Y-10390476D01*
X14833333Y-10390476D01*
X15004762Y-10190476D02*
X14966667Y-10190476D01*
X14947619Y-10200000D01*
X14938095Y-10209524D01*
X14919048Y-10238095D01*
X14909524Y-10276190D01*
X14909524Y-10352381D01*
X14919048Y-10371429D01*
X14928571Y-10380952D01*
X14947619Y-10390476D01*
X14985714Y-10390476D01*
X15004762Y-10380952D01*
X15014286Y-10371429D01*
X15023809Y-10352381D01*
X15023809Y-10304762D01*
X15014286Y-10285714D01*
X15004762Y-10276190D01*
X14985714Y-10266667D01*
X14947619Y-10266667D01*
X14928571Y-10276190D01*
X14919048Y-10285714D01*
X14909524Y-10304762D01*
X15147619Y-10190476D02*
X15166667Y-10190476D01*
X15185714Y-10200000D01*
X15195238Y-10209524D01*
X15204762Y-10228571D01*
X15214286Y-10266667D01*
X15214286Y-10314286D01*
X15204762Y-10352381D01*
X15195238Y-10371429D01*
X15185714Y-10380952D01*
X15166667Y-10390476D01*
X15147619Y-10390476D01*
X15128571Y-10380952D01*
X15119048Y-10371429D01*
X15109524Y-10352381D01*
X15100000Y-10314286D01*
X15100000Y-10266667D01*
X15109524Y-10228571D01*
X15119048Y-10209524D01*
X15128571Y-10200000D01*
X15147619Y-10190476D01*
X15290476Y-10190476D02*
X15290476Y-10228571D01*
X15366667Y-10190476D02*
X15366667Y-10228571D01*
X15661905Y-10466667D02*
X15652381Y-10457143D01*
X15633333Y-10428571D01*
X15623809Y-10409524D01*
X15614286Y-10380952D01*
X15604762Y-10333333D01*
X15604762Y-10295238D01*
X15614286Y-10247619D01*
X15623809Y-10219048D01*
X15633333Y-10200000D01*
X15652381Y-10171429D01*
X15661905Y-10161905D01*
X15823809Y-10257143D02*
X15823809Y-10390476D01*
X15776190Y-10180952D02*
X15728571Y-10323810D01*
X15852381Y-10323810D01*
X16080952Y-10390476D02*
X16080952Y-10190476D01*
X16166667Y-10390476D02*
X16166667Y-10285714D01*
X16157143Y-10266667D01*
X16138095Y-10257143D01*
X16109524Y-10257143D01*
X16090476Y-10266667D01*
X16080952Y-10276190D01*
X16290476Y-10390476D02*
X16271428Y-10380952D01*
X16261905Y-10371429D01*
X16252381Y-10352381D01*
X16252381Y-10295238D01*
X16261905Y-10276190D01*
X16271428Y-10266667D01*
X16290476Y-10257143D01*
X16319048Y-10257143D01*
X16338095Y-10266667D01*
X16347619Y-10276190D01*
X16357143Y-10295238D01*
X16357143Y-10352381D01*
X16347619Y-10371429D01*
X16338095Y-10380952D01*
X16319048Y-10390476D01*
X16290476Y-10390476D01*
X16471428Y-10390476D02*
X16452381Y-10380952D01*
X16442857Y-10361905D01*
X16442857Y-10190476D01*
X16623809Y-10380952D02*
X16604762Y-10390476D01*
X16566667Y-10390476D01*
X16547619Y-10380952D01*
X16538095Y-10361905D01*
X16538095Y-10285714D01*
X16547619Y-10266667D01*
X16566667Y-10257143D01*
X16604762Y-10257143D01*
X16623809Y-10266667D01*
X16633333Y-10285714D01*
X16633333Y-10304762D01*
X16538095Y-10323810D01*
X16709524Y-10380952D02*
X16728571Y-10390476D01*
X16766667Y-10390476D01*
X16785714Y-10380952D01*
X16795238Y-10361905D01*
X16795238Y-10352381D01*
X16785714Y-10333333D01*
X16766667Y-10323810D01*
X16738095Y-10323810D01*
X16719048Y-10314286D01*
X16709524Y-10295238D01*
X16709524Y-10285714D01*
X16719048Y-10266667D01*
X16738095Y-10257143D01*
X16766667Y-10257143D01*
X16785714Y-10266667D01*
X16861905Y-10466667D02*
X16871429Y-10457143D01*
X16890476Y-10428571D01*
X16900000Y-10409524D01*
X16909524Y-10380952D01*
X16919048Y-10333333D01*
X16919048Y-10295238D01*
X16909524Y-10247619D01*
X16900000Y-10219048D01*
X16890476Y-10200000D01*
X16871429Y-10171429D01*
X16861905Y-10161905D01*
X17223810Y-10466667D02*
X17214286Y-10457143D01*
X17195238Y-10428571D01*
X17185714Y-10409524D01*
X17176190Y-10380952D01*
X17166667Y-10333333D01*
X17166667Y-10295238D01*
X17176190Y-10247619D01*
X17185714Y-10219048D01*
X17195238Y-10200000D01*
X17214286Y-10171429D01*
X17223810Y-10161905D01*
X17300000Y-10257143D02*
X17300000Y-10390476D01*
X17300000Y-10276190D02*
X17309524Y-10266667D01*
X17328571Y-10257143D01*
X17357143Y-10257143D01*
X17376190Y-10266667D01*
X17385714Y-10285714D01*
X17385714Y-10390476D01*
X17509524Y-10390476D02*
X17490476Y-10380952D01*
X17480952Y-10371429D01*
X17471429Y-10352381D01*
X17471429Y-10295238D01*
X17480952Y-10276190D01*
X17490476Y-10266667D01*
X17509524Y-10257143D01*
X17538095Y-10257143D01*
X17557143Y-10266667D01*
X17566667Y-10276190D01*
X17576190Y-10295238D01*
X17576190Y-10352381D01*
X17566667Y-10371429D01*
X17557143Y-10380952D01*
X17538095Y-10390476D01*
X17509524Y-10390476D01*
X17633333Y-10257143D02*
X17709524Y-10257143D01*
X17661905Y-10190476D02*
X17661905Y-10361905D01*
X17671429Y-10380952D01*
X17690476Y-10390476D01*
X17709524Y-10390476D01*
X17928571Y-10257143D02*
X17928571Y-10457143D01*
X17928571Y-10266667D02*
X17947619Y-10257143D01*
X17985714Y-10257143D01*
X18004762Y-10266667D01*
X18014286Y-10276190D01*
X18023810Y-10295238D01*
X18023810Y-10352381D01*
X18014286Y-10371429D01*
X18004762Y-10380952D01*
X17985714Y-10390476D01*
X17947619Y-10390476D01*
X17928571Y-10380952D01*
X18138095Y-10390476D02*
X18119048Y-10380952D01*
X18109524Y-10361905D01*
X18109524Y-10190476D01*
X18300000Y-10390476D02*
X18300000Y-10285714D01*
X18290476Y-10266667D01*
X18271429Y-10257143D01*
X18233333Y-10257143D01*
X18214286Y-10266667D01*
X18300000Y-10380952D02*
X18280952Y-10390476D01*
X18233333Y-10390476D01*
X18214286Y-10380952D01*
X18204762Y-10361905D01*
X18204762Y-10342857D01*
X18214286Y-10323810D01*
X18233333Y-10314286D01*
X18280952Y-10314286D01*
X18300000Y-10304762D01*
X18366667Y-10257143D02*
X18442857Y-10257143D01*
X18395238Y-10190476D02*
X18395238Y-10361905D01*
X18404762Y-10380952D01*
X18423810Y-10390476D01*
X18442857Y-10390476D01*
X18585714Y-10380952D02*
X18566667Y-10390476D01*
X18528571Y-10390476D01*
X18509524Y-10380952D01*
X18500000Y-10361905D01*
X18500000Y-10285714D01*
X18509524Y-10266667D01*
X18528571Y-10257143D01*
X18566667Y-10257143D01*
X18585714Y-10266667D01*
X18595238Y-10285714D01*
X18595238Y-10304762D01*
X18500000Y-10323810D01*
X18766667Y-10390476D02*
X18766667Y-10190476D01*
X18766667Y-10380952D02*
X18747619Y-10390476D01*
X18709524Y-10390476D01*
X18690476Y-10380952D01*
X18680952Y-10371429D01*
X18671429Y-10352381D01*
X18671429Y-10295238D01*
X18680952Y-10276190D01*
X18690476Y-10266667D01*
X18709524Y-10257143D01*
X18747619Y-10257143D01*
X18766667Y-10266667D01*
X18842857Y-10466667D02*
X18852381Y-10457143D01*
X18871429Y-10428571D01*
X18880952Y-10409524D01*
X18890476Y-10380952D01*
X18900000Y-10333333D01*
X18900000Y-10295238D01*
X18890476Y-10247619D01*
X18880952Y-10219048D01*
X18871429Y-10200000D01*
X18852381Y-10171429D01*
X18842857Y-10161905D01*
M02*
