%TF.GenerationSoftware,KiCad,Pcbnew,(6.0.9)*%
%TF.CreationDate,2022-11-23T00:30:26+01:00*%
%TF.ProjectId,Testapparaat,54657374-6170-4706-9172-6161742e6b69,rev?*%
%TF.SameCoordinates,Original*%
%TF.FileFunction,Paste,Bot*%
%TF.FilePolarity,Positive*%
%FSLAX46Y46*%
G04 Gerber Fmt 4.6, Leading zero omitted, Abs format (unit mm)*
G04 Created by KiCad (PCBNEW (6.0.9)) date 2022-11-23 00:30:26*
%MOMM*%
%LPD*%
G01*
G04 APERTURE LIST*
G04 Aperture macros list*
%AMRoundRect*
0 Rectangle with rounded corners*
0 $1 Rounding radius*
0 $2 $3 $4 $5 $6 $7 $8 $9 X,Y pos of 4 corners*
0 Add a 4 corners polygon primitive as box body*
4,1,4,$2,$3,$4,$5,$6,$7,$8,$9,$2,$3,0*
0 Add four circle primitives for the rounded corners*
1,1,$1+$1,$2,$3*
1,1,$1+$1,$4,$5*
1,1,$1+$1,$6,$7*
1,1,$1+$1,$8,$9*
0 Add four rect primitives between the rounded corners*
20,1,$1+$1,$2,$3,$4,$5,0*
20,1,$1+$1,$4,$5,$6,$7,0*
20,1,$1+$1,$6,$7,$8,$9,0*
20,1,$1+$1,$8,$9,$2,$3,0*%
G04 Aperture macros list end*
%ADD10R,3.500000X1.800000*%
%ADD11RoundRect,0.237500X-0.237500X0.300000X-0.237500X-0.300000X0.237500X-0.300000X0.237500X0.300000X0*%
%ADD12RoundRect,0.150000X0.587500X0.150000X-0.587500X0.150000X-0.587500X-0.150000X0.587500X-0.150000X0*%
%ADD13R,5.400000X2.900000*%
%ADD14RoundRect,0.237500X0.250000X0.237500X-0.250000X0.237500X-0.250000X-0.237500X0.250000X-0.237500X0*%
%ADD15R,0.800000X1.750000*%
%ADD16R,0.700000X1.750000*%
%ADD17R,1.750000X0.800000*%
%ADD18R,1.750000X0.700000*%
%ADD19RoundRect,0.237500X-0.250000X-0.237500X0.250000X-0.237500X0.250000X0.237500X-0.250000X0.237500X0*%
%ADD20R,0.900000X2.000000*%
%ADD21R,2.000000X0.900000*%
%ADD22R,5.000000X5.000000*%
%ADD23R,1.100000X4.600000*%
%ADD24R,5.250000X4.550000*%
%ADD25RoundRect,0.237500X-0.300000X-0.237500X0.300000X-0.237500X0.300000X0.237500X-0.300000X0.237500X0*%
%ADD26R,0.450000X1.475000*%
%ADD27R,3.150000X1.000000*%
%ADD28RoundRect,0.237500X0.300000X0.237500X-0.300000X0.237500X-0.300000X-0.237500X0.300000X-0.237500X0*%
%ADD29RoundRect,0.150000X-0.587500X-0.150000X0.587500X-0.150000X0.587500X0.150000X-0.587500X0.150000X0*%
%ADD30RoundRect,0.237500X-0.237500X0.250000X-0.237500X-0.250000X0.237500X-0.250000X0.237500X0.250000X0*%
%ADD31R,1.550000X1.300000*%
G04 APERTURE END LIST*
D10*
X172304000Y-151652500D03*
X177304000Y-151652500D03*
D11*
X134247000Y-99225500D03*
X134247000Y-100950500D03*
D12*
X155697000Y-84925500D03*
X155697000Y-86825500D03*
X153822000Y-85875500D03*
D11*
X147377000Y-98678000D03*
X147377000Y-100403000D03*
D13*
X176073000Y-147999850D03*
X176073000Y-138299850D03*
D14*
X155147000Y-96340500D03*
X153322000Y-96340500D03*
D15*
X131842000Y-107725500D03*
D16*
X130522000Y-107725500D03*
X129252000Y-107725500D03*
X127982000Y-107725500D03*
X126712000Y-107725500D03*
X125442000Y-107725500D03*
X124172000Y-107725500D03*
D15*
X122852000Y-107725500D03*
X122852000Y-102075500D03*
D16*
X124172000Y-102075500D03*
X125442000Y-102075500D03*
X126712000Y-102075500D03*
X127982000Y-102075500D03*
X129252000Y-102075500D03*
X130522000Y-102075500D03*
D15*
X131842000Y-102075500D03*
D17*
X166197000Y-43680500D03*
D18*
X166197000Y-45000500D03*
X166197000Y-46270500D03*
X166197000Y-47540500D03*
X166197000Y-48810500D03*
X166197000Y-50080500D03*
X166197000Y-51350500D03*
D17*
X166197000Y-52670500D03*
X160547000Y-52670500D03*
D18*
X160547000Y-51350500D03*
X160547000Y-50080500D03*
X160547000Y-48810500D03*
X160547000Y-47540500D03*
X160547000Y-46270500D03*
X160547000Y-45000500D03*
D17*
X160547000Y-43680500D03*
D11*
X224436250Y-135449500D03*
X224436250Y-137174500D03*
D19*
X147004500Y-95240500D03*
X148829500Y-95240500D03*
D20*
X133892000Y-69950500D03*
X135162000Y-69950500D03*
X136432000Y-69950500D03*
X137702000Y-69950500D03*
X138972000Y-69950500D03*
X140242000Y-69950500D03*
X141512000Y-69950500D03*
X142782000Y-69950500D03*
X144052000Y-69950500D03*
X145322000Y-69950500D03*
X146592000Y-69950500D03*
X147862000Y-69950500D03*
X149132000Y-69950500D03*
X150402000Y-69950500D03*
D21*
X151402000Y-72735500D03*
X151402000Y-74005500D03*
X151402000Y-75275500D03*
X151402000Y-76545500D03*
X151402000Y-77815500D03*
X151402000Y-79085500D03*
X151402000Y-80355500D03*
X151402000Y-81625500D03*
X151402000Y-82895500D03*
X151402000Y-84165500D03*
D20*
X150402000Y-86950500D03*
X149132000Y-86950500D03*
X147862000Y-86950500D03*
X146592000Y-86950500D03*
X145322000Y-86950500D03*
X144052000Y-86950500D03*
X142782000Y-86950500D03*
X141512000Y-86950500D03*
X140242000Y-86950500D03*
X138972000Y-86950500D03*
X137702000Y-86950500D03*
X136432000Y-86950500D03*
X135162000Y-86950500D03*
X133892000Y-86950500D03*
D22*
X141392000Y-77450500D03*
D23*
X185697000Y-148600500D03*
X187397000Y-148600500D03*
X189097000Y-148600500D03*
X190797000Y-148600500D03*
X192497000Y-148600500D03*
D24*
X186322000Y-141875500D03*
X191872000Y-137025500D03*
X191872000Y-141875500D03*
X186322000Y-137025500D03*
D25*
X162872000Y-41150500D03*
X164597000Y-41150500D03*
D19*
X145672000Y-96775500D03*
X147497000Y-96775500D03*
D14*
X151372000Y-107850500D03*
X149547000Y-107850500D03*
D26*
X149472000Y-99112500D03*
X150122000Y-99112500D03*
X150772000Y-99112500D03*
X151422000Y-99112500D03*
X152072000Y-99112500D03*
X152722000Y-99112500D03*
X153372000Y-99112500D03*
X154022000Y-99112500D03*
X154022000Y-104988500D03*
X153372000Y-104988500D03*
X152722000Y-104988500D03*
X152072000Y-104988500D03*
X151422000Y-104988500D03*
X150772000Y-104988500D03*
X150122000Y-104988500D03*
X149472000Y-104988500D03*
D19*
X156522000Y-88375500D03*
X158347000Y-88375500D03*
D14*
X162519500Y-55080500D03*
X160694500Y-55080500D03*
D27*
X161097000Y-69590500D03*
X156047000Y-69590500D03*
X161097000Y-72130500D03*
X156047000Y-72130500D03*
X161097000Y-74670500D03*
X156047000Y-74670500D03*
X161097000Y-77210500D03*
X156047000Y-77210500D03*
X161097000Y-79750500D03*
X156047000Y-79750500D03*
X161097000Y-82290500D03*
X156047000Y-82290500D03*
D26*
X146027000Y-104868500D03*
X145377000Y-104868500D03*
X144727000Y-104868500D03*
X144077000Y-104868500D03*
X143427000Y-104868500D03*
X142777000Y-104868500D03*
X142127000Y-104868500D03*
X141477000Y-104868500D03*
X141477000Y-98992500D03*
X142127000Y-98992500D03*
X142777000Y-98992500D03*
X143427000Y-98992500D03*
X144077000Y-98992500D03*
X144727000Y-98992500D03*
X145377000Y-98992500D03*
X146027000Y-98992500D03*
D28*
X141169500Y-62910500D03*
X139444500Y-62910500D03*
D19*
X139022000Y-67050500D03*
X140847000Y-67050500D03*
D28*
X135522000Y-67200500D03*
X133797000Y-67200500D03*
D13*
X201549000Y-148397850D03*
X201549000Y-138697850D03*
D23*
X160068000Y-148217500D03*
X161768000Y-148217500D03*
X163468000Y-148217500D03*
X165168000Y-148217500D03*
X166868000Y-148217500D03*
D24*
X160693000Y-141492500D03*
X166243000Y-141492500D03*
X160693000Y-136642500D03*
X166243000Y-136642500D03*
D10*
X197993000Y-152160500D03*
X202993000Y-152160500D03*
D27*
X117822000Y-101700500D03*
X112772000Y-101700500D03*
X117822000Y-104240500D03*
X112772000Y-104240500D03*
X117822000Y-106780500D03*
X112772000Y-106780500D03*
X117822000Y-109320500D03*
X112772000Y-109320500D03*
D29*
X159384500Y-86825500D03*
X159384500Y-84925500D03*
X161259500Y-85875500D03*
D30*
X226052250Y-135443500D03*
X226052250Y-137268500D03*
X157547000Y-84925500D03*
X157547000Y-86750500D03*
D19*
X137672000Y-65150500D03*
X139497000Y-65150500D03*
D30*
X124247000Y-97530500D03*
X124247000Y-99355500D03*
D19*
X135747000Y-62600500D03*
X137572000Y-62600500D03*
D31*
X149022000Y-56180500D03*
X141072000Y-56180500D03*
X141072000Y-60680500D03*
X149022000Y-60680500D03*
M02*
