M48
; DRILL file {KiCad (6.0.9)} date Wed 23 Nov 2022 12:30:54 AM CET
; FORMAT={-:-/ absolute / metric / decimal}
; #@! TF.CreationDate,2022-11-23T00:30:54+01:00
; #@! TF.GenerationSoftware,Kicad,Pcbnew,(6.0.9)
; #@! TF.FileFunction,Plated,1,2,PTH
FMAT,2
METRIC
; #@! TA.AperFunction,Plated,PTH,ViaDrill
T1C0.400
; #@! TA.AperFunction,Plated,PTH,ComponentDrill
T2C0.800
; #@! TA.AperFunction,Plated,PTH,ComponentDrill
T3C1.000
; #@! TA.AperFunction,Plated,PTH,ComponentDrill
T4C1.300
; #@! TA.AperFunction,Plated,PTH,ComponentDrill
T5C1.500
; #@! TA.AperFunction,Plated,PTH,ComponentDrill
T6C2.000
%
G90
G05
T1
X95.797Y-115.075
X95.822Y-106.475
X95.822Y-109.775
X95.822Y-118.675
X95.847Y-116.25
X95.947Y-111.05
X96.147Y-114.0
X96.247Y-103.275
X96.272Y-108.475
X96.372Y-117.65
X96.497Y-100.275
X96.522Y-105.325
X96.547Y-95.675
X96.572Y-98.751
X96.647Y-101.8
X96.697Y-112.475
X97.047Y-119.3
X97.097Y-96.825
X97.122Y-107.15
X97.172Y-114.75
X97.297Y-116.05
X97.372Y-109.725
X97.522Y-113.55
X97.547Y-110.875
X97.697Y-103.35
X97.797Y-108.35
X97.972Y-118.15
X98.172Y-101.85
X98.197Y-105.125
X98.222Y-117.15
X98.247Y-97.775
X98.272Y-99.376
X98.322Y-95.9
X98.472Y-114.625
X98.522Y-100.725
X98.597Y-116.075
X98.697Y-119.125
X98.822Y-113.3
X99.147Y-96.95
X99.197Y-103.376
X99.947Y-118.15
X100.447Y-97.225
X100.522Y-95.7
X100.947Y-119.1
X101.197Y-117.4
X101.922Y-97.425
X102.247Y-118.4
X102.322Y-96.025
X103.147Y-119.275
X103.572Y-117.6
X104.922Y-119.2
X104.972Y-117.925
X105.772Y-119.225
X106.047Y-118.25
X106.497Y-116.95
X107.022Y-122.075
X109.797Y-126.575
X110.221Y-116.45
X110.997Y-127.95
X112.222Y-151.925
X112.322Y-153.35
X112.347Y-154.925
X112.497Y-126.95
X112.747Y-73.525
X112.747Y-82.376
X112.897Y-76.1
X112.897Y-79.975
X112.972Y-84.626
X113.447Y-85.825
X113.447Y-119.746
X113.522Y-123.275
X113.672Y-75.025
X113.872Y-78.425
X113.947Y-87.025
X113.997Y-116.7
X113.997Y-151.826
X114.022Y-82.376
X114.097Y-84.775
X114.422Y-80.45
X114.472Y-153.125
X114.522Y-73.925
X114.547Y-154.576
X114.672Y-79.2
X114.672Y-86.025
X114.696Y-122.014
X114.822Y-76.501
X115.022Y-83.025
X115.122Y-87.45
X115.247Y-88.65
X115.447Y-85.275
X115.522Y-81.501
X115.647Y-65.325
X115.672Y-79.9
X115.797Y-74.8
X115.797Y-83.95
X115.822Y-78.001
X115.922Y-86.4
X116.047Y-67.275
X116.097Y-76.001
X116.097Y-82.725
X116.197Y-126.95
X116.222Y-114.15
X116.347Y-79.001
X116.347Y-151.826
X116.447Y-84.825
X116.497Y-87.4
X116.497Y-121.7
X116.522Y-88.626
X116.572Y-153.826
X116.609Y-119.85
X117.307Y-129.775
X117.647Y-65.825
X118.031Y-132.525
X118.122Y-153.25
X118.222Y-151.725
X118.322Y-134.775
X118.372Y-67.751
X118.597Y-75.3
X118.597Y-86.001
X118.672Y-79.55
X118.672Y-83.575
X118.922Y-89.8
X118.947Y-88.15
X119.247Y-77.225
X119.322Y-81.725
X119.372Y-92.575
X119.442Y-96.595
X119.572Y-84.95
X119.672Y-152.6
X119.722Y-87.275
X119.722Y-112.85
X119.772Y-102.64
X119.797Y-75.7
X119.897Y-83.425
X119.947Y-89.001
X120.047Y-79.075
X120.197Y-154.15
X120.722Y-131.701
X120.772Y-92.776
X121.097Y-140.975
X121.322Y-152.05
X122.322Y-154.15
X122.397Y-125.4
X122.572Y-113.675
X122.847Y-106.05
X122.967Y-52.91
X122.987Y-46.34
X122.987Y-51.831
X122.997Y-49.98
X122.997Y-50.831
X123.007Y-49.06
X123.017Y-47.21
X123.017Y-48.03
X123.017Y-130.62
X123.147Y-120.15
X123.247Y-132.951
X123.372Y-151.35
X123.457Y-43.395
X123.722Y-153.1
X124.157Y-54.45
X124.197Y-126.65
X124.467Y-41.09
X125.322Y-151.125
X125.422Y-128.201
X125.497Y-97.7
X126.247Y-43.95
X126.497Y-152.4
X126.572Y-132.775
X126.622Y-123.375
X126.747Y-104.2
X127.597Y-131.576
X127.947Y-127.825
X128.472Y-151.576
X128.572Y-153.0
X129.147Y-123.425
X129.872Y-137.3
X130.247Y-103.95
X130.247Y-151.475
X130.497Y-126.7
X130.722Y-152.775
X130.797Y-154.225
X130.997Y-98.7
X131.747Y-94.2
X131.822Y-123.275
X131.872Y-134.838
X131.947Y-54.496
X131.997Y-99.65
X132.597Y-151.475
X132.734Y-73.238
X132.822Y-153.475
X133.122Y-76.85
X133.372Y-135.951
X133.422Y-49.1
X133.717Y-96.595
X133.747Y-83.95
X133.747Y-102.45
X133.997Y-89.95
X134.372Y-152.9
X134.472Y-151.375
X134.522Y-71.876
X134.872Y-154.25
X135.247Y-91.45
X135.922Y-152.25
X136.047Y-132.288
X136.047Y-134.113
X136.097Y-57.25
X136.097Y-100.001
X136.447Y-153.8
X136.971Y-84.95
X137.298Y-73.831
X137.497Y-58.45
X137.572Y-151.701
X137.709Y-103.138
X137.847Y-48.575
X137.847Y-72.2
X138.497Y-92.175
X138.572Y-153.8
X139.047Y-97.325
X139.445Y-62.91
X139.622Y-151.0
X139.747Y-52.7
X139.83Y-111.268
X139.897Y-131.675
X139.972Y-152.75
X139.997Y-68.15
X140.472Y-106.375
X140.485Y-89.713
X140.797Y-100.65
X140.847Y-94.2
X140.947Y-154.275
X140.972Y-118.8
X140.972Y-155.925
X140.997Y-76.7
X140.997Y-77.95
X141.097Y-121.225
X141.187Y-64.471
X141.512Y-72.715
X141.572Y-150.775
X141.622Y-82.05
X141.822Y-100.45
X141.997Y-85.2
X142.247Y-58.495
X142.247Y-76.7
X142.247Y-77.95
X142.397Y-117.875
X142.547Y-67.9
X142.672Y-96.9
X142.747Y-84.45
X142.747Y-152.05
X142.847Y-93.925
X142.897Y-102.8
X142.972Y-154.375
X142.972Y-156.225
X143.397Y-116.55
X143.497Y-100.85
X143.997Y-103.501
X144.247Y-96.45
X144.247Y-102.3
X145.097Y-83.025
X145.365Y-57.77
X145.497Y-68.15
X145.522Y-106.6
X145.672Y-72.55
X145.672Y-73.59
X146.147Y-77.15
X146.147Y-78.4
X146.597Y-89.35
X146.847Y-68.05
X147.072Y-98.65
X147.072Y-100.45
X147.107Y-92.99
X147.272Y-105.925
X147.697Y-90.251
X147.747Y-54.95
X147.747Y-84.95
X147.997Y-58.45
X148.097Y-74.15
X148.132Y-91.383
X148.147Y-68.1
X148.247Y-61.95
X148.507Y-101.286
X148.815Y-102.745
X148.872Y-95.65
X148.997Y-106.025
X149.197Y-74.55
X149.259Y-64.113
X149.272Y-57.55
X149.422Y-92.35
X150.397Y-67.15
X150.797Y-72.725
X151.134Y-100.988
X151.847Y-85.4
X151.922Y-72.725
X151.922Y-102.725
X151.972Y-96.35
X152.022Y-54.1
X152.022Y-94.251
X152.147Y-97.6
X152.172Y-100.501
X152.672Y-64.113
X153.097Y-55.486
X153.172Y-70.2
X153.472Y-72.751
X153.672Y-158.0
X153.772Y-80.49
X153.785Y-64.213
X153.947Y-159.951
X154.072Y-138.85
X154.222Y-136.701
X154.222Y-147.225
X154.297Y-132.35
X154.297Y-134.576
X154.297Y-141.25
X154.347Y-143.8
X154.422Y-130.425
X154.422Y-149.15
X154.422Y-156.65
X154.497Y-151.025
X154.547Y-128.125
X154.547Y-145.6
X154.547Y-152.25
X154.58Y-75.777
X154.622Y-125.925
X154.747Y-123.575
X154.747Y-158.725
X154.772Y-88.4
X154.822Y-121.375
X154.859Y-63.238
X154.996Y-46.575
X154.997Y-61.45
X155.197Y-98.751
X155.197Y-112.65
X155.247Y-79.751
X155.547Y-157.6
X155.672Y-156.451
X155.88Y-60.384
X156.022Y-159.725
X156.071Y-57.95
X156.123Y-102.126
X156.722Y-44.1
X156.772Y-156.8
X156.822Y-158.525
X157.772Y-160.8
X158.097Y-158.0
X158.172Y-36.3
X158.247Y-159.525
X159.047Y-161.8
X159.572Y-158.925
X159.647Y-160.75
X159.997Y-60.05
X160.247Y-162.951
X160.922Y-161.8
X161.122Y-160.0
X161.322Y-66.425
X161.447Y-163.75
X161.768Y-148.218
X161.972Y-160.951
X162.047Y-162.625
X162.272Y-164.625
X162.497Y-80.9
X162.647Y-95.3
X162.797Y-63.55
X162.797Y-84.251
X162.847Y-104.251
X162.997Y-51.901
X163.072Y-161.725
X163.197Y-163.025
X163.322Y-57.25
X163.422Y-160.525
X163.787Y-48.971
X163.872Y-165.125
X163.947Y-68.2
X164.122Y-164.125
X164.372Y-161.6
X164.497Y-163.05
X164.572Y-83.2
X164.722Y-160.275
X165.347Y-66.2
X165.497Y-61.95
X165.622Y-161.525
X165.722Y-162.8
X165.797Y-164.1
X165.847Y-165.125
X165.934Y-112.738
X165.972Y-160.25
X166.497Y-61.15
X166.697Y-66.8
X166.772Y-161.451
X166.947Y-162.75
X167.022Y-164.525
X167.072Y-160.25
X167.472Y-52.326
X167.497Y-60.3
X167.637Y-133.171
X167.822Y-161.625
X167.847Y-66.7
X167.947Y-162.925
X168.172Y-160.425
X168.306Y-67.698
X168.622Y-165.025
X168.872Y-164.025
X169.122Y-161.5
X169.247Y-162.951
X169.472Y-160.175
X170.217Y-156.93
X170.372Y-161.425
X170.472Y-162.701
X170.547Y-164.0
X170.597Y-165.025
X170.722Y-160.15
X171.097Y-69.751
X171.522Y-161.35
X171.697Y-162.65
X171.822Y-160.15
X171.847Y-164.275
X172.572Y-163.225
X172.747Y-161.4
X172.997Y-164.375
X173.047Y-160.3
X173.272Y-162.425
X174.372Y-159.9
X174.372Y-161.1
X175.272Y-160.625
X175.647Y-159.326
X176.172Y-160.201
X176.347Y-69.6
X176.447Y-63.8
X176.697Y-159.375
X180.847Y-82.501
X181.197Y-100.1
X182.872Y-160.975
X183.697Y-162.175
X184.122Y-160.05
X184.672Y-163.025
X185.087Y-152.16
X185.447Y-160.625
X186.122Y-161.875
X186.247Y-163.175
X186.472Y-160.675
X186.922Y-165.275
X187.172Y-164.275
X187.397Y-148.6
X187.422Y-161.75
X187.547Y-163.201
X187.772Y-160.425
X188.672Y-161.675
X188.772Y-162.951
X188.847Y-164.25
X188.897Y-165.275
X189.022Y-160.4
X189.822Y-161.6
X189.997Y-162.9
X190.122Y-160.4
X190.872Y-161.775
X190.997Y-163.076
X191.222Y-160.576
X191.672Y-165.175
X191.922Y-164.175
X192.172Y-161.65
X192.297Y-163.1
X192.522Y-160.326
X193.422Y-161.576
X193.522Y-162.85
X193.597Y-164.15
X193.647Y-165.175
X193.772Y-160.3
X194.572Y-161.5
X194.747Y-162.8
X194.872Y-160.3
X195.797Y-161.326
X197.172Y-160.6
X206.997Y-164.326
X207.797Y-161.425
X207.922Y-162.725
X208.147Y-160.225
X208.847Y-163.826
X209.422Y-165.55
X209.447Y-159.975
X210.522Y-163.8
X210.572Y-164.826
X210.697Y-159.951
X211.747Y-164.225
X211.797Y-159.951
X212.897Y-160.125
X213.347Y-164.725
X214.197Y-159.875
X215.297Y-125.625
X215.322Y-164.725
X215.447Y-159.85
X216.097Y-122.725
X216.222Y-124.025
X216.247Y-161.05
X216.422Y-162.35
X216.447Y-121.525
X216.572Y-163.975
X216.897Y-126.125
X217.147Y-125.125
X217.397Y-122.6
X217.522Y-124.05
X217.747Y-121.275
X218.647Y-122.525
X218.747Y-123.8
X218.822Y-125.1
X218.872Y-126.125
X218.997Y-121.25
X219.797Y-122.45
X219.972Y-123.75
X220.047Y-125.525
X220.097Y-121.25
X220.847Y-122.625
X220.972Y-123.925
X221.197Y-121.425
X221.647Y-126.025
X221.897Y-125.025
X222.147Y-122.5
X222.272Y-123.95
X222.497Y-121.175
X223.397Y-122.425
X223.497Y-123.7
X223.572Y-125.0
X223.622Y-126.025
X223.747Y-121.15
X224.547Y-122.35
X224.722Y-123.65
X224.847Y-121.15
X224.872Y-125.275
T2
X174.959Y-130.062
X179.959Y-130.062
X187.622Y-129.625
X192.622Y-129.625
X204.622Y-128.925
X204.622Y-133.925
X229.489Y-133.364
X229.489Y-135.364
X229.489Y-137.364
T3
X105.522Y-60.136
X105.522Y-62.675
X105.522Y-65.215
X105.547Y-73.725
X105.547Y-76.266
X105.547Y-78.805
X105.547Y-81.346
X105.547Y-83.885
X105.547Y-86.425
X105.647Y-123.155
X105.647Y-125.695
X105.647Y-128.236
X105.647Y-130.775
X176.664Y-31.571
X176.664Y-34.111
X176.664Y-36.651
X176.664Y-39.191
X176.664Y-41.731
X176.664Y-44.271
X176.664Y-46.811
X176.664Y-49.351
X176.664Y-51.891
X176.664Y-54.431
X176.664Y-56.971
X176.664Y-59.511
X176.964Y-78.621
X176.964Y-81.161
X176.964Y-83.701
X176.964Y-86.241
X176.964Y-88.781
X176.964Y-91.321
X176.964Y-93.861
X176.964Y-96.401
X176.964Y-98.941
X176.964Y-101.481
X176.964Y-104.021
X176.964Y-106.561
X179.204Y-31.571
X179.204Y-34.111
X179.204Y-36.651
X179.204Y-39.191
X179.204Y-41.731
X179.204Y-44.271
X179.204Y-46.811
X179.204Y-49.351
X179.204Y-51.891
X179.204Y-54.431
X179.204Y-56.971
X179.204Y-59.511
X179.504Y-78.621
X179.504Y-81.161
X179.504Y-83.701
X179.504Y-86.241
X179.504Y-88.781
X179.504Y-91.321
X179.504Y-93.861
X179.504Y-96.401
X179.504Y-98.941
X179.504Y-101.481
X179.504Y-104.021
X179.504Y-106.561
T4
X189.197Y-123.0
X193.797Y-123.0
X205.097Y-123.0
X209.697Y-123.0
T5
X229.489Y-131.264
X229.489Y-139.464
T6
X164.547Y-124.375
X172.247Y-124.425
T2
X221.215Y-148.296G85X221.215Y-146.096
G05
X225.115Y-142.596G85X222.915Y-142.596
G05
X227.315Y-148.296G85X227.315Y-146.096
G05
T0
M30
