%TF.GenerationSoftware,KiCad,Pcbnew,(6.0.9)*%
%TF.CreationDate,2022-11-23T00:30:26+01:00*%
%TF.ProjectId,Testapparaat,54657374-6170-4706-9172-6161742e6b69,rev?*%
%TF.SameCoordinates,Original*%
%TF.FileFunction,Soldermask,Top*%
%TF.FilePolarity,Negative*%
%FSLAX46Y46*%
G04 Gerber Fmt 4.6, Leading zero omitted, Abs format (unit mm)*
G04 Created by KiCad (PCBNEW (6.0.9)) date 2022-11-23 00:30:26*
%MOMM*%
%LPD*%
G01*
G04 APERTURE LIST*
G04 Aperture macros list*
%AMRoundRect*
0 Rectangle with rounded corners*
0 $1 Rounding radius*
0 $2 $3 $4 $5 $6 $7 $8 $9 X,Y pos of 4 corners*
0 Add a 4 corners polygon primitive as box body*
4,1,4,$2,$3,$4,$5,$6,$7,$8,$9,$2,$3,0*
0 Add four circle primitives for the rounded corners*
1,1,$1+$1,$2,$3*
1,1,$1+$1,$4,$5*
1,1,$1+$1,$6,$7*
1,1,$1+$1,$8,$9*
0 Add four rect primitives between the rounded corners*
20,1,$1+$1,$2,$3,$4,$5,0*
20,1,$1+$1,$4,$5,$6,$7,0*
20,1,$1+$1,$6,$7,$8,$9,0*
20,1,$1+$1,$8,$9,$2,$3,0*%
G04 Aperture macros list end*
%ADD10C,3.200000*%
%ADD11RoundRect,0.237500X0.237500X-0.250000X0.237500X0.250000X-0.237500X0.250000X-0.237500X-0.250000X0*%
%ADD12RoundRect,0.237500X-0.237500X0.250000X-0.237500X-0.250000X0.237500X-0.250000X0.237500X0.250000X0*%
%ADD13RoundRect,0.237500X0.237500X-0.300000X0.237500X0.300000X-0.237500X0.300000X-0.237500X-0.300000X0*%
%ADD14RoundRect,0.237500X-0.300000X-0.237500X0.300000X-0.237500X0.300000X0.237500X-0.300000X0.237500X0*%
%ADD15O,2.500000X1.500000*%
%ADD16R,2.500000X1.500000*%
%ADD17O,3.500000X2.200000*%
%ADD18C,1.600000*%
%ADD19R,3.150000X1.000000*%
%ADD20C,3.000000*%
%ADD21RoundRect,0.237500X-0.237500X0.300000X-0.237500X-0.300000X0.237500X-0.300000X0.237500X0.300000X0*%
%ADD22R,1.700000X1.700000*%
%ADD23O,1.700000X1.700000*%
%ADD24RoundRect,0.237500X0.250000X0.237500X-0.250000X0.237500X-0.250000X-0.237500X0.250000X-0.237500X0*%
%ADD25RoundRect,0.150000X0.150000X-0.587500X0.150000X0.587500X-0.150000X0.587500X-0.150000X-0.587500X0*%
%ADD26RoundRect,0.237500X-0.250000X-0.237500X0.250000X-0.237500X0.250000X0.237500X-0.250000X0.237500X0*%
%ADD27RoundRect,0.237500X0.300000X0.237500X-0.300000X0.237500X-0.300000X-0.237500X0.300000X-0.237500X0*%
%ADD28O,2.000000X4.000000*%
%ADD29O,4.000000X2.000000*%
%ADD30R,2.200000X1.200000*%
%ADD31R,6.400000X5.800000*%
%ADD32R,0.600000X0.450000*%
%ADD33RoundRect,0.150000X-0.150000X0.825000X-0.150000X-0.825000X0.150000X-0.825000X0.150000X0.825000X0*%
%ADD34RoundRect,0.150000X0.150000X-0.825000X0.150000X0.825000X-0.150000X0.825000X-0.150000X-0.825000X0*%
%ADD35R,3.100000X2.300000*%
%ADD36R,1.100000X0.300000*%
%ADD37R,1.000000X3.150000*%
%ADD38R,1.800000X3.500000*%
%ADD39R,0.800000X0.300000*%
%ADD40C,2.300000*%
G04 APERTURE END LIST*
D10*
X97947000Y-28150500D03*
X155622000Y-163025500D03*
X177622000Y-116175500D03*
X228647000Y-123475500D03*
X161847000Y-27975500D03*
X228247000Y-162575500D03*
X98697000Y-162750500D03*
D11*
X126572000Y-134023000D03*
X126572000Y-132198000D03*
X136047000Y-134113000D03*
X136047000Y-132288000D03*
D12*
X130472000Y-120550500D03*
X130472000Y-122375500D03*
D13*
X122447000Y-131725500D03*
X122447000Y-130000500D03*
D14*
X114747000Y-114200500D03*
X116472000Y-114200500D03*
D15*
X229489000Y-137364500D03*
X229489000Y-135364500D03*
D16*
X229489000Y-133364500D03*
D17*
X229489000Y-139464500D03*
X229489000Y-131264500D03*
D18*
X204622000Y-133925500D03*
X204622000Y-128925500D03*
D19*
X145365000Y-34910500D03*
X150415000Y-34910500D03*
X145365000Y-37450500D03*
X150415000Y-37450500D03*
X145365000Y-39990500D03*
X150415000Y-39990500D03*
X145365000Y-42530500D03*
X150415000Y-42530500D03*
X145365000Y-45070500D03*
X150415000Y-45070500D03*
X145365000Y-47610500D03*
X150415000Y-47610500D03*
X145365000Y-50150500D03*
X150415000Y-50150500D03*
X145365000Y-52690500D03*
X150415000Y-52690500D03*
X145365000Y-55230500D03*
X150415000Y-55230500D03*
X145365000Y-57770500D03*
X150415000Y-57770500D03*
X145365000Y-60310500D03*
X150415000Y-60310500D03*
X145365000Y-62850500D03*
X150415000Y-62850500D03*
X145365000Y-65390500D03*
X150415000Y-65390500D03*
D12*
X137247000Y-120000500D03*
X137247000Y-121825500D03*
D20*
X172247000Y-124425500D03*
D21*
X125522000Y-36150500D03*
X125522000Y-37875500D03*
D22*
X105522000Y-65215500D03*
D23*
X105522000Y-62675500D03*
X105522000Y-60135500D03*
D24*
X120672000Y-147550500D03*
X118847000Y-147550500D03*
D25*
X155759500Y-47673000D03*
X157659500Y-47673000D03*
X156709500Y-45798000D03*
D26*
X111334500Y-114200500D03*
X113159500Y-114200500D03*
D22*
X176664000Y-31571000D03*
D23*
X179204000Y-31571000D03*
X176664000Y-34111000D03*
X179204000Y-34111000D03*
X176664000Y-36651000D03*
X179204000Y-36651000D03*
X176664000Y-39191000D03*
X179204000Y-39191000D03*
X176664000Y-41731000D03*
X179204000Y-41731000D03*
X176664000Y-44271000D03*
X179204000Y-44271000D03*
X176664000Y-46811000D03*
X179204000Y-46811000D03*
X176664000Y-49351000D03*
X179204000Y-49351000D03*
X176664000Y-51891000D03*
X179204000Y-51891000D03*
X176664000Y-54431000D03*
X179204000Y-54431000D03*
X176664000Y-56971000D03*
X179204000Y-56971000D03*
X176664000Y-59511000D03*
X179204000Y-59511000D03*
D11*
X129247000Y-134088000D03*
X129247000Y-132263000D03*
D26*
X136122000Y-96200500D03*
X137947000Y-96200500D03*
D11*
X111197000Y-134513000D03*
X111197000Y-132688000D03*
D12*
X127822000Y-120550500D03*
X127822000Y-122375500D03*
D14*
X123747000Y-39700500D03*
X125472000Y-39700500D03*
D26*
X110422000Y-119950500D03*
X112247000Y-119950500D03*
D27*
X125972000Y-54300500D03*
X124247000Y-54300500D03*
D12*
X139797000Y-120038000D03*
X139797000Y-121863000D03*
D24*
X164492000Y-153000500D03*
X162667000Y-153000500D03*
D11*
X155717000Y-51458000D03*
X155717000Y-49633000D03*
X157622000Y-51458000D03*
X157622000Y-49633000D03*
D13*
X123772000Y-37900500D03*
X123772000Y-36175500D03*
D11*
X140997000Y-134450500D03*
X140997000Y-132625500D03*
D28*
X221215500Y-147196500D03*
D29*
X224015500Y-142596500D03*
D28*
X227315500Y-147196500D03*
D11*
X155447000Y-43975500D03*
X155447000Y-42150500D03*
D13*
X154622000Y-37350500D03*
X154622000Y-35625500D03*
D24*
X113109500Y-112650500D03*
X111284500Y-112650500D03*
D30*
X161342000Y-49535500D03*
D31*
X167642000Y-47255500D03*
D30*
X161342000Y-47255500D03*
X161342000Y-44975500D03*
D21*
X122447000Y-126638000D03*
X122447000Y-128363000D03*
D11*
X138697000Y-134063000D03*
X138697000Y-132238000D03*
D26*
X124377000Y-57980500D03*
X126202000Y-57980500D03*
D18*
X192622000Y-129625500D03*
X187622000Y-129625500D03*
D12*
X125372000Y-120575500D03*
X125372000Y-122400500D03*
D24*
X161134500Y-153000500D03*
X159309500Y-153000500D03*
D32*
X118747000Y-149300500D03*
X120847000Y-149300500D03*
D30*
X161342000Y-41005500D03*
D31*
X167642000Y-38725500D03*
D30*
X161342000Y-38725500D03*
X161342000Y-36445500D03*
D32*
X114837000Y-118110500D03*
X116937000Y-118110500D03*
D11*
X113347000Y-134550500D03*
X113347000Y-132725500D03*
D23*
X105647000Y-123155500D03*
X105647000Y-125695500D03*
X105647000Y-128235500D03*
D22*
X105647000Y-130775500D03*
D24*
X187592000Y-154270500D03*
X185767000Y-154270500D03*
D22*
X176964000Y-78621000D03*
D23*
X179504000Y-78621000D03*
X176964000Y-81161000D03*
X179504000Y-81161000D03*
X176964000Y-83701000D03*
X179504000Y-83701000D03*
X176964000Y-86241000D03*
X179504000Y-86241000D03*
X176964000Y-88781000D03*
X179504000Y-88781000D03*
X176964000Y-91321000D03*
X179504000Y-91321000D03*
X176964000Y-93861000D03*
X179504000Y-93861000D03*
X176964000Y-96401000D03*
X179504000Y-96401000D03*
X176964000Y-98941000D03*
X179504000Y-98941000D03*
X176964000Y-101481000D03*
X179504000Y-101481000D03*
X176964000Y-104021000D03*
X179504000Y-104021000D03*
X176964000Y-106561000D03*
X179504000Y-106561000D03*
D22*
X105547000Y-86425500D03*
D23*
X105547000Y-83885500D03*
X105547000Y-81345500D03*
X105547000Y-78805500D03*
X105547000Y-76265500D03*
X105547000Y-73725500D03*
D12*
X142247000Y-120125500D03*
X142247000Y-121950500D03*
D11*
X115747000Y-134513000D03*
X115747000Y-132688000D03*
D33*
X117307000Y-124825500D03*
X116037000Y-124825500D03*
X114767000Y-124825500D03*
X113497000Y-124825500D03*
X112227000Y-124825500D03*
X110957000Y-124825500D03*
X109687000Y-124825500D03*
X109687000Y-129775500D03*
X110957000Y-129775500D03*
X112227000Y-129775500D03*
X113497000Y-129775500D03*
X114767000Y-129775500D03*
X116037000Y-129775500D03*
X117307000Y-129775500D03*
D26*
X111297000Y-115700500D03*
X113122000Y-115700500D03*
D20*
X164547000Y-124375500D03*
D32*
X116547000Y-112450500D03*
X114447000Y-112450500D03*
D27*
X135659500Y-122800500D03*
X133934500Y-122800500D03*
D34*
X135987000Y-125025500D03*
X137257000Y-125025500D03*
X138527000Y-125025500D03*
X139797000Y-125025500D03*
X141067000Y-125025500D03*
X142337000Y-125025500D03*
X143607000Y-125025500D03*
X143607000Y-129975500D03*
X142337000Y-129975500D03*
X141067000Y-129975500D03*
X139797000Y-129975500D03*
X138527000Y-129975500D03*
X137257000Y-129975500D03*
X135987000Y-129975500D03*
D35*
X120047000Y-36500500D03*
X120047000Y-59340500D03*
D36*
X121747000Y-57670500D03*
X121747000Y-57170500D03*
X121747000Y-56670500D03*
X121747000Y-56170500D03*
X121747000Y-55670500D03*
X121747000Y-55170500D03*
X121747000Y-54670500D03*
X121747000Y-54170500D03*
X121747000Y-53670500D03*
X121747000Y-53170500D03*
X121747000Y-52670500D03*
X121747000Y-52170500D03*
X121747000Y-51670500D03*
X121747000Y-51170500D03*
X121747000Y-50670500D03*
X121747000Y-50170500D03*
X121747000Y-49670500D03*
X121747000Y-49170500D03*
X121747000Y-48670500D03*
X121747000Y-48170500D03*
X121747000Y-47670500D03*
X121747000Y-47170500D03*
X121747000Y-46670500D03*
X121747000Y-46170500D03*
X121747000Y-45670500D03*
X121747000Y-45170500D03*
X121747000Y-44670500D03*
X121747000Y-44170500D03*
X121747000Y-43670500D03*
X121747000Y-43170500D03*
X121747000Y-42670500D03*
X121747000Y-42170500D03*
X121747000Y-41670500D03*
X121747000Y-41170500D03*
X121747000Y-40670500D03*
X121747000Y-40170500D03*
X121747000Y-39670500D03*
X121747000Y-39170500D03*
X121747000Y-38670500D03*
X121747000Y-38170500D03*
D37*
X136187000Y-138275500D03*
X136187000Y-143325500D03*
X133647000Y-138275500D03*
X133647000Y-143325500D03*
X131107000Y-138275500D03*
X131107000Y-143325500D03*
X128567000Y-138275500D03*
X128567000Y-143325500D03*
X126027000Y-138275500D03*
X126027000Y-143325500D03*
X123487000Y-138275500D03*
X123487000Y-143325500D03*
X120947000Y-138275500D03*
X120947000Y-143325500D03*
X118407000Y-138275500D03*
X118407000Y-143325500D03*
D38*
X212217000Y-129300500D03*
X212217000Y-134300500D03*
D26*
X124359500Y-56350500D03*
X126184500Y-56350500D03*
D14*
X114722000Y-120200500D03*
X116447000Y-120200500D03*
D18*
X179959000Y-130062500D03*
X174959000Y-130062500D03*
D39*
X113447000Y-118700500D03*
X113447000Y-118200500D03*
X113447000Y-117700500D03*
X113447000Y-117200500D03*
X110347000Y-117200500D03*
X110347000Y-117700500D03*
X110347000Y-118200500D03*
X110347000Y-118700500D03*
D34*
X124037000Y-129975500D03*
X125307000Y-129975500D03*
X126577000Y-129975500D03*
X127847000Y-129975500D03*
X129117000Y-129975500D03*
X130387000Y-129975500D03*
X131657000Y-129975500D03*
X131657000Y-125025500D03*
X130387000Y-125025500D03*
X129117000Y-125025500D03*
X127847000Y-125025500D03*
X126577000Y-125025500D03*
X125307000Y-125025500D03*
X124037000Y-125025500D03*
D24*
X190952000Y-154270500D03*
X189127000Y-154270500D03*
D27*
X112247000Y-121450500D03*
X110522000Y-121450500D03*
D26*
X124387000Y-59570500D03*
X126212000Y-59570500D03*
D30*
X161322000Y-58105500D03*
D31*
X167622000Y-55825500D03*
D30*
X161322000Y-55825500D03*
X161322000Y-53545500D03*
D24*
X116522000Y-115700500D03*
X114697000Y-115700500D03*
D21*
X118847000Y-128950500D03*
X118847000Y-130675500D03*
D32*
X137947000Y-97950500D03*
X135847000Y-97950500D03*
D40*
X205097000Y-123000500D03*
X209697000Y-123000500D03*
X189197000Y-123000500D03*
X193797000Y-123000500D03*
M02*
