%TF.GenerationSoftware,KiCad,Pcbnew,(6.0.9)*%
%TF.CreationDate,2022-11-22T23:00:27+01:00*%
%TF.ProjectId,Testapparaat,54657374-6170-4706-9172-6161742e6b69,rev?*%
%TF.SameCoordinates,Original*%
%TF.FileFunction,Drillmap*%
%TF.FilePolarity,Positive*%
%FSLAX45Y45*%
G04 Gerber Fmt 4.5, Leading zero omitted, Abs format (unit mm)*
G04 Created by KiCad (PCBNEW (6.0.9)) date 2022-11-22 23:00:27*
%MOMM*%
%LPD*%
G01*
G04 APERTURE LIST*
%ADD10C,0.100000*%
%ADD11C,0.200000*%
%ADD12C,0.040000*%
%ADD13C,0.080000*%
%ADD14C,0.130000*%
%ADD15C,0.150000*%
G04 APERTURE END LIST*
D10*
X12114700Y-6487550D02*
X13167200Y-6487550D01*
X13167200Y-6487550D02*
X13167200Y-9192550D01*
X13167200Y-9192550D02*
X12114700Y-9192550D01*
X12114700Y-9192550D02*
X12114700Y-6487550D01*
X18344700Y-2430050D02*
X9474700Y-2430050D01*
X18348750Y-3032125D02*
X18344700Y-2430050D01*
X9474700Y-16645050D02*
X22153300Y-16635450D01*
X9474700Y-2430050D02*
X9471100Y-3029650D01*
X9496100Y-14954650D02*
X9474700Y-16645050D01*
X23279100Y-14945050D02*
X23257700Y-16635450D01*
X18341100Y-11964650D02*
X22174700Y-11945050D01*
X18341100Y-11964650D02*
X18348750Y-3032125D01*
X22174700Y-11945050D02*
X23279100Y-11945050D01*
X22153300Y-16635450D02*
X23257700Y-16635450D01*
X23279100Y-12145050D02*
X23279100Y-11945050D01*
X9471100Y-3029650D02*
X9491100Y-7559650D01*
X9491100Y-7559650D02*
X9496100Y-14954650D01*
X23279100Y-14945050D02*
X23279100Y-12145050D01*
D11*
D12*
X9559700Y-11487550D02*
X9599700Y-11527550D01*
X9599700Y-11487550D02*
X9559700Y-11527550D01*
X9562200Y-10627550D02*
X9602200Y-10667550D01*
X9602200Y-10627550D02*
X9562200Y-10667550D01*
X9562200Y-10957550D02*
X9602200Y-10997550D01*
X9602200Y-10957550D02*
X9562200Y-10997550D01*
X9562200Y-11847550D02*
X9602200Y-11887550D01*
X9602200Y-11847550D02*
X9562200Y-11887550D01*
X9564700Y-11605050D02*
X9604700Y-11645050D01*
X9604700Y-11605050D02*
X9564700Y-11645050D01*
X9574700Y-11085050D02*
X9614700Y-11125050D01*
X9614700Y-11085050D02*
X9574700Y-11125050D01*
X9594700Y-11380050D02*
X9634700Y-11420050D01*
X9634700Y-11380050D02*
X9594700Y-11420050D01*
X9604700Y-10307550D02*
X9644700Y-10347550D01*
X9644700Y-10307550D02*
X9604700Y-10347550D01*
X9607200Y-10827550D02*
X9647200Y-10867550D01*
X9647200Y-10827550D02*
X9607200Y-10867550D01*
X9617200Y-11745050D02*
X9657200Y-11785050D01*
X9657200Y-11745050D02*
X9617200Y-11785050D01*
X9629700Y-10007550D02*
X9669700Y-10047550D01*
X9669700Y-10007550D02*
X9629700Y-10047550D01*
X9632200Y-10512550D02*
X9672200Y-10552550D01*
X9672200Y-10512550D02*
X9632200Y-10552550D01*
X9634700Y-9547550D02*
X9674700Y-9587550D01*
X9674700Y-9547550D02*
X9634700Y-9587550D01*
X9637200Y-9855050D02*
X9677200Y-9895050D01*
X9677200Y-9855050D02*
X9637200Y-9895050D01*
X9644700Y-10160050D02*
X9684700Y-10200050D01*
X9684700Y-10160050D02*
X9644700Y-10200050D01*
X9649700Y-11227550D02*
X9689700Y-11267550D01*
X9689700Y-11227550D02*
X9649700Y-11267550D01*
X9684700Y-11910050D02*
X9724700Y-11950050D01*
X9724700Y-11910050D02*
X9684700Y-11950050D01*
X9689700Y-9662550D02*
X9729700Y-9702550D01*
X9729700Y-9662550D02*
X9689700Y-9702550D01*
X9692200Y-10695050D02*
X9732200Y-10735050D01*
X9732200Y-10695050D02*
X9692200Y-10735050D01*
X9697200Y-11455050D02*
X9737200Y-11495050D01*
X9737200Y-11455050D02*
X9697200Y-11495050D01*
X9709700Y-11585050D02*
X9749700Y-11625050D01*
X9749700Y-11585050D02*
X9709700Y-11625050D01*
X9717200Y-10952550D02*
X9757200Y-10992550D01*
X9757200Y-10952550D02*
X9717200Y-10992550D01*
X9732200Y-11335050D02*
X9772200Y-11375050D01*
X9772200Y-11335050D02*
X9732200Y-11375050D01*
X9734700Y-11067550D02*
X9774700Y-11107550D01*
X9774700Y-11067550D02*
X9734700Y-11107550D01*
X9749700Y-10315050D02*
X9789700Y-10355050D01*
X9789700Y-10315050D02*
X9749700Y-10355050D01*
X9759700Y-10815050D02*
X9799700Y-10855050D01*
X9799700Y-10815050D02*
X9759700Y-10855050D01*
X9777200Y-11795050D02*
X9817200Y-11835050D01*
X9817200Y-11795050D02*
X9777200Y-11835050D01*
X9797200Y-10165050D02*
X9837200Y-10205050D01*
X9837200Y-10165050D02*
X9797200Y-10205050D01*
X9799700Y-10492550D02*
X9839700Y-10532550D01*
X9839700Y-10492550D02*
X9799700Y-10532550D01*
X9802200Y-11695050D02*
X9842200Y-11735050D01*
X9842200Y-11695050D02*
X9802200Y-11735050D01*
X9804700Y-9757550D02*
X9844700Y-9797550D01*
X9844700Y-9757550D02*
X9804700Y-9797550D01*
X9807200Y-9917550D02*
X9847200Y-9957550D01*
X9847200Y-9917550D02*
X9807200Y-9957550D01*
X9812200Y-9570050D02*
X9852200Y-9610050D01*
X9852200Y-9570050D02*
X9812200Y-9610050D01*
X9827200Y-11442550D02*
X9867200Y-11482550D01*
X9867200Y-11442550D02*
X9827200Y-11482550D01*
X9832200Y-10052550D02*
X9872200Y-10092550D01*
X9872200Y-10052550D02*
X9832200Y-10092550D01*
X9839700Y-11587550D02*
X9879700Y-11627550D01*
X9879700Y-11587550D02*
X9839700Y-11627550D01*
X9849700Y-11892550D02*
X9889700Y-11932550D01*
X9889700Y-11892550D02*
X9849700Y-11932550D01*
X9862200Y-11310050D02*
X9902200Y-11350050D01*
X9902200Y-11310050D02*
X9862200Y-11350050D01*
X9894700Y-9675050D02*
X9934700Y-9715050D01*
X9934700Y-9675050D02*
X9894700Y-9715050D01*
X9899700Y-10317550D02*
X9939700Y-10357550D01*
X9939700Y-10317550D02*
X9899700Y-10357550D01*
X9974700Y-11795050D02*
X10014700Y-11835050D01*
X10014700Y-11795050D02*
X9974700Y-11835050D01*
X10024700Y-9702550D02*
X10064700Y-9742550D01*
X10064700Y-9702550D02*
X10024700Y-9742550D01*
X10032200Y-9550050D02*
X10072200Y-9590050D01*
X10072200Y-9550050D02*
X10032200Y-9590050D01*
X10074700Y-11890050D02*
X10114700Y-11930050D01*
X10114700Y-11890050D02*
X10074700Y-11930050D01*
X10099700Y-11720050D02*
X10139700Y-11760050D01*
X10139700Y-11720050D02*
X10099700Y-11760050D01*
X10172200Y-9722550D02*
X10212200Y-9762550D01*
X10212200Y-9722550D02*
X10172200Y-9762550D01*
X10204700Y-11820050D02*
X10244700Y-11860050D01*
X10244700Y-11820050D02*
X10204700Y-11860050D01*
X10212200Y-9582550D02*
X10252200Y-9622550D01*
X10252200Y-9582550D02*
X10212200Y-9622550D01*
X10294700Y-11907550D02*
X10334700Y-11947550D01*
X10334700Y-11907550D02*
X10294700Y-11947550D01*
X10337200Y-11740050D02*
X10377200Y-11780050D01*
X10377200Y-11740050D02*
X10337200Y-11780050D01*
X10472200Y-11900050D02*
X10512200Y-11940050D01*
X10512200Y-11900050D02*
X10472200Y-11940050D01*
X10477200Y-11772550D02*
X10517200Y-11812550D01*
X10517200Y-11772550D02*
X10477200Y-11812550D01*
X10557200Y-11902550D02*
X10597200Y-11942550D01*
X10597200Y-11902550D02*
X10557200Y-11942550D01*
X10584700Y-11805050D02*
X10624700Y-11845050D01*
X10624700Y-11805050D02*
X10584700Y-11845050D01*
X10629700Y-11675050D02*
X10669700Y-11715050D01*
X10669700Y-11675050D02*
X10629700Y-11715050D01*
X10682200Y-12187550D02*
X10722200Y-12227550D01*
X10722200Y-12187550D02*
X10682200Y-12227550D01*
X10839700Y-12880050D02*
X10879700Y-12920050D01*
X10879700Y-12880050D02*
X10839700Y-12920050D01*
X10959700Y-12637550D02*
X10999700Y-12677550D01*
X10999700Y-12637550D02*
X10959700Y-12677550D01*
X11002150Y-11625050D02*
X11042150Y-11665050D01*
X11042150Y-11625050D02*
X11002150Y-11665050D01*
X11079700Y-12775050D02*
X11119700Y-12815050D01*
X11119700Y-12775050D02*
X11079700Y-12815050D01*
X11202200Y-15172550D02*
X11242200Y-15212550D01*
X11242200Y-15172550D02*
X11202200Y-15212550D01*
X11212200Y-15315050D02*
X11252200Y-15355050D01*
X11252200Y-15315050D02*
X11212200Y-15355050D01*
X11214700Y-15472550D02*
X11254700Y-15512550D01*
X11254700Y-15472550D02*
X11214700Y-15512550D01*
X11229700Y-12675050D02*
X11269700Y-12715050D01*
X11269700Y-12675050D02*
X11229700Y-12715050D01*
X11254700Y-7332550D02*
X11294700Y-7372550D01*
X11294700Y-7332550D02*
X11254700Y-7372550D01*
X11254700Y-8217550D02*
X11294700Y-8257550D01*
X11294700Y-8217550D02*
X11254700Y-8257550D01*
X11269700Y-7590050D02*
X11309700Y-7630050D01*
X11309700Y-7590050D02*
X11269700Y-7630050D01*
X11269700Y-7977550D02*
X11309700Y-8017550D01*
X11309700Y-7977550D02*
X11269700Y-8017550D01*
X11277200Y-8442550D02*
X11317200Y-8482550D01*
X11317200Y-8442550D02*
X11277200Y-8482550D01*
X11324700Y-8562550D02*
X11364700Y-8602550D01*
X11364700Y-8562550D02*
X11324700Y-8602550D01*
X11324700Y-11954599D02*
X11364700Y-11994599D01*
X11364700Y-11954599D02*
X11324700Y-11994599D01*
X11332200Y-12307550D02*
X11372200Y-12347550D01*
X11372200Y-12307550D02*
X11332200Y-12347550D01*
X11347200Y-7482550D02*
X11387200Y-7522550D01*
X11387200Y-7482550D02*
X11347200Y-7522550D01*
X11367200Y-7822550D02*
X11407200Y-7862550D01*
X11407200Y-7822550D02*
X11367200Y-7862550D01*
X11374700Y-8682550D02*
X11414700Y-8722550D01*
X11414700Y-8682550D02*
X11374700Y-8722550D01*
X11379700Y-11650050D02*
X11419700Y-11690050D01*
X11419700Y-11650050D02*
X11379700Y-11690050D01*
X11379700Y-15162550D02*
X11419700Y-15202550D01*
X11419700Y-15162550D02*
X11379700Y-15202550D01*
X11382200Y-8217550D02*
X11422200Y-8257550D01*
X11422200Y-8217550D02*
X11382200Y-8257550D01*
X11389700Y-8457550D02*
X11429700Y-8497550D01*
X11429700Y-8457550D02*
X11389700Y-8497550D01*
X11422200Y-8025050D02*
X11462200Y-8065050D01*
X11462200Y-8025050D02*
X11422200Y-8065050D01*
X11427200Y-15292550D02*
X11467200Y-15332550D01*
X11467200Y-15292550D02*
X11427200Y-15332550D01*
X11432200Y-7372550D02*
X11472200Y-7412550D01*
X11472200Y-7372550D02*
X11432200Y-7412550D01*
X11434700Y-15437550D02*
X11474700Y-15477550D01*
X11474700Y-15437550D02*
X11434700Y-15477550D01*
X11447200Y-7900050D02*
X11487200Y-7940050D01*
X11487200Y-7900050D02*
X11447200Y-7940050D01*
X11447200Y-8582550D02*
X11487200Y-8622550D01*
X11487200Y-8582550D02*
X11447200Y-8622550D01*
X11449583Y-12181376D02*
X11489583Y-12221376D01*
X11489583Y-12181376D02*
X11449583Y-12221376D01*
X11462200Y-7630050D02*
X11502200Y-7670050D01*
X11502200Y-7630050D02*
X11462200Y-7670050D01*
X11482200Y-8282550D02*
X11522200Y-8322550D01*
X11522200Y-8282550D02*
X11482200Y-8322550D01*
X11492200Y-8725050D02*
X11532200Y-8765050D01*
X11532200Y-8725050D02*
X11492200Y-8765050D01*
X11504700Y-8845050D02*
X11544700Y-8885050D01*
X11544700Y-8845050D02*
X11504700Y-8885050D01*
X11524700Y-8507550D02*
X11564700Y-8547550D01*
X11564700Y-8507550D02*
X11524700Y-8547550D01*
X11532200Y-8130050D02*
X11572200Y-8170050D01*
X11572200Y-8130050D02*
X11532200Y-8170050D01*
X11544700Y-6512550D02*
X11584700Y-6552550D01*
X11584700Y-6512550D02*
X11544700Y-6552550D01*
X11547200Y-7970050D02*
X11587200Y-8010050D01*
X11587200Y-7970050D02*
X11547200Y-8010050D01*
X11559700Y-7460050D02*
X11599700Y-7500050D01*
X11599700Y-7460050D02*
X11559700Y-7500050D01*
X11559700Y-8375050D02*
X11599700Y-8415050D01*
X11599700Y-8375050D02*
X11559700Y-8415050D01*
X11562200Y-7780050D02*
X11602200Y-7820050D01*
X11602200Y-7780050D02*
X11562200Y-7820050D01*
X11572200Y-8620050D02*
X11612200Y-8660050D01*
X11612200Y-8620050D02*
X11572200Y-8660050D01*
X11584700Y-6707550D02*
X11624700Y-6747550D01*
X11624700Y-6707550D02*
X11584700Y-6747550D01*
X11589700Y-7580050D02*
X11629700Y-7620050D01*
X11629700Y-7580050D02*
X11589700Y-7620050D01*
X11589700Y-8252550D02*
X11629700Y-8292550D01*
X11629700Y-8252550D02*
X11589700Y-8292550D01*
X11599700Y-12675050D02*
X11639700Y-12715050D01*
X11639700Y-12675050D02*
X11599700Y-12715050D01*
X11602200Y-11395050D02*
X11642200Y-11435050D01*
X11642200Y-11395050D02*
X11602200Y-11435050D01*
X11614700Y-7880050D02*
X11654700Y-7920050D01*
X11654700Y-7880050D02*
X11614700Y-7920050D01*
X11614700Y-15162550D02*
X11654700Y-15202550D01*
X11654700Y-15162550D02*
X11614700Y-15202550D01*
X11624700Y-8462550D02*
X11664700Y-8502550D01*
X11664700Y-8462550D02*
X11624700Y-8502550D01*
X11629700Y-8720050D02*
X11669700Y-8760050D01*
X11669700Y-8720050D02*
X11629700Y-8760050D01*
X11629700Y-12150050D02*
X11669700Y-12190050D01*
X11669700Y-12150050D02*
X11629700Y-12190050D01*
X11632200Y-8842550D02*
X11672200Y-8882550D01*
X11672200Y-8842550D02*
X11632200Y-8882550D01*
X11637200Y-15362550D02*
X11677200Y-15402550D01*
X11677200Y-15362550D02*
X11637200Y-15402550D01*
X11640950Y-11965050D02*
X11680950Y-12005050D01*
X11680950Y-11965050D02*
X11640950Y-12005050D01*
X11710700Y-12957550D02*
X11750700Y-12997550D01*
X11750700Y-12957550D02*
X11710700Y-12997550D01*
X11744700Y-6562550D02*
X11784700Y-6602550D01*
X11784700Y-6562550D02*
X11744700Y-6602550D01*
X11783150Y-13232550D02*
X11823150Y-13272550D01*
X11823150Y-13232550D02*
X11783150Y-13272550D01*
X11792200Y-15305050D02*
X11832200Y-15345050D01*
X11832200Y-15305050D02*
X11792200Y-15345050D01*
X11802200Y-15152550D02*
X11842200Y-15192550D01*
X11842200Y-15152550D02*
X11802200Y-15192550D01*
X11812200Y-13457550D02*
X11852200Y-13497550D01*
X11852200Y-13457550D02*
X11812200Y-13497550D01*
X11817200Y-6755050D02*
X11857200Y-6795050D01*
X11857200Y-6755050D02*
X11817200Y-6795050D01*
X11839700Y-7510050D02*
X11879700Y-7550050D01*
X11879700Y-7510050D02*
X11839700Y-7550050D01*
X11839700Y-8580050D02*
X11879700Y-8620050D01*
X11879700Y-8580050D02*
X11839700Y-8620050D01*
X11847200Y-7935050D02*
X11887200Y-7975050D01*
X11887200Y-7935050D02*
X11847200Y-7975050D01*
X11847200Y-8337550D02*
X11887200Y-8377550D01*
X11887200Y-8337550D02*
X11847200Y-8377550D01*
X11872200Y-8960050D02*
X11912200Y-9000050D01*
X11912200Y-8960050D02*
X11872200Y-9000050D01*
X11874700Y-8795050D02*
X11914700Y-8835050D01*
X11914700Y-8795050D02*
X11874700Y-8835050D01*
X11904700Y-7702550D02*
X11944700Y-7742550D01*
X11944700Y-7702550D02*
X11904700Y-7742550D01*
X11912200Y-8152550D02*
X11952200Y-8192550D01*
X11952200Y-8152550D02*
X11912200Y-8192550D01*
X11917200Y-9237550D02*
X11957200Y-9277550D01*
X11957200Y-9237550D02*
X11917200Y-9277550D01*
X11924150Y-9639500D02*
X11964150Y-9679500D01*
X11964150Y-9639500D02*
X11924150Y-9679500D01*
X11937200Y-8475050D02*
X11977200Y-8515050D01*
X11977200Y-8475050D02*
X11937200Y-8515050D01*
X11947200Y-15240050D02*
X11987200Y-15280050D01*
X11987200Y-15240050D02*
X11947200Y-15280050D01*
X11952200Y-8707550D02*
X11992200Y-8747550D01*
X11992200Y-8707550D02*
X11952200Y-8747550D01*
X11952200Y-11265050D02*
X11992200Y-11305050D01*
X11992200Y-11265050D02*
X11952200Y-11305050D01*
X11957200Y-10244050D02*
X11997200Y-10284050D01*
X11997200Y-10244050D02*
X11957200Y-10284050D01*
X11959700Y-7550050D02*
X11999700Y-7590050D01*
X11999700Y-7550050D02*
X11959700Y-7590050D01*
X11969700Y-8322550D02*
X12009700Y-8362550D01*
X12009700Y-8322550D02*
X11969700Y-8362550D01*
X11974700Y-8880050D02*
X12014700Y-8920050D01*
X12014700Y-8880050D02*
X11974700Y-8920050D01*
X11984700Y-7887550D02*
X12024700Y-7927550D01*
X12024700Y-7887550D02*
X11984700Y-7927550D01*
X11999700Y-15395050D02*
X12039700Y-15435050D01*
X12039700Y-15395050D02*
X11999700Y-15435050D01*
X12052250Y-13150050D02*
X12092250Y-13190050D01*
X12092250Y-13150050D02*
X12052250Y-13190050D01*
X12057200Y-9257600D02*
X12097200Y-9297600D01*
X12097200Y-9257600D02*
X12057200Y-9297600D01*
X12089700Y-14077550D02*
X12129700Y-14117550D01*
X12129700Y-14077550D02*
X12089700Y-14117550D01*
X12112200Y-15185050D02*
X12152200Y-15225050D01*
X12152200Y-15185050D02*
X12112200Y-15225050D01*
X12212200Y-15395050D02*
X12252200Y-15435050D01*
X12252200Y-15395050D02*
X12212200Y-15435050D01*
X12219700Y-12520050D02*
X12259700Y-12560050D01*
X12259700Y-12520050D02*
X12219700Y-12560050D01*
X12237200Y-11347550D02*
X12277200Y-11387550D01*
X12277200Y-11347550D02*
X12237200Y-11387550D01*
X12264700Y-10585050D02*
X12304700Y-10625050D01*
X12304700Y-10585050D02*
X12264700Y-10625050D01*
X12276700Y-5271050D02*
X12316700Y-5311050D01*
X12316700Y-5271050D02*
X12276700Y-5311050D01*
X12278700Y-4614050D02*
X12318700Y-4654050D01*
X12318700Y-4614050D02*
X12278700Y-4654050D01*
X12278700Y-5163050D02*
X12318700Y-5203050D01*
X12318700Y-5163050D02*
X12278700Y-5203050D01*
X12279700Y-4978050D02*
X12319700Y-5018050D01*
X12319700Y-4978050D02*
X12279700Y-5018050D01*
X12279700Y-5063050D02*
X12319700Y-5103050D01*
X12319700Y-5063050D02*
X12279700Y-5103050D01*
X12280700Y-4886050D02*
X12320700Y-4926050D01*
X12320700Y-4886050D02*
X12280700Y-4926050D01*
X12281700Y-4701050D02*
X12321700Y-4741050D01*
X12321700Y-4701050D02*
X12281700Y-4741050D01*
X12281700Y-4783050D02*
X12321700Y-4823050D01*
X12321700Y-4783050D02*
X12281700Y-4823050D01*
X12281700Y-13042050D02*
X12321700Y-13082050D01*
X12321700Y-13042050D02*
X12281700Y-13082050D01*
X12294700Y-11995050D02*
X12334700Y-12035050D01*
X12334700Y-11995050D02*
X12294700Y-12035050D01*
X12304700Y-13275050D02*
X12344700Y-13315050D01*
X12344700Y-13275050D02*
X12304700Y-13315050D01*
X12317200Y-15115050D02*
X12357200Y-15155050D01*
X12357200Y-15115050D02*
X12317200Y-15155050D01*
X12325700Y-4319500D02*
X12365700Y-4359500D01*
X12365700Y-4319500D02*
X12325700Y-4359500D01*
X12352200Y-15290050D02*
X12392200Y-15330050D01*
X12392200Y-15290050D02*
X12352200Y-15330050D01*
X12395700Y-5425050D02*
X12435700Y-5465050D01*
X12435700Y-5425050D02*
X12395700Y-5465050D01*
X12399700Y-12645050D02*
X12439700Y-12685050D01*
X12439700Y-12645050D02*
X12399700Y-12685050D01*
X12426700Y-4089050D02*
X12466700Y-4129050D01*
X12466700Y-4089050D02*
X12426700Y-4129050D01*
X12512200Y-15092550D02*
X12552200Y-15132550D01*
X12552200Y-15092550D02*
X12512200Y-15132550D01*
X12522200Y-12800050D02*
X12562200Y-12840050D01*
X12562200Y-12800050D02*
X12522200Y-12840050D01*
X12529700Y-9750050D02*
X12569700Y-9790050D01*
X12569700Y-9750050D02*
X12529700Y-9790050D01*
X12549700Y-11897550D02*
X12589700Y-11937550D01*
X12589700Y-11897550D02*
X12549700Y-11937550D01*
X12604700Y-4375050D02*
X12644700Y-4415050D01*
X12644700Y-4375050D02*
X12604700Y-4415050D01*
X12629700Y-15220050D02*
X12669700Y-15260050D01*
X12669700Y-15220050D02*
X12629700Y-15260050D01*
X12637200Y-13257550D02*
X12677200Y-13297550D01*
X12677200Y-13257550D02*
X12637200Y-13297550D01*
X12642200Y-12317550D02*
X12682200Y-12357550D01*
X12682200Y-12317550D02*
X12642200Y-12357550D01*
X12654700Y-10400050D02*
X12694700Y-10440050D01*
X12694700Y-10400050D02*
X12654700Y-10440050D01*
X12739700Y-13137550D02*
X12779700Y-13177550D01*
X12779700Y-13137550D02*
X12739700Y-13177550D01*
X12774700Y-12762550D02*
X12814700Y-12802550D01*
X12814700Y-12762550D02*
X12774700Y-12802550D01*
X12819700Y-11905050D02*
X12859700Y-11945050D01*
X12859700Y-11905050D02*
X12819700Y-11945050D01*
X12827200Y-15137550D02*
X12867200Y-15177550D01*
X12867200Y-15137550D02*
X12827200Y-15177550D01*
X12837200Y-15280050D02*
X12877200Y-15320050D01*
X12877200Y-15280050D02*
X12837200Y-15320050D01*
X12894700Y-12322550D02*
X12934700Y-12362550D01*
X12934700Y-12322550D02*
X12894700Y-12362550D01*
X12967200Y-13710050D02*
X13007200Y-13750050D01*
X13007200Y-13710050D02*
X12967200Y-13750050D01*
X13004700Y-10375050D02*
X13044700Y-10415050D01*
X13044700Y-10375050D02*
X13004700Y-10415050D01*
X13004700Y-15127550D02*
X13044700Y-15167550D01*
X13044700Y-15127550D02*
X13004700Y-15167550D01*
X13029700Y-12650050D02*
X13069700Y-12690050D01*
X13069700Y-12650050D02*
X13029700Y-12690050D01*
X13052200Y-15257550D02*
X13092200Y-15297550D01*
X13092200Y-15257550D02*
X13052200Y-15297550D01*
X13059700Y-15402550D02*
X13099700Y-15442550D01*
X13099700Y-15402550D02*
X13059700Y-15442550D01*
X13079700Y-9850050D02*
X13119700Y-9890050D01*
X13119700Y-9850050D02*
X13079700Y-9890050D01*
X13154700Y-9400050D02*
X13194700Y-9440050D01*
X13194700Y-9400050D02*
X13154700Y-9440050D01*
X13162200Y-12307550D02*
X13202200Y-12347550D01*
X13202200Y-12307550D02*
X13162200Y-12347550D01*
X13167200Y-13463750D02*
X13207200Y-13503750D01*
X13207200Y-13463750D02*
X13167200Y-13503750D01*
X13179700Y-9945050D02*
X13219700Y-9985050D01*
X13219700Y-9945050D02*
X13179700Y-9985050D01*
X13239700Y-15127550D02*
X13279700Y-15167550D01*
X13279700Y-15127550D02*
X13239700Y-15167550D01*
X13262200Y-15327550D02*
X13302200Y-15367550D01*
X13302200Y-15327550D02*
X13262200Y-15367550D01*
X13292200Y-7665050D02*
X13332200Y-7705050D01*
X13332200Y-7665050D02*
X13292200Y-7705050D01*
X13317200Y-13575050D02*
X13357200Y-13615050D01*
X13357200Y-13575050D02*
X13317200Y-13615050D01*
X13351650Y-9639500D02*
X13391650Y-9679500D01*
X13391650Y-9639500D02*
X13351650Y-9679500D01*
X13354700Y-8375050D02*
X13394700Y-8415050D01*
X13394700Y-8375050D02*
X13354700Y-8415050D01*
X13354700Y-10225050D02*
X13394700Y-10265050D01*
X13394700Y-10225050D02*
X13354700Y-10265050D01*
X13379700Y-8975050D02*
X13419700Y-9015050D01*
X13419700Y-8975050D02*
X13379700Y-9015050D01*
X13417200Y-15270050D02*
X13457200Y-15310050D01*
X13457200Y-15270050D02*
X13417200Y-15310050D01*
X13427200Y-15117550D02*
X13467200Y-15157550D01*
X13467200Y-15117550D02*
X13427200Y-15157550D01*
X13467200Y-15405050D02*
X13507200Y-15445050D01*
X13507200Y-15405050D02*
X13467200Y-15445050D01*
X13504700Y-9125050D02*
X13544700Y-9165050D01*
X13544700Y-9125050D02*
X13504700Y-9165050D01*
X13572200Y-15205050D02*
X13612200Y-15245050D01*
X13612200Y-15205050D02*
X13572200Y-15245050D01*
X13584700Y-13208800D02*
X13624700Y-13248800D01*
X13624700Y-13208800D02*
X13584700Y-13248800D01*
X13584700Y-13391300D02*
X13624700Y-13431300D01*
X13624700Y-13391300D02*
X13584700Y-13431300D01*
X13589700Y-5705050D02*
X13629700Y-5745050D01*
X13629700Y-5705050D02*
X13589700Y-5745050D01*
X13589700Y-9980050D02*
X13629700Y-10020050D01*
X13629700Y-9980050D02*
X13589700Y-10020050D01*
X13624700Y-15360050D02*
X13664700Y-15400050D01*
X13664700Y-15360050D02*
X13624700Y-15400050D01*
X13677150Y-8475050D02*
X13717150Y-8515050D01*
X13717150Y-8475050D02*
X13677150Y-8515050D01*
X13729700Y-5825050D02*
X13769700Y-5865050D01*
X13769700Y-5825050D02*
X13729700Y-5865050D01*
X13737200Y-15150050D02*
X13777200Y-15190050D01*
X13777200Y-15150050D02*
X13737200Y-15190050D01*
X13750930Y-10293780D02*
X13790930Y-10333780D01*
X13790930Y-10293780D02*
X13750930Y-10333780D01*
X13764700Y-7200050D02*
X13804700Y-7240050D01*
X13804700Y-7200050D02*
X13764700Y-7240050D01*
X13829700Y-9197500D02*
X13869700Y-9237500D01*
X13869700Y-9197500D02*
X13829700Y-9237500D01*
X13837200Y-15360050D02*
X13877200Y-15400050D01*
X13877200Y-15360050D02*
X13837200Y-15400050D01*
X13884700Y-9712550D02*
X13924700Y-9752550D01*
X13924700Y-9712550D02*
X13884700Y-9752550D01*
X13909700Y-6230050D02*
X13949700Y-6270050D01*
X13949700Y-6230050D02*
X13909700Y-6270050D01*
X13942200Y-15080050D02*
X13982200Y-15120050D01*
X13982200Y-15080050D02*
X13942200Y-15120050D01*
X13954700Y-5250050D02*
X13994700Y-5290050D01*
X13994700Y-5250050D02*
X13954700Y-5290050D01*
X13963038Y-11106787D02*
X14003038Y-11146787D01*
X14003038Y-11106787D02*
X13963038Y-11146787D01*
X13969700Y-13147550D02*
X14009700Y-13187550D01*
X14009700Y-13147550D02*
X13969700Y-13187550D01*
X13977200Y-15255050D02*
X14017200Y-15295050D01*
X14017200Y-15255050D02*
X13977200Y-15295050D01*
X13979700Y-6795050D02*
X14019700Y-6835050D01*
X14019700Y-6795050D02*
X13979700Y-6835050D01*
X14027200Y-10617550D02*
X14067200Y-10657550D01*
X14067200Y-10617550D02*
X14027200Y-10657550D01*
X14028470Y-8951280D02*
X14068470Y-8991280D01*
X14068470Y-8951280D02*
X14028470Y-8991280D01*
X14059700Y-10045050D02*
X14099700Y-10085050D01*
X14099700Y-10045050D02*
X14059700Y-10085050D01*
X14064700Y-9400050D02*
X14104700Y-9440050D01*
X14104700Y-9400050D02*
X14064700Y-9440050D01*
X14074700Y-15407550D02*
X14114700Y-15447550D01*
X14114700Y-15407550D02*
X14074700Y-15447550D01*
X14077200Y-11860050D02*
X14117200Y-11900050D01*
X14117200Y-11860050D02*
X14077200Y-11900050D01*
X14077200Y-15572550D02*
X14117200Y-15612550D01*
X14117200Y-15572550D02*
X14077200Y-15612550D01*
X14079700Y-7650050D02*
X14119700Y-7690050D01*
X14119700Y-7650050D02*
X14079700Y-7690050D01*
X14079700Y-7775050D02*
X14119700Y-7815050D01*
X14119700Y-7775050D02*
X14079700Y-7815050D01*
X14089700Y-12102550D02*
X14129700Y-12142550D01*
X14129700Y-12102550D02*
X14089700Y-12142550D01*
X14098700Y-6427050D02*
X14138700Y-6467050D01*
X14138700Y-6427050D02*
X14098700Y-6467050D01*
X14131200Y-7251550D02*
X14171200Y-7291550D01*
X14171200Y-7251550D02*
X14131200Y-7291550D01*
X14137200Y-15057550D02*
X14177200Y-15097550D01*
X14177200Y-15057550D02*
X14137200Y-15097550D01*
X14162200Y-10025050D02*
X14202200Y-10065050D01*
X14202200Y-10025050D02*
X14162200Y-10065050D01*
X14179700Y-8500050D02*
X14219700Y-8540050D01*
X14219700Y-8500050D02*
X14179700Y-8540050D01*
X14204700Y-5829500D02*
X14244700Y-5869500D01*
X14244700Y-5829500D02*
X14204700Y-5869500D01*
X14204700Y-7650050D02*
X14244700Y-7690050D01*
X14244700Y-7650050D02*
X14204700Y-7690050D01*
X14204700Y-7775050D02*
X14244700Y-7815050D01*
X14244700Y-7775050D02*
X14204700Y-7815050D01*
X14219700Y-11767550D02*
X14259700Y-11807550D01*
X14259700Y-11767550D02*
X14219700Y-11807550D01*
X14234700Y-6770050D02*
X14274700Y-6810050D01*
X14274700Y-6770050D02*
X14234700Y-6810050D01*
X14254700Y-8425050D02*
X14294700Y-8465050D01*
X14294700Y-8425050D02*
X14254700Y-8465050D01*
X14254700Y-15185050D02*
X14294700Y-15225050D01*
X14294700Y-15185050D02*
X14254700Y-15225050D01*
X14264700Y-9372550D02*
X14304700Y-9412550D01*
X14304700Y-9372550D02*
X14264700Y-9412550D01*
X14269700Y-10260050D02*
X14309700Y-10300050D01*
X14309700Y-10260050D02*
X14269700Y-10300050D01*
X14277200Y-15417550D02*
X14317200Y-15457550D01*
X14317200Y-15417550D02*
X14277200Y-15457550D01*
X14277200Y-15602550D02*
X14317200Y-15642550D01*
X14317200Y-15602550D02*
X14277200Y-15642550D01*
X14319700Y-11635050D02*
X14359700Y-11675050D01*
X14359700Y-11635050D02*
X14319700Y-11675050D01*
X14329700Y-10065050D02*
X14369700Y-10105050D01*
X14369700Y-10065050D02*
X14329700Y-10105050D01*
X14331050Y-8067601D02*
X14371050Y-8107601D01*
X14371050Y-8067601D02*
X14331050Y-8107601D01*
X14379700Y-10330050D02*
X14419700Y-10370050D01*
X14419700Y-10330050D02*
X14379700Y-10370050D01*
X14404700Y-9625050D02*
X14444700Y-9665050D01*
X14444700Y-9625050D02*
X14404700Y-9665050D01*
X14404700Y-10210050D02*
X14444700Y-10250050D01*
X14444700Y-10210050D02*
X14404700Y-10250050D01*
X14516500Y-5757050D02*
X14556500Y-5797050D01*
X14556500Y-5757050D02*
X14516500Y-5797050D01*
X14529700Y-6795050D02*
X14569700Y-6835050D01*
X14569700Y-6795050D02*
X14529700Y-6835050D01*
X14541150Y-7263050D02*
X14581150Y-7303050D01*
X14581150Y-7263050D02*
X14541150Y-7303050D01*
X14594700Y-7695050D02*
X14634700Y-7735050D01*
X14634700Y-7695050D02*
X14594700Y-7735050D01*
X14594700Y-7820050D02*
X14634700Y-7860050D01*
X14634700Y-7820050D02*
X14594700Y-7860050D01*
X14639700Y-8915050D02*
X14679700Y-8955050D01*
X14679700Y-8915050D02*
X14639700Y-8955050D01*
X14664700Y-6785050D02*
X14704700Y-6825050D01*
X14704700Y-6785050D02*
X14664700Y-6825050D01*
X14687200Y-9845050D02*
X14727200Y-9885050D01*
X14727200Y-9845050D02*
X14687200Y-9885050D01*
X14687200Y-10025050D02*
X14727200Y-10065050D01*
X14727200Y-10025050D02*
X14687200Y-10065050D01*
X14690700Y-9279050D02*
X14730700Y-9319050D01*
X14730700Y-9279050D02*
X14690700Y-9319050D01*
X14707200Y-10572550D02*
X14747200Y-10612550D01*
X14747200Y-10572550D02*
X14707200Y-10612550D01*
X14749700Y-9005050D02*
X14789700Y-9045050D01*
X14789700Y-9005050D02*
X14749700Y-9045050D01*
X14754700Y-5475050D02*
X14794700Y-5515050D01*
X14794700Y-5475050D02*
X14754700Y-5515050D01*
X14754700Y-8475050D02*
X14794700Y-8515050D01*
X14794700Y-8475050D02*
X14754700Y-8515050D01*
X14779700Y-5825050D02*
X14819700Y-5865050D01*
X14819700Y-5825050D02*
X14779700Y-5865050D01*
X14789700Y-7395050D02*
X14829700Y-7435050D01*
X14829700Y-7395050D02*
X14789700Y-7435050D01*
X14793250Y-9118264D02*
X14833250Y-9158264D01*
X14833250Y-9118264D02*
X14793250Y-9158264D01*
X14794700Y-6790050D02*
X14834700Y-6830050D01*
X14834700Y-6790050D02*
X14794700Y-6830050D01*
X14804700Y-6175050D02*
X14844700Y-6215050D01*
X14844700Y-6175050D02*
X14804700Y-6215050D01*
X14830700Y-10108600D02*
X14870700Y-10148600D01*
X14870700Y-10108600D02*
X14830700Y-10148600D01*
X14861457Y-10254539D02*
X14901457Y-10294539D01*
X14901457Y-10254539D02*
X14861457Y-10294539D01*
X14867200Y-9545050D02*
X14907200Y-9585050D01*
X14907200Y-9545050D02*
X14867200Y-9585050D01*
X14879650Y-10567550D02*
X14919650Y-10607550D01*
X14919650Y-10567550D02*
X14879650Y-10607550D01*
X14899700Y-7435050D02*
X14939700Y-7475050D01*
X14939700Y-7435050D02*
X14899700Y-7475050D01*
X14905930Y-6391280D02*
X14945930Y-6431280D01*
X14945930Y-6391280D02*
X14905930Y-6431280D01*
X14907200Y-5735000D02*
X14947200Y-5775000D01*
X14947200Y-5735000D02*
X14907200Y-5775000D01*
X14922200Y-9215050D02*
X14962200Y-9255050D01*
X14962200Y-9215050D02*
X14922200Y-9255050D01*
X15019700Y-6695050D02*
X15059700Y-6735050D01*
X15059700Y-6695050D02*
X15019700Y-6735050D01*
X15059700Y-7252550D02*
X15099700Y-7292550D01*
X15099700Y-7252550D02*
X15059700Y-7292550D01*
X15093430Y-10078820D02*
X15133430Y-10118820D01*
X15133430Y-10078820D02*
X15093430Y-10118820D01*
X15164700Y-8520050D02*
X15204700Y-8560050D01*
X15204700Y-8520050D02*
X15164700Y-8560050D01*
X15172200Y-7252550D02*
X15212200Y-7292550D01*
X15212200Y-7252550D02*
X15172200Y-7292550D01*
X15172200Y-10252550D02*
X15212200Y-10292550D01*
X15212200Y-10252550D02*
X15172200Y-10292550D01*
X15177200Y-9615050D02*
X15217200Y-9655050D01*
X15217200Y-9615050D02*
X15177200Y-9655050D01*
X15182200Y-5390050D02*
X15222200Y-5430050D01*
X15222200Y-5390050D02*
X15182200Y-5430050D01*
X15182200Y-9405050D02*
X15222200Y-9445050D01*
X15222200Y-9405050D02*
X15182200Y-9445050D01*
X15194700Y-9740050D02*
X15234700Y-9780050D01*
X15234700Y-9740050D02*
X15194700Y-9780050D01*
X15197200Y-10030050D02*
X15237200Y-10070050D01*
X15237200Y-10030050D02*
X15197200Y-10070050D01*
X15247250Y-6391280D02*
X15287250Y-6431280D01*
X15287250Y-6391280D02*
X15247250Y-6431280D01*
X15289750Y-5528580D02*
X15329750Y-5568580D01*
X15329750Y-5528580D02*
X15289750Y-5568580D01*
X15297250Y-7000050D02*
X15337250Y-7040050D01*
X15337250Y-7000050D02*
X15297250Y-7040050D01*
X15327200Y-7255050D02*
X15367200Y-7295050D01*
X15367200Y-7255050D02*
X15327200Y-7295050D01*
X15347200Y-15780050D02*
X15387200Y-15820050D01*
X15387200Y-15780050D02*
X15347200Y-15820050D01*
X15357150Y-8029050D02*
X15397150Y-8069050D01*
X15397150Y-8029050D02*
X15357150Y-8069050D01*
X15358470Y-6401280D02*
X15398470Y-6441280D01*
X15398470Y-6401280D02*
X15358470Y-6441280D01*
X15374700Y-15975050D02*
X15414700Y-16015050D01*
X15414700Y-15975050D02*
X15374700Y-16015050D01*
X15387200Y-13865050D02*
X15427200Y-13905050D01*
X15427200Y-13865050D02*
X15387200Y-13905050D01*
X15402200Y-13650050D02*
X15442200Y-13690050D01*
X15442200Y-13650050D02*
X15402200Y-13690050D01*
X15402200Y-14702550D02*
X15442200Y-14742550D01*
X15442200Y-14702550D02*
X15402200Y-14742550D01*
X15409700Y-13215050D02*
X15449700Y-13255050D01*
X15449700Y-13215050D02*
X15409700Y-13255050D01*
X15409700Y-13437550D02*
X15449700Y-13477550D01*
X15449700Y-13437550D02*
X15409700Y-13477550D01*
X15409700Y-14105050D02*
X15449700Y-14145050D01*
X15449700Y-14105050D02*
X15409700Y-14145050D01*
X15414700Y-14360050D02*
X15454700Y-14400050D01*
X15454700Y-14360050D02*
X15414700Y-14400050D01*
X15422200Y-13022550D02*
X15462200Y-13062550D01*
X15462200Y-13022550D02*
X15422200Y-13062550D01*
X15422200Y-14895050D02*
X15462200Y-14935050D01*
X15462200Y-14895050D02*
X15422200Y-14935050D01*
X15422200Y-15645050D02*
X15462200Y-15685050D01*
X15462200Y-15645050D02*
X15422200Y-15685050D01*
X15429700Y-15082550D02*
X15469700Y-15122550D01*
X15469700Y-15082550D02*
X15429700Y-15122550D01*
X15434700Y-12792550D02*
X15474700Y-12832550D01*
X15474700Y-12792550D02*
X15434700Y-12832550D01*
X15434700Y-14540050D02*
X15474700Y-14580050D01*
X15474700Y-14540050D02*
X15434700Y-14580050D01*
X15434700Y-15205050D02*
X15474700Y-15245050D01*
X15474700Y-15205050D02*
X15434700Y-15245050D01*
X15438002Y-7557707D02*
X15478002Y-7597707D01*
X15478002Y-7557707D02*
X15438002Y-7597707D01*
X15442200Y-12572550D02*
X15482200Y-12612550D01*
X15482200Y-12572550D02*
X15442200Y-12612550D01*
X15454700Y-12337550D02*
X15494700Y-12377550D01*
X15494700Y-12337550D02*
X15454700Y-12377550D01*
X15454700Y-15852550D02*
X15494700Y-15892550D01*
X15494700Y-15852550D02*
X15454700Y-15892550D01*
X15457200Y-8820050D02*
X15497200Y-8860050D01*
X15497200Y-8820050D02*
X15457200Y-8860050D01*
X15462200Y-12117550D02*
X15502200Y-12157550D01*
X15502200Y-12117550D02*
X15462200Y-12157550D01*
X15465930Y-6303820D02*
X15505930Y-6343820D01*
X15505930Y-6303820D02*
X15465930Y-6343820D01*
X15479650Y-4637550D02*
X15519650Y-4677550D01*
X15519650Y-4637550D02*
X15479650Y-4677550D01*
X15479700Y-6125050D02*
X15519700Y-6165050D01*
X15519700Y-6125050D02*
X15479700Y-6165050D01*
X15499700Y-9855050D02*
X15539700Y-9895050D01*
X15539700Y-9855050D02*
X15499700Y-9895050D01*
X15504700Y-7955050D02*
X15544700Y-7995050D01*
X15544700Y-7955050D02*
X15504700Y-7995050D01*
X15532200Y-11277550D02*
X15572200Y-11317550D01*
X15572200Y-11277550D02*
X15532200Y-11317550D01*
X15534700Y-15740050D02*
X15574700Y-15780050D01*
X15574700Y-15740050D02*
X15534700Y-15780050D01*
X15547200Y-15625050D02*
X15587200Y-15665050D01*
X15587200Y-15625050D02*
X15547200Y-15665050D01*
X15568036Y-6018386D02*
X15608036Y-6058386D01*
X15608036Y-6018386D02*
X15568036Y-6058386D01*
X15582200Y-15952550D02*
X15622200Y-15992550D01*
X15622200Y-15952550D02*
X15582200Y-15992550D01*
X15587150Y-5775050D02*
X15627150Y-5815050D01*
X15627150Y-5775050D02*
X15587150Y-5815050D01*
X15592250Y-10192550D02*
X15632250Y-10232550D01*
X15632250Y-10192550D02*
X15592250Y-10232550D01*
X15652200Y-4390050D02*
X15692200Y-4430050D01*
X15692200Y-4390050D02*
X15652200Y-4430050D01*
X15657200Y-15660050D02*
X15697200Y-15700050D01*
X15697200Y-15660050D02*
X15657200Y-15700050D01*
X15662200Y-15832550D02*
X15702200Y-15872550D01*
X15702200Y-15832550D02*
X15662200Y-15872550D01*
X15757200Y-16060050D02*
X15797200Y-16100050D01*
X15797200Y-16060050D02*
X15757200Y-16100050D01*
X15789700Y-15780050D02*
X15829700Y-15820050D01*
X15829700Y-15780050D02*
X15789700Y-15820050D01*
X15797200Y-3610050D02*
X15837200Y-3650050D01*
X15837200Y-3610050D02*
X15797200Y-3650050D01*
X15804700Y-15932550D02*
X15844700Y-15972550D01*
X15844700Y-15932550D02*
X15804700Y-15972550D01*
X15884700Y-16160050D02*
X15924700Y-16200050D01*
X15924700Y-16160050D02*
X15884700Y-16200050D01*
X15937200Y-15872550D02*
X15977200Y-15912550D01*
X15977200Y-15872550D02*
X15937200Y-15912550D01*
X15944700Y-16055050D02*
X15984700Y-16095050D01*
X15984700Y-16055050D02*
X15944700Y-16095050D01*
X15979700Y-5985050D02*
X16019700Y-6025050D01*
X16019700Y-5985050D02*
X15979700Y-6025050D01*
X16004700Y-16275050D02*
X16044700Y-16315050D01*
X16044700Y-16275050D02*
X16004700Y-16315050D01*
X16072200Y-16160050D02*
X16112200Y-16200050D01*
X16112200Y-16160050D02*
X16072200Y-16200050D01*
X16092200Y-15980050D02*
X16132200Y-16020050D01*
X16132200Y-15980050D02*
X16092200Y-16020050D01*
X16112200Y-6622550D02*
X16152200Y-6662550D01*
X16152200Y-6622550D02*
X16112200Y-6662550D01*
X16124700Y-16355050D02*
X16164700Y-16395050D01*
X16164700Y-16355050D02*
X16124700Y-16395050D01*
X16156800Y-14801750D02*
X16196800Y-14841750D01*
X16196800Y-14801750D02*
X16156800Y-14841750D01*
X16177200Y-16075050D02*
X16217200Y-16115050D01*
X16217200Y-16075050D02*
X16177200Y-16115050D01*
X16184700Y-16242550D02*
X16224700Y-16282550D01*
X16224700Y-16242550D02*
X16184700Y-16282550D01*
X16207200Y-16442550D02*
X16247200Y-16482550D01*
X16247200Y-16442550D02*
X16207200Y-16482550D01*
X16229700Y-8070050D02*
X16269700Y-8110050D01*
X16269700Y-8070050D02*
X16229700Y-8110050D01*
X16244700Y-9510050D02*
X16284700Y-9550050D01*
X16284700Y-9510050D02*
X16244700Y-9550050D01*
X16259700Y-6335050D02*
X16299700Y-6375050D01*
X16299700Y-6335050D02*
X16259700Y-6375050D01*
X16259700Y-8405050D02*
X16299700Y-8445050D01*
X16299700Y-8405050D02*
X16259700Y-8445050D01*
X16264700Y-10405050D02*
X16304700Y-10445050D01*
X16304700Y-10405050D02*
X16264700Y-10445050D01*
X16279700Y-5170050D02*
X16319700Y-5210050D01*
X16319700Y-5170050D02*
X16279700Y-5210050D01*
X16287200Y-16152550D02*
X16327200Y-16192550D01*
X16327200Y-16152550D02*
X16287200Y-16192550D01*
X16299700Y-16282550D02*
X16339700Y-16322550D01*
X16339700Y-16282550D02*
X16299700Y-16322550D01*
X16312200Y-5705050D02*
X16352200Y-5745050D01*
X16352200Y-5705050D02*
X16312200Y-5745050D01*
X16322200Y-16032550D02*
X16362200Y-16072550D01*
X16362200Y-16032550D02*
X16322200Y-16072550D01*
X16358700Y-4877050D02*
X16398700Y-4917050D01*
X16398700Y-4877050D02*
X16358700Y-4917050D01*
X16367200Y-16492550D02*
X16407200Y-16532550D01*
X16407200Y-16492550D02*
X16367200Y-16532550D01*
X16374700Y-6800050D02*
X16414700Y-6840050D01*
X16414700Y-6800050D02*
X16374700Y-6840050D01*
X16392200Y-16392550D02*
X16432200Y-16432550D01*
X16432200Y-16392550D02*
X16392200Y-16432550D01*
X16417200Y-16140050D02*
X16457200Y-16180050D01*
X16457200Y-16140050D02*
X16417200Y-16180050D01*
X16429700Y-16285050D02*
X16469700Y-16325050D01*
X16469700Y-16285050D02*
X16429700Y-16325050D01*
X16437200Y-8300050D02*
X16477200Y-8340050D01*
X16477200Y-8300050D02*
X16437200Y-8340050D01*
X16452200Y-16007550D02*
X16492200Y-16047550D01*
X16492200Y-16007550D02*
X16452200Y-16047550D01*
X16514700Y-6600050D02*
X16554700Y-6640050D01*
X16554700Y-6600050D02*
X16514700Y-6640050D01*
X16529700Y-6175050D02*
X16569700Y-6215050D01*
X16569700Y-6175050D02*
X16529700Y-6215050D01*
X16542200Y-16132550D02*
X16582200Y-16172550D01*
X16582200Y-16132550D02*
X16542200Y-16172550D01*
X16552200Y-16260050D02*
X16592200Y-16300050D01*
X16592200Y-16260050D02*
X16552200Y-16300050D01*
X16559700Y-16390050D02*
X16599700Y-16430050D01*
X16599700Y-16390050D02*
X16559700Y-16430050D01*
X16564700Y-16492550D02*
X16604700Y-16532550D01*
X16604700Y-16492550D02*
X16564700Y-16532550D01*
X16573450Y-11253800D02*
X16613450Y-11293800D01*
X16613450Y-11253800D02*
X16573450Y-11293800D01*
X16577200Y-16005050D02*
X16617200Y-16045050D01*
X16617200Y-16005050D02*
X16577200Y-16045050D01*
X16629700Y-6095050D02*
X16669700Y-6135050D01*
X16669700Y-6095050D02*
X16629700Y-6135050D01*
X16649700Y-6660050D02*
X16689700Y-6700050D01*
X16689700Y-6660050D02*
X16649700Y-6700050D01*
X16657200Y-16125050D02*
X16697200Y-16165050D01*
X16697200Y-16125050D02*
X16657200Y-16165050D01*
X16674700Y-16255050D02*
X16714700Y-16295050D01*
X16714700Y-16255050D02*
X16674700Y-16295050D01*
X16682200Y-16432550D02*
X16722200Y-16472550D01*
X16722200Y-16432550D02*
X16682200Y-16472550D01*
X16687200Y-16005050D02*
X16727200Y-16045050D01*
X16727200Y-16005050D02*
X16687200Y-16045050D01*
X16727200Y-5212600D02*
X16767200Y-5252600D01*
X16767200Y-5212600D02*
X16727200Y-5252600D01*
X16729700Y-6010050D02*
X16769700Y-6050050D01*
X16769700Y-6010050D02*
X16729700Y-6050050D01*
X16743700Y-13297050D02*
X16783700Y-13337050D01*
X16783700Y-13297050D02*
X16743700Y-13337050D01*
X16762200Y-16142550D02*
X16802200Y-16182550D01*
X16802200Y-16142550D02*
X16762200Y-16182550D01*
X16764700Y-6650050D02*
X16804700Y-6690050D01*
X16804700Y-6650050D02*
X16764700Y-6690050D01*
X16774700Y-16272550D02*
X16814700Y-16312550D01*
X16814700Y-16272550D02*
X16774700Y-16312550D01*
X16797200Y-16022550D02*
X16837200Y-16062550D01*
X16837200Y-16022550D02*
X16797200Y-16062550D01*
X16810569Y-6749828D02*
X16850569Y-6789828D01*
X16850569Y-6749828D02*
X16810569Y-6789828D01*
X16842200Y-16482550D02*
X16882200Y-16522550D01*
X16882200Y-16482550D02*
X16842200Y-16522550D01*
X16867200Y-16382550D02*
X16907200Y-16422550D01*
X16907200Y-16382550D02*
X16867200Y-16422550D01*
X16892200Y-16130050D02*
X16932200Y-16170050D01*
X16932200Y-16130050D02*
X16892200Y-16170050D01*
X16904700Y-16275050D02*
X16944700Y-16315050D01*
X16944700Y-16275050D02*
X16904700Y-16315050D01*
X16927200Y-15997550D02*
X16967200Y-16037550D01*
X16967200Y-15997550D02*
X16927200Y-16037550D01*
X17001700Y-15673050D02*
X17041700Y-15713050D01*
X17041700Y-15673050D02*
X17001700Y-15713050D01*
X17017200Y-16122550D02*
X17057200Y-16162550D01*
X17057200Y-16122550D02*
X17017200Y-16162550D01*
X17027200Y-16250050D02*
X17067200Y-16290050D01*
X17067200Y-16250050D02*
X17027200Y-16290050D01*
X17034700Y-16380050D02*
X17074700Y-16420050D01*
X17074700Y-16380050D02*
X17034700Y-16420050D01*
X17039700Y-16482550D02*
X17079700Y-16522550D01*
X17079700Y-16482550D02*
X17039700Y-16522550D01*
X17052200Y-15995050D02*
X17092200Y-16035050D01*
X17092200Y-15995050D02*
X17052200Y-16035050D01*
X17089700Y-6955050D02*
X17129700Y-6995050D01*
X17129700Y-6955050D02*
X17089700Y-6995050D01*
X17132200Y-16115050D02*
X17172200Y-16155050D01*
X17172200Y-16115050D02*
X17132200Y-16155050D01*
X17149700Y-16245050D02*
X17189700Y-16285050D01*
X17189700Y-16245050D02*
X17149700Y-16285050D01*
X17162200Y-15995050D02*
X17202200Y-16035050D01*
X17202200Y-15995050D02*
X17162200Y-16035050D01*
X17164700Y-16407550D02*
X17204700Y-16447550D01*
X17204700Y-16407550D02*
X17164700Y-16447550D01*
X17237200Y-16302550D02*
X17277200Y-16342550D01*
X17277200Y-16302550D02*
X17237200Y-16342550D01*
X17254700Y-16120050D02*
X17294700Y-16160050D01*
X17294700Y-16120050D02*
X17254700Y-16160050D01*
X17279700Y-16417550D02*
X17319700Y-16457550D01*
X17319700Y-16417550D02*
X17279700Y-16457550D01*
X17284700Y-16010050D02*
X17324700Y-16050050D01*
X17324700Y-16010050D02*
X17284700Y-16050050D01*
X17307200Y-16222550D02*
X17347200Y-16262550D01*
X17347200Y-16222550D02*
X17307200Y-16262550D01*
X17417200Y-15970050D02*
X17457200Y-16010050D01*
X17457200Y-15970050D02*
X17417200Y-16010050D01*
X17417200Y-16090050D02*
X17457200Y-16130050D01*
X17457200Y-16090050D02*
X17417200Y-16130050D01*
X17507200Y-16042550D02*
X17547200Y-16082550D01*
X17547200Y-16042550D02*
X17507200Y-16082550D01*
X17544700Y-15912550D02*
X17584700Y-15952550D01*
X17584700Y-15912550D02*
X17544700Y-15952550D01*
X17597200Y-16000050D02*
X17637200Y-16040050D01*
X17637200Y-16000050D02*
X17597200Y-16040050D01*
X17614700Y-6940050D02*
X17654700Y-6980050D01*
X17654700Y-6940050D02*
X17614700Y-6980050D01*
X17624700Y-6360050D02*
X17664700Y-6400050D01*
X17664700Y-6360050D02*
X17624700Y-6400050D01*
X17649700Y-15917550D02*
X17689700Y-15957550D01*
X17689700Y-15917550D02*
X17649700Y-15957550D01*
X18064700Y-8230050D02*
X18104700Y-8270050D01*
X18104700Y-8230050D02*
X18064700Y-8270050D01*
X18099700Y-9990050D02*
X18139700Y-10030050D01*
X18139700Y-9990050D02*
X18099700Y-10030050D01*
X18267200Y-16077550D02*
X18307200Y-16117550D01*
X18307200Y-16077550D02*
X18267200Y-16117550D01*
X18349700Y-16197550D02*
X18389700Y-16237550D01*
X18389700Y-16197550D02*
X18349700Y-16237550D01*
X18392200Y-15985050D02*
X18432200Y-16025050D01*
X18432200Y-15985050D02*
X18392200Y-16025050D01*
X18447200Y-16282550D02*
X18487200Y-16322550D01*
X18487200Y-16282550D02*
X18447200Y-16322550D01*
X18488700Y-15196050D02*
X18528700Y-15236050D01*
X18528700Y-15196050D02*
X18488700Y-15236050D01*
X18524700Y-16042550D02*
X18564700Y-16082550D01*
X18564700Y-16042550D02*
X18524700Y-16082550D01*
X18592200Y-16167550D02*
X18632200Y-16207550D01*
X18632200Y-16167550D02*
X18592200Y-16207550D01*
X18604700Y-16297550D02*
X18644700Y-16337550D01*
X18644700Y-16297550D02*
X18604700Y-16337550D01*
X18627200Y-16047550D02*
X18667200Y-16087550D01*
X18667200Y-16047550D02*
X18627200Y-16087550D01*
X18672200Y-16507550D02*
X18712200Y-16547550D01*
X18712200Y-16507550D02*
X18672200Y-16547550D01*
X18697200Y-16407550D02*
X18737200Y-16447550D01*
X18737200Y-16407550D02*
X18697200Y-16447550D01*
X18719700Y-14840050D02*
X18759700Y-14880050D01*
X18759700Y-14840050D02*
X18719700Y-14880050D01*
X18722200Y-16155050D02*
X18762200Y-16195050D01*
X18762200Y-16155050D02*
X18722200Y-16195050D01*
X18734700Y-16300050D02*
X18774700Y-16340050D01*
X18774700Y-16300050D02*
X18734700Y-16340050D01*
X18757200Y-16022550D02*
X18797200Y-16062550D01*
X18797200Y-16022550D02*
X18757200Y-16062550D01*
X18847200Y-16147550D02*
X18887200Y-16187550D01*
X18887200Y-16147550D02*
X18847200Y-16187550D01*
X18857200Y-16275050D02*
X18897200Y-16315050D01*
X18897200Y-16275050D02*
X18857200Y-16315050D01*
X18864700Y-16405050D02*
X18904700Y-16445050D01*
X18904700Y-16405050D02*
X18864700Y-16445050D01*
X18869700Y-16507550D02*
X18909700Y-16547550D01*
X18909700Y-16507550D02*
X18869700Y-16547550D01*
X18882200Y-16020050D02*
X18922200Y-16060050D01*
X18922200Y-16020050D02*
X18882200Y-16060050D01*
X18962200Y-16140050D02*
X19002200Y-16180050D01*
X19002200Y-16140050D02*
X18962200Y-16180050D01*
X18979700Y-16270050D02*
X19019700Y-16310050D01*
X19019700Y-16270050D02*
X18979700Y-16310050D01*
X18992200Y-16020050D02*
X19032200Y-16060050D01*
X19032200Y-16020050D02*
X18992200Y-16060050D01*
X19067200Y-16157550D02*
X19107200Y-16197550D01*
X19107200Y-16157550D02*
X19067200Y-16197550D01*
X19079700Y-16287550D02*
X19119700Y-16327550D01*
X19119700Y-16287550D02*
X19079700Y-16327550D01*
X19102200Y-16037550D02*
X19142200Y-16077550D01*
X19142200Y-16037550D02*
X19102200Y-16077550D01*
X19147200Y-16497550D02*
X19187200Y-16537550D01*
X19187200Y-16497550D02*
X19147200Y-16537550D01*
X19172200Y-16397550D02*
X19212200Y-16437550D01*
X19212200Y-16397550D02*
X19172200Y-16437550D01*
X19197200Y-16145050D02*
X19237200Y-16185050D01*
X19237200Y-16145050D02*
X19197200Y-16185050D01*
X19209700Y-16290050D02*
X19249700Y-16330050D01*
X19249700Y-16290050D02*
X19209700Y-16330050D01*
X19232200Y-16012550D02*
X19272200Y-16052550D01*
X19272200Y-16012550D02*
X19232200Y-16052550D01*
X19322200Y-16137550D02*
X19362200Y-16177550D01*
X19362200Y-16137550D02*
X19322200Y-16177550D01*
X19332200Y-16265050D02*
X19372200Y-16305050D01*
X19372200Y-16265050D02*
X19332200Y-16305050D01*
X19339700Y-16395050D02*
X19379700Y-16435050D01*
X19379700Y-16395050D02*
X19339700Y-16435050D01*
X19344700Y-16497550D02*
X19384700Y-16537550D01*
X19384700Y-16497550D02*
X19344700Y-16537550D01*
X19357200Y-16010050D02*
X19397200Y-16050050D01*
X19397200Y-16010050D02*
X19357200Y-16050050D01*
X19437200Y-16130050D02*
X19477200Y-16170050D01*
X19477200Y-16130050D02*
X19437200Y-16170050D01*
X19454700Y-16260050D02*
X19494700Y-16300050D01*
X19494700Y-16260050D02*
X19454700Y-16300050D01*
X19467200Y-16010050D02*
X19507200Y-16050050D01*
X19507200Y-16010050D02*
X19467200Y-16050050D01*
X19559700Y-16112550D02*
X19599700Y-16152550D01*
X19599700Y-16112550D02*
X19559700Y-16152550D01*
X19697200Y-16040050D02*
X19737200Y-16080050D01*
X19737200Y-16040050D02*
X19697200Y-16080050D01*
X20679700Y-16412550D02*
X20719700Y-16452550D01*
X20719700Y-16412550D02*
X20679700Y-16452550D01*
X20759700Y-16122550D02*
X20799700Y-16162550D01*
X20799700Y-16122550D02*
X20759700Y-16162550D01*
X20772200Y-16252550D02*
X20812200Y-16292550D01*
X20812200Y-16252550D02*
X20772200Y-16292550D01*
X20794700Y-16002550D02*
X20834700Y-16042550D01*
X20834700Y-16002550D02*
X20794700Y-16042550D01*
X20864700Y-16362550D02*
X20904700Y-16402550D01*
X20904700Y-16362550D02*
X20864700Y-16402550D01*
X20922200Y-16535050D02*
X20962200Y-16575050D01*
X20962200Y-16535050D02*
X20922200Y-16575050D01*
X20924700Y-15977550D02*
X20964700Y-16017550D01*
X20964700Y-15977550D02*
X20924700Y-16017550D01*
X21032200Y-16360050D02*
X21072200Y-16400050D01*
X21072200Y-16360050D02*
X21032200Y-16400050D01*
X21037200Y-16462550D02*
X21077200Y-16502550D01*
X21077200Y-16462550D02*
X21037200Y-16502550D01*
X21049700Y-15975050D02*
X21089700Y-16015050D01*
X21089700Y-15975050D02*
X21049700Y-16015050D01*
X21154700Y-16402550D02*
X21194700Y-16442550D01*
X21194700Y-16402550D02*
X21154700Y-16442550D01*
X21159700Y-15975050D02*
X21199700Y-16015050D01*
X21199700Y-15975050D02*
X21159700Y-16015050D01*
X21269700Y-15992550D02*
X21309700Y-16032550D01*
X21309700Y-15992550D02*
X21269700Y-16032550D01*
X21314700Y-16452550D02*
X21354700Y-16492550D01*
X21354700Y-16452550D02*
X21314700Y-16492550D01*
X21399700Y-15967550D02*
X21439700Y-16007550D01*
X21439700Y-15967550D02*
X21399700Y-16007550D01*
X21509700Y-12542550D02*
X21549700Y-12582550D01*
X21549700Y-12542550D02*
X21509700Y-12582550D01*
X21512200Y-16452550D02*
X21552200Y-16492550D01*
X21552200Y-16452550D02*
X21512200Y-16492550D01*
X21524700Y-15965050D02*
X21564700Y-16005050D01*
X21564700Y-15965050D02*
X21524700Y-16005050D01*
X21589700Y-12252550D02*
X21629700Y-12292550D01*
X21629700Y-12252550D02*
X21589700Y-12292550D01*
X21602200Y-12382550D02*
X21642200Y-12422550D01*
X21642200Y-12382550D02*
X21602200Y-12422550D01*
X21604700Y-16085050D02*
X21644700Y-16125050D01*
X21644700Y-16085050D02*
X21604700Y-16125050D01*
X21622200Y-16215050D02*
X21662200Y-16255050D01*
X21662200Y-16215050D02*
X21622200Y-16255050D01*
X21624700Y-12132550D02*
X21664700Y-12172550D01*
X21664700Y-12132550D02*
X21624700Y-12172550D01*
X21637200Y-16377550D02*
X21677200Y-16417550D01*
X21677200Y-16377550D02*
X21637200Y-16417550D01*
X21669700Y-12592550D02*
X21709700Y-12632550D01*
X21709700Y-12592550D02*
X21669700Y-12632550D01*
X21694700Y-12492550D02*
X21734700Y-12532550D01*
X21734700Y-12492550D02*
X21694700Y-12532550D01*
X21719700Y-12240050D02*
X21759700Y-12280050D01*
X21759700Y-12240050D02*
X21719700Y-12280050D01*
X21732200Y-12385050D02*
X21772200Y-12425050D01*
X21772200Y-12385050D02*
X21732200Y-12425050D01*
X21754700Y-12107550D02*
X21794700Y-12147550D01*
X21794700Y-12107550D02*
X21754700Y-12147550D01*
X21844700Y-12232550D02*
X21884700Y-12272550D01*
X21884700Y-12232550D02*
X21844700Y-12272550D01*
X21854700Y-12360050D02*
X21894700Y-12400050D01*
X21894700Y-12360050D02*
X21854700Y-12400050D01*
X21862200Y-12490050D02*
X21902200Y-12530050D01*
X21902200Y-12490050D02*
X21862200Y-12530050D01*
X21867200Y-12592550D02*
X21907200Y-12632550D01*
X21907200Y-12592550D02*
X21867200Y-12632550D01*
X21879700Y-12105050D02*
X21919700Y-12145050D01*
X21919700Y-12105050D02*
X21879700Y-12145050D01*
X21959700Y-12225050D02*
X21999700Y-12265050D01*
X21999700Y-12225050D02*
X21959700Y-12265050D01*
X21977200Y-12355050D02*
X22017200Y-12395050D01*
X22017200Y-12355050D02*
X21977200Y-12395050D01*
X21984700Y-12532550D02*
X22024700Y-12572550D01*
X22024700Y-12532550D02*
X21984700Y-12572550D01*
X21989700Y-12105050D02*
X22029700Y-12145050D01*
X22029700Y-12105050D02*
X21989700Y-12145050D01*
X22064700Y-12242550D02*
X22104700Y-12282550D01*
X22104700Y-12242550D02*
X22064700Y-12282550D01*
X22077200Y-12372550D02*
X22117200Y-12412550D01*
X22117200Y-12372550D02*
X22077200Y-12412550D01*
X22099700Y-12122550D02*
X22139700Y-12162550D01*
X22139700Y-12122550D02*
X22099700Y-12162550D01*
X22144700Y-12582550D02*
X22184700Y-12622550D01*
X22184700Y-12582550D02*
X22144700Y-12622550D01*
X22169700Y-12482550D02*
X22209700Y-12522550D01*
X22209700Y-12482550D02*
X22169700Y-12522550D01*
X22194700Y-12230050D02*
X22234700Y-12270050D01*
X22234700Y-12230050D02*
X22194700Y-12270050D01*
X22207200Y-12375050D02*
X22247200Y-12415050D01*
X22247200Y-12375050D02*
X22207200Y-12415050D01*
X22229700Y-12097550D02*
X22269700Y-12137550D01*
X22269700Y-12097550D02*
X22229700Y-12137550D01*
X22319700Y-12222550D02*
X22359700Y-12262550D01*
X22359700Y-12222550D02*
X22319700Y-12262550D01*
X22329700Y-12350050D02*
X22369700Y-12390050D01*
X22369700Y-12350050D02*
X22329700Y-12390050D01*
X22337200Y-12480050D02*
X22377200Y-12520050D01*
X22377200Y-12480050D02*
X22337200Y-12520050D01*
X22342200Y-12582550D02*
X22382200Y-12622550D01*
X22382200Y-12582550D02*
X22342200Y-12622550D01*
X22354700Y-12095050D02*
X22394700Y-12135050D01*
X22394700Y-12095050D02*
X22354700Y-12135050D01*
X22434700Y-12215050D02*
X22474700Y-12255050D01*
X22474700Y-12215050D02*
X22434700Y-12255050D01*
X22452200Y-12345050D02*
X22492200Y-12385050D01*
X22492200Y-12345050D02*
X22452200Y-12385050D01*
X22464700Y-12095050D02*
X22504700Y-12135050D01*
X22504700Y-12095050D02*
X22464700Y-12135050D01*
X22467200Y-12507550D02*
X22507200Y-12547550D01*
X22507200Y-12507550D02*
X22467200Y-12547550D01*
D13*
X17535900Y-13006250D02*
G75*
G03*
X17535900Y-13006250I-40000J0D01*
G01*
X18035900Y-13006250D02*
G75*
G03*
X18035900Y-13006250I-40000J0D01*
G01*
X18802200Y-12962550D02*
G75*
G03*
X18802200Y-12962550I-40000J0D01*
G01*
X19302200Y-12962550D02*
G75*
G03*
X19302200Y-12962550I-40000J0D01*
G01*
X20502200Y-12892550D02*
G75*
G03*
X20502200Y-12892550I-40000J0D01*
G01*
X20502200Y-13392550D02*
G75*
G03*
X20502200Y-13392550I-40000J0D01*
G01*
X22161550Y-14719650D02*
G75*
G03*
X22161550Y-14719650I-40000J0D01*
G01*
D11*
X22161550Y-14829650D02*
X22161550Y-14609650D01*
X22081550Y-14829650D02*
X22081550Y-14609650D01*
X22161550Y-14609650D02*
G75*
G03*
X22081550Y-14609650I-40000J0D01*
G01*
X22081550Y-14829650D02*
G75*
G03*
X22161550Y-14829650I40000J0D01*
G01*
D13*
X22441550Y-14259650D02*
G75*
G03*
X22441550Y-14259650I-40000J0D01*
G01*
D11*
X22511550Y-14219650D02*
X22291550Y-14219650D01*
X22511550Y-14299650D02*
X22291550Y-14299650D01*
X22291550Y-14219650D02*
G75*
G03*
X22291550Y-14299650I0J-40000D01*
G01*
X22511550Y-14299650D02*
G75*
G03*
X22511550Y-14219650I0J40000D01*
G01*
D13*
X22771550Y-14719650D02*
G75*
G03*
X22771550Y-14719650I-40000J0D01*
G01*
D11*
X22771550Y-14829650D02*
X22771550Y-14609650D01*
X22691550Y-14829650D02*
X22691550Y-14609650D01*
X22771550Y-14609650D02*
G75*
G03*
X22691550Y-14609650I-40000J0D01*
G01*
X22691550Y-14829650D02*
G75*
G03*
X22771550Y-14829650I40000J0D01*
G01*
D13*
X22988900Y-13336450D02*
G75*
G03*
X22988900Y-13336450I-40000J0D01*
G01*
X22988900Y-13536450D02*
G75*
G03*
X22988900Y-13536450I-40000J0D01*
G01*
X22988900Y-13736450D02*
G75*
G03*
X22988900Y-13736450I-40000J0D01*
G01*
D10*
X10552200Y-5963550D02*
X10552200Y-6063550D01*
X10502200Y-6013550D02*
X10602200Y-6013550D01*
X10552200Y-6217550D02*
X10552200Y-6317550D01*
X10502200Y-6267550D02*
X10602200Y-6267550D01*
X10552200Y-6471550D02*
X10552200Y-6571550D01*
X10502200Y-6521550D02*
X10602200Y-6521550D01*
X10552200Y-13985550D02*
X10552200Y-14085550D01*
X10502200Y-14035550D02*
X10602200Y-14035550D01*
X10552200Y-14239550D02*
X10552200Y-14339550D01*
X10502200Y-14289550D02*
X10602200Y-14289550D01*
X10552200Y-14493550D02*
X10552200Y-14593550D01*
X10502200Y-14543550D02*
X10602200Y-14543550D01*
X10552200Y-14747550D02*
X10552200Y-14847550D01*
X10502200Y-14797550D02*
X10602200Y-14797550D01*
X10554700Y-7322550D02*
X10554700Y-7422550D01*
X10504700Y-7372550D02*
X10604700Y-7372550D01*
X10554700Y-7576550D02*
X10554700Y-7676550D01*
X10504700Y-7626550D02*
X10604700Y-7626550D01*
X10554700Y-7830550D02*
X10554700Y-7930550D01*
X10504700Y-7880550D02*
X10604700Y-7880550D01*
X10554700Y-8084550D02*
X10554700Y-8184550D01*
X10504700Y-8134550D02*
X10604700Y-8134550D01*
X10554700Y-8338550D02*
X10554700Y-8438550D01*
X10504700Y-8388550D02*
X10604700Y-8388550D01*
X10554700Y-8592550D02*
X10554700Y-8692550D01*
X10504700Y-8642550D02*
X10604700Y-8642550D01*
X10564700Y-12265550D02*
X10564700Y-12365550D01*
X10514700Y-12315550D02*
X10614700Y-12315550D01*
X10564700Y-12519550D02*
X10564700Y-12619550D01*
X10514700Y-12569550D02*
X10614700Y-12569550D01*
X10564700Y-12773550D02*
X10564700Y-12873550D01*
X10514700Y-12823550D02*
X10614700Y-12823550D01*
X10564700Y-13027550D02*
X10564700Y-13127550D01*
X10514700Y-13077550D02*
X10614700Y-13077550D01*
X17666400Y-3107100D02*
X17666400Y-3207100D01*
X17616400Y-3157100D02*
X17716400Y-3157100D01*
X17666400Y-3361100D02*
X17666400Y-3461100D01*
X17616400Y-3411100D02*
X17716400Y-3411100D01*
X17666400Y-3615100D02*
X17666400Y-3715100D01*
X17616400Y-3665100D02*
X17716400Y-3665100D01*
X17666400Y-3869100D02*
X17666400Y-3969100D01*
X17616400Y-3919100D02*
X17716400Y-3919100D01*
X17666400Y-4123100D02*
X17666400Y-4223100D01*
X17616400Y-4173100D02*
X17716400Y-4173100D01*
X17666400Y-4377100D02*
X17666400Y-4477100D01*
X17616400Y-4427100D02*
X17716400Y-4427100D01*
X17666400Y-4631100D02*
X17666400Y-4731100D01*
X17616400Y-4681100D02*
X17716400Y-4681100D01*
X17666400Y-4885100D02*
X17666400Y-4985100D01*
X17616400Y-4935100D02*
X17716400Y-4935100D01*
X17666400Y-5139100D02*
X17666400Y-5239100D01*
X17616400Y-5189100D02*
X17716400Y-5189100D01*
X17666400Y-5393100D02*
X17666400Y-5493100D01*
X17616400Y-5443100D02*
X17716400Y-5443100D01*
X17666400Y-5647100D02*
X17666400Y-5747100D01*
X17616400Y-5697100D02*
X17716400Y-5697100D01*
X17666400Y-5901100D02*
X17666400Y-6001100D01*
X17616400Y-5951100D02*
X17716400Y-5951100D01*
X17696400Y-7812100D02*
X17696400Y-7912100D01*
X17646400Y-7862100D02*
X17746400Y-7862100D01*
X17696400Y-8066100D02*
X17696400Y-8166100D01*
X17646400Y-8116100D02*
X17746400Y-8116100D01*
X17696400Y-8320100D02*
X17696400Y-8420100D01*
X17646400Y-8370100D02*
X17746400Y-8370100D01*
X17696400Y-8574100D02*
X17696400Y-8674100D01*
X17646400Y-8624100D02*
X17746400Y-8624100D01*
X17696400Y-8828100D02*
X17696400Y-8928100D01*
X17646400Y-8878100D02*
X17746400Y-8878100D01*
X17696400Y-9082100D02*
X17696400Y-9182100D01*
X17646400Y-9132100D02*
X17746400Y-9132100D01*
X17696400Y-9336100D02*
X17696400Y-9436100D01*
X17646400Y-9386100D02*
X17746400Y-9386100D01*
X17696400Y-9590100D02*
X17696400Y-9690100D01*
X17646400Y-9640100D02*
X17746400Y-9640100D01*
X17696400Y-9844100D02*
X17696400Y-9944100D01*
X17646400Y-9894100D02*
X17746400Y-9894100D01*
X17696400Y-10098100D02*
X17696400Y-10198100D01*
X17646400Y-10148100D02*
X17746400Y-10148100D01*
X17696400Y-10352100D02*
X17696400Y-10452100D01*
X17646400Y-10402100D02*
X17746400Y-10402100D01*
X17696400Y-10606100D02*
X17696400Y-10706100D01*
X17646400Y-10656100D02*
X17746400Y-10656100D01*
X17920400Y-3107100D02*
X17920400Y-3207100D01*
X17870400Y-3157100D02*
X17970400Y-3157100D01*
X17920400Y-3361100D02*
X17920400Y-3461100D01*
X17870400Y-3411100D02*
X17970400Y-3411100D01*
X17920400Y-3615100D02*
X17920400Y-3715100D01*
X17870400Y-3665100D02*
X17970400Y-3665100D01*
X17920400Y-3869100D02*
X17920400Y-3969100D01*
X17870400Y-3919100D02*
X17970400Y-3919100D01*
X17920400Y-4123100D02*
X17920400Y-4223100D01*
X17870400Y-4173100D02*
X17970400Y-4173100D01*
X17920400Y-4377100D02*
X17920400Y-4477100D01*
X17870400Y-4427100D02*
X17970400Y-4427100D01*
X17920400Y-4631100D02*
X17920400Y-4731100D01*
X17870400Y-4681100D02*
X17970400Y-4681100D01*
X17920400Y-4885100D02*
X17920400Y-4985100D01*
X17870400Y-4935100D02*
X17970400Y-4935100D01*
X17920400Y-5139100D02*
X17920400Y-5239100D01*
X17870400Y-5189100D02*
X17970400Y-5189100D01*
X17920400Y-5393100D02*
X17920400Y-5493100D01*
X17870400Y-5443100D02*
X17970400Y-5443100D01*
X17920400Y-5647100D02*
X17920400Y-5747100D01*
X17870400Y-5697100D02*
X17970400Y-5697100D01*
X17920400Y-5901100D02*
X17920400Y-6001100D01*
X17870400Y-5951100D02*
X17970400Y-5951100D01*
X17950400Y-7812100D02*
X17950400Y-7912100D01*
X17900400Y-7862100D02*
X18000400Y-7862100D01*
X17950400Y-8066100D02*
X17950400Y-8166100D01*
X17900400Y-8116100D02*
X18000400Y-8116100D01*
X17950400Y-8320100D02*
X17950400Y-8420100D01*
X17900400Y-8370100D02*
X18000400Y-8370100D01*
X17950400Y-8574100D02*
X17950400Y-8674100D01*
X17900400Y-8624100D02*
X18000400Y-8624100D01*
X17950400Y-8828100D02*
X17950400Y-8928100D01*
X17900400Y-8878100D02*
X18000400Y-8878100D01*
X17950400Y-9082100D02*
X17950400Y-9182100D01*
X17900400Y-9132100D02*
X18000400Y-9132100D01*
X17950400Y-9336100D02*
X17950400Y-9436100D01*
X17900400Y-9386100D02*
X18000400Y-9386100D01*
X17950400Y-9590100D02*
X17950400Y-9690100D01*
X17900400Y-9640100D02*
X18000400Y-9640100D01*
X17950400Y-9844100D02*
X17950400Y-9944100D01*
X17900400Y-9894100D02*
X18000400Y-9894100D01*
X17950400Y-10098100D02*
X17950400Y-10198100D01*
X17900400Y-10148100D02*
X18000400Y-10148100D01*
X17950400Y-10352100D02*
X17950400Y-10452100D01*
X17900400Y-10402100D02*
X18000400Y-10402100D01*
X17950400Y-10606100D02*
X17950400Y-10706100D01*
X17900400Y-10656100D02*
X18000400Y-10656100D01*
D14*
X18965662Y-12346012D02*
X18965662Y-12254088D01*
X18873738Y-12254088D01*
X18873738Y-12346012D01*
X18965662Y-12346012D01*
X19425662Y-12346012D02*
X19425662Y-12254088D01*
X19333738Y-12254088D01*
X19333738Y-12346012D01*
X19425662Y-12346012D01*
X20555662Y-12346012D02*
X20555662Y-12254088D01*
X20463738Y-12254088D01*
X20463738Y-12346012D01*
X20555662Y-12346012D01*
X21015662Y-12346012D02*
X21015662Y-12254088D01*
X20923738Y-12254088D01*
X20923738Y-12346012D01*
X21015662Y-12346012D01*
D15*
X22948900Y-13201450D02*
X23023900Y-13126450D01*
X22948900Y-13051450D01*
X22873900Y-13126450D01*
X22948900Y-13201450D01*
X22948900Y-14021450D02*
X23023900Y-13946450D01*
X22948900Y-13871450D01*
X22873900Y-13946450D01*
X22948900Y-14021450D01*
D11*
X16354700Y-12337550D02*
X16554700Y-12537550D01*
X16554700Y-12337550D02*
X16354700Y-12537550D01*
X16554700Y-12437550D02*
G75*
G03*
X16554700Y-12437550I-100000J0D01*
G01*
X17124700Y-12342550D02*
X17324700Y-12542550D01*
X17324700Y-12342550D02*
X17124700Y-12542550D01*
X17324700Y-12442550D02*
G75*
G03*
X17324700Y-12442550I-100000J0D01*
G01*
X9723719Y-16960526D02*
X9723719Y-16760526D01*
X9771338Y-16760526D01*
X9799910Y-16770050D01*
X9818957Y-16789098D01*
X9828481Y-16808145D01*
X9838005Y-16846240D01*
X9838005Y-16874812D01*
X9828481Y-16912907D01*
X9818957Y-16931955D01*
X9799910Y-16951002D01*
X9771338Y-16960526D01*
X9723719Y-16960526D01*
X9923719Y-16960526D02*
X9923719Y-16827193D01*
X9923719Y-16865288D02*
X9933243Y-16846240D01*
X9942767Y-16836717D01*
X9961814Y-16827193D01*
X9980862Y-16827193D01*
X10047529Y-16960526D02*
X10047529Y-16827193D01*
X10047529Y-16760526D02*
X10038005Y-16770050D01*
X10047529Y-16779574D01*
X10057052Y-16770050D01*
X10047529Y-16760526D01*
X10047529Y-16779574D01*
X10171338Y-16960526D02*
X10152290Y-16951002D01*
X10142767Y-16931955D01*
X10142767Y-16760526D01*
X10276100Y-16960526D02*
X10257052Y-16951002D01*
X10247529Y-16931955D01*
X10247529Y-16760526D01*
X10504671Y-16960526D02*
X10504671Y-16760526D01*
X10571338Y-16903383D01*
X10638005Y-16760526D01*
X10638005Y-16960526D01*
X10818957Y-16960526D02*
X10818957Y-16855764D01*
X10809433Y-16836717D01*
X10790386Y-16827193D01*
X10752290Y-16827193D01*
X10733243Y-16836717D01*
X10818957Y-16951002D02*
X10799910Y-16960526D01*
X10752290Y-16960526D01*
X10733243Y-16951002D01*
X10723719Y-16931955D01*
X10723719Y-16912907D01*
X10733243Y-16893860D01*
X10752290Y-16884336D01*
X10799910Y-16884336D01*
X10818957Y-16874812D01*
X10914195Y-16827193D02*
X10914195Y-17027193D01*
X10914195Y-16836717D02*
X10933243Y-16827193D01*
X10971338Y-16827193D01*
X10990386Y-16836717D01*
X10999910Y-16846240D01*
X11009433Y-16865288D01*
X11009433Y-16922431D01*
X10999910Y-16941479D01*
X10990386Y-16951002D01*
X10971338Y-16960526D01*
X10933243Y-16960526D01*
X10914195Y-16951002D01*
X11095148Y-16941479D02*
X11104671Y-16951002D01*
X11095148Y-16960526D01*
X11085624Y-16951002D01*
X11095148Y-16941479D01*
X11095148Y-16960526D01*
X11095148Y-16836717D02*
X11104671Y-16846240D01*
X11095148Y-16855764D01*
X11085624Y-16846240D01*
X11095148Y-16836717D01*
X11095148Y-16855764D01*
D12*
X9426100Y-17270050D02*
X9466100Y-17310050D01*
X9466100Y-17270050D02*
X9426100Y-17310050D01*
D11*
X9761814Y-17180526D02*
X9780862Y-17180526D01*
X9799910Y-17190050D01*
X9809433Y-17199574D01*
X9818957Y-17218621D01*
X9828481Y-17256717D01*
X9828481Y-17304336D01*
X9818957Y-17342431D01*
X9809433Y-17361479D01*
X9799910Y-17371002D01*
X9780862Y-17380526D01*
X9761814Y-17380526D01*
X9742767Y-17371002D01*
X9733243Y-17361479D01*
X9723719Y-17342431D01*
X9714195Y-17304336D01*
X9714195Y-17256717D01*
X9723719Y-17218621D01*
X9733243Y-17199574D01*
X9742767Y-17190050D01*
X9761814Y-17180526D01*
X9914195Y-17361479D02*
X9923719Y-17371002D01*
X9914195Y-17380526D01*
X9904671Y-17371002D01*
X9914195Y-17361479D01*
X9914195Y-17380526D01*
X10095148Y-17247193D02*
X10095148Y-17380526D01*
X10047529Y-17171002D02*
X9999910Y-17313860D01*
X10123719Y-17313860D01*
X10238005Y-17180526D02*
X10257052Y-17180526D01*
X10276100Y-17190050D01*
X10285624Y-17199574D01*
X10295148Y-17218621D01*
X10304671Y-17256717D01*
X10304671Y-17304336D01*
X10295148Y-17342431D01*
X10285624Y-17361479D01*
X10276100Y-17371002D01*
X10257052Y-17380526D01*
X10238005Y-17380526D01*
X10218957Y-17371002D01*
X10209433Y-17361479D01*
X10199910Y-17342431D01*
X10190386Y-17304336D01*
X10190386Y-17256717D01*
X10199910Y-17218621D01*
X10209433Y-17199574D01*
X10218957Y-17190050D01*
X10238005Y-17180526D01*
X10428481Y-17180526D02*
X10447529Y-17180526D01*
X10466576Y-17190050D01*
X10476100Y-17199574D01*
X10485624Y-17218621D01*
X10495148Y-17256717D01*
X10495148Y-17304336D01*
X10485624Y-17342431D01*
X10476100Y-17361479D01*
X10466576Y-17371002D01*
X10447529Y-17380526D01*
X10428481Y-17380526D01*
X10409433Y-17371002D01*
X10399910Y-17361479D01*
X10390386Y-17342431D01*
X10380862Y-17304336D01*
X10380862Y-17256717D01*
X10390386Y-17218621D01*
X10399910Y-17199574D01*
X10409433Y-17190050D01*
X10428481Y-17180526D01*
X10580862Y-17380526D02*
X10580862Y-17247193D01*
X10580862Y-17266240D02*
X10590386Y-17256717D01*
X10609433Y-17247193D01*
X10638005Y-17247193D01*
X10657052Y-17256717D01*
X10666576Y-17275764D01*
X10666576Y-17380526D01*
X10666576Y-17275764D02*
X10676100Y-17256717D01*
X10695148Y-17247193D01*
X10723719Y-17247193D01*
X10742767Y-17256717D01*
X10752290Y-17275764D01*
X10752290Y-17380526D01*
X10847529Y-17380526D02*
X10847529Y-17247193D01*
X10847529Y-17266240D02*
X10857052Y-17256717D01*
X10876100Y-17247193D01*
X10904671Y-17247193D01*
X10923719Y-17256717D01*
X10933243Y-17275764D01*
X10933243Y-17380526D01*
X10933243Y-17275764D02*
X10942767Y-17256717D01*
X10961814Y-17247193D01*
X10990386Y-17247193D01*
X11009433Y-17256717D01*
X11018957Y-17275764D01*
X11018957Y-17380526D01*
X11409433Y-17171002D02*
X11238005Y-17428145D01*
X11666576Y-17180526D02*
X11685624Y-17180526D01*
X11704671Y-17190050D01*
X11714195Y-17199574D01*
X11723719Y-17218621D01*
X11733243Y-17256717D01*
X11733243Y-17304336D01*
X11723719Y-17342431D01*
X11714195Y-17361479D01*
X11704671Y-17371002D01*
X11685624Y-17380526D01*
X11666576Y-17380526D01*
X11647528Y-17371002D01*
X11638005Y-17361479D01*
X11628481Y-17342431D01*
X11618957Y-17304336D01*
X11618957Y-17256717D01*
X11628481Y-17218621D01*
X11638005Y-17199574D01*
X11647528Y-17190050D01*
X11666576Y-17180526D01*
X11818957Y-17361479D02*
X11828481Y-17371002D01*
X11818957Y-17380526D01*
X11809433Y-17371002D01*
X11818957Y-17361479D01*
X11818957Y-17380526D01*
X11952290Y-17180526D02*
X11971338Y-17180526D01*
X11990386Y-17190050D01*
X11999909Y-17199574D01*
X12009433Y-17218621D01*
X12018957Y-17256717D01*
X12018957Y-17304336D01*
X12009433Y-17342431D01*
X11999909Y-17361479D01*
X11990386Y-17371002D01*
X11971338Y-17380526D01*
X11952290Y-17380526D01*
X11933243Y-17371002D01*
X11923719Y-17361479D01*
X11914195Y-17342431D01*
X11904671Y-17304336D01*
X11904671Y-17256717D01*
X11914195Y-17218621D01*
X11923719Y-17199574D01*
X11933243Y-17190050D01*
X11952290Y-17180526D01*
X12209433Y-17380526D02*
X12095148Y-17380526D01*
X12152290Y-17380526D02*
X12152290Y-17180526D01*
X12133243Y-17209098D01*
X12114195Y-17228145D01*
X12095148Y-17237669D01*
X12390386Y-17180526D02*
X12295148Y-17180526D01*
X12285624Y-17275764D01*
X12295148Y-17266240D01*
X12314195Y-17256717D01*
X12361814Y-17256717D01*
X12380862Y-17266240D01*
X12390386Y-17275764D01*
X12399909Y-17294812D01*
X12399909Y-17342431D01*
X12390386Y-17361479D01*
X12380862Y-17371002D01*
X12361814Y-17380526D01*
X12314195Y-17380526D01*
X12295148Y-17371002D01*
X12285624Y-17361479D01*
X12466576Y-17180526D02*
X12599909Y-17180526D01*
X12514195Y-17380526D01*
X12666576Y-17180526D02*
X12666576Y-17218621D01*
X12742767Y-17180526D02*
X12742767Y-17218621D01*
X13038005Y-17456717D02*
X13028481Y-17447193D01*
X13009433Y-17418621D01*
X12999909Y-17399574D01*
X12990386Y-17371002D01*
X12980862Y-17323383D01*
X12980862Y-17285288D01*
X12990386Y-17237669D01*
X12999909Y-17209098D01*
X13009433Y-17190050D01*
X13028481Y-17161479D01*
X13038005Y-17151955D01*
X13209433Y-17180526D02*
X13114195Y-17180526D01*
X13104671Y-17275764D01*
X13114195Y-17266240D01*
X13133243Y-17256717D01*
X13180862Y-17256717D01*
X13199909Y-17266240D01*
X13209433Y-17275764D01*
X13218957Y-17294812D01*
X13218957Y-17342431D01*
X13209433Y-17361479D01*
X13199909Y-17371002D01*
X13180862Y-17380526D01*
X13133243Y-17380526D01*
X13114195Y-17371002D01*
X13104671Y-17361479D01*
X13409433Y-17380526D02*
X13295148Y-17380526D01*
X13352290Y-17380526D02*
X13352290Y-17180526D01*
X13333243Y-17209098D01*
X13314195Y-17228145D01*
X13295148Y-17237669D01*
X13504671Y-17380526D02*
X13542767Y-17380526D01*
X13561814Y-17371002D01*
X13571338Y-17361479D01*
X13590386Y-17332907D01*
X13599909Y-17294812D01*
X13599909Y-17218621D01*
X13590386Y-17199574D01*
X13580862Y-17190050D01*
X13561814Y-17180526D01*
X13523719Y-17180526D01*
X13504671Y-17190050D01*
X13495148Y-17199574D01*
X13485624Y-17218621D01*
X13485624Y-17266240D01*
X13495148Y-17285288D01*
X13504671Y-17294812D01*
X13523719Y-17304336D01*
X13561814Y-17304336D01*
X13580862Y-17294812D01*
X13590386Y-17285288D01*
X13599909Y-17266240D01*
X13838005Y-17380526D02*
X13838005Y-17180526D01*
X13923719Y-17380526D02*
X13923719Y-17275764D01*
X13914195Y-17256717D01*
X13895148Y-17247193D01*
X13866576Y-17247193D01*
X13847528Y-17256717D01*
X13838005Y-17266240D01*
X14047528Y-17380526D02*
X14028481Y-17371002D01*
X14018957Y-17361479D01*
X14009433Y-17342431D01*
X14009433Y-17285288D01*
X14018957Y-17266240D01*
X14028481Y-17256717D01*
X14047528Y-17247193D01*
X14076100Y-17247193D01*
X14095148Y-17256717D01*
X14104671Y-17266240D01*
X14114195Y-17285288D01*
X14114195Y-17342431D01*
X14104671Y-17361479D01*
X14095148Y-17371002D01*
X14076100Y-17380526D01*
X14047528Y-17380526D01*
X14228481Y-17380526D02*
X14209433Y-17371002D01*
X14199909Y-17351955D01*
X14199909Y-17180526D01*
X14380862Y-17371002D02*
X14361814Y-17380526D01*
X14323719Y-17380526D01*
X14304671Y-17371002D01*
X14295148Y-17351955D01*
X14295148Y-17275764D01*
X14304671Y-17256717D01*
X14323719Y-17247193D01*
X14361814Y-17247193D01*
X14380862Y-17256717D01*
X14390386Y-17275764D01*
X14390386Y-17294812D01*
X14295148Y-17313860D01*
X14466576Y-17371002D02*
X14485624Y-17380526D01*
X14523719Y-17380526D01*
X14542767Y-17371002D01*
X14552290Y-17351955D01*
X14552290Y-17342431D01*
X14542767Y-17323383D01*
X14523719Y-17313860D01*
X14495148Y-17313860D01*
X14476100Y-17304336D01*
X14466576Y-17285288D01*
X14466576Y-17275764D01*
X14476100Y-17256717D01*
X14495148Y-17247193D01*
X14523719Y-17247193D01*
X14542767Y-17256717D01*
X14618957Y-17456717D02*
X14628481Y-17447193D01*
X14647528Y-17418621D01*
X14657052Y-17399574D01*
X14666576Y-17371002D01*
X14676100Y-17323383D01*
X14676100Y-17285288D01*
X14666576Y-17237669D01*
X14657052Y-17209098D01*
X14647528Y-17190050D01*
X14628481Y-17161479D01*
X14618957Y-17151955D01*
D13*
X9466100Y-17554050D02*
G75*
G03*
X9466100Y-17554050I-40000J0D01*
G01*
D11*
X9761814Y-17444526D02*
X9780862Y-17444526D01*
X9799910Y-17454050D01*
X9809433Y-17463574D01*
X9818957Y-17482621D01*
X9828481Y-17520717D01*
X9828481Y-17568336D01*
X9818957Y-17606431D01*
X9809433Y-17625479D01*
X9799910Y-17635002D01*
X9780862Y-17644526D01*
X9761814Y-17644526D01*
X9742767Y-17635002D01*
X9733243Y-17625479D01*
X9723719Y-17606431D01*
X9714195Y-17568336D01*
X9714195Y-17520717D01*
X9723719Y-17482621D01*
X9733243Y-17463574D01*
X9742767Y-17454050D01*
X9761814Y-17444526D01*
X9914195Y-17625479D02*
X9923719Y-17635002D01*
X9914195Y-17644526D01*
X9904671Y-17635002D01*
X9914195Y-17625479D01*
X9914195Y-17644526D01*
X10038005Y-17530240D02*
X10018957Y-17520717D01*
X10009433Y-17511193D01*
X9999910Y-17492145D01*
X9999910Y-17482621D01*
X10009433Y-17463574D01*
X10018957Y-17454050D01*
X10038005Y-17444526D01*
X10076100Y-17444526D01*
X10095148Y-17454050D01*
X10104671Y-17463574D01*
X10114195Y-17482621D01*
X10114195Y-17492145D01*
X10104671Y-17511193D01*
X10095148Y-17520717D01*
X10076100Y-17530240D01*
X10038005Y-17530240D01*
X10018957Y-17539764D01*
X10009433Y-17549288D01*
X9999910Y-17568336D01*
X9999910Y-17606431D01*
X10009433Y-17625479D01*
X10018957Y-17635002D01*
X10038005Y-17644526D01*
X10076100Y-17644526D01*
X10095148Y-17635002D01*
X10104671Y-17625479D01*
X10114195Y-17606431D01*
X10114195Y-17568336D01*
X10104671Y-17549288D01*
X10095148Y-17539764D01*
X10076100Y-17530240D01*
X10238005Y-17444526D02*
X10257052Y-17444526D01*
X10276100Y-17454050D01*
X10285624Y-17463574D01*
X10295148Y-17482621D01*
X10304671Y-17520717D01*
X10304671Y-17568336D01*
X10295148Y-17606431D01*
X10285624Y-17625479D01*
X10276100Y-17635002D01*
X10257052Y-17644526D01*
X10238005Y-17644526D01*
X10218957Y-17635002D01*
X10209433Y-17625479D01*
X10199910Y-17606431D01*
X10190386Y-17568336D01*
X10190386Y-17520717D01*
X10199910Y-17482621D01*
X10209433Y-17463574D01*
X10218957Y-17454050D01*
X10238005Y-17444526D01*
X10428481Y-17444526D02*
X10447529Y-17444526D01*
X10466576Y-17454050D01*
X10476100Y-17463574D01*
X10485624Y-17482621D01*
X10495148Y-17520717D01*
X10495148Y-17568336D01*
X10485624Y-17606431D01*
X10476100Y-17625479D01*
X10466576Y-17635002D01*
X10447529Y-17644526D01*
X10428481Y-17644526D01*
X10409433Y-17635002D01*
X10399910Y-17625479D01*
X10390386Y-17606431D01*
X10380862Y-17568336D01*
X10380862Y-17520717D01*
X10390386Y-17482621D01*
X10399910Y-17463574D01*
X10409433Y-17454050D01*
X10428481Y-17444526D01*
X10580862Y-17644526D02*
X10580862Y-17511193D01*
X10580862Y-17530240D02*
X10590386Y-17520717D01*
X10609433Y-17511193D01*
X10638005Y-17511193D01*
X10657052Y-17520717D01*
X10666576Y-17539764D01*
X10666576Y-17644526D01*
X10666576Y-17539764D02*
X10676100Y-17520717D01*
X10695148Y-17511193D01*
X10723719Y-17511193D01*
X10742767Y-17520717D01*
X10752290Y-17539764D01*
X10752290Y-17644526D01*
X10847529Y-17644526D02*
X10847529Y-17511193D01*
X10847529Y-17530240D02*
X10857052Y-17520717D01*
X10876100Y-17511193D01*
X10904671Y-17511193D01*
X10923719Y-17520717D01*
X10933243Y-17539764D01*
X10933243Y-17644526D01*
X10933243Y-17539764D02*
X10942767Y-17520717D01*
X10961814Y-17511193D01*
X10990386Y-17511193D01*
X11009433Y-17520717D01*
X11018957Y-17539764D01*
X11018957Y-17644526D01*
X11409433Y-17435002D02*
X11238005Y-17692145D01*
X11666576Y-17444526D02*
X11685624Y-17444526D01*
X11704671Y-17454050D01*
X11714195Y-17463574D01*
X11723719Y-17482621D01*
X11733243Y-17520717D01*
X11733243Y-17568336D01*
X11723719Y-17606431D01*
X11714195Y-17625479D01*
X11704671Y-17635002D01*
X11685624Y-17644526D01*
X11666576Y-17644526D01*
X11647528Y-17635002D01*
X11638005Y-17625479D01*
X11628481Y-17606431D01*
X11618957Y-17568336D01*
X11618957Y-17520717D01*
X11628481Y-17482621D01*
X11638005Y-17463574D01*
X11647528Y-17454050D01*
X11666576Y-17444526D01*
X11818957Y-17625479D02*
X11828481Y-17635002D01*
X11818957Y-17644526D01*
X11809433Y-17635002D01*
X11818957Y-17625479D01*
X11818957Y-17644526D01*
X11952290Y-17444526D02*
X11971338Y-17444526D01*
X11990386Y-17454050D01*
X11999909Y-17463574D01*
X12009433Y-17482621D01*
X12018957Y-17520717D01*
X12018957Y-17568336D01*
X12009433Y-17606431D01*
X11999909Y-17625479D01*
X11990386Y-17635002D01*
X11971338Y-17644526D01*
X11952290Y-17644526D01*
X11933243Y-17635002D01*
X11923719Y-17625479D01*
X11914195Y-17606431D01*
X11904671Y-17568336D01*
X11904671Y-17520717D01*
X11914195Y-17482621D01*
X11923719Y-17463574D01*
X11933243Y-17454050D01*
X11952290Y-17444526D01*
X12085624Y-17444526D02*
X12209433Y-17444526D01*
X12142767Y-17520717D01*
X12171338Y-17520717D01*
X12190386Y-17530240D01*
X12199909Y-17539764D01*
X12209433Y-17558812D01*
X12209433Y-17606431D01*
X12199909Y-17625479D01*
X12190386Y-17635002D01*
X12171338Y-17644526D01*
X12114195Y-17644526D01*
X12095148Y-17635002D01*
X12085624Y-17625479D01*
X12399909Y-17644526D02*
X12285624Y-17644526D01*
X12342767Y-17644526D02*
X12342767Y-17444526D01*
X12323719Y-17473098D01*
X12304671Y-17492145D01*
X12285624Y-17501669D01*
X12580862Y-17444526D02*
X12485624Y-17444526D01*
X12476100Y-17539764D01*
X12485624Y-17530240D01*
X12504671Y-17520717D01*
X12552290Y-17520717D01*
X12571338Y-17530240D01*
X12580862Y-17539764D01*
X12590386Y-17558812D01*
X12590386Y-17606431D01*
X12580862Y-17625479D01*
X12571338Y-17635002D01*
X12552290Y-17644526D01*
X12504671Y-17644526D01*
X12485624Y-17635002D01*
X12476100Y-17625479D01*
X12666576Y-17444526D02*
X12666576Y-17482621D01*
X12742767Y-17444526D02*
X12742767Y-17482621D01*
X13038005Y-17720717D02*
X13028481Y-17711193D01*
X13009433Y-17682621D01*
X12999909Y-17663574D01*
X12990386Y-17635002D01*
X12980862Y-17587383D01*
X12980862Y-17549288D01*
X12990386Y-17501669D01*
X12999909Y-17473098D01*
X13009433Y-17454050D01*
X13028481Y-17425479D01*
X13038005Y-17415955D01*
X13123719Y-17644526D02*
X13161814Y-17644526D01*
X13180862Y-17635002D01*
X13190386Y-17625479D01*
X13209433Y-17596907D01*
X13218957Y-17558812D01*
X13218957Y-17482621D01*
X13209433Y-17463574D01*
X13199909Y-17454050D01*
X13180862Y-17444526D01*
X13142767Y-17444526D01*
X13123719Y-17454050D01*
X13114195Y-17463574D01*
X13104671Y-17482621D01*
X13104671Y-17530240D01*
X13114195Y-17549288D01*
X13123719Y-17558812D01*
X13142767Y-17568336D01*
X13180862Y-17568336D01*
X13199909Y-17558812D01*
X13209433Y-17549288D01*
X13218957Y-17530240D01*
X13457052Y-17644526D02*
X13457052Y-17444526D01*
X13542767Y-17644526D02*
X13542767Y-17539764D01*
X13533243Y-17520717D01*
X13514195Y-17511193D01*
X13485624Y-17511193D01*
X13466576Y-17520717D01*
X13457052Y-17530240D01*
X13666576Y-17644526D02*
X13647528Y-17635002D01*
X13638005Y-17625479D01*
X13628481Y-17606431D01*
X13628481Y-17549288D01*
X13638005Y-17530240D01*
X13647528Y-17520717D01*
X13666576Y-17511193D01*
X13695148Y-17511193D01*
X13714195Y-17520717D01*
X13723719Y-17530240D01*
X13733243Y-17549288D01*
X13733243Y-17606431D01*
X13723719Y-17625479D01*
X13714195Y-17635002D01*
X13695148Y-17644526D01*
X13666576Y-17644526D01*
X13847528Y-17644526D02*
X13828481Y-17635002D01*
X13818957Y-17615955D01*
X13818957Y-17444526D01*
X13999909Y-17635002D02*
X13980862Y-17644526D01*
X13942767Y-17644526D01*
X13923719Y-17635002D01*
X13914195Y-17615955D01*
X13914195Y-17539764D01*
X13923719Y-17520717D01*
X13942767Y-17511193D01*
X13980862Y-17511193D01*
X13999909Y-17520717D01*
X14009433Y-17539764D01*
X14009433Y-17558812D01*
X13914195Y-17577860D01*
X14085624Y-17635002D02*
X14104671Y-17644526D01*
X14142767Y-17644526D01*
X14161814Y-17635002D01*
X14171338Y-17615955D01*
X14171338Y-17606431D01*
X14161814Y-17587383D01*
X14142767Y-17577860D01*
X14114195Y-17577860D01*
X14095148Y-17568336D01*
X14085624Y-17549288D01*
X14085624Y-17539764D01*
X14095148Y-17520717D01*
X14114195Y-17511193D01*
X14142767Y-17511193D01*
X14161814Y-17520717D01*
X14409433Y-17568336D02*
X14561814Y-17568336D01*
X14485624Y-17644526D02*
X14485624Y-17492145D01*
X14790386Y-17444526D02*
X14914195Y-17444526D01*
X14847528Y-17520717D01*
X14876100Y-17520717D01*
X14895148Y-17530240D01*
X14904671Y-17539764D01*
X14914195Y-17558812D01*
X14914195Y-17606431D01*
X14904671Y-17625479D01*
X14895148Y-17635002D01*
X14876100Y-17644526D01*
X14818957Y-17644526D01*
X14799909Y-17635002D01*
X14790386Y-17625479D01*
X15142767Y-17635002D02*
X15161814Y-17644526D01*
X15199909Y-17644526D01*
X15218957Y-17635002D01*
X15228481Y-17615955D01*
X15228481Y-17606431D01*
X15218957Y-17587383D01*
X15199909Y-17577860D01*
X15171338Y-17577860D01*
X15152290Y-17568336D01*
X15142767Y-17549288D01*
X15142767Y-17539764D01*
X15152290Y-17520717D01*
X15171338Y-17511193D01*
X15199909Y-17511193D01*
X15218957Y-17520717D01*
X15342767Y-17644526D02*
X15323719Y-17635002D01*
X15314195Y-17615955D01*
X15314195Y-17444526D01*
X15447528Y-17644526D02*
X15428481Y-17635002D01*
X15418957Y-17625479D01*
X15409433Y-17606431D01*
X15409433Y-17549288D01*
X15418957Y-17530240D01*
X15428481Y-17520717D01*
X15447528Y-17511193D01*
X15476100Y-17511193D01*
X15495148Y-17520717D01*
X15504671Y-17530240D01*
X15514195Y-17549288D01*
X15514195Y-17606431D01*
X15504671Y-17625479D01*
X15495148Y-17635002D01*
X15476100Y-17644526D01*
X15447528Y-17644526D01*
X15571338Y-17511193D02*
X15647528Y-17511193D01*
X15599909Y-17444526D02*
X15599909Y-17615955D01*
X15609433Y-17635002D01*
X15628481Y-17644526D01*
X15647528Y-17644526D01*
X15704671Y-17635002D02*
X15723719Y-17644526D01*
X15761814Y-17644526D01*
X15780862Y-17635002D01*
X15790386Y-17615955D01*
X15790386Y-17606431D01*
X15780862Y-17587383D01*
X15761814Y-17577860D01*
X15733243Y-17577860D01*
X15714195Y-17568336D01*
X15704671Y-17549288D01*
X15704671Y-17539764D01*
X15714195Y-17520717D01*
X15733243Y-17511193D01*
X15761814Y-17511193D01*
X15780862Y-17520717D01*
X15857052Y-17720717D02*
X15866576Y-17711193D01*
X15885624Y-17682621D01*
X15895148Y-17663574D01*
X15904671Y-17635002D01*
X15914195Y-17587383D01*
X15914195Y-17549288D01*
X15904671Y-17501669D01*
X15895148Y-17473098D01*
X15885624Y-17454050D01*
X15866576Y-17425479D01*
X15857052Y-17415955D01*
D10*
X9416100Y-17768050D02*
X9416100Y-17868050D01*
X9366100Y-17818050D02*
X9466100Y-17818050D01*
D11*
X9828481Y-17908526D02*
X9714195Y-17908526D01*
X9771338Y-17908526D02*
X9771338Y-17708526D01*
X9752290Y-17737098D01*
X9733243Y-17756145D01*
X9714195Y-17765669D01*
X9914195Y-17889479D02*
X9923719Y-17899002D01*
X9914195Y-17908526D01*
X9904671Y-17899002D01*
X9914195Y-17889479D01*
X9914195Y-17908526D01*
X10047529Y-17708526D02*
X10066576Y-17708526D01*
X10085624Y-17718050D01*
X10095148Y-17727574D01*
X10104671Y-17746621D01*
X10114195Y-17784717D01*
X10114195Y-17832336D01*
X10104671Y-17870431D01*
X10095148Y-17889479D01*
X10085624Y-17899002D01*
X10066576Y-17908526D01*
X10047529Y-17908526D01*
X10028481Y-17899002D01*
X10018957Y-17889479D01*
X10009433Y-17870431D01*
X9999910Y-17832336D01*
X9999910Y-17784717D01*
X10009433Y-17746621D01*
X10018957Y-17727574D01*
X10028481Y-17718050D01*
X10047529Y-17708526D01*
X10238005Y-17708526D02*
X10257052Y-17708526D01*
X10276100Y-17718050D01*
X10285624Y-17727574D01*
X10295148Y-17746621D01*
X10304671Y-17784717D01*
X10304671Y-17832336D01*
X10295148Y-17870431D01*
X10285624Y-17889479D01*
X10276100Y-17899002D01*
X10257052Y-17908526D01*
X10238005Y-17908526D01*
X10218957Y-17899002D01*
X10209433Y-17889479D01*
X10199910Y-17870431D01*
X10190386Y-17832336D01*
X10190386Y-17784717D01*
X10199910Y-17746621D01*
X10209433Y-17727574D01*
X10218957Y-17718050D01*
X10238005Y-17708526D01*
X10428481Y-17708526D02*
X10447529Y-17708526D01*
X10466576Y-17718050D01*
X10476100Y-17727574D01*
X10485624Y-17746621D01*
X10495148Y-17784717D01*
X10495148Y-17832336D01*
X10485624Y-17870431D01*
X10476100Y-17889479D01*
X10466576Y-17899002D01*
X10447529Y-17908526D01*
X10428481Y-17908526D01*
X10409433Y-17899002D01*
X10399910Y-17889479D01*
X10390386Y-17870431D01*
X10380862Y-17832336D01*
X10380862Y-17784717D01*
X10390386Y-17746621D01*
X10399910Y-17727574D01*
X10409433Y-17718050D01*
X10428481Y-17708526D01*
X10580862Y-17908526D02*
X10580862Y-17775193D01*
X10580862Y-17794240D02*
X10590386Y-17784717D01*
X10609433Y-17775193D01*
X10638005Y-17775193D01*
X10657052Y-17784717D01*
X10666576Y-17803764D01*
X10666576Y-17908526D01*
X10666576Y-17803764D02*
X10676100Y-17784717D01*
X10695148Y-17775193D01*
X10723719Y-17775193D01*
X10742767Y-17784717D01*
X10752290Y-17803764D01*
X10752290Y-17908526D01*
X10847529Y-17908526D02*
X10847529Y-17775193D01*
X10847529Y-17794240D02*
X10857052Y-17784717D01*
X10876100Y-17775193D01*
X10904671Y-17775193D01*
X10923719Y-17784717D01*
X10933243Y-17803764D01*
X10933243Y-17908526D01*
X10933243Y-17803764D02*
X10942767Y-17784717D01*
X10961814Y-17775193D01*
X10990386Y-17775193D01*
X11009433Y-17784717D01*
X11018957Y-17803764D01*
X11018957Y-17908526D01*
X11409433Y-17699002D02*
X11238005Y-17956145D01*
X11666576Y-17708526D02*
X11685624Y-17708526D01*
X11704671Y-17718050D01*
X11714195Y-17727574D01*
X11723719Y-17746621D01*
X11733243Y-17784717D01*
X11733243Y-17832336D01*
X11723719Y-17870431D01*
X11714195Y-17889479D01*
X11704671Y-17899002D01*
X11685624Y-17908526D01*
X11666576Y-17908526D01*
X11647528Y-17899002D01*
X11638005Y-17889479D01*
X11628481Y-17870431D01*
X11618957Y-17832336D01*
X11618957Y-17784717D01*
X11628481Y-17746621D01*
X11638005Y-17727574D01*
X11647528Y-17718050D01*
X11666576Y-17708526D01*
X11818957Y-17889479D02*
X11828481Y-17899002D01*
X11818957Y-17908526D01*
X11809433Y-17899002D01*
X11818957Y-17889479D01*
X11818957Y-17908526D01*
X11952290Y-17708526D02*
X11971338Y-17708526D01*
X11990386Y-17718050D01*
X11999909Y-17727574D01*
X12009433Y-17746621D01*
X12018957Y-17784717D01*
X12018957Y-17832336D01*
X12009433Y-17870431D01*
X11999909Y-17889479D01*
X11990386Y-17899002D01*
X11971338Y-17908526D01*
X11952290Y-17908526D01*
X11933243Y-17899002D01*
X11923719Y-17889479D01*
X11914195Y-17870431D01*
X11904671Y-17832336D01*
X11904671Y-17784717D01*
X11914195Y-17746621D01*
X11923719Y-17727574D01*
X11933243Y-17718050D01*
X11952290Y-17708526D01*
X12085624Y-17708526D02*
X12209433Y-17708526D01*
X12142767Y-17784717D01*
X12171338Y-17784717D01*
X12190386Y-17794240D01*
X12199909Y-17803764D01*
X12209433Y-17822812D01*
X12209433Y-17870431D01*
X12199909Y-17889479D01*
X12190386Y-17899002D01*
X12171338Y-17908526D01*
X12114195Y-17908526D01*
X12095148Y-17899002D01*
X12085624Y-17889479D01*
X12304671Y-17908526D02*
X12342767Y-17908526D01*
X12361814Y-17899002D01*
X12371338Y-17889479D01*
X12390386Y-17860907D01*
X12399909Y-17822812D01*
X12399909Y-17746621D01*
X12390386Y-17727574D01*
X12380862Y-17718050D01*
X12361814Y-17708526D01*
X12323719Y-17708526D01*
X12304671Y-17718050D01*
X12295148Y-17727574D01*
X12285624Y-17746621D01*
X12285624Y-17794240D01*
X12295148Y-17813288D01*
X12304671Y-17822812D01*
X12323719Y-17832336D01*
X12361814Y-17832336D01*
X12380862Y-17822812D01*
X12390386Y-17813288D01*
X12399909Y-17794240D01*
X12571338Y-17775193D02*
X12571338Y-17908526D01*
X12523719Y-17699002D02*
X12476100Y-17841860D01*
X12599909Y-17841860D01*
X12666576Y-17708526D02*
X12666576Y-17746621D01*
X12742767Y-17708526D02*
X12742767Y-17746621D01*
X13038005Y-17984717D02*
X13028481Y-17975193D01*
X13009433Y-17946621D01*
X12999909Y-17927574D01*
X12990386Y-17899002D01*
X12980862Y-17851383D01*
X12980862Y-17813288D01*
X12990386Y-17765669D01*
X12999909Y-17737098D01*
X13009433Y-17718050D01*
X13028481Y-17689479D01*
X13038005Y-17679955D01*
X13199909Y-17708526D02*
X13161814Y-17708526D01*
X13142767Y-17718050D01*
X13133243Y-17727574D01*
X13114195Y-17756145D01*
X13104671Y-17794240D01*
X13104671Y-17870431D01*
X13114195Y-17889479D01*
X13123719Y-17899002D01*
X13142767Y-17908526D01*
X13180862Y-17908526D01*
X13199909Y-17899002D01*
X13209433Y-17889479D01*
X13218957Y-17870431D01*
X13218957Y-17822812D01*
X13209433Y-17803764D01*
X13199909Y-17794240D01*
X13180862Y-17784717D01*
X13142767Y-17784717D01*
X13123719Y-17794240D01*
X13114195Y-17803764D01*
X13104671Y-17822812D01*
X13399909Y-17708526D02*
X13304671Y-17708526D01*
X13295148Y-17803764D01*
X13304671Y-17794240D01*
X13323719Y-17784717D01*
X13371338Y-17784717D01*
X13390386Y-17794240D01*
X13399909Y-17803764D01*
X13409433Y-17822812D01*
X13409433Y-17870431D01*
X13399909Y-17889479D01*
X13390386Y-17899002D01*
X13371338Y-17908526D01*
X13323719Y-17908526D01*
X13304671Y-17899002D01*
X13295148Y-17889479D01*
X13647528Y-17908526D02*
X13647528Y-17708526D01*
X13733243Y-17908526D02*
X13733243Y-17803764D01*
X13723719Y-17784717D01*
X13704671Y-17775193D01*
X13676100Y-17775193D01*
X13657052Y-17784717D01*
X13647528Y-17794240D01*
X13857052Y-17908526D02*
X13838005Y-17899002D01*
X13828481Y-17889479D01*
X13818957Y-17870431D01*
X13818957Y-17813288D01*
X13828481Y-17794240D01*
X13838005Y-17784717D01*
X13857052Y-17775193D01*
X13885624Y-17775193D01*
X13904671Y-17784717D01*
X13914195Y-17794240D01*
X13923719Y-17813288D01*
X13923719Y-17870431D01*
X13914195Y-17889479D01*
X13904671Y-17899002D01*
X13885624Y-17908526D01*
X13857052Y-17908526D01*
X14038005Y-17908526D02*
X14018957Y-17899002D01*
X14009433Y-17879955D01*
X14009433Y-17708526D01*
X14190386Y-17899002D02*
X14171338Y-17908526D01*
X14133243Y-17908526D01*
X14114195Y-17899002D01*
X14104671Y-17879955D01*
X14104671Y-17803764D01*
X14114195Y-17784717D01*
X14133243Y-17775193D01*
X14171338Y-17775193D01*
X14190386Y-17784717D01*
X14199909Y-17803764D01*
X14199909Y-17822812D01*
X14104671Y-17841860D01*
X14276100Y-17899002D02*
X14295148Y-17908526D01*
X14333243Y-17908526D01*
X14352290Y-17899002D01*
X14361814Y-17879955D01*
X14361814Y-17870431D01*
X14352290Y-17851383D01*
X14333243Y-17841860D01*
X14304671Y-17841860D01*
X14285624Y-17832336D01*
X14276100Y-17813288D01*
X14276100Y-17803764D01*
X14285624Y-17784717D01*
X14304671Y-17775193D01*
X14333243Y-17775193D01*
X14352290Y-17784717D01*
X14428481Y-17984717D02*
X14438005Y-17975193D01*
X14457052Y-17946621D01*
X14466576Y-17927574D01*
X14476100Y-17899002D01*
X14485624Y-17851383D01*
X14485624Y-17813288D01*
X14476100Y-17765669D01*
X14466576Y-17737098D01*
X14457052Y-17718050D01*
X14438005Y-17689479D01*
X14428481Y-17679955D01*
D14*
X9447062Y-18128012D02*
X9447062Y-18036088D01*
X9355138Y-18036088D01*
X9355138Y-18128012D01*
X9447062Y-18128012D01*
D11*
X9828481Y-18172526D02*
X9714195Y-18172526D01*
X9771338Y-18172526D02*
X9771338Y-17972526D01*
X9752290Y-18001098D01*
X9733243Y-18020145D01*
X9714195Y-18029669D01*
X9914195Y-18153479D02*
X9923719Y-18163002D01*
X9914195Y-18172526D01*
X9904671Y-18163002D01*
X9914195Y-18153479D01*
X9914195Y-18172526D01*
X9990386Y-17972526D02*
X10114195Y-17972526D01*
X10047529Y-18048717D01*
X10076100Y-18048717D01*
X10095148Y-18058240D01*
X10104671Y-18067764D01*
X10114195Y-18086812D01*
X10114195Y-18134431D01*
X10104671Y-18153479D01*
X10095148Y-18163002D01*
X10076100Y-18172526D01*
X10018957Y-18172526D01*
X9999910Y-18163002D01*
X9990386Y-18153479D01*
X10238005Y-17972526D02*
X10257052Y-17972526D01*
X10276100Y-17982050D01*
X10285624Y-17991574D01*
X10295148Y-18010621D01*
X10304671Y-18048717D01*
X10304671Y-18096336D01*
X10295148Y-18134431D01*
X10285624Y-18153479D01*
X10276100Y-18163002D01*
X10257052Y-18172526D01*
X10238005Y-18172526D01*
X10218957Y-18163002D01*
X10209433Y-18153479D01*
X10199910Y-18134431D01*
X10190386Y-18096336D01*
X10190386Y-18048717D01*
X10199910Y-18010621D01*
X10209433Y-17991574D01*
X10218957Y-17982050D01*
X10238005Y-17972526D01*
X10428481Y-17972526D02*
X10447529Y-17972526D01*
X10466576Y-17982050D01*
X10476100Y-17991574D01*
X10485624Y-18010621D01*
X10495148Y-18048717D01*
X10495148Y-18096336D01*
X10485624Y-18134431D01*
X10476100Y-18153479D01*
X10466576Y-18163002D01*
X10447529Y-18172526D01*
X10428481Y-18172526D01*
X10409433Y-18163002D01*
X10399910Y-18153479D01*
X10390386Y-18134431D01*
X10380862Y-18096336D01*
X10380862Y-18048717D01*
X10390386Y-18010621D01*
X10399910Y-17991574D01*
X10409433Y-17982050D01*
X10428481Y-17972526D01*
X10580862Y-18172526D02*
X10580862Y-18039193D01*
X10580862Y-18058240D02*
X10590386Y-18048717D01*
X10609433Y-18039193D01*
X10638005Y-18039193D01*
X10657052Y-18048717D01*
X10666576Y-18067764D01*
X10666576Y-18172526D01*
X10666576Y-18067764D02*
X10676100Y-18048717D01*
X10695148Y-18039193D01*
X10723719Y-18039193D01*
X10742767Y-18048717D01*
X10752290Y-18067764D01*
X10752290Y-18172526D01*
X10847529Y-18172526D02*
X10847529Y-18039193D01*
X10847529Y-18058240D02*
X10857052Y-18048717D01*
X10876100Y-18039193D01*
X10904671Y-18039193D01*
X10923719Y-18048717D01*
X10933243Y-18067764D01*
X10933243Y-18172526D01*
X10933243Y-18067764D02*
X10942767Y-18048717D01*
X10961814Y-18039193D01*
X10990386Y-18039193D01*
X11009433Y-18048717D01*
X11018957Y-18067764D01*
X11018957Y-18172526D01*
X11409433Y-17963002D02*
X11238005Y-18220145D01*
X11666576Y-17972526D02*
X11685624Y-17972526D01*
X11704671Y-17982050D01*
X11714195Y-17991574D01*
X11723719Y-18010621D01*
X11733243Y-18048717D01*
X11733243Y-18096336D01*
X11723719Y-18134431D01*
X11714195Y-18153479D01*
X11704671Y-18163002D01*
X11685624Y-18172526D01*
X11666576Y-18172526D01*
X11647528Y-18163002D01*
X11638005Y-18153479D01*
X11628481Y-18134431D01*
X11618957Y-18096336D01*
X11618957Y-18048717D01*
X11628481Y-18010621D01*
X11638005Y-17991574D01*
X11647528Y-17982050D01*
X11666576Y-17972526D01*
X11818957Y-18153479D02*
X11828481Y-18163002D01*
X11818957Y-18172526D01*
X11809433Y-18163002D01*
X11818957Y-18153479D01*
X11818957Y-18172526D01*
X11952290Y-17972526D02*
X11971338Y-17972526D01*
X11990386Y-17982050D01*
X11999909Y-17991574D01*
X12009433Y-18010621D01*
X12018957Y-18048717D01*
X12018957Y-18096336D01*
X12009433Y-18134431D01*
X11999909Y-18153479D01*
X11990386Y-18163002D01*
X11971338Y-18172526D01*
X11952290Y-18172526D01*
X11933243Y-18163002D01*
X11923719Y-18153479D01*
X11914195Y-18134431D01*
X11904671Y-18096336D01*
X11904671Y-18048717D01*
X11914195Y-18010621D01*
X11923719Y-17991574D01*
X11933243Y-17982050D01*
X11952290Y-17972526D01*
X12199909Y-17972526D02*
X12104671Y-17972526D01*
X12095148Y-18067764D01*
X12104671Y-18058240D01*
X12123719Y-18048717D01*
X12171338Y-18048717D01*
X12190386Y-18058240D01*
X12199909Y-18067764D01*
X12209433Y-18086812D01*
X12209433Y-18134431D01*
X12199909Y-18153479D01*
X12190386Y-18163002D01*
X12171338Y-18172526D01*
X12123719Y-18172526D01*
X12104671Y-18163002D01*
X12095148Y-18153479D01*
X12399909Y-18172526D02*
X12285624Y-18172526D01*
X12342767Y-18172526D02*
X12342767Y-17972526D01*
X12323719Y-18001098D01*
X12304671Y-18020145D01*
X12285624Y-18029669D01*
X12476100Y-17991574D02*
X12485624Y-17982050D01*
X12504671Y-17972526D01*
X12552290Y-17972526D01*
X12571338Y-17982050D01*
X12580862Y-17991574D01*
X12590386Y-18010621D01*
X12590386Y-18029669D01*
X12580862Y-18058240D01*
X12466576Y-18172526D01*
X12590386Y-18172526D01*
X12666576Y-17972526D02*
X12666576Y-18010621D01*
X12742767Y-17972526D02*
X12742767Y-18010621D01*
X13038005Y-18248717D02*
X13028481Y-18239193D01*
X13009433Y-18210621D01*
X12999909Y-18191574D01*
X12990386Y-18163002D01*
X12980862Y-18115383D01*
X12980862Y-18077288D01*
X12990386Y-18029669D01*
X12999909Y-18001098D01*
X13009433Y-17982050D01*
X13028481Y-17953479D01*
X13038005Y-17943955D01*
X13199909Y-18039193D02*
X13199909Y-18172526D01*
X13152290Y-17963002D02*
X13104671Y-18105860D01*
X13228481Y-18105860D01*
X13457052Y-18172526D02*
X13457052Y-17972526D01*
X13542767Y-18172526D02*
X13542767Y-18067764D01*
X13533243Y-18048717D01*
X13514195Y-18039193D01*
X13485624Y-18039193D01*
X13466576Y-18048717D01*
X13457052Y-18058240D01*
X13666576Y-18172526D02*
X13647528Y-18163002D01*
X13638005Y-18153479D01*
X13628481Y-18134431D01*
X13628481Y-18077288D01*
X13638005Y-18058240D01*
X13647528Y-18048717D01*
X13666576Y-18039193D01*
X13695148Y-18039193D01*
X13714195Y-18048717D01*
X13723719Y-18058240D01*
X13733243Y-18077288D01*
X13733243Y-18134431D01*
X13723719Y-18153479D01*
X13714195Y-18163002D01*
X13695148Y-18172526D01*
X13666576Y-18172526D01*
X13847528Y-18172526D02*
X13828481Y-18163002D01*
X13818957Y-18143955D01*
X13818957Y-17972526D01*
X13999909Y-18163002D02*
X13980862Y-18172526D01*
X13942767Y-18172526D01*
X13923719Y-18163002D01*
X13914195Y-18143955D01*
X13914195Y-18067764D01*
X13923719Y-18048717D01*
X13942767Y-18039193D01*
X13980862Y-18039193D01*
X13999909Y-18048717D01*
X14009433Y-18067764D01*
X14009433Y-18086812D01*
X13914195Y-18105860D01*
X14085624Y-18163002D02*
X14104671Y-18172526D01*
X14142767Y-18172526D01*
X14161814Y-18163002D01*
X14171338Y-18143955D01*
X14171338Y-18134431D01*
X14161814Y-18115383D01*
X14142767Y-18105860D01*
X14114195Y-18105860D01*
X14095148Y-18096336D01*
X14085624Y-18077288D01*
X14085624Y-18067764D01*
X14095148Y-18048717D01*
X14114195Y-18039193D01*
X14142767Y-18039193D01*
X14161814Y-18048717D01*
X14238005Y-18248717D02*
X14247528Y-18239193D01*
X14266576Y-18210621D01*
X14276100Y-18191574D01*
X14285624Y-18163002D01*
X14295148Y-18115383D01*
X14295148Y-18077288D01*
X14285624Y-18029669D01*
X14276100Y-18001098D01*
X14266576Y-17982050D01*
X14247528Y-17953479D01*
X14238005Y-17943955D01*
D15*
X9391100Y-18421050D02*
X9466100Y-18346050D01*
X9391100Y-18271050D01*
X9316100Y-18346050D01*
X9391100Y-18421050D01*
D11*
X9828481Y-18436526D02*
X9714195Y-18436526D01*
X9771338Y-18436526D02*
X9771338Y-18236526D01*
X9752290Y-18265098D01*
X9733243Y-18284145D01*
X9714195Y-18293669D01*
X9914195Y-18417479D02*
X9923719Y-18427002D01*
X9914195Y-18436526D01*
X9904671Y-18427002D01*
X9914195Y-18417479D01*
X9914195Y-18436526D01*
X10104671Y-18236526D02*
X10009433Y-18236526D01*
X9999910Y-18331764D01*
X10009433Y-18322240D01*
X10028481Y-18312717D01*
X10076100Y-18312717D01*
X10095148Y-18322240D01*
X10104671Y-18331764D01*
X10114195Y-18350812D01*
X10114195Y-18398431D01*
X10104671Y-18417479D01*
X10095148Y-18427002D01*
X10076100Y-18436526D01*
X10028481Y-18436526D01*
X10009433Y-18427002D01*
X9999910Y-18417479D01*
X10238005Y-18236526D02*
X10257052Y-18236526D01*
X10276100Y-18246050D01*
X10285624Y-18255574D01*
X10295148Y-18274621D01*
X10304671Y-18312717D01*
X10304671Y-18360336D01*
X10295148Y-18398431D01*
X10285624Y-18417479D01*
X10276100Y-18427002D01*
X10257052Y-18436526D01*
X10238005Y-18436526D01*
X10218957Y-18427002D01*
X10209433Y-18417479D01*
X10199910Y-18398431D01*
X10190386Y-18360336D01*
X10190386Y-18312717D01*
X10199910Y-18274621D01*
X10209433Y-18255574D01*
X10218957Y-18246050D01*
X10238005Y-18236526D01*
X10428481Y-18236526D02*
X10447529Y-18236526D01*
X10466576Y-18246050D01*
X10476100Y-18255574D01*
X10485624Y-18274621D01*
X10495148Y-18312717D01*
X10495148Y-18360336D01*
X10485624Y-18398431D01*
X10476100Y-18417479D01*
X10466576Y-18427002D01*
X10447529Y-18436526D01*
X10428481Y-18436526D01*
X10409433Y-18427002D01*
X10399910Y-18417479D01*
X10390386Y-18398431D01*
X10380862Y-18360336D01*
X10380862Y-18312717D01*
X10390386Y-18274621D01*
X10399910Y-18255574D01*
X10409433Y-18246050D01*
X10428481Y-18236526D01*
X10580862Y-18436526D02*
X10580862Y-18303193D01*
X10580862Y-18322240D02*
X10590386Y-18312717D01*
X10609433Y-18303193D01*
X10638005Y-18303193D01*
X10657052Y-18312717D01*
X10666576Y-18331764D01*
X10666576Y-18436526D01*
X10666576Y-18331764D02*
X10676100Y-18312717D01*
X10695148Y-18303193D01*
X10723719Y-18303193D01*
X10742767Y-18312717D01*
X10752290Y-18331764D01*
X10752290Y-18436526D01*
X10847529Y-18436526D02*
X10847529Y-18303193D01*
X10847529Y-18322240D02*
X10857052Y-18312717D01*
X10876100Y-18303193D01*
X10904671Y-18303193D01*
X10923719Y-18312717D01*
X10933243Y-18331764D01*
X10933243Y-18436526D01*
X10933243Y-18331764D02*
X10942767Y-18312717D01*
X10961814Y-18303193D01*
X10990386Y-18303193D01*
X11009433Y-18312717D01*
X11018957Y-18331764D01*
X11018957Y-18436526D01*
X11409433Y-18227002D02*
X11238005Y-18484145D01*
X11666576Y-18236526D02*
X11685624Y-18236526D01*
X11704671Y-18246050D01*
X11714195Y-18255574D01*
X11723719Y-18274621D01*
X11733243Y-18312717D01*
X11733243Y-18360336D01*
X11723719Y-18398431D01*
X11714195Y-18417479D01*
X11704671Y-18427002D01*
X11685624Y-18436526D01*
X11666576Y-18436526D01*
X11647528Y-18427002D01*
X11638005Y-18417479D01*
X11628481Y-18398431D01*
X11618957Y-18360336D01*
X11618957Y-18312717D01*
X11628481Y-18274621D01*
X11638005Y-18255574D01*
X11647528Y-18246050D01*
X11666576Y-18236526D01*
X11818957Y-18417479D02*
X11828481Y-18427002D01*
X11818957Y-18436526D01*
X11809433Y-18427002D01*
X11818957Y-18417479D01*
X11818957Y-18436526D01*
X11952290Y-18236526D02*
X11971338Y-18236526D01*
X11990386Y-18246050D01*
X11999909Y-18255574D01*
X12009433Y-18274621D01*
X12018957Y-18312717D01*
X12018957Y-18360336D01*
X12009433Y-18398431D01*
X11999909Y-18417479D01*
X11990386Y-18427002D01*
X11971338Y-18436526D01*
X11952290Y-18436526D01*
X11933243Y-18427002D01*
X11923719Y-18417479D01*
X11914195Y-18398431D01*
X11904671Y-18360336D01*
X11904671Y-18312717D01*
X11914195Y-18274621D01*
X11923719Y-18255574D01*
X11933243Y-18246050D01*
X11952290Y-18236526D01*
X12199909Y-18236526D02*
X12104671Y-18236526D01*
X12095148Y-18331764D01*
X12104671Y-18322240D01*
X12123719Y-18312717D01*
X12171338Y-18312717D01*
X12190386Y-18322240D01*
X12199909Y-18331764D01*
X12209433Y-18350812D01*
X12209433Y-18398431D01*
X12199909Y-18417479D01*
X12190386Y-18427002D01*
X12171338Y-18436526D01*
X12123719Y-18436526D01*
X12104671Y-18427002D01*
X12095148Y-18417479D01*
X12304671Y-18436526D02*
X12342767Y-18436526D01*
X12361814Y-18427002D01*
X12371338Y-18417479D01*
X12390386Y-18388907D01*
X12399909Y-18350812D01*
X12399909Y-18274621D01*
X12390386Y-18255574D01*
X12380862Y-18246050D01*
X12361814Y-18236526D01*
X12323719Y-18236526D01*
X12304671Y-18246050D01*
X12295148Y-18255574D01*
X12285624Y-18274621D01*
X12285624Y-18322240D01*
X12295148Y-18341288D01*
X12304671Y-18350812D01*
X12323719Y-18360336D01*
X12361814Y-18360336D01*
X12380862Y-18350812D01*
X12390386Y-18341288D01*
X12399909Y-18322240D01*
X12590386Y-18436526D02*
X12476100Y-18436526D01*
X12533243Y-18436526D02*
X12533243Y-18236526D01*
X12514195Y-18265098D01*
X12495148Y-18284145D01*
X12476100Y-18293669D01*
X12666576Y-18236526D02*
X12666576Y-18274621D01*
X12742767Y-18236526D02*
X12742767Y-18274621D01*
X13038005Y-18512717D02*
X13028481Y-18503193D01*
X13009433Y-18474621D01*
X12999909Y-18455574D01*
X12990386Y-18427002D01*
X12980862Y-18379383D01*
X12980862Y-18341288D01*
X12990386Y-18293669D01*
X12999909Y-18265098D01*
X13009433Y-18246050D01*
X13028481Y-18217479D01*
X13038005Y-18207955D01*
X13104671Y-18255574D02*
X13114195Y-18246050D01*
X13133243Y-18236526D01*
X13180862Y-18236526D01*
X13199909Y-18246050D01*
X13209433Y-18255574D01*
X13218957Y-18274621D01*
X13218957Y-18293669D01*
X13209433Y-18322240D01*
X13095148Y-18436526D01*
X13218957Y-18436526D01*
X13457052Y-18436526D02*
X13457052Y-18236526D01*
X13542767Y-18436526D02*
X13542767Y-18331764D01*
X13533243Y-18312717D01*
X13514195Y-18303193D01*
X13485624Y-18303193D01*
X13466576Y-18312717D01*
X13457052Y-18322240D01*
X13666576Y-18436526D02*
X13647528Y-18427002D01*
X13638005Y-18417479D01*
X13628481Y-18398431D01*
X13628481Y-18341288D01*
X13638005Y-18322240D01*
X13647528Y-18312717D01*
X13666576Y-18303193D01*
X13695148Y-18303193D01*
X13714195Y-18312717D01*
X13723719Y-18322240D01*
X13733243Y-18341288D01*
X13733243Y-18398431D01*
X13723719Y-18417479D01*
X13714195Y-18427002D01*
X13695148Y-18436526D01*
X13666576Y-18436526D01*
X13847528Y-18436526D02*
X13828481Y-18427002D01*
X13818957Y-18407955D01*
X13818957Y-18236526D01*
X13999909Y-18427002D02*
X13980862Y-18436526D01*
X13942767Y-18436526D01*
X13923719Y-18427002D01*
X13914195Y-18407955D01*
X13914195Y-18331764D01*
X13923719Y-18312717D01*
X13942767Y-18303193D01*
X13980862Y-18303193D01*
X13999909Y-18312717D01*
X14009433Y-18331764D01*
X14009433Y-18350812D01*
X13914195Y-18369860D01*
X14085624Y-18427002D02*
X14104671Y-18436526D01*
X14142767Y-18436526D01*
X14161814Y-18427002D01*
X14171338Y-18407955D01*
X14171338Y-18398431D01*
X14161814Y-18379383D01*
X14142767Y-18369860D01*
X14114195Y-18369860D01*
X14095148Y-18360336D01*
X14085624Y-18341288D01*
X14085624Y-18331764D01*
X14095148Y-18312717D01*
X14114195Y-18303193D01*
X14142767Y-18303193D01*
X14161814Y-18312717D01*
X14238005Y-18512717D02*
X14247528Y-18503193D01*
X14266576Y-18474621D01*
X14276100Y-18455574D01*
X14285624Y-18427002D01*
X14295148Y-18379383D01*
X14295148Y-18341288D01*
X14285624Y-18293669D01*
X14276100Y-18265098D01*
X14266576Y-18246050D01*
X14247528Y-18217479D01*
X14238005Y-18207955D01*
X9266100Y-18516050D02*
X9466100Y-18716050D01*
X9466100Y-18516050D02*
X9266100Y-18716050D01*
X9466100Y-18616050D02*
G75*
G03*
X9466100Y-18616050I-100000J0D01*
G01*
X9714195Y-18525574D02*
X9723719Y-18516050D01*
X9742767Y-18506526D01*
X9790386Y-18506526D01*
X9809433Y-18516050D01*
X9818957Y-18525574D01*
X9828481Y-18544621D01*
X9828481Y-18563669D01*
X9818957Y-18592240D01*
X9704671Y-18706526D01*
X9828481Y-18706526D01*
X9914195Y-18687479D02*
X9923719Y-18697002D01*
X9914195Y-18706526D01*
X9904671Y-18697002D01*
X9914195Y-18687479D01*
X9914195Y-18706526D01*
X10047529Y-18506526D02*
X10066576Y-18506526D01*
X10085624Y-18516050D01*
X10095148Y-18525574D01*
X10104671Y-18544621D01*
X10114195Y-18582717D01*
X10114195Y-18630336D01*
X10104671Y-18668431D01*
X10095148Y-18687479D01*
X10085624Y-18697002D01*
X10066576Y-18706526D01*
X10047529Y-18706526D01*
X10028481Y-18697002D01*
X10018957Y-18687479D01*
X10009433Y-18668431D01*
X9999910Y-18630336D01*
X9999910Y-18582717D01*
X10009433Y-18544621D01*
X10018957Y-18525574D01*
X10028481Y-18516050D01*
X10047529Y-18506526D01*
X10238005Y-18506526D02*
X10257052Y-18506526D01*
X10276100Y-18516050D01*
X10285624Y-18525574D01*
X10295148Y-18544621D01*
X10304671Y-18582717D01*
X10304671Y-18630336D01*
X10295148Y-18668431D01*
X10285624Y-18687479D01*
X10276100Y-18697002D01*
X10257052Y-18706526D01*
X10238005Y-18706526D01*
X10218957Y-18697002D01*
X10209433Y-18687479D01*
X10199910Y-18668431D01*
X10190386Y-18630336D01*
X10190386Y-18582717D01*
X10199910Y-18544621D01*
X10209433Y-18525574D01*
X10218957Y-18516050D01*
X10238005Y-18506526D01*
X10428481Y-18506526D02*
X10447529Y-18506526D01*
X10466576Y-18516050D01*
X10476100Y-18525574D01*
X10485624Y-18544621D01*
X10495148Y-18582717D01*
X10495148Y-18630336D01*
X10485624Y-18668431D01*
X10476100Y-18687479D01*
X10466576Y-18697002D01*
X10447529Y-18706526D01*
X10428481Y-18706526D01*
X10409433Y-18697002D01*
X10399910Y-18687479D01*
X10390386Y-18668431D01*
X10380862Y-18630336D01*
X10380862Y-18582717D01*
X10390386Y-18544621D01*
X10399910Y-18525574D01*
X10409433Y-18516050D01*
X10428481Y-18506526D01*
X10580862Y-18706526D02*
X10580862Y-18573193D01*
X10580862Y-18592240D02*
X10590386Y-18582717D01*
X10609433Y-18573193D01*
X10638005Y-18573193D01*
X10657052Y-18582717D01*
X10666576Y-18601764D01*
X10666576Y-18706526D01*
X10666576Y-18601764D02*
X10676100Y-18582717D01*
X10695148Y-18573193D01*
X10723719Y-18573193D01*
X10742767Y-18582717D01*
X10752290Y-18601764D01*
X10752290Y-18706526D01*
X10847529Y-18706526D02*
X10847529Y-18573193D01*
X10847529Y-18592240D02*
X10857052Y-18582717D01*
X10876100Y-18573193D01*
X10904671Y-18573193D01*
X10923719Y-18582717D01*
X10933243Y-18601764D01*
X10933243Y-18706526D01*
X10933243Y-18601764D02*
X10942767Y-18582717D01*
X10961814Y-18573193D01*
X10990386Y-18573193D01*
X11009433Y-18582717D01*
X11018957Y-18601764D01*
X11018957Y-18706526D01*
X11409433Y-18497002D02*
X11238005Y-18754145D01*
X11666576Y-18506526D02*
X11685624Y-18506526D01*
X11704671Y-18516050D01*
X11714195Y-18525574D01*
X11723719Y-18544621D01*
X11733243Y-18582717D01*
X11733243Y-18630336D01*
X11723719Y-18668431D01*
X11714195Y-18687479D01*
X11704671Y-18697002D01*
X11685624Y-18706526D01*
X11666576Y-18706526D01*
X11647528Y-18697002D01*
X11638005Y-18687479D01*
X11628481Y-18668431D01*
X11618957Y-18630336D01*
X11618957Y-18582717D01*
X11628481Y-18544621D01*
X11638005Y-18525574D01*
X11647528Y-18516050D01*
X11666576Y-18506526D01*
X11818957Y-18687479D02*
X11828481Y-18697002D01*
X11818957Y-18706526D01*
X11809433Y-18697002D01*
X11818957Y-18687479D01*
X11818957Y-18706526D01*
X11952290Y-18506526D02*
X11971338Y-18506526D01*
X11990386Y-18516050D01*
X11999909Y-18525574D01*
X12009433Y-18544621D01*
X12018957Y-18582717D01*
X12018957Y-18630336D01*
X12009433Y-18668431D01*
X11999909Y-18687479D01*
X11990386Y-18697002D01*
X11971338Y-18706526D01*
X11952290Y-18706526D01*
X11933243Y-18697002D01*
X11923719Y-18687479D01*
X11914195Y-18668431D01*
X11904671Y-18630336D01*
X11904671Y-18582717D01*
X11914195Y-18544621D01*
X11923719Y-18525574D01*
X11933243Y-18516050D01*
X11952290Y-18506526D01*
X12085624Y-18506526D02*
X12218957Y-18506526D01*
X12133243Y-18706526D01*
X12323719Y-18592240D02*
X12304671Y-18582717D01*
X12295148Y-18573193D01*
X12285624Y-18554145D01*
X12285624Y-18544621D01*
X12295148Y-18525574D01*
X12304671Y-18516050D01*
X12323719Y-18506526D01*
X12361814Y-18506526D01*
X12380862Y-18516050D01*
X12390386Y-18525574D01*
X12399909Y-18544621D01*
X12399909Y-18554145D01*
X12390386Y-18573193D01*
X12380862Y-18582717D01*
X12361814Y-18592240D01*
X12323719Y-18592240D01*
X12304671Y-18601764D01*
X12295148Y-18611288D01*
X12285624Y-18630336D01*
X12285624Y-18668431D01*
X12295148Y-18687479D01*
X12304671Y-18697002D01*
X12323719Y-18706526D01*
X12361814Y-18706526D01*
X12380862Y-18697002D01*
X12390386Y-18687479D01*
X12399909Y-18668431D01*
X12399909Y-18630336D01*
X12390386Y-18611288D01*
X12380862Y-18601764D01*
X12361814Y-18592240D01*
X12466576Y-18506526D02*
X12599909Y-18506526D01*
X12514195Y-18706526D01*
X12666576Y-18506526D02*
X12666576Y-18544621D01*
X12742767Y-18506526D02*
X12742767Y-18544621D01*
X13038005Y-18782717D02*
X13028481Y-18773193D01*
X13009433Y-18744621D01*
X12999909Y-18725574D01*
X12990386Y-18697002D01*
X12980862Y-18649383D01*
X12980862Y-18611288D01*
X12990386Y-18563669D01*
X12999909Y-18535098D01*
X13009433Y-18516050D01*
X13028481Y-18487479D01*
X13038005Y-18477955D01*
X13104671Y-18525574D02*
X13114195Y-18516050D01*
X13133243Y-18506526D01*
X13180862Y-18506526D01*
X13199909Y-18516050D01*
X13209433Y-18525574D01*
X13218957Y-18544621D01*
X13218957Y-18563669D01*
X13209433Y-18592240D01*
X13095148Y-18706526D01*
X13218957Y-18706526D01*
X13457052Y-18706526D02*
X13457052Y-18506526D01*
X13542767Y-18706526D02*
X13542767Y-18601764D01*
X13533243Y-18582717D01*
X13514195Y-18573193D01*
X13485624Y-18573193D01*
X13466576Y-18582717D01*
X13457052Y-18592240D01*
X13666576Y-18706526D02*
X13647528Y-18697002D01*
X13638005Y-18687479D01*
X13628481Y-18668431D01*
X13628481Y-18611288D01*
X13638005Y-18592240D01*
X13647528Y-18582717D01*
X13666576Y-18573193D01*
X13695148Y-18573193D01*
X13714195Y-18582717D01*
X13723719Y-18592240D01*
X13733243Y-18611288D01*
X13733243Y-18668431D01*
X13723719Y-18687479D01*
X13714195Y-18697002D01*
X13695148Y-18706526D01*
X13666576Y-18706526D01*
X13847528Y-18706526D02*
X13828481Y-18697002D01*
X13818957Y-18677955D01*
X13818957Y-18506526D01*
X13999909Y-18697002D02*
X13980862Y-18706526D01*
X13942767Y-18706526D01*
X13923719Y-18697002D01*
X13914195Y-18677955D01*
X13914195Y-18601764D01*
X13923719Y-18582717D01*
X13942767Y-18573193D01*
X13980862Y-18573193D01*
X13999909Y-18582717D01*
X14009433Y-18601764D01*
X14009433Y-18620812D01*
X13914195Y-18639860D01*
X14085624Y-18697002D02*
X14104671Y-18706526D01*
X14142767Y-18706526D01*
X14161814Y-18697002D01*
X14171338Y-18677955D01*
X14171338Y-18668431D01*
X14161814Y-18649383D01*
X14142767Y-18639860D01*
X14114195Y-18639860D01*
X14095148Y-18630336D01*
X14085624Y-18611288D01*
X14085624Y-18601764D01*
X14095148Y-18582717D01*
X14114195Y-18573193D01*
X14142767Y-18573193D01*
X14161814Y-18582717D01*
X14238005Y-18782717D02*
X14247528Y-18773193D01*
X14266576Y-18744621D01*
X14276100Y-18725574D01*
X14285624Y-18697002D01*
X14295148Y-18649383D01*
X14295148Y-18611288D01*
X14285624Y-18563669D01*
X14276100Y-18535098D01*
X14266576Y-18516050D01*
X14247528Y-18487479D01*
X14238005Y-18477955D01*
M02*
