%TF.GenerationSoftware,KiCad,Pcbnew,(6.0.9)*%
%TF.CreationDate,2022-11-22T23:00:27+01:00*%
%TF.ProjectId,Testapparaat,54657374-6170-4706-9172-6161742e6b69,rev?*%
%TF.SameCoordinates,Original*%
%TF.FileFunction,Drillmap*%
%TF.FilePolarity,Positive*%
%FSLAX45Y45*%
G04 Gerber Fmt 4.5, Leading zero omitted, Abs format (unit mm)*
G04 Created by KiCad (PCBNEW (6.0.9)) date 2022-11-22 23:00:27*
%MOMM*%
%LPD*%
G01*
G04 APERTURE LIST*
%ADD10C,0.100000*%
%ADD11C,0.200000*%
%ADD12C,0.320000*%
G04 APERTURE END LIST*
D10*
X12114700Y-6487550D02*
X13167200Y-6487550D01*
X13167200Y-6487550D02*
X13167200Y-9192550D01*
X13167200Y-9192550D02*
X12114700Y-9192550D01*
X12114700Y-9192550D02*
X12114700Y-6487550D01*
X18344700Y-2430050D02*
X9474700Y-2430050D01*
X18348750Y-3032125D02*
X18344700Y-2430050D01*
X9474700Y-16645050D02*
X22153300Y-16635450D01*
X9474700Y-2430050D02*
X9471100Y-3029650D01*
X9496100Y-14954650D02*
X9474700Y-16645050D01*
X23279100Y-14945050D02*
X23257700Y-16635450D01*
X18341100Y-11964650D02*
X22174700Y-11945050D01*
X18341100Y-11964650D02*
X18348750Y-3032125D01*
X22174700Y-11945050D02*
X23279100Y-11945050D01*
X22153300Y-16635450D02*
X23257700Y-16635450D01*
X23279100Y-12145050D02*
X23279100Y-11945050D01*
X9471100Y-3029650D02*
X9491100Y-7559650D01*
X9491100Y-7559650D02*
X9496100Y-14954650D01*
X23279100Y-14945050D02*
X23279100Y-12145050D01*
D11*
D12*
X9634700Y-2655050D02*
X9954700Y-2975050D01*
X9954700Y-2655050D02*
X9634700Y-2975050D01*
X9709700Y-16115050D02*
X10029700Y-16435050D01*
X10029700Y-16115050D02*
X9709700Y-16435050D01*
X15402200Y-16142550D02*
X15722200Y-16462550D01*
X15722200Y-16142550D02*
X15402200Y-16462550D01*
X16024700Y-2637550D02*
X16344700Y-2957550D01*
X16344700Y-2637550D02*
X16024700Y-2957550D01*
X17602200Y-11457550D02*
X17922200Y-11777550D01*
X17922200Y-11457550D02*
X17602200Y-11777550D01*
X22664700Y-16097550D02*
X22984700Y-16417550D01*
X22984700Y-16097550D02*
X22664700Y-16417550D01*
X22704700Y-12187550D02*
X23024700Y-12507550D01*
X23024700Y-12187550D02*
X22704700Y-12507550D01*
D11*
X9723719Y-16960526D02*
X9723719Y-16760526D01*
X9771338Y-16760526D01*
X9799910Y-16770050D01*
X9818957Y-16789098D01*
X9828481Y-16808145D01*
X9838005Y-16846240D01*
X9838005Y-16874812D01*
X9828481Y-16912907D01*
X9818957Y-16931955D01*
X9799910Y-16951002D01*
X9771338Y-16960526D01*
X9723719Y-16960526D01*
X9923719Y-16960526D02*
X9923719Y-16827193D01*
X9923719Y-16865288D02*
X9933243Y-16846240D01*
X9942767Y-16836717D01*
X9961814Y-16827193D01*
X9980862Y-16827193D01*
X10047529Y-16960526D02*
X10047529Y-16827193D01*
X10047529Y-16760526D02*
X10038005Y-16770050D01*
X10047529Y-16779574D01*
X10057052Y-16770050D01*
X10047529Y-16760526D01*
X10047529Y-16779574D01*
X10171338Y-16960526D02*
X10152290Y-16951002D01*
X10142767Y-16931955D01*
X10142767Y-16760526D01*
X10276100Y-16960526D02*
X10257052Y-16951002D01*
X10247529Y-16931955D01*
X10247529Y-16760526D01*
X10504671Y-16960526D02*
X10504671Y-16760526D01*
X10571338Y-16903383D01*
X10638005Y-16760526D01*
X10638005Y-16960526D01*
X10818957Y-16960526D02*
X10818957Y-16855764D01*
X10809433Y-16836717D01*
X10790386Y-16827193D01*
X10752290Y-16827193D01*
X10733243Y-16836717D01*
X10818957Y-16951002D02*
X10799910Y-16960526D01*
X10752290Y-16960526D01*
X10733243Y-16951002D01*
X10723719Y-16931955D01*
X10723719Y-16912907D01*
X10733243Y-16893860D01*
X10752290Y-16884336D01*
X10799910Y-16884336D01*
X10818957Y-16874812D01*
X10914195Y-16827193D02*
X10914195Y-17027193D01*
X10914195Y-16836717D02*
X10933243Y-16827193D01*
X10971338Y-16827193D01*
X10990386Y-16836717D01*
X10999910Y-16846240D01*
X11009433Y-16865288D01*
X11009433Y-16922431D01*
X10999910Y-16941479D01*
X10990386Y-16951002D01*
X10971338Y-16960526D01*
X10933243Y-16960526D01*
X10914195Y-16951002D01*
X11095148Y-16941479D02*
X11104671Y-16951002D01*
X11095148Y-16960526D01*
X11085624Y-16951002D01*
X11095148Y-16941479D01*
X11095148Y-16960526D01*
X11095148Y-16836717D02*
X11104671Y-16846240D01*
X11095148Y-16855764D01*
X11085624Y-16846240D01*
X11095148Y-16836717D01*
X11095148Y-16855764D01*
X9266100Y-17190050D02*
X9466100Y-17390050D01*
X9466100Y-17190050D02*
X9266100Y-17390050D01*
X9704671Y-17180526D02*
X9828481Y-17180526D01*
X9761814Y-17256717D01*
X9790386Y-17256717D01*
X9809433Y-17266240D01*
X9818957Y-17275764D01*
X9828481Y-17294812D01*
X9828481Y-17342431D01*
X9818957Y-17361479D01*
X9809433Y-17371002D01*
X9790386Y-17380526D01*
X9733243Y-17380526D01*
X9714195Y-17371002D01*
X9704671Y-17361479D01*
X9914195Y-17361479D02*
X9923719Y-17371002D01*
X9914195Y-17380526D01*
X9904671Y-17371002D01*
X9914195Y-17361479D01*
X9914195Y-17380526D01*
X9999910Y-17199574D02*
X10009433Y-17190050D01*
X10028481Y-17180526D01*
X10076100Y-17180526D01*
X10095148Y-17190050D01*
X10104671Y-17199574D01*
X10114195Y-17218621D01*
X10114195Y-17237669D01*
X10104671Y-17266240D01*
X9990386Y-17380526D01*
X10114195Y-17380526D01*
X10238005Y-17180526D02*
X10257052Y-17180526D01*
X10276100Y-17190050D01*
X10285624Y-17199574D01*
X10295148Y-17218621D01*
X10304671Y-17256717D01*
X10304671Y-17304336D01*
X10295148Y-17342431D01*
X10285624Y-17361479D01*
X10276100Y-17371002D01*
X10257052Y-17380526D01*
X10238005Y-17380526D01*
X10218957Y-17371002D01*
X10209433Y-17361479D01*
X10199910Y-17342431D01*
X10190386Y-17304336D01*
X10190386Y-17256717D01*
X10199910Y-17218621D01*
X10209433Y-17199574D01*
X10218957Y-17190050D01*
X10238005Y-17180526D01*
X10428481Y-17180526D02*
X10447529Y-17180526D01*
X10466576Y-17190050D01*
X10476100Y-17199574D01*
X10485624Y-17218621D01*
X10495148Y-17256717D01*
X10495148Y-17304336D01*
X10485624Y-17342431D01*
X10476100Y-17361479D01*
X10466576Y-17371002D01*
X10447529Y-17380526D01*
X10428481Y-17380526D01*
X10409433Y-17371002D01*
X10399910Y-17361479D01*
X10390386Y-17342431D01*
X10380862Y-17304336D01*
X10380862Y-17256717D01*
X10390386Y-17218621D01*
X10399910Y-17199574D01*
X10409433Y-17190050D01*
X10428481Y-17180526D01*
X10580862Y-17380526D02*
X10580862Y-17247193D01*
X10580862Y-17266240D02*
X10590386Y-17256717D01*
X10609433Y-17247193D01*
X10638005Y-17247193D01*
X10657052Y-17256717D01*
X10666576Y-17275764D01*
X10666576Y-17380526D01*
X10666576Y-17275764D02*
X10676100Y-17256717D01*
X10695148Y-17247193D01*
X10723719Y-17247193D01*
X10742767Y-17256717D01*
X10752290Y-17275764D01*
X10752290Y-17380526D01*
X10847529Y-17380526D02*
X10847529Y-17247193D01*
X10847529Y-17266240D02*
X10857052Y-17256717D01*
X10876100Y-17247193D01*
X10904671Y-17247193D01*
X10923719Y-17256717D01*
X10933243Y-17275764D01*
X10933243Y-17380526D01*
X10933243Y-17275764D02*
X10942767Y-17256717D01*
X10961814Y-17247193D01*
X10990386Y-17247193D01*
X11009433Y-17256717D01*
X11018957Y-17275764D01*
X11018957Y-17380526D01*
X11409433Y-17171002D02*
X11238005Y-17428145D01*
X11666576Y-17180526D02*
X11685624Y-17180526D01*
X11704671Y-17190050D01*
X11714195Y-17199574D01*
X11723719Y-17218621D01*
X11733243Y-17256717D01*
X11733243Y-17304336D01*
X11723719Y-17342431D01*
X11714195Y-17361479D01*
X11704671Y-17371002D01*
X11685624Y-17380526D01*
X11666576Y-17380526D01*
X11647528Y-17371002D01*
X11638005Y-17361479D01*
X11628481Y-17342431D01*
X11618957Y-17304336D01*
X11618957Y-17256717D01*
X11628481Y-17218621D01*
X11638005Y-17199574D01*
X11647528Y-17190050D01*
X11666576Y-17180526D01*
X11818957Y-17361479D02*
X11828481Y-17371002D01*
X11818957Y-17380526D01*
X11809433Y-17371002D01*
X11818957Y-17361479D01*
X11818957Y-17380526D01*
X12018957Y-17380526D02*
X11904671Y-17380526D01*
X11961814Y-17380526D02*
X11961814Y-17180526D01*
X11942767Y-17209098D01*
X11923719Y-17228145D01*
X11904671Y-17237669D01*
X12095148Y-17199574D02*
X12104671Y-17190050D01*
X12123719Y-17180526D01*
X12171338Y-17180526D01*
X12190386Y-17190050D01*
X12199909Y-17199574D01*
X12209433Y-17218621D01*
X12209433Y-17237669D01*
X12199909Y-17266240D01*
X12085624Y-17380526D01*
X12209433Y-17380526D01*
X12380862Y-17180526D02*
X12342767Y-17180526D01*
X12323719Y-17190050D01*
X12314195Y-17199574D01*
X12295148Y-17228145D01*
X12285624Y-17266240D01*
X12285624Y-17342431D01*
X12295148Y-17361479D01*
X12304671Y-17371002D01*
X12323719Y-17380526D01*
X12361814Y-17380526D01*
X12380862Y-17371002D01*
X12390386Y-17361479D01*
X12399909Y-17342431D01*
X12399909Y-17294812D01*
X12390386Y-17275764D01*
X12380862Y-17266240D01*
X12361814Y-17256717D01*
X12323719Y-17256717D01*
X12304671Y-17266240D01*
X12295148Y-17275764D01*
X12285624Y-17294812D01*
X12523719Y-17180526D02*
X12542767Y-17180526D01*
X12561814Y-17190050D01*
X12571338Y-17199574D01*
X12580862Y-17218621D01*
X12590386Y-17256717D01*
X12590386Y-17304336D01*
X12580862Y-17342431D01*
X12571338Y-17361479D01*
X12561814Y-17371002D01*
X12542767Y-17380526D01*
X12523719Y-17380526D01*
X12504671Y-17371002D01*
X12495148Y-17361479D01*
X12485624Y-17342431D01*
X12476100Y-17304336D01*
X12476100Y-17256717D01*
X12485624Y-17218621D01*
X12495148Y-17199574D01*
X12504671Y-17190050D01*
X12523719Y-17180526D01*
X12666576Y-17180526D02*
X12666576Y-17218621D01*
X12742767Y-17180526D02*
X12742767Y-17218621D01*
X13038005Y-17456717D02*
X13028481Y-17447193D01*
X13009433Y-17418621D01*
X12999909Y-17399574D01*
X12990386Y-17371002D01*
X12980862Y-17323383D01*
X12980862Y-17285288D01*
X12990386Y-17237669D01*
X12999909Y-17209098D01*
X13009433Y-17190050D01*
X13028481Y-17161479D01*
X13038005Y-17151955D01*
X13095148Y-17180526D02*
X13228481Y-17180526D01*
X13142767Y-17380526D01*
X13457052Y-17380526D02*
X13457052Y-17180526D01*
X13542767Y-17380526D02*
X13542767Y-17275764D01*
X13533243Y-17256717D01*
X13514195Y-17247193D01*
X13485624Y-17247193D01*
X13466576Y-17256717D01*
X13457052Y-17266240D01*
X13666576Y-17380526D02*
X13647528Y-17371002D01*
X13638005Y-17361479D01*
X13628481Y-17342431D01*
X13628481Y-17285288D01*
X13638005Y-17266240D01*
X13647528Y-17256717D01*
X13666576Y-17247193D01*
X13695148Y-17247193D01*
X13714195Y-17256717D01*
X13723719Y-17266240D01*
X13733243Y-17285288D01*
X13733243Y-17342431D01*
X13723719Y-17361479D01*
X13714195Y-17371002D01*
X13695148Y-17380526D01*
X13666576Y-17380526D01*
X13847528Y-17380526D02*
X13828481Y-17371002D01*
X13818957Y-17351955D01*
X13818957Y-17180526D01*
X13999909Y-17371002D02*
X13980862Y-17380526D01*
X13942767Y-17380526D01*
X13923719Y-17371002D01*
X13914195Y-17351955D01*
X13914195Y-17275764D01*
X13923719Y-17256717D01*
X13942767Y-17247193D01*
X13980862Y-17247193D01*
X13999909Y-17256717D01*
X14009433Y-17275764D01*
X14009433Y-17294812D01*
X13914195Y-17313860D01*
X14085624Y-17371002D02*
X14104671Y-17380526D01*
X14142767Y-17380526D01*
X14161814Y-17371002D01*
X14171338Y-17351955D01*
X14171338Y-17342431D01*
X14161814Y-17323383D01*
X14142767Y-17313860D01*
X14114195Y-17313860D01*
X14095148Y-17304336D01*
X14085624Y-17285288D01*
X14085624Y-17275764D01*
X14095148Y-17256717D01*
X14114195Y-17247193D01*
X14142767Y-17247193D01*
X14161814Y-17256717D01*
X14238005Y-17456717D02*
X14247528Y-17447193D01*
X14266576Y-17418621D01*
X14276100Y-17399574D01*
X14285624Y-17371002D01*
X14295148Y-17323383D01*
X14295148Y-17285288D01*
X14285624Y-17237669D01*
X14276100Y-17209098D01*
X14266576Y-17190050D01*
X14247528Y-17161479D01*
X14238005Y-17151955D01*
X14599909Y-17456717D02*
X14590386Y-17447193D01*
X14571338Y-17418621D01*
X14561814Y-17399574D01*
X14552290Y-17371002D01*
X14542767Y-17323383D01*
X14542767Y-17285288D01*
X14552290Y-17237669D01*
X14561814Y-17209098D01*
X14571338Y-17190050D01*
X14590386Y-17161479D01*
X14599909Y-17151955D01*
X14676100Y-17247193D02*
X14676100Y-17380526D01*
X14676100Y-17266240D02*
X14685624Y-17256717D01*
X14704671Y-17247193D01*
X14733243Y-17247193D01*
X14752290Y-17256717D01*
X14761814Y-17275764D01*
X14761814Y-17380526D01*
X14885624Y-17380526D02*
X14866576Y-17371002D01*
X14857052Y-17361479D01*
X14847528Y-17342431D01*
X14847528Y-17285288D01*
X14857052Y-17266240D01*
X14866576Y-17256717D01*
X14885624Y-17247193D01*
X14914195Y-17247193D01*
X14933243Y-17256717D01*
X14942767Y-17266240D01*
X14952290Y-17285288D01*
X14952290Y-17342431D01*
X14942767Y-17361479D01*
X14933243Y-17371002D01*
X14914195Y-17380526D01*
X14885624Y-17380526D01*
X15009433Y-17247193D02*
X15085624Y-17247193D01*
X15038005Y-17180526D02*
X15038005Y-17351955D01*
X15047528Y-17371002D01*
X15066576Y-17380526D01*
X15085624Y-17380526D01*
X15304671Y-17247193D02*
X15304671Y-17447193D01*
X15304671Y-17256717D02*
X15323719Y-17247193D01*
X15361814Y-17247193D01*
X15380862Y-17256717D01*
X15390386Y-17266240D01*
X15399909Y-17285288D01*
X15399909Y-17342431D01*
X15390386Y-17361479D01*
X15380862Y-17371002D01*
X15361814Y-17380526D01*
X15323719Y-17380526D01*
X15304671Y-17371002D01*
X15514195Y-17380526D02*
X15495148Y-17371002D01*
X15485624Y-17351955D01*
X15485624Y-17180526D01*
X15676100Y-17380526D02*
X15676100Y-17275764D01*
X15666576Y-17256717D01*
X15647528Y-17247193D01*
X15609433Y-17247193D01*
X15590386Y-17256717D01*
X15676100Y-17371002D02*
X15657052Y-17380526D01*
X15609433Y-17380526D01*
X15590386Y-17371002D01*
X15580862Y-17351955D01*
X15580862Y-17332907D01*
X15590386Y-17313860D01*
X15609433Y-17304336D01*
X15657052Y-17304336D01*
X15676100Y-17294812D01*
X15742767Y-17247193D02*
X15818957Y-17247193D01*
X15771338Y-17180526D02*
X15771338Y-17351955D01*
X15780862Y-17371002D01*
X15799909Y-17380526D01*
X15818957Y-17380526D01*
X15961814Y-17371002D02*
X15942767Y-17380526D01*
X15904671Y-17380526D01*
X15885624Y-17371002D01*
X15876100Y-17351955D01*
X15876100Y-17275764D01*
X15885624Y-17256717D01*
X15904671Y-17247193D01*
X15942767Y-17247193D01*
X15961814Y-17256717D01*
X15971338Y-17275764D01*
X15971338Y-17294812D01*
X15876100Y-17313860D01*
X16142767Y-17380526D02*
X16142767Y-17180526D01*
X16142767Y-17371002D02*
X16123719Y-17380526D01*
X16085624Y-17380526D01*
X16066576Y-17371002D01*
X16057052Y-17361479D01*
X16047528Y-17342431D01*
X16047528Y-17285288D01*
X16057052Y-17266240D01*
X16066576Y-17256717D01*
X16085624Y-17247193D01*
X16123719Y-17247193D01*
X16142767Y-17256717D01*
X16218957Y-17456717D02*
X16228481Y-17447193D01*
X16247528Y-17418621D01*
X16257052Y-17399574D01*
X16266576Y-17371002D01*
X16276100Y-17323383D01*
X16276100Y-17285288D01*
X16266576Y-17237669D01*
X16257052Y-17209098D01*
X16247528Y-17190050D01*
X16228481Y-17161479D01*
X16218957Y-17151955D01*
M02*
