%TF.GenerationSoftware,KiCad,Pcbnew,(6.0.9)*%
%TF.CreationDate,2022-11-23T00:30:26+01:00*%
%TF.ProjectId,Testapparaat,54657374-6170-4706-9172-6161742e6b69,rev?*%
%TF.SameCoordinates,Original*%
%TF.FileFunction,Legend,Bot*%
%TF.FilePolarity,Positive*%
%FSLAX46Y46*%
G04 Gerber Fmt 4.6, Leading zero omitted, Abs format (unit mm)*
G04 Created by KiCad (PCBNEW (6.0.9)) date 2022-11-23 00:30:26*
%MOMM*%
%LPD*%
G01*
G04 APERTURE LIST*
G04 Aperture macros list*
%AMRoundRect*
0 Rectangle with rounded corners*
0 $1 Rounding radius*
0 $2 $3 $4 $5 $6 $7 $8 $9 X,Y pos of 4 corners*
0 Add a 4 corners polygon primitive as box body*
4,1,4,$2,$3,$4,$5,$6,$7,$8,$9,$2,$3,0*
0 Add four circle primitives for the rounded corners*
1,1,$1+$1,$2,$3*
1,1,$1+$1,$4,$5*
1,1,$1+$1,$6,$7*
1,1,$1+$1,$8,$9*
0 Add four rect primitives between the rounded corners*
20,1,$1+$1,$2,$3,$4,$5,0*
20,1,$1+$1,$4,$5,$6,$7,0*
20,1,$1+$1,$6,$7,$8,$9,0*
20,1,$1+$1,$8,$9,$2,$3,0*%
G04 Aperture macros list end*
%ADD10C,0.150000*%
%ADD11C,0.100000*%
%ADD12C,0.300000*%
%ADD13C,0.254000*%
%ADD14C,0.120000*%
%ADD15C,0.200000*%
%ADD16C,3.200000*%
%ADD17O,2.500000X1.500000*%
%ADD18R,2.500000X1.500000*%
%ADD19O,3.500000X2.200000*%
%ADD20C,1.600000*%
%ADD21C,3.000000*%
%ADD22R,1.700000X1.700000*%
%ADD23O,1.700000X1.700000*%
%ADD24O,2.000000X4.000000*%
%ADD25O,4.000000X2.000000*%
%ADD26R,3.500000X1.800000*%
%ADD27RoundRect,0.237500X-0.237500X0.300000X-0.237500X-0.300000X0.237500X-0.300000X0.237500X0.300000X0*%
%ADD28RoundRect,0.150000X0.587500X0.150000X-0.587500X0.150000X-0.587500X-0.150000X0.587500X-0.150000X0*%
%ADD29R,5.400000X2.900000*%
%ADD30RoundRect,0.237500X0.250000X0.237500X-0.250000X0.237500X-0.250000X-0.237500X0.250000X-0.237500X0*%
%ADD31R,0.800000X1.750000*%
%ADD32R,0.700000X1.750000*%
%ADD33R,1.750000X0.800000*%
%ADD34R,1.750000X0.700000*%
%ADD35RoundRect,0.237500X-0.250000X-0.237500X0.250000X-0.237500X0.250000X0.237500X-0.250000X0.237500X0*%
%ADD36R,0.900000X2.000000*%
%ADD37R,2.000000X0.900000*%
%ADD38R,5.000000X5.000000*%
%ADD39R,1.100000X4.600000*%
%ADD40R,10.800000X9.400000*%
%ADD41RoundRect,0.237500X-0.300000X-0.237500X0.300000X-0.237500X0.300000X0.237500X-0.300000X0.237500X0*%
%ADD42R,0.450000X1.475000*%
%ADD43C,2.300000*%
%ADD44R,3.150000X1.000000*%
%ADD45RoundRect,0.237500X0.300000X0.237500X-0.300000X0.237500X-0.300000X-0.237500X0.300000X-0.237500X0*%
%ADD46RoundRect,0.150000X-0.587500X-0.150000X0.587500X-0.150000X0.587500X0.150000X-0.587500X0.150000X0*%
%ADD47RoundRect,0.237500X-0.237500X0.250000X-0.237500X-0.250000X0.237500X-0.250000X0.237500X0.250000X0*%
%ADD48R,1.550000X1.300000*%
G04 APERTURE END LIST*
D10*
X168772000Y-75180500D02*
X164042000Y-75180500D01*
X101857000Y-110730500D02*
X101867000Y-101590500D01*
X174697000Y-102275500D02*
X169034500Y-102275500D01*
X174672000Y-89825500D02*
X169047000Y-89825500D01*
X174697000Y-107800500D02*
X168997000Y-107800500D01*
X174709500Y-97200500D02*
X169034500Y-97200500D01*
X168817000Y-71590500D02*
X164087000Y-71590500D01*
X174697000Y-92300500D02*
X169022000Y-92313000D01*
X174672000Y-84850500D02*
X169047000Y-84850500D01*
X174647000Y-87225500D02*
X169047000Y-87225500D01*
X101897000Y-106100500D02*
X108017000Y-106100500D01*
X169022000Y-76825500D02*
X174672000Y-76825500D01*
X101867000Y-101590500D02*
X108057000Y-101590500D01*
X174697000Y-76750500D02*
X174697000Y-107750500D01*
X174709500Y-94925500D02*
X169034500Y-94925500D01*
X108057000Y-101590500D02*
X108047000Y-101830500D01*
X101937000Y-108390500D02*
X108057000Y-108390500D01*
X171872000Y-76800500D02*
X171847000Y-107775500D01*
X166467000Y-68030500D02*
X166472000Y-79050500D01*
X101877000Y-110740500D02*
X107997000Y-110740500D01*
X174634500Y-99650500D02*
X169009500Y-99650500D01*
X164047000Y-68030500D02*
X168817000Y-68030500D01*
X168817000Y-68030500D02*
X168817000Y-79050500D01*
X168817000Y-79050500D02*
X164047000Y-79050500D01*
X164047000Y-79050500D02*
X164047000Y-68030500D01*
X168797000Y-69810500D02*
X164067000Y-69810500D01*
X168767000Y-77000500D02*
X164037000Y-77000500D01*
X168787000Y-73310500D02*
X164057000Y-73310500D01*
X168997000Y-107800500D02*
X169047000Y-76825500D01*
X105047000Y-110750500D02*
X105047000Y-101600500D01*
X174709500Y-105075500D02*
X169034500Y-105075500D01*
X108047000Y-101800500D02*
X108047000Y-110700500D01*
X174697000Y-82400500D02*
X169072000Y-82400500D01*
X174647000Y-80000500D02*
X169072000Y-79975500D01*
X101887000Y-103850500D02*
X108007000Y-103850500D01*
X170235095Y-98777880D02*
X170758904Y-98111214D01*
X170235095Y-98111214D02*
X170758904Y-98777880D01*
X171157714Y-88025500D02*
X171243428Y-87982642D01*
X171372000Y-87982642D01*
X171500571Y-88025500D01*
X171586285Y-88111214D01*
X171629142Y-88196928D01*
X171672000Y-88368357D01*
X171672000Y-88496928D01*
X171629142Y-88668357D01*
X171586285Y-88754071D01*
X171500571Y-88839785D01*
X171372000Y-88882642D01*
X171286285Y-88882642D01*
X171157714Y-88839785D01*
X171114857Y-88796928D01*
X171114857Y-88496928D01*
X171286285Y-88496928D01*
X170729142Y-88882642D02*
X170729142Y-87982642D01*
X170214857Y-88882642D01*
X170214857Y-87982642D01*
X169786285Y-88882642D02*
X169786285Y-87982642D01*
X169572000Y-87982642D01*
X169443428Y-88025500D01*
X169357714Y-88111214D01*
X169314857Y-88196928D01*
X169272000Y-88368357D01*
X169272000Y-88496928D01*
X169314857Y-88668357D01*
X169357714Y-88754071D01*
X169443428Y-88839785D01*
X169572000Y-88882642D01*
X169786285Y-88882642D01*
X170160095Y-101002880D02*
X170683904Y-100336214D01*
X170160095Y-100336214D02*
X170683904Y-101002880D01*
X182085095Y-62702880D02*
X182085095Y-61702880D01*
X181751761Y-62417166D01*
X181418428Y-61702880D01*
X181418428Y-62702880D01*
X180799380Y-62702880D02*
X180894619Y-62655261D01*
X180942238Y-62607642D01*
X180989857Y-62512404D01*
X180989857Y-62226690D01*
X180942238Y-62131452D01*
X180894619Y-62083833D01*
X180799380Y-62036214D01*
X180656523Y-62036214D01*
X180561285Y-62083833D01*
X180513666Y-62131452D01*
X180466047Y-62226690D01*
X180466047Y-62512404D01*
X180513666Y-62607642D01*
X180561285Y-62655261D01*
X180656523Y-62702880D01*
X180799380Y-62702880D01*
X179608904Y-62702880D02*
X179608904Y-61702880D01*
X179608904Y-62655261D02*
X179704142Y-62702880D01*
X179894619Y-62702880D01*
X179989857Y-62655261D01*
X180037476Y-62607642D01*
X180085095Y-62512404D01*
X180085095Y-62226690D01*
X180037476Y-62131452D01*
X179989857Y-62083833D01*
X179894619Y-62036214D01*
X179704142Y-62036214D01*
X179608904Y-62083833D01*
X178704142Y-62036214D02*
X178704142Y-62702880D01*
X179132714Y-62036214D02*
X179132714Y-62560023D01*
X179085095Y-62655261D01*
X178989857Y-62702880D01*
X178847000Y-62702880D01*
X178751761Y-62655261D01*
X178704142Y-62607642D01*
X178085095Y-62702880D02*
X178180333Y-62655261D01*
X178227952Y-62560023D01*
X178227952Y-61702880D01*
X177323190Y-62655261D02*
X177418428Y-62702880D01*
X177608904Y-62702880D01*
X177704142Y-62655261D01*
X177751761Y-62560023D01*
X177751761Y-62179071D01*
X177704142Y-62083833D01*
X177608904Y-62036214D01*
X177418428Y-62036214D01*
X177323190Y-62083833D01*
X177275571Y-62179071D01*
X177275571Y-62274309D01*
X177751761Y-62369547D01*
X175561285Y-62702880D02*
X176132714Y-62702880D01*
X175847000Y-62702880D02*
X175847000Y-61702880D01*
X175942238Y-61845738D01*
X176037476Y-61940976D01*
X176132714Y-61988595D01*
X166284619Y-72062404D02*
X165827476Y-72062404D01*
X166056047Y-72862404D02*
X166056047Y-72062404D01*
X165560809Y-72862404D02*
X165560809Y-72062404D01*
X165370333Y-72062404D01*
X165256047Y-72100500D01*
X165179857Y-72176690D01*
X165141761Y-72252880D01*
X165103666Y-72405261D01*
X165103666Y-72519547D01*
X165141761Y-72671928D01*
X165179857Y-72748119D01*
X165256047Y-72824309D01*
X165370333Y-72862404D01*
X165560809Y-72862404D01*
X164608428Y-72062404D02*
X164456047Y-72062404D01*
X164379857Y-72100500D01*
X164303666Y-72176690D01*
X164265571Y-72329071D01*
X164265571Y-72595738D01*
X164303666Y-72748119D01*
X164379857Y-72824309D01*
X164456047Y-72862404D01*
X164608428Y-72862404D01*
X164684619Y-72824309D01*
X164760809Y-72748119D01*
X164798904Y-72595738D01*
X164798904Y-72329071D01*
X164760809Y-72176690D01*
X164684619Y-72100500D01*
X164608428Y-72062404D01*
X174510095Y-103187404D02*
X174052952Y-103187404D01*
X174281523Y-103987404D02*
X174281523Y-103187404D01*
X173900571Y-103187404D02*
X173443428Y-103187404D01*
X173672000Y-103987404D02*
X173672000Y-103187404D01*
X172795809Y-103987404D02*
X173176761Y-103987404D01*
X173176761Y-103187404D01*
X172605333Y-103187404D02*
X172110095Y-103187404D01*
X172376761Y-103492166D01*
X172262476Y-103492166D01*
X172186285Y-103530261D01*
X172148190Y-103568357D01*
X172110095Y-103644547D01*
X172110095Y-103835023D01*
X172148190Y-103911214D01*
X172186285Y-103949309D01*
X172262476Y-103987404D01*
X172491047Y-103987404D01*
X172567238Y-103949309D01*
X172605333Y-103911214D01*
X166155095Y-68612404D02*
X165659857Y-68612404D01*
X165926523Y-68917166D01*
X165812238Y-68917166D01*
X165736047Y-68955261D01*
X165697952Y-68993357D01*
X165659857Y-69069547D01*
X165659857Y-69260023D01*
X165697952Y-69336214D01*
X165736047Y-69374309D01*
X165812238Y-69412404D01*
X166040809Y-69412404D01*
X166117000Y-69374309D01*
X166155095Y-69336214D01*
X165317000Y-69336214D02*
X165278904Y-69374309D01*
X165317000Y-69412404D01*
X165355095Y-69374309D01*
X165317000Y-69336214D01*
X165317000Y-69412404D01*
X165012238Y-68612404D02*
X164517000Y-68612404D01*
X164783666Y-68917166D01*
X164669380Y-68917166D01*
X164593190Y-68955261D01*
X164555095Y-68993357D01*
X164517000Y-69069547D01*
X164517000Y-69260023D01*
X164555095Y-69336214D01*
X164593190Y-69374309D01*
X164669380Y-69412404D01*
X164897952Y-69412404D01*
X164974142Y-69374309D01*
X165012238Y-69336214D01*
X173010095Y-84152880D02*
X173533904Y-83486214D01*
X173010095Y-83486214D02*
X173533904Y-84152880D01*
X155089857Y-26620500D02*
X155185095Y-26572880D01*
X155327952Y-26572880D01*
X155470809Y-26620500D01*
X155566047Y-26715738D01*
X155613666Y-26810976D01*
X155661285Y-27001452D01*
X155661285Y-27144309D01*
X155613666Y-27334785D01*
X155566047Y-27430023D01*
X155470809Y-27525261D01*
X155327952Y-27572880D01*
X155232714Y-27572880D01*
X155089857Y-27525261D01*
X155042238Y-27477642D01*
X155042238Y-27144309D01*
X155232714Y-27144309D01*
X154232714Y-27525261D02*
X154327952Y-27572880D01*
X154518428Y-27572880D01*
X154613666Y-27525261D01*
X154661285Y-27430023D01*
X154661285Y-27049071D01*
X154613666Y-26953833D01*
X154518428Y-26906214D01*
X154327952Y-26906214D01*
X154232714Y-26953833D01*
X154185095Y-27049071D01*
X154185095Y-27144309D01*
X154661285Y-27239547D01*
X153756523Y-27572880D02*
X153756523Y-26906214D01*
X153756523Y-27001452D02*
X153708904Y-26953833D01*
X153613666Y-26906214D01*
X153470809Y-26906214D01*
X153375571Y-26953833D01*
X153327952Y-27049071D01*
X153327952Y-27572880D01*
X153327952Y-27049071D02*
X153280333Y-26953833D01*
X153185095Y-26906214D01*
X153042238Y-26906214D01*
X152947000Y-26953833D01*
X152899380Y-27049071D01*
X152899380Y-27572880D01*
X151994619Y-27572880D02*
X151994619Y-27049071D01*
X152042238Y-26953833D01*
X152137476Y-26906214D01*
X152327952Y-26906214D01*
X152423190Y-26953833D01*
X151994619Y-27525261D02*
X152089857Y-27572880D01*
X152327952Y-27572880D01*
X152423190Y-27525261D01*
X152470809Y-27430023D01*
X152470809Y-27334785D01*
X152423190Y-27239547D01*
X152327952Y-27191928D01*
X152089857Y-27191928D01*
X151994619Y-27144309D01*
X151089857Y-27572880D02*
X151089857Y-27049071D01*
X151137476Y-26953833D01*
X151232714Y-26906214D01*
X151423190Y-26906214D01*
X151518428Y-26953833D01*
X151089857Y-27525261D02*
X151185095Y-27572880D01*
X151423190Y-27572880D01*
X151518428Y-27525261D01*
X151566047Y-27430023D01*
X151566047Y-27334785D01*
X151518428Y-27239547D01*
X151423190Y-27191928D01*
X151185095Y-27191928D01*
X151089857Y-27144309D01*
X150613666Y-27572880D02*
X150613666Y-26572880D01*
X150518428Y-27191928D02*
X150232714Y-27572880D01*
X150232714Y-26906214D02*
X150613666Y-27287166D01*
X149947000Y-26906214D02*
X149566047Y-26906214D01*
X149804142Y-26572880D02*
X149804142Y-27430023D01*
X149756523Y-27525261D01*
X149661285Y-27572880D01*
X149566047Y-27572880D01*
X148042238Y-27572880D02*
X148042238Y-26572880D01*
X148042238Y-27525261D02*
X148137476Y-27572880D01*
X148327952Y-27572880D01*
X148423190Y-27525261D01*
X148470809Y-27477642D01*
X148518428Y-27382404D01*
X148518428Y-27096690D01*
X148470809Y-27001452D01*
X148423190Y-26953833D01*
X148327952Y-26906214D01*
X148137476Y-26906214D01*
X148042238Y-26953833D01*
X147423190Y-27572880D02*
X147518428Y-27525261D01*
X147566047Y-27477642D01*
X147613666Y-27382404D01*
X147613666Y-27096690D01*
X147566047Y-27001452D01*
X147518428Y-26953833D01*
X147423190Y-26906214D01*
X147280333Y-26906214D01*
X147185095Y-26953833D01*
X147137476Y-27001452D01*
X147089857Y-27096690D01*
X147089857Y-27382404D01*
X147137476Y-27477642D01*
X147185095Y-27525261D01*
X147280333Y-27572880D01*
X147423190Y-27572880D01*
X146518428Y-27572880D02*
X146613666Y-27525261D01*
X146661285Y-27477642D01*
X146708904Y-27382404D01*
X146708904Y-27096690D01*
X146661285Y-27001452D01*
X146613666Y-26953833D01*
X146518428Y-26906214D01*
X146375571Y-26906214D01*
X146280333Y-26953833D01*
X146232714Y-27001452D01*
X146185095Y-27096690D01*
X146185095Y-27382404D01*
X146232714Y-27477642D01*
X146280333Y-27525261D01*
X146375571Y-27572880D01*
X146518428Y-27572880D01*
X145756523Y-27572880D02*
X145756523Y-26906214D01*
X145756523Y-27096690D02*
X145708904Y-27001452D01*
X145661285Y-26953833D01*
X145566047Y-26906214D01*
X145470809Y-26906214D01*
X145137476Y-27477642D02*
X145089857Y-27525261D01*
X145137476Y-27572880D01*
X145185095Y-27525261D01*
X145137476Y-27477642D01*
X145137476Y-27572880D01*
X145137476Y-26953833D02*
X145089857Y-27001452D01*
X145137476Y-27049071D01*
X145185095Y-27001452D01*
X145137476Y-26953833D01*
X145137476Y-27049071D01*
X143613666Y-26572880D02*
X143613666Y-27287166D01*
X143661285Y-27430023D01*
X143756523Y-27525261D01*
X143899380Y-27572880D01*
X143994619Y-27572880D01*
X142994619Y-27572880D02*
X143089857Y-27525261D01*
X143137476Y-27477642D01*
X143185095Y-27382404D01*
X143185095Y-27096690D01*
X143137476Y-27001452D01*
X143089857Y-26953833D01*
X142994619Y-26906214D01*
X142851761Y-26906214D01*
X142756523Y-26953833D01*
X142708904Y-27001452D01*
X142661285Y-27096690D01*
X142661285Y-27382404D01*
X142708904Y-27477642D01*
X142756523Y-27525261D01*
X142851761Y-27572880D01*
X142994619Y-27572880D01*
X142232714Y-27572880D02*
X142232714Y-26906214D01*
X142232714Y-27096690D02*
X142185095Y-27001452D01*
X142137476Y-26953833D01*
X142042238Y-26906214D01*
X141947000Y-26906214D01*
X141185095Y-27572880D02*
X141185095Y-26572880D01*
X141185095Y-27525261D02*
X141280333Y-27572880D01*
X141470809Y-27572880D01*
X141566047Y-27525261D01*
X141613666Y-27477642D01*
X141661285Y-27382404D01*
X141661285Y-27096690D01*
X141613666Y-27001452D01*
X141566047Y-26953833D01*
X141470809Y-26906214D01*
X141280333Y-26906214D01*
X141185095Y-26953833D01*
X140708904Y-27572880D02*
X140708904Y-26906214D01*
X140708904Y-26572880D02*
X140756523Y-26620500D01*
X140708904Y-26668119D01*
X140661285Y-26620500D01*
X140708904Y-26572880D01*
X140708904Y-26668119D01*
X139518428Y-27287166D02*
X139042238Y-27287166D01*
X139613666Y-27572880D02*
X139280333Y-26572880D01*
X138947000Y-27572880D01*
X138185095Y-27572880D02*
X138185095Y-27049071D01*
X138232714Y-26953833D01*
X138327952Y-26906214D01*
X138518428Y-26906214D01*
X138613666Y-26953833D01*
X138185095Y-27525261D02*
X138280333Y-27572880D01*
X138518428Y-27572880D01*
X138613666Y-27525261D01*
X138661285Y-27430023D01*
X138661285Y-27334785D01*
X138613666Y-27239547D01*
X138518428Y-27191928D01*
X138280333Y-27191928D01*
X138185095Y-27144309D01*
X137566047Y-27572880D02*
X137661285Y-27525261D01*
X137708904Y-27430023D01*
X137708904Y-26572880D01*
X137185095Y-27572880D02*
X137185095Y-26572880D01*
X137185095Y-26953833D02*
X137089857Y-26906214D01*
X136899380Y-26906214D01*
X136804142Y-26953833D01*
X136756523Y-27001452D01*
X136708904Y-27096690D01*
X136708904Y-27382404D01*
X136756523Y-27477642D01*
X136804142Y-27525261D01*
X136899380Y-27572880D01*
X137089857Y-27572880D01*
X137185095Y-27525261D01*
X135899380Y-27525261D02*
X135994619Y-27572880D01*
X136185095Y-27572880D01*
X136280333Y-27525261D01*
X136327952Y-27430023D01*
X136327952Y-27049071D01*
X136280333Y-26953833D01*
X136185095Y-26906214D01*
X135994619Y-26906214D01*
X135899380Y-26953833D01*
X135851761Y-27049071D01*
X135851761Y-27144309D01*
X136327952Y-27239547D01*
X135423190Y-27572880D02*
X135423190Y-26906214D01*
X135423190Y-27096690D02*
X135375571Y-27001452D01*
X135327952Y-26953833D01*
X135232714Y-26906214D01*
X135137476Y-26906214D01*
X134851761Y-27525261D02*
X134756523Y-27572880D01*
X134566047Y-27572880D01*
X134470809Y-27525261D01*
X134423190Y-27430023D01*
X134423190Y-27382404D01*
X134470809Y-27287166D01*
X134566047Y-27239547D01*
X134708904Y-27239547D01*
X134804142Y-27191928D01*
X134851761Y-27096690D01*
X134851761Y-27049071D01*
X134804142Y-26953833D01*
X134708904Y-26906214D01*
X134566047Y-26906214D01*
X134470809Y-26953833D01*
X133947000Y-27525261D02*
X133947000Y-27572880D01*
X133994619Y-27668119D01*
X134042238Y-27715738D01*
X132185095Y-27572880D02*
X132518428Y-27096690D01*
X132756523Y-27572880D02*
X132756523Y-26572880D01*
X132375571Y-26572880D01*
X132280333Y-26620500D01*
X132232714Y-26668119D01*
X132185095Y-26763357D01*
X132185095Y-26906214D01*
X132232714Y-27001452D01*
X132280333Y-27049071D01*
X132375571Y-27096690D01*
X132756523Y-27096690D01*
X131756523Y-27572880D02*
X131756523Y-26906214D01*
X131756523Y-26572880D02*
X131804142Y-26620500D01*
X131756523Y-26668119D01*
X131708904Y-26620500D01*
X131756523Y-26572880D01*
X131756523Y-26668119D01*
X130851761Y-27525261D02*
X130947000Y-27572880D01*
X131137476Y-27572880D01*
X131232714Y-27525261D01*
X131280333Y-27477642D01*
X131327952Y-27382404D01*
X131327952Y-27096690D01*
X131280333Y-27001452D01*
X131232714Y-26953833D01*
X131137476Y-26906214D01*
X130947000Y-26906214D01*
X130851761Y-26953833D01*
X130423190Y-27572880D02*
X130423190Y-26572880D01*
X130327952Y-27191928D02*
X130042238Y-27572880D01*
X130042238Y-26906214D02*
X130423190Y-27287166D01*
X128947000Y-26906214D02*
X128708904Y-27572880D01*
X128470809Y-26906214D01*
X127661285Y-27572880D02*
X127661285Y-27049071D01*
X127708904Y-26953833D01*
X127804142Y-26906214D01*
X127994619Y-26906214D01*
X128089857Y-26953833D01*
X127661285Y-27525261D02*
X127756523Y-27572880D01*
X127994619Y-27572880D01*
X128089857Y-27525261D01*
X128137476Y-27430023D01*
X128137476Y-27334785D01*
X128089857Y-27239547D01*
X127994619Y-27191928D01*
X127756523Y-27191928D01*
X127661285Y-27144309D01*
X127185095Y-26906214D02*
X127185095Y-27572880D01*
X127185095Y-27001452D02*
X127137476Y-26953833D01*
X127042238Y-26906214D01*
X126899380Y-26906214D01*
X126804142Y-26953833D01*
X126756523Y-27049071D01*
X126756523Y-27572880D01*
X125089857Y-27572880D02*
X125089857Y-26572880D01*
X125089857Y-27525261D02*
X125185095Y-27572880D01*
X125375571Y-27572880D01*
X125470809Y-27525261D01*
X125518428Y-27477642D01*
X125566047Y-27382404D01*
X125566047Y-27096690D01*
X125518428Y-27001452D01*
X125470809Y-26953833D01*
X125375571Y-26906214D01*
X125185095Y-26906214D01*
X125089857Y-26953833D01*
X124232714Y-27525261D02*
X124327952Y-27572880D01*
X124518428Y-27572880D01*
X124613666Y-27525261D01*
X124661285Y-27430023D01*
X124661285Y-27049071D01*
X124613666Y-26953833D01*
X124518428Y-26906214D01*
X124327952Y-26906214D01*
X124232714Y-26953833D01*
X124185095Y-27049071D01*
X124185095Y-27144309D01*
X124661285Y-27239547D01*
X123756523Y-26906214D02*
X123756523Y-27572880D01*
X123756523Y-27001452D02*
X123708904Y-26953833D01*
X123613666Y-26906214D01*
X123470809Y-26906214D01*
X123375571Y-26953833D01*
X123327952Y-27049071D01*
X123327952Y-27572880D01*
X121756523Y-27049071D02*
X121613666Y-27096690D01*
X121566047Y-27144309D01*
X121518428Y-27239547D01*
X121518428Y-27382404D01*
X121566047Y-27477642D01*
X121613666Y-27525261D01*
X121708904Y-27572880D01*
X122089857Y-27572880D01*
X122089857Y-26572880D01*
X121756523Y-26572880D01*
X121661285Y-26620500D01*
X121613666Y-26668119D01*
X121566047Y-26763357D01*
X121566047Y-26858595D01*
X121613666Y-26953833D01*
X121661285Y-27001452D01*
X121756523Y-27049071D01*
X122089857Y-27049071D01*
X121089857Y-27572880D02*
X121089857Y-26906214D01*
X121089857Y-27096690D02*
X121042238Y-27001452D01*
X120994619Y-26953833D01*
X120899380Y-26906214D01*
X120804142Y-26906214D01*
X120470809Y-27572880D02*
X120470809Y-26906214D01*
X120470809Y-26572880D02*
X120518428Y-26620500D01*
X120470809Y-26668119D01*
X120423190Y-26620500D01*
X120470809Y-26572880D01*
X120470809Y-26668119D01*
X119994619Y-26906214D02*
X119994619Y-27572880D01*
X119994619Y-27001452D02*
X119947000Y-26953833D01*
X119851761Y-26906214D01*
X119708904Y-26906214D01*
X119613666Y-26953833D01*
X119566047Y-27049071D01*
X119566047Y-27572880D01*
X119089857Y-27572880D02*
X119089857Y-26572880D01*
X118994619Y-27191928D02*
X118708904Y-27572880D01*
X118708904Y-26906214D02*
X119089857Y-27287166D01*
X118232714Y-27525261D02*
X118232714Y-27572880D01*
X118280333Y-27668119D01*
X118327952Y-27715738D01*
X116756523Y-26572880D02*
X116756523Y-27287166D01*
X116804142Y-27430023D01*
X116899380Y-27525261D01*
X117042238Y-27572880D01*
X117137476Y-27572880D01*
X116137476Y-27572880D02*
X116232714Y-27525261D01*
X116280333Y-27477642D01*
X116327952Y-27382404D01*
X116327952Y-27096690D01*
X116280333Y-27001452D01*
X116232714Y-26953833D01*
X116137476Y-26906214D01*
X115994619Y-26906214D01*
X115899380Y-26953833D01*
X115851761Y-27001452D01*
X115804142Y-27096690D01*
X115804142Y-27382404D01*
X115851761Y-27477642D01*
X115899380Y-27525261D01*
X115994619Y-27572880D01*
X116137476Y-27572880D01*
X115375571Y-26906214D02*
X115375571Y-27572880D01*
X115375571Y-27001452D02*
X115327952Y-26953833D01*
X115232714Y-26906214D01*
X115089857Y-26906214D01*
X114994619Y-26953833D01*
X114947000Y-27049071D01*
X114947000Y-27572880D01*
X113137476Y-27572880D02*
X113470809Y-27096690D01*
X113708904Y-27572880D02*
X113708904Y-26572880D01*
X113327952Y-26572880D01*
X113232714Y-26620500D01*
X113185095Y-26668119D01*
X113137476Y-26763357D01*
X113137476Y-26906214D01*
X113185095Y-27001452D01*
X113232714Y-27049071D01*
X113327952Y-27096690D01*
X113708904Y-27096690D01*
X112280333Y-27572880D02*
X112280333Y-27049071D01*
X112327952Y-26953833D01*
X112423190Y-26906214D01*
X112613666Y-26906214D01*
X112708904Y-26953833D01*
X112280333Y-27525261D02*
X112375571Y-27572880D01*
X112613666Y-27572880D01*
X112708904Y-27525261D01*
X112756523Y-27430023D01*
X112756523Y-27334785D01*
X112708904Y-27239547D01*
X112613666Y-27191928D01*
X112375571Y-27191928D01*
X112280333Y-27144309D01*
X111375571Y-26906214D02*
X111375571Y-27572880D01*
X111804142Y-26906214D02*
X111804142Y-27430023D01*
X111756523Y-27525261D01*
X111661285Y-27572880D01*
X111518428Y-27572880D01*
X111423190Y-27525261D01*
X111375571Y-27477642D01*
X110994619Y-26906214D02*
X110804142Y-27572880D01*
X110613666Y-27096690D01*
X110423190Y-27572880D01*
X110232714Y-26906214D01*
X109470809Y-27525261D02*
X109566047Y-27572880D01*
X109756523Y-27572880D01*
X109851761Y-27525261D01*
X109899380Y-27430023D01*
X109899380Y-27049071D01*
X109851761Y-26953833D01*
X109756523Y-26906214D01*
X109566047Y-26906214D01*
X109470809Y-26953833D01*
X109423190Y-27049071D01*
X109423190Y-27144309D01*
X109899380Y-27239547D01*
X108994619Y-27572880D02*
X108994619Y-26906214D01*
X108994619Y-27096690D02*
X108947000Y-27001452D01*
X108899380Y-26953833D01*
X108804142Y-26906214D01*
X108708904Y-26906214D01*
X107947000Y-27572880D02*
X107947000Y-26572880D01*
X107947000Y-27525261D02*
X108042238Y-27572880D01*
X108232714Y-27572880D01*
X108327952Y-27525261D01*
X108375571Y-27477642D01*
X108423190Y-27382404D01*
X108423190Y-27096690D01*
X108375571Y-27001452D01*
X108327952Y-26953833D01*
X108232714Y-26906214D01*
X108042238Y-26906214D01*
X107947000Y-26953833D01*
X107470809Y-27572880D02*
X107470809Y-26906214D01*
X107470809Y-26572880D02*
X107518428Y-26620500D01*
X107470809Y-26668119D01*
X107423190Y-26620500D01*
X107470809Y-26572880D01*
X107470809Y-26668119D01*
X106994619Y-26906214D02*
X106994619Y-27572880D01*
X106994619Y-27001452D02*
X106947000Y-26953833D01*
X106851761Y-26906214D01*
X106708904Y-26906214D01*
X106613666Y-26953833D01*
X106566047Y-27049071D01*
X106566047Y-27572880D01*
X106089857Y-27572880D02*
X106089857Y-26572880D01*
X105994619Y-27191928D02*
X105708904Y-27572880D01*
X105708904Y-26906214D02*
X106089857Y-27287166D01*
X105232714Y-27525261D02*
X105232714Y-27572880D01*
X105280333Y-27668119D01*
X105327952Y-27715738D01*
X154685095Y-28659071D02*
X154351761Y-28659071D01*
X154208904Y-29182880D02*
X154685095Y-29182880D01*
X154685095Y-28182880D01*
X154208904Y-28182880D01*
X153875571Y-28516214D02*
X153351761Y-28516214D01*
X153875571Y-29182880D01*
X153351761Y-29182880D01*
X152970809Y-29182880D02*
X152970809Y-28516214D01*
X152970809Y-28706690D02*
X152923190Y-28611452D01*
X152875571Y-28563833D01*
X152780333Y-28516214D01*
X152685095Y-28516214D01*
X151923190Y-29182880D02*
X151923190Y-28659071D01*
X151970809Y-28563833D01*
X152066047Y-28516214D01*
X152256523Y-28516214D01*
X152351761Y-28563833D01*
X151923190Y-29135261D02*
X152018428Y-29182880D01*
X152256523Y-29182880D01*
X152351761Y-29135261D01*
X152399380Y-29040023D01*
X152399380Y-28944785D01*
X152351761Y-28849547D01*
X152256523Y-28801928D01*
X152018428Y-28801928D01*
X151923190Y-28754309D01*
X150256523Y-29182880D02*
X150256523Y-28182880D01*
X150256523Y-29135261D02*
X150351761Y-29182880D01*
X150542238Y-29182880D01*
X150637476Y-29135261D01*
X150685095Y-29087642D01*
X150732714Y-28992404D01*
X150732714Y-28706690D01*
X150685095Y-28611452D01*
X150637476Y-28563833D01*
X150542238Y-28516214D01*
X150351761Y-28516214D01*
X150256523Y-28563833D01*
X149399380Y-29135261D02*
X149494619Y-29182880D01*
X149685095Y-29182880D01*
X149780333Y-29135261D01*
X149827952Y-29040023D01*
X149827952Y-28659071D01*
X149780333Y-28563833D01*
X149685095Y-28516214D01*
X149494619Y-28516214D01*
X149399380Y-28563833D01*
X149351761Y-28659071D01*
X149351761Y-28754309D01*
X149827952Y-28849547D01*
X148923190Y-28516214D02*
X148923190Y-29182880D01*
X148923190Y-28611452D02*
X148875571Y-28563833D01*
X148780333Y-28516214D01*
X148637476Y-28516214D01*
X148542238Y-28563833D01*
X148494619Y-28659071D01*
X148494619Y-29182880D01*
X146923190Y-28659071D02*
X146780333Y-28706690D01*
X146732714Y-28754309D01*
X146685095Y-28849547D01*
X146685095Y-28992404D01*
X146732714Y-29087642D01*
X146780333Y-29135261D01*
X146875571Y-29182880D01*
X147256523Y-29182880D01*
X147256523Y-28182880D01*
X146923190Y-28182880D01*
X146827952Y-28230500D01*
X146780333Y-28278119D01*
X146732714Y-28373357D01*
X146732714Y-28468595D01*
X146780333Y-28563833D01*
X146827952Y-28611452D01*
X146923190Y-28659071D01*
X147256523Y-28659071D01*
X146113666Y-29182880D02*
X146208904Y-29135261D01*
X146256523Y-29087642D01*
X146304142Y-28992404D01*
X146304142Y-28706690D01*
X146256523Y-28611452D01*
X146208904Y-28563833D01*
X146113666Y-28516214D01*
X145970809Y-28516214D01*
X145875571Y-28563833D01*
X145827952Y-28611452D01*
X145780333Y-28706690D01*
X145780333Y-28992404D01*
X145827952Y-29087642D01*
X145875571Y-29135261D01*
X145970809Y-29182880D01*
X146113666Y-29182880D01*
X144970809Y-29135261D02*
X145066047Y-29182880D01*
X145256523Y-29182880D01*
X145351761Y-29135261D01*
X145399380Y-29040023D01*
X145399380Y-28659071D01*
X145351761Y-28563833D01*
X145256523Y-28516214D01*
X145066047Y-28516214D01*
X144970809Y-28563833D01*
X144923190Y-28659071D01*
X144923190Y-28754309D01*
X145399380Y-28849547D01*
X144494619Y-29182880D02*
X144494619Y-28516214D01*
X144494619Y-28706690D02*
X144447000Y-28611452D01*
X144399380Y-28563833D01*
X144304142Y-28516214D01*
X144208904Y-28516214D01*
X143827952Y-29135261D02*
X143827952Y-29182880D01*
X143875571Y-29278119D01*
X143923190Y-29325738D01*
X142780333Y-28182880D02*
X142208904Y-28182880D01*
X142494619Y-29182880D02*
X142494619Y-28182880D01*
X141494619Y-29135261D02*
X141589857Y-29182880D01*
X141780333Y-29182880D01*
X141875571Y-29135261D01*
X141923190Y-29040023D01*
X141923190Y-28659071D01*
X141875571Y-28563833D01*
X141780333Y-28516214D01*
X141589857Y-28516214D01*
X141494619Y-28563833D01*
X141447000Y-28659071D01*
X141447000Y-28754309D01*
X141923190Y-28849547D01*
X140589857Y-28516214D02*
X140589857Y-29182880D01*
X141018428Y-28516214D02*
X141018428Y-29040023D01*
X140970809Y-29135261D01*
X140875571Y-29182880D01*
X140732714Y-29182880D01*
X140637476Y-29135261D01*
X140589857Y-29087642D01*
X140113666Y-28516214D02*
X140113666Y-29182880D01*
X140113666Y-28611452D02*
X140066047Y-28563833D01*
X139970809Y-28516214D01*
X139827952Y-28516214D01*
X139732714Y-28563833D01*
X139685095Y-28659071D01*
X139685095Y-29182880D01*
X137875571Y-29182880D02*
X138208904Y-28706690D01*
X138447000Y-29182880D02*
X138447000Y-28182880D01*
X138066047Y-28182880D01*
X137970809Y-28230500D01*
X137923190Y-28278119D01*
X137875571Y-28373357D01*
X137875571Y-28516214D01*
X137923190Y-28611452D01*
X137970809Y-28659071D01*
X138066047Y-28706690D01*
X138447000Y-28706690D01*
X137066047Y-29135261D02*
X137161285Y-29182880D01*
X137351761Y-29182880D01*
X137447000Y-29135261D01*
X137494619Y-29040023D01*
X137494619Y-28659071D01*
X137447000Y-28563833D01*
X137351761Y-28516214D01*
X137161285Y-28516214D01*
X137066047Y-28563833D01*
X137018428Y-28659071D01*
X137018428Y-28754309D01*
X137494619Y-28849547D01*
X136589857Y-28516214D02*
X136589857Y-29182880D01*
X136589857Y-28611452D02*
X136542238Y-28563833D01*
X136447000Y-28516214D01*
X136304142Y-28516214D01*
X136208904Y-28563833D01*
X136161285Y-28659071D01*
X136161285Y-29182880D01*
X135732714Y-29135261D02*
X135637476Y-29182880D01*
X135447000Y-29182880D01*
X135351761Y-29135261D01*
X135304142Y-29040023D01*
X135304142Y-28992404D01*
X135351761Y-28897166D01*
X135447000Y-28849547D01*
X135589857Y-28849547D01*
X135685095Y-28801928D01*
X135732714Y-28706690D01*
X135732714Y-28659071D01*
X135685095Y-28563833D01*
X135589857Y-28516214D01*
X135447000Y-28516214D01*
X135351761Y-28563833D01*
X134875571Y-29182880D02*
X134875571Y-28516214D01*
X134875571Y-28182880D02*
X134923190Y-28230500D01*
X134875571Y-28278119D01*
X134827952Y-28230500D01*
X134875571Y-28182880D01*
X134875571Y-28278119D01*
X134399380Y-28516214D02*
X134399380Y-29182880D01*
X134399380Y-28611452D02*
X134351761Y-28563833D01*
X134256523Y-28516214D01*
X134113666Y-28516214D01*
X134018428Y-28563833D01*
X133970809Y-28659071D01*
X133970809Y-29182880D01*
X133066047Y-28516214D02*
X133066047Y-29325738D01*
X133113666Y-29420976D01*
X133161285Y-29468595D01*
X133256523Y-29516214D01*
X133399380Y-29516214D01*
X133494619Y-29468595D01*
X133066047Y-29135261D02*
X133161285Y-29182880D01*
X133351761Y-29182880D01*
X133447000Y-29135261D01*
X133494619Y-29087642D01*
X133542238Y-28992404D01*
X133542238Y-28706690D01*
X133494619Y-28611452D01*
X133447000Y-28563833D01*
X133351761Y-28516214D01*
X133161285Y-28516214D01*
X133066047Y-28563833D01*
X132542238Y-29135261D02*
X132542238Y-29182880D01*
X132589857Y-29278119D01*
X132637476Y-29325738D01*
X131399380Y-29135261D02*
X131256523Y-29182880D01*
X131018428Y-29182880D01*
X130923190Y-29135261D01*
X130875571Y-29087642D01*
X130827952Y-28992404D01*
X130827952Y-28897166D01*
X130875571Y-28801928D01*
X130923190Y-28754309D01*
X131018428Y-28706690D01*
X131208904Y-28659071D01*
X131304142Y-28611452D01*
X131351761Y-28563833D01*
X131399380Y-28468595D01*
X131399380Y-28373357D01*
X131351761Y-28278119D01*
X131304142Y-28230500D01*
X131208904Y-28182880D01*
X130970809Y-28182880D01*
X130827952Y-28230500D01*
X130542238Y-28516214D02*
X130161285Y-28516214D01*
X130399380Y-28182880D02*
X130399380Y-29040023D01*
X130351761Y-29135261D01*
X130256523Y-29182880D01*
X130161285Y-29182880D01*
X129447000Y-29135261D02*
X129542238Y-29182880D01*
X129732714Y-29182880D01*
X129827952Y-29135261D01*
X129875571Y-29040023D01*
X129875571Y-28659071D01*
X129827952Y-28563833D01*
X129732714Y-28516214D01*
X129542238Y-28516214D01*
X129447000Y-28563833D01*
X129399380Y-28659071D01*
X129399380Y-28754309D01*
X129875571Y-28849547D01*
X129066047Y-28516214D02*
X128827952Y-29182880D01*
X128589857Y-28516214D01*
X127827952Y-29135261D02*
X127923190Y-29182880D01*
X128113666Y-29182880D01*
X128208904Y-29135261D01*
X128256523Y-29040023D01*
X128256523Y-28659071D01*
X128208904Y-28563833D01*
X128113666Y-28516214D01*
X127923190Y-28516214D01*
X127827952Y-28563833D01*
X127780333Y-28659071D01*
X127780333Y-28754309D01*
X128256523Y-28849547D01*
X127351761Y-28516214D02*
X127351761Y-29182880D01*
X127351761Y-28611452D02*
X127304142Y-28563833D01*
X127208904Y-28516214D01*
X127066047Y-28516214D01*
X126970809Y-28563833D01*
X126923190Y-28659071D01*
X126923190Y-29182880D01*
X125780333Y-28516214D02*
X125542238Y-29182880D01*
X125304142Y-28516214D01*
X124494619Y-29182880D02*
X124494619Y-28659071D01*
X124542238Y-28563833D01*
X124637476Y-28516214D01*
X124827952Y-28516214D01*
X124923190Y-28563833D01*
X124494619Y-29135261D02*
X124589857Y-29182880D01*
X124827952Y-29182880D01*
X124923190Y-29135261D01*
X124970809Y-29040023D01*
X124970809Y-28944785D01*
X124923190Y-28849547D01*
X124827952Y-28801928D01*
X124589857Y-28801928D01*
X124494619Y-28754309D01*
X124018428Y-28516214D02*
X124018428Y-29182880D01*
X124018428Y-28611452D02*
X123970809Y-28563833D01*
X123875571Y-28516214D01*
X123732714Y-28516214D01*
X123637476Y-28563833D01*
X123589857Y-28659071D01*
X123589857Y-29182880D01*
X122351761Y-28659071D02*
X122018428Y-28659071D01*
X121875571Y-29182880D02*
X122351761Y-29182880D01*
X122351761Y-28182880D01*
X121875571Y-28182880D01*
X121447000Y-29182880D02*
X121447000Y-28182880D01*
X121351761Y-28801928D02*
X121066047Y-29182880D01*
X121066047Y-28516214D02*
X121447000Y-28897166D01*
X119494619Y-29135261D02*
X119589857Y-29182880D01*
X119780333Y-29182880D01*
X119875571Y-29135261D01*
X119923190Y-29040023D01*
X119923190Y-28659071D01*
X119875571Y-28563833D01*
X119780333Y-28516214D01*
X119589857Y-28516214D01*
X119494619Y-28563833D01*
X119447000Y-28659071D01*
X119447000Y-28754309D01*
X119923190Y-28849547D01*
X119018428Y-28516214D02*
X119018428Y-29182880D01*
X119018428Y-28611452D02*
X118970809Y-28563833D01*
X118875571Y-28516214D01*
X118732714Y-28516214D01*
X118637476Y-28563833D01*
X118589857Y-28659071D01*
X118589857Y-29182880D01*
X117494619Y-28182880D02*
X117161285Y-29182880D01*
X116827952Y-28182880D01*
X116494619Y-29182880D02*
X116494619Y-28516214D01*
X116494619Y-28182880D02*
X116542238Y-28230500D01*
X116494619Y-28278119D01*
X116447000Y-28230500D01*
X116494619Y-28182880D01*
X116494619Y-28278119D01*
X115589857Y-29135261D02*
X115685095Y-29182880D01*
X115875571Y-29182880D01*
X115970809Y-29135261D01*
X116018428Y-29087642D01*
X116066047Y-28992404D01*
X116066047Y-28706690D01*
X116018428Y-28611452D01*
X115970809Y-28563833D01*
X115875571Y-28516214D01*
X115685095Y-28516214D01*
X115589857Y-28563833D01*
X115304142Y-28516214D02*
X114923190Y-28516214D01*
X115161285Y-28182880D02*
X115161285Y-29040023D01*
X115113666Y-29135261D01*
X115018428Y-29182880D01*
X114923190Y-29182880D01*
X114447000Y-29182880D02*
X114542238Y-29135261D01*
X114589857Y-29087642D01*
X114637476Y-28992404D01*
X114637476Y-28706690D01*
X114589857Y-28611452D01*
X114542238Y-28563833D01*
X114447000Y-28516214D01*
X114304142Y-28516214D01*
X114208904Y-28563833D01*
X114161285Y-28611452D01*
X114113666Y-28706690D01*
X114113666Y-28992404D01*
X114161285Y-29087642D01*
X114208904Y-29135261D01*
X114304142Y-29182880D01*
X114447000Y-29182880D01*
X113685095Y-29182880D02*
X113685095Y-28516214D01*
X113685095Y-28706690D02*
X113637476Y-28611452D01*
X113589857Y-28563833D01*
X113494619Y-28516214D01*
X113399380Y-28516214D01*
X112304142Y-29182880D02*
X112304142Y-28182880D01*
X112304142Y-28659071D02*
X111732714Y-28659071D01*
X111732714Y-29182880D02*
X111732714Y-28182880D01*
X111113666Y-29182880D02*
X111208904Y-29135261D01*
X111256523Y-29087642D01*
X111304142Y-28992404D01*
X111304142Y-28706690D01*
X111256523Y-28611452D01*
X111208904Y-28563833D01*
X111113666Y-28516214D01*
X110970809Y-28516214D01*
X110875571Y-28563833D01*
X110827952Y-28611452D01*
X110780333Y-28706690D01*
X110780333Y-28992404D01*
X110827952Y-29087642D01*
X110875571Y-29135261D01*
X110970809Y-29182880D01*
X111113666Y-29182880D01*
X109923190Y-28516214D02*
X109923190Y-29325738D01*
X109970809Y-29420976D01*
X110018428Y-29468595D01*
X110113666Y-29516214D01*
X110256523Y-29516214D01*
X110351761Y-29468595D01*
X109923190Y-29135261D02*
X110018428Y-29182880D01*
X110208904Y-29182880D01*
X110304142Y-29135261D01*
X110351761Y-29087642D01*
X110399380Y-28992404D01*
X110399380Y-28706690D01*
X110351761Y-28611452D01*
X110304142Y-28563833D01*
X110208904Y-28516214D01*
X110018428Y-28516214D01*
X109923190Y-28563833D01*
X109066047Y-29135261D02*
X109161285Y-29182880D01*
X109351761Y-29182880D01*
X109447000Y-29135261D01*
X109494619Y-29040023D01*
X109494619Y-28659071D01*
X109447000Y-28563833D01*
X109351761Y-28516214D01*
X109161285Y-28516214D01*
X109066047Y-28563833D01*
X109018428Y-28659071D01*
X109018428Y-28754309D01*
X109494619Y-28849547D01*
X108685095Y-28516214D02*
X108494619Y-29182880D01*
X108304142Y-28706690D01*
X108113666Y-29182880D01*
X107923190Y-28516214D01*
X107161285Y-29135261D02*
X107256523Y-29182880D01*
X107447000Y-29182880D01*
X107542238Y-29135261D01*
X107589857Y-29040023D01*
X107589857Y-28659071D01*
X107542238Y-28563833D01*
X107447000Y-28516214D01*
X107256523Y-28516214D01*
X107161285Y-28563833D01*
X107113666Y-28659071D01*
X107113666Y-28754309D01*
X107589857Y-28849547D01*
X106685095Y-29182880D02*
X106685095Y-28516214D01*
X106685095Y-28182880D02*
X106732714Y-28230500D01*
X106685095Y-28278119D01*
X106637476Y-28230500D01*
X106685095Y-28182880D01*
X106685095Y-28278119D01*
X106208904Y-28516214D02*
X106208904Y-29373357D01*
X106256523Y-29468595D01*
X106351761Y-29516214D01*
X106399380Y-29516214D01*
X106208904Y-28182880D02*
X106256523Y-28230500D01*
X106208904Y-28278119D01*
X106161285Y-28230500D01*
X106208904Y-28182880D01*
X106208904Y-28278119D01*
X166166047Y-70312404D02*
X165708904Y-70312404D01*
X165937476Y-71112404D02*
X165937476Y-70312404D01*
X165442238Y-71112404D02*
X165442238Y-70312404D01*
X165251761Y-70312404D01*
X165137476Y-70350500D01*
X165061285Y-70426690D01*
X165023190Y-70502880D01*
X164985095Y-70655261D01*
X164985095Y-70769547D01*
X165023190Y-70921928D01*
X165061285Y-70998119D01*
X165137476Y-71074309D01*
X165251761Y-71112404D01*
X165442238Y-71112404D01*
X164642238Y-71112404D02*
X164642238Y-70312404D01*
D11*
X174438666Y-96233833D02*
X174372000Y-96267166D01*
X174238666Y-96267166D01*
X174172000Y-96233833D01*
X174138666Y-96167166D01*
X174138666Y-96133833D01*
X174172000Y-96067166D01*
X174238666Y-96033833D01*
X174338666Y-96033833D01*
X174405333Y-96000500D01*
X174438666Y-95933833D01*
X174438666Y-95900500D01*
X174405333Y-95833833D01*
X174338666Y-95800500D01*
X174238666Y-95800500D01*
X174172000Y-95833833D01*
X173938666Y-95800500D02*
X173672000Y-95800500D01*
X173838666Y-95567166D02*
X173838666Y-96167166D01*
X173805333Y-96233833D01*
X173738666Y-96267166D01*
X173672000Y-96267166D01*
X173138666Y-96267166D02*
X173138666Y-95900500D01*
X173172000Y-95833833D01*
X173238666Y-95800500D01*
X173372000Y-95800500D01*
X173438666Y-95833833D01*
X173138666Y-96233833D02*
X173205333Y-96267166D01*
X173372000Y-96267166D01*
X173438666Y-96233833D01*
X173472000Y-96167166D01*
X173472000Y-96100500D01*
X173438666Y-96033833D01*
X173372000Y-96000500D01*
X173205333Y-96000500D01*
X173138666Y-95967166D01*
X172905333Y-95800500D02*
X172638666Y-95800500D01*
X172805333Y-95567166D02*
X172805333Y-96167166D01*
X172772000Y-96233833D01*
X172705333Y-96267166D01*
X172638666Y-96267166D01*
X172138666Y-96233833D02*
X172205333Y-96267166D01*
X172338666Y-96267166D01*
X172405333Y-96233833D01*
X172438666Y-96167166D01*
X172438666Y-95900500D01*
X172405333Y-95833833D01*
X172338666Y-95800500D01*
X172205333Y-95800500D01*
X172138666Y-95833833D01*
X172105333Y-95900500D01*
X172105333Y-95967166D01*
X172438666Y-96033833D01*
D10*
X107644142Y-102359785D02*
X107501285Y-102359785D01*
X107429857Y-102395500D01*
X107358428Y-102466928D01*
X107322714Y-102609785D01*
X107322714Y-102859785D01*
X107358428Y-103002642D01*
X107429857Y-103074071D01*
X107501285Y-103109785D01*
X107644142Y-103109785D01*
X107715571Y-103074071D01*
X107787000Y-103002642D01*
X107822714Y-102859785D01*
X107822714Y-102609785D01*
X107787000Y-102466928D01*
X107715571Y-102395500D01*
X107644142Y-102359785D01*
X107001285Y-102359785D02*
X107001285Y-102966928D01*
X106965571Y-103038357D01*
X106929857Y-103074071D01*
X106858428Y-103109785D01*
X106715571Y-103109785D01*
X106644142Y-103074071D01*
X106608428Y-103038357D01*
X106572714Y-102966928D01*
X106572714Y-102359785D01*
X106322714Y-102359785D02*
X105894142Y-102359785D01*
X106108428Y-103109785D02*
X106108428Y-102359785D01*
X105251285Y-103109785D02*
X105679857Y-103109785D01*
X105465571Y-103109785D02*
X105465571Y-102359785D01*
X105537000Y-102466928D01*
X105608428Y-102538357D01*
X105679857Y-102574071D01*
X165308904Y-120900500D02*
X165404142Y-120852880D01*
X165547000Y-120852880D01*
X165689857Y-120900500D01*
X165785095Y-120995738D01*
X165832714Y-121090976D01*
X165880333Y-121281452D01*
X165880333Y-121424309D01*
X165832714Y-121614785D01*
X165785095Y-121710023D01*
X165689857Y-121805261D01*
X165547000Y-121852880D01*
X165451761Y-121852880D01*
X165308904Y-121805261D01*
X165261285Y-121757642D01*
X165261285Y-121424309D01*
X165451761Y-121424309D01*
X164832714Y-121852880D02*
X164832714Y-120852880D01*
X164261285Y-121852880D01*
X164261285Y-120852880D01*
X163785095Y-121852880D02*
X163785095Y-120852880D01*
X163547000Y-120852880D01*
X163404142Y-120900500D01*
X163308904Y-120995738D01*
X163261285Y-121090976D01*
X163213666Y-121281452D01*
X163213666Y-121424309D01*
X163261285Y-121614785D01*
X163308904Y-121710023D01*
X163404142Y-121805261D01*
X163547000Y-121852880D01*
X163785095Y-121852880D01*
X171182714Y-78150500D02*
X171268428Y-78107642D01*
X171397000Y-78107642D01*
X171525571Y-78150500D01*
X171611285Y-78236214D01*
X171654142Y-78321928D01*
X171697000Y-78493357D01*
X171697000Y-78621928D01*
X171654142Y-78793357D01*
X171611285Y-78879071D01*
X171525571Y-78964785D01*
X171397000Y-79007642D01*
X171311285Y-79007642D01*
X171182714Y-78964785D01*
X171139857Y-78921928D01*
X171139857Y-78621928D01*
X171311285Y-78621928D01*
X170754142Y-79007642D02*
X170754142Y-78107642D01*
X170239857Y-79007642D01*
X170239857Y-78107642D01*
X169811285Y-79007642D02*
X169811285Y-78107642D01*
X169597000Y-78107642D01*
X169468428Y-78150500D01*
X169382714Y-78236214D01*
X169339857Y-78321928D01*
X169297000Y-78493357D01*
X169297000Y-78621928D01*
X169339857Y-78793357D01*
X169382714Y-78879071D01*
X169468428Y-78964785D01*
X169597000Y-79007642D01*
X169811285Y-79007642D01*
X168367000Y-71142404D02*
X168367000Y-70342404D01*
X167833666Y-70342404D02*
X167681285Y-70342404D01*
X167605095Y-70380500D01*
X167528904Y-70456690D01*
X167490809Y-70609071D01*
X167490809Y-70875738D01*
X167528904Y-71028119D01*
X167605095Y-71104309D01*
X167681285Y-71142404D01*
X167833666Y-71142404D01*
X167909857Y-71104309D01*
X167986047Y-71028119D01*
X168024142Y-70875738D01*
X168024142Y-70609071D01*
X167986047Y-70456690D01*
X167909857Y-70380500D01*
X167833666Y-70342404D01*
X167186047Y-70418595D02*
X167147952Y-70380500D01*
X167071761Y-70342404D01*
X166881285Y-70342404D01*
X166805095Y-70380500D01*
X166767000Y-70418595D01*
X166728904Y-70494785D01*
X166728904Y-70570976D01*
X166767000Y-70685261D01*
X167224142Y-71142404D01*
X166728904Y-71142404D01*
X104514142Y-109159785D02*
X104371285Y-109159785D01*
X104299857Y-109195500D01*
X104228428Y-109266928D01*
X104192714Y-109409785D01*
X104192714Y-109659785D01*
X104228428Y-109802642D01*
X104299857Y-109874071D01*
X104371285Y-109909785D01*
X104514142Y-109909785D01*
X104585571Y-109874071D01*
X104657000Y-109802642D01*
X104692714Y-109659785D01*
X104692714Y-109409785D01*
X104657000Y-109266928D01*
X104585571Y-109195500D01*
X104514142Y-109159785D01*
X103871285Y-109159785D02*
X103871285Y-109766928D01*
X103835571Y-109838357D01*
X103799857Y-109874071D01*
X103728428Y-109909785D01*
X103585571Y-109909785D01*
X103514142Y-109874071D01*
X103478428Y-109838357D01*
X103442714Y-109766928D01*
X103442714Y-109159785D01*
X103192714Y-109159785D02*
X102764142Y-109159785D01*
X102978428Y-109909785D02*
X102978428Y-109159785D01*
X102407000Y-109481214D02*
X102478428Y-109445500D01*
X102514142Y-109409785D01*
X102549857Y-109338357D01*
X102549857Y-109302642D01*
X102514142Y-109231214D01*
X102478428Y-109195500D01*
X102407000Y-109159785D01*
X102264142Y-109159785D01*
X102192714Y-109195500D01*
X102157000Y-109231214D01*
X102121285Y-109302642D01*
X102121285Y-109338357D01*
X102157000Y-109409785D01*
X102192714Y-109445500D01*
X102264142Y-109481214D01*
X102407000Y-109481214D01*
X102478428Y-109516928D01*
X102514142Y-109552642D01*
X102549857Y-109624071D01*
X102549857Y-109766928D01*
X102514142Y-109838357D01*
X102478428Y-109874071D01*
X102407000Y-109909785D01*
X102264142Y-109909785D01*
X102192714Y-109874071D01*
X102157000Y-109838357D01*
X102121285Y-109766928D01*
X102121285Y-109624071D01*
X102157000Y-109552642D01*
X102192714Y-109516928D01*
X102264142Y-109481214D01*
X166235571Y-73912404D02*
X165778428Y-73912404D01*
X166007000Y-74712404D02*
X166007000Y-73912404D01*
X165054619Y-74636214D02*
X165092714Y-74674309D01*
X165207000Y-74712404D01*
X165283190Y-74712404D01*
X165397476Y-74674309D01*
X165473666Y-74598119D01*
X165511761Y-74521928D01*
X165549857Y-74369547D01*
X165549857Y-74255261D01*
X165511761Y-74102880D01*
X165473666Y-74026690D01*
X165397476Y-73950500D01*
X165283190Y-73912404D01*
X165207000Y-73912404D01*
X165092714Y-73950500D01*
X165054619Y-73988595D01*
X164711761Y-74712404D02*
X164711761Y-73912404D01*
X164254619Y-74712404D02*
X164597476Y-74255261D01*
X164254619Y-73912404D02*
X164711761Y-74369547D01*
X181660095Y-110002880D02*
X181660095Y-109002880D01*
X181326761Y-109717166D01*
X180993428Y-109002880D01*
X180993428Y-110002880D01*
X180374380Y-110002880D02*
X180469619Y-109955261D01*
X180517238Y-109907642D01*
X180564857Y-109812404D01*
X180564857Y-109526690D01*
X180517238Y-109431452D01*
X180469619Y-109383833D01*
X180374380Y-109336214D01*
X180231523Y-109336214D01*
X180136285Y-109383833D01*
X180088666Y-109431452D01*
X180041047Y-109526690D01*
X180041047Y-109812404D01*
X180088666Y-109907642D01*
X180136285Y-109955261D01*
X180231523Y-110002880D01*
X180374380Y-110002880D01*
X179183904Y-110002880D02*
X179183904Y-109002880D01*
X179183904Y-109955261D02*
X179279142Y-110002880D01*
X179469619Y-110002880D01*
X179564857Y-109955261D01*
X179612476Y-109907642D01*
X179660095Y-109812404D01*
X179660095Y-109526690D01*
X179612476Y-109431452D01*
X179564857Y-109383833D01*
X179469619Y-109336214D01*
X179279142Y-109336214D01*
X179183904Y-109383833D01*
X178279142Y-109336214D02*
X178279142Y-110002880D01*
X178707714Y-109336214D02*
X178707714Y-109860023D01*
X178660095Y-109955261D01*
X178564857Y-110002880D01*
X178422000Y-110002880D01*
X178326761Y-109955261D01*
X178279142Y-109907642D01*
X177660095Y-110002880D02*
X177755333Y-109955261D01*
X177802952Y-109860023D01*
X177802952Y-109002880D01*
X176898190Y-109955261D02*
X176993428Y-110002880D01*
X177183904Y-110002880D01*
X177279142Y-109955261D01*
X177326761Y-109860023D01*
X177326761Y-109479071D01*
X177279142Y-109383833D01*
X177183904Y-109336214D01*
X176993428Y-109336214D01*
X176898190Y-109383833D01*
X176850571Y-109479071D01*
X176850571Y-109574309D01*
X177326761Y-109669547D01*
X175707714Y-109098119D02*
X175660095Y-109050500D01*
X175564857Y-109002880D01*
X175326761Y-109002880D01*
X175231523Y-109050500D01*
X175183904Y-109098119D01*
X175136285Y-109193357D01*
X175136285Y-109288595D01*
X175183904Y-109431452D01*
X175755333Y-110002880D01*
X175136285Y-110002880D01*
X171545809Y-90843404D02*
X171545809Y-90043404D01*
X171241047Y-90043404D01*
X171164857Y-90081500D01*
X171126761Y-90119595D01*
X171088666Y-90195785D01*
X171088666Y-90310071D01*
X171126761Y-90386261D01*
X171164857Y-90424357D01*
X171241047Y-90462452D01*
X171545809Y-90462452D01*
X170822000Y-90043404D02*
X170631523Y-90843404D01*
X170479142Y-90271976D01*
X170326761Y-90843404D01*
X170136285Y-90043404D01*
X169831523Y-90843404D02*
X169831523Y-90043404D01*
X169564857Y-90614833D01*
X169298190Y-90043404D01*
X169298190Y-90843404D01*
X170193428Y-92131404D02*
X170650571Y-92131404D01*
X170422000Y-92131404D02*
X170422000Y-91331404D01*
X170498190Y-91445690D01*
X170574380Y-91521880D01*
X170650571Y-91559976D01*
X104564142Y-106849785D02*
X104421285Y-106849785D01*
X104349857Y-106885500D01*
X104278428Y-106956928D01*
X104242714Y-107099785D01*
X104242714Y-107349785D01*
X104278428Y-107492642D01*
X104349857Y-107564071D01*
X104421285Y-107599785D01*
X104564142Y-107599785D01*
X104635571Y-107564071D01*
X104707000Y-107492642D01*
X104742714Y-107349785D01*
X104742714Y-107099785D01*
X104707000Y-106956928D01*
X104635571Y-106885500D01*
X104564142Y-106849785D01*
X103921285Y-106849785D02*
X103921285Y-107456928D01*
X103885571Y-107528357D01*
X103849857Y-107564071D01*
X103778428Y-107599785D01*
X103635571Y-107599785D01*
X103564142Y-107564071D01*
X103528428Y-107528357D01*
X103492714Y-107456928D01*
X103492714Y-106849785D01*
X103242714Y-106849785D02*
X102814142Y-106849785D01*
X103028428Y-107599785D02*
X103028428Y-106849785D01*
X102242714Y-106849785D02*
X102385571Y-106849785D01*
X102457000Y-106885500D01*
X102492714Y-106921214D01*
X102564142Y-107028357D01*
X102599857Y-107171214D01*
X102599857Y-107456928D01*
X102564142Y-107528357D01*
X102528428Y-107564071D01*
X102457000Y-107599785D01*
X102314142Y-107599785D01*
X102242714Y-107564071D01*
X102207000Y-107528357D01*
X102171285Y-107456928D01*
X102171285Y-107278357D01*
X102207000Y-107206928D01*
X102242714Y-107171214D01*
X102314142Y-107135500D01*
X102457000Y-107135500D01*
X102528428Y-107171214D01*
X102564142Y-107206928D01*
X102599857Y-107278357D01*
X174004142Y-121279071D02*
X173861285Y-121326690D01*
X173813666Y-121374309D01*
X173766047Y-121469547D01*
X173766047Y-121612404D01*
X173813666Y-121707642D01*
X173861285Y-121755261D01*
X173956523Y-121802880D01*
X174337476Y-121802880D01*
X174337476Y-120802880D01*
X174004142Y-120802880D01*
X173908904Y-120850500D01*
X173861285Y-120898119D01*
X173813666Y-120993357D01*
X173813666Y-121088595D01*
X173861285Y-121183833D01*
X173908904Y-121231452D01*
X174004142Y-121279071D01*
X174337476Y-121279071D01*
X173385095Y-121517166D02*
X172908904Y-121517166D01*
X173480333Y-121802880D02*
X173147000Y-120802880D01*
X172813666Y-121802880D01*
X172623190Y-120802880D02*
X172051761Y-120802880D01*
X172337476Y-121802880D02*
X172337476Y-120802880D01*
X171718428Y-121421928D02*
X170956523Y-121421928D01*
X171337476Y-121802880D02*
X171337476Y-121040976D01*
X168631523Y-72032404D02*
X168174380Y-72032404D01*
X168402952Y-72832404D02*
X168402952Y-72032404D01*
X167983904Y-72032404D02*
X167450571Y-72832404D01*
X167450571Y-72032404D02*
X167983904Y-72832404D01*
X167145809Y-72832404D02*
X167145809Y-72032404D01*
X166955333Y-72032404D01*
X166841047Y-72070500D01*
X166764857Y-72146690D01*
X166726761Y-72222880D01*
X166688666Y-72375261D01*
X166688666Y-72489547D01*
X166726761Y-72641928D01*
X166764857Y-72718119D01*
X166841047Y-72794309D01*
X166955333Y-72832404D01*
X167145809Y-72832404D01*
X172960095Y-88777880D02*
X173483904Y-88111214D01*
X172960095Y-88111214D02*
X173483904Y-88777880D01*
D12*
X137829142Y-159639071D02*
X137829142Y-158139071D01*
X137829142Y-158853357D02*
X136972000Y-158853357D01*
X136972000Y-159639071D02*
X136972000Y-158139071D01*
X136043428Y-159639071D02*
X136186285Y-159567642D01*
X136257714Y-159496214D01*
X136329142Y-159353357D01*
X136329142Y-158924785D01*
X136257714Y-158781928D01*
X136186285Y-158710500D01*
X136043428Y-158639071D01*
X135829142Y-158639071D01*
X135686285Y-158710500D01*
X135614857Y-158781928D01*
X135543428Y-158924785D01*
X135543428Y-159353357D01*
X135614857Y-159496214D01*
X135686285Y-159567642D01*
X135829142Y-159639071D01*
X136043428Y-159639071D01*
X134257714Y-158639071D02*
X134257714Y-159853357D01*
X134329142Y-159996214D01*
X134400571Y-160067642D01*
X134543428Y-160139071D01*
X134757714Y-160139071D01*
X134900571Y-160067642D01*
X134257714Y-159567642D02*
X134400571Y-159639071D01*
X134686285Y-159639071D01*
X134829142Y-159567642D01*
X134900571Y-159496214D01*
X134972000Y-159353357D01*
X134972000Y-158924785D01*
X134900571Y-158781928D01*
X134829142Y-158710500D01*
X134686285Y-158639071D01*
X134400571Y-158639071D01*
X134257714Y-158710500D01*
X132972000Y-159567642D02*
X133114857Y-159639071D01*
X133400571Y-159639071D01*
X133543428Y-159567642D01*
X133614857Y-159424785D01*
X133614857Y-158853357D01*
X133543428Y-158710500D01*
X133400571Y-158639071D01*
X133114857Y-158639071D01*
X132972000Y-158710500D01*
X132900571Y-158853357D01*
X132900571Y-158996214D01*
X133614857Y-159139071D01*
X132329142Y-159567642D02*
X132186285Y-159639071D01*
X131900571Y-159639071D01*
X131757714Y-159567642D01*
X131686285Y-159424785D01*
X131686285Y-159353357D01*
X131757714Y-159210500D01*
X131900571Y-159139071D01*
X132114857Y-159139071D01*
X132257714Y-159067642D01*
X132329142Y-158924785D01*
X132329142Y-158853357D01*
X132257714Y-158710500D01*
X132114857Y-158639071D01*
X131900571Y-158639071D01*
X131757714Y-158710500D01*
X130400571Y-159567642D02*
X130543428Y-159639071D01*
X130829142Y-159639071D01*
X130972000Y-159567642D01*
X131043428Y-159496214D01*
X131114857Y-159353357D01*
X131114857Y-158924785D01*
X131043428Y-158781928D01*
X130972000Y-158710500D01*
X130829142Y-158639071D01*
X130543428Y-158639071D01*
X130400571Y-158710500D01*
X129757714Y-159639071D02*
X129757714Y-158139071D01*
X129114857Y-159639071D02*
X129114857Y-158853357D01*
X129186285Y-158710500D01*
X129329142Y-158639071D01*
X129543428Y-158639071D01*
X129686285Y-158710500D01*
X129757714Y-158781928D01*
X128186285Y-159639071D02*
X128329142Y-159567642D01*
X128400571Y-159496214D01*
X128471999Y-159353357D01*
X128471999Y-158924785D01*
X128400571Y-158781928D01*
X128329142Y-158710500D01*
X128186285Y-158639071D01*
X127971999Y-158639071D01*
X127829142Y-158710500D01*
X127757714Y-158781928D01*
X127686285Y-158924785D01*
X127686285Y-159353357D01*
X127757714Y-159496214D01*
X127829142Y-159567642D01*
X127971999Y-159639071D01*
X128186285Y-159639071D01*
X126829142Y-159639071D02*
X126971999Y-159567642D01*
X127043428Y-159496214D01*
X127114857Y-159353357D01*
X127114857Y-158924785D01*
X127043428Y-158781928D01*
X126971999Y-158710500D01*
X126829142Y-158639071D01*
X126614857Y-158639071D01*
X126471999Y-158710500D01*
X126400571Y-158781928D01*
X126329142Y-158924785D01*
X126329142Y-159353357D01*
X126400571Y-159496214D01*
X126471999Y-159567642D01*
X126614857Y-159639071D01*
X126829142Y-159639071D01*
X125471999Y-159639071D02*
X125614857Y-159567642D01*
X125686285Y-159424785D01*
X125686285Y-158139071D01*
X123829142Y-159210500D02*
X123114857Y-159210500D01*
X123971999Y-159639071D02*
X123471999Y-158139071D01*
X122971999Y-159639071D01*
X122471999Y-159639071D02*
X122471999Y-158639071D01*
X122471999Y-158924785D02*
X122400571Y-158781928D01*
X122329142Y-158710500D01*
X122186285Y-158639071D01*
X122043428Y-158639071D01*
X121543428Y-158639071D02*
X121543428Y-159639071D01*
X121543428Y-158781928D02*
X121471999Y-158710500D01*
X121329142Y-158639071D01*
X121114857Y-158639071D01*
X120971999Y-158710500D01*
X120900571Y-158853357D01*
X120900571Y-159639071D01*
X120186285Y-159639071D02*
X120186285Y-158139071D01*
X119543428Y-159639071D02*
X119543428Y-158853357D01*
X119614857Y-158710500D01*
X119757714Y-158639071D01*
X119971999Y-158639071D01*
X120114857Y-158710500D01*
X120186285Y-158781928D01*
X118257714Y-159567642D02*
X118400571Y-159639071D01*
X118686285Y-159639071D01*
X118829142Y-159567642D01*
X118900571Y-159424785D01*
X118900571Y-158853357D01*
X118829142Y-158710500D01*
X118686285Y-158639071D01*
X118400571Y-158639071D01*
X118257714Y-158710500D01*
X118186285Y-158853357D01*
X118186285Y-158996214D01*
X118900571Y-159139071D01*
X117543428Y-159639071D02*
X117543428Y-158639071D01*
X117543428Y-158781928D02*
X117471999Y-158710500D01*
X117329142Y-158639071D01*
X117114857Y-158639071D01*
X116971999Y-158710500D01*
X116900571Y-158853357D01*
X116900571Y-159639071D01*
X116900571Y-158853357D02*
X116829142Y-158710500D01*
X116686285Y-158639071D01*
X116471999Y-158639071D01*
X116329142Y-158710500D01*
X116257714Y-158853357D01*
X116257714Y-159639071D01*
X115543428Y-159067642D02*
X114400571Y-159067642D01*
X113686285Y-159639071D02*
X113686285Y-158139071D01*
X112829142Y-159639071D01*
X112829142Y-158139071D01*
X112114857Y-159639071D02*
X112114857Y-158639071D01*
X112114857Y-158139071D02*
X112186285Y-158210500D01*
X112114857Y-158281928D01*
X112043428Y-158210500D01*
X112114857Y-158139071D01*
X112114857Y-158281928D01*
X111400571Y-158639071D02*
X111400571Y-159924785D01*
X111471999Y-160067642D01*
X111614857Y-160139071D01*
X111686285Y-160139071D01*
X111400571Y-158139071D02*
X111471999Y-158210500D01*
X111400571Y-158281928D01*
X111329142Y-158210500D01*
X111400571Y-158139071D01*
X111400571Y-158281928D01*
X110686285Y-159639071D02*
X110686285Y-158639071D01*
X110686285Y-158781928D02*
X110614857Y-158710500D01*
X110471999Y-158639071D01*
X110257714Y-158639071D01*
X110114857Y-158710500D01*
X110043428Y-158853357D01*
X110043428Y-159639071D01*
X110043428Y-158853357D02*
X109971999Y-158710500D01*
X109829142Y-158639071D01*
X109614857Y-158639071D01*
X109471999Y-158710500D01*
X109400571Y-158853357D01*
X109400571Y-159639071D01*
X108114857Y-159567642D02*
X108257714Y-159639071D01*
X108543428Y-159639071D01*
X108686285Y-159567642D01*
X108757714Y-159424785D01*
X108757714Y-158853357D01*
X108686285Y-158710500D01*
X108543428Y-158639071D01*
X108257714Y-158639071D01*
X108114857Y-158710500D01*
X108043428Y-158853357D01*
X108043428Y-158996214D01*
X108757714Y-159139071D01*
X106757714Y-158639071D02*
X106757714Y-159853357D01*
X106829142Y-159996214D01*
X106900571Y-160067642D01*
X107043428Y-160139071D01*
X107257714Y-160139071D01*
X107400571Y-160067642D01*
X106757714Y-159567642D02*
X106900571Y-159639071D01*
X107186285Y-159639071D01*
X107329142Y-159567642D01*
X107400571Y-159496214D01*
X107471999Y-159353357D01*
X107471999Y-158924785D01*
X107400571Y-158781928D01*
X107329142Y-158710500D01*
X107186285Y-158639071D01*
X106900571Y-158639071D01*
X106757714Y-158710500D01*
X105471999Y-159567642D02*
X105614857Y-159639071D01*
X105900571Y-159639071D01*
X106043428Y-159567642D01*
X106114857Y-159424785D01*
X106114857Y-158853357D01*
X106043428Y-158710500D01*
X105900571Y-158639071D01*
X105614857Y-158639071D01*
X105471999Y-158710500D01*
X105400571Y-158853357D01*
X105400571Y-158996214D01*
X106114857Y-159139071D01*
X104757714Y-158639071D02*
X104757714Y-159639071D01*
X104757714Y-158781928D02*
X104686285Y-158710500D01*
X104543428Y-158639071D01*
X104329142Y-158639071D01*
X104186285Y-158710500D01*
X104114857Y-158853357D01*
X104114857Y-159639071D01*
X131436285Y-162054071D02*
X131436285Y-160554071D01*
X130864857Y-160554071D01*
X130722000Y-160625500D01*
X130650571Y-160696928D01*
X130579142Y-160839785D01*
X130579142Y-161054071D01*
X130650571Y-161196928D01*
X130722000Y-161268357D01*
X130864857Y-161339785D01*
X131436285Y-161339785D01*
X129936285Y-162054071D02*
X129936285Y-161054071D01*
X129936285Y-161339785D02*
X129864857Y-161196928D01*
X129793428Y-161125500D01*
X129650571Y-161054071D01*
X129507714Y-161054071D01*
X128793428Y-162054071D02*
X128936285Y-161982642D01*
X129007714Y-161911214D01*
X129079142Y-161768357D01*
X129079142Y-161339785D01*
X129007714Y-161196928D01*
X128936285Y-161125500D01*
X128793428Y-161054071D01*
X128579142Y-161054071D01*
X128436285Y-161125500D01*
X128364857Y-161196928D01*
X128293428Y-161339785D01*
X128293428Y-161768357D01*
X128364857Y-161911214D01*
X128436285Y-161982642D01*
X128579142Y-162054071D01*
X128793428Y-162054071D01*
X127650571Y-161054071D02*
X127650571Y-162339785D01*
X127722000Y-162482642D01*
X127864857Y-162554071D01*
X127936285Y-162554071D01*
X127650571Y-160554071D02*
X127722000Y-160625500D01*
X127650571Y-160696928D01*
X127579142Y-160625500D01*
X127650571Y-160554071D01*
X127650571Y-160696928D01*
X126364857Y-161982642D02*
X126507714Y-162054071D01*
X126793428Y-162054071D01*
X126936285Y-161982642D01*
X127007714Y-161839785D01*
X127007714Y-161268357D01*
X126936285Y-161125500D01*
X126793428Y-161054071D01*
X126507714Y-161054071D01*
X126364857Y-161125500D01*
X126293428Y-161268357D01*
X126293428Y-161411214D01*
X127007714Y-161554071D01*
X125007714Y-161982642D02*
X125150571Y-162054071D01*
X125436285Y-162054071D01*
X125579142Y-161982642D01*
X125650571Y-161911214D01*
X125722000Y-161768357D01*
X125722000Y-161339785D01*
X125650571Y-161196928D01*
X125579142Y-161125500D01*
X125436285Y-161054071D01*
X125150571Y-161054071D01*
X125007714Y-161125500D01*
X124579142Y-161054071D02*
X124007714Y-161054071D01*
X124364857Y-160554071D02*
X124364857Y-161839785D01*
X124293428Y-161982642D01*
X124150571Y-162054071D01*
X124007714Y-162054071D01*
X122436285Y-161625500D02*
X121722000Y-161625500D01*
X122579142Y-162054071D02*
X122079142Y-160554071D01*
X121579142Y-162054071D01*
X121079142Y-162054071D02*
X121079142Y-160554071D01*
X120507714Y-160554071D01*
X120364857Y-160625500D01*
X120293428Y-160696928D01*
X120222000Y-160839785D01*
X120222000Y-161054071D01*
X120293428Y-161196928D01*
X120364857Y-161268357D01*
X120507714Y-161339785D01*
X121079142Y-161339785D01*
X119579142Y-162054071D02*
X119579142Y-160554071D01*
X119007714Y-160554071D01*
X118864857Y-160625500D01*
X118793428Y-160696928D01*
X118722000Y-160839785D01*
X118722000Y-161054071D01*
X118793428Y-161196928D01*
X118864857Y-161268357D01*
X119007714Y-161339785D01*
X119579142Y-161339785D01*
X118150571Y-161982642D02*
X117936285Y-162054071D01*
X117579142Y-162054071D01*
X117436285Y-161982642D01*
X117364857Y-161911214D01*
X117293428Y-161768357D01*
X117293428Y-161625500D01*
X117364857Y-161482642D01*
X117436285Y-161411214D01*
X117579142Y-161339785D01*
X117864857Y-161268357D01*
X118007714Y-161196928D01*
X118079142Y-161125500D01*
X118150571Y-160982642D01*
X118150571Y-160839785D01*
X118079142Y-160696928D01*
X118007714Y-160625500D01*
X117864857Y-160554071D01*
X117507714Y-160554071D01*
X117293428Y-160625500D01*
X115579142Y-160696928D02*
X115507714Y-160625500D01*
X115364857Y-160554071D01*
X115007714Y-160554071D01*
X114864857Y-160625500D01*
X114793428Y-160696928D01*
X114722000Y-160839785D01*
X114722000Y-160982642D01*
X114793428Y-161196928D01*
X115650571Y-162054071D01*
X114722000Y-162054071D01*
X113793428Y-160554071D02*
X113650571Y-160554071D01*
X113507714Y-160625500D01*
X113436285Y-160696928D01*
X113364857Y-160839785D01*
X113293428Y-161125500D01*
X113293428Y-161482642D01*
X113364857Y-161768357D01*
X113436285Y-161911214D01*
X113507714Y-161982642D01*
X113650571Y-162054071D01*
X113793428Y-162054071D01*
X113936285Y-161982642D01*
X114007714Y-161911214D01*
X114079142Y-161768357D01*
X114150571Y-161482642D01*
X114150571Y-161125500D01*
X114079142Y-160839785D01*
X114007714Y-160696928D01*
X113936285Y-160625500D01*
X113793428Y-160554071D01*
X112722000Y-160696928D02*
X112650571Y-160625500D01*
X112507714Y-160554071D01*
X112150571Y-160554071D01*
X112007714Y-160625500D01*
X111936285Y-160696928D01*
X111864857Y-160839785D01*
X111864857Y-160982642D01*
X111936285Y-161196928D01*
X112793428Y-162054071D01*
X111864857Y-162054071D01*
X111293428Y-160696928D02*
X111222000Y-160625500D01*
X111079142Y-160554071D01*
X110722000Y-160554071D01*
X110579142Y-160625500D01*
X110507714Y-160696928D01*
X110436285Y-160839785D01*
X110436285Y-160982642D01*
X110507714Y-161196928D01*
X111364857Y-162054071D01*
X110436285Y-162054071D01*
X126257714Y-164469071D02*
X126257714Y-162969071D01*
X125757714Y-164040500D01*
X125257714Y-162969071D01*
X125257714Y-164469071D01*
X123900571Y-164469071D02*
X123900571Y-163683357D01*
X123972000Y-163540500D01*
X124114857Y-163469071D01*
X124400571Y-163469071D01*
X124543428Y-163540500D01*
X123900571Y-164397642D02*
X124043428Y-164469071D01*
X124400571Y-164469071D01*
X124543428Y-164397642D01*
X124614857Y-164254785D01*
X124614857Y-164111928D01*
X124543428Y-163969071D01*
X124400571Y-163897642D01*
X124043428Y-163897642D01*
X123900571Y-163826214D01*
X123186285Y-164469071D02*
X123186285Y-163469071D01*
X123186285Y-162969071D02*
X123257714Y-163040500D01*
X123186285Y-163111928D01*
X123114857Y-163040500D01*
X123186285Y-162969071D01*
X123186285Y-163111928D01*
X122472000Y-163469071D02*
X122472000Y-164469071D01*
X122472000Y-163611928D02*
X122400571Y-163540500D01*
X122257714Y-163469071D01*
X122043428Y-163469071D01*
X121900571Y-163540500D01*
X121829142Y-163683357D01*
X121829142Y-164469071D01*
X119972000Y-164469071D02*
X119972000Y-162969071D01*
X119972000Y-163540500D02*
X119829142Y-163469071D01*
X119543428Y-163469071D01*
X119400571Y-163540500D01*
X119329142Y-163611928D01*
X119257714Y-163754785D01*
X119257714Y-164183357D01*
X119329142Y-164326214D01*
X119400571Y-164397642D01*
X119543428Y-164469071D01*
X119829142Y-164469071D01*
X119972000Y-164397642D01*
X118400571Y-164469071D02*
X118543428Y-164397642D01*
X118614857Y-164326214D01*
X118686285Y-164183357D01*
X118686285Y-163754785D01*
X118614857Y-163611928D01*
X118543428Y-163540500D01*
X118400571Y-163469071D01*
X118186285Y-163469071D01*
X118043428Y-163540500D01*
X117972000Y-163611928D01*
X117900571Y-163754785D01*
X117900571Y-164183357D01*
X117972000Y-164326214D01*
X118043428Y-164397642D01*
X118186285Y-164469071D01*
X118400571Y-164469071D01*
X117257714Y-164469071D02*
X117257714Y-163469071D01*
X117257714Y-163754785D02*
X117186285Y-163611928D01*
X117114857Y-163540500D01*
X116972000Y-163469071D01*
X116829142Y-163469071D01*
X115686285Y-164469071D02*
X115686285Y-162969071D01*
X115686285Y-164397642D02*
X115829142Y-164469071D01*
X116114857Y-164469071D01*
X116257714Y-164397642D01*
X116329142Y-164326214D01*
X116400571Y-164183357D01*
X116400571Y-163754785D01*
X116329142Y-163611928D01*
X116257714Y-163540500D01*
X116114857Y-163469071D01*
X115829142Y-163469071D01*
X115686285Y-163540500D01*
D10*
X168561285Y-76576404D02*
X168561285Y-75776404D01*
X168370809Y-75776404D01*
X168256523Y-75814500D01*
X168180333Y-75890690D01*
X168142238Y-75966880D01*
X168104142Y-76119261D01*
X168104142Y-76233547D01*
X168142238Y-76385928D01*
X168180333Y-76462119D01*
X168256523Y-76538309D01*
X168370809Y-76576404D01*
X168561285Y-76576404D01*
X167875571Y-75776404D02*
X167418428Y-75776404D01*
X167647000Y-76576404D02*
X167647000Y-75776404D01*
X166694619Y-76576404D02*
X166961285Y-76195452D01*
X167151761Y-76576404D02*
X167151761Y-75776404D01*
X166847000Y-75776404D01*
X166770809Y-75814500D01*
X166732714Y-75852595D01*
X166694619Y-75928785D01*
X166694619Y-76043071D01*
X166732714Y-76119261D01*
X166770809Y-76157357D01*
X166847000Y-76195452D01*
X167151761Y-76195452D01*
X226513666Y-130847880D02*
X226323190Y-130847880D01*
X226227952Y-130895500D01*
X226132714Y-130990738D01*
X226085095Y-131181214D01*
X226085095Y-131514547D01*
X226132714Y-131705023D01*
X226227952Y-131800261D01*
X226323190Y-131847880D01*
X226513666Y-131847880D01*
X226608904Y-131800261D01*
X226704142Y-131705023D01*
X226751761Y-131514547D01*
X226751761Y-131181214D01*
X226704142Y-130990738D01*
X226608904Y-130895500D01*
X226513666Y-130847880D01*
X225656523Y-131181214D02*
X225656523Y-131847880D01*
X225656523Y-131276452D02*
X225608904Y-131228833D01*
X225513666Y-131181214D01*
X225370809Y-131181214D01*
X225275571Y-131228833D01*
X225227952Y-131324071D01*
X225227952Y-131847880D01*
X224037476Y-130800261D02*
X224894619Y-132085976D01*
X223513666Y-130847880D02*
X223323190Y-130847880D01*
X223227952Y-130895500D01*
X223132714Y-130990738D01*
X223085095Y-131181214D01*
X223085095Y-131514547D01*
X223132714Y-131705023D01*
X223227952Y-131800261D01*
X223323190Y-131847880D01*
X223513666Y-131847880D01*
X223608904Y-131800261D01*
X223704142Y-131705023D01*
X223751761Y-131514547D01*
X223751761Y-131181214D01*
X223704142Y-130990738D01*
X223608904Y-130895500D01*
X223513666Y-130847880D01*
X222799380Y-131181214D02*
X222418428Y-131181214D01*
X222656523Y-131847880D02*
X222656523Y-130990738D01*
X222608904Y-130895500D01*
X222513666Y-130847880D01*
X222418428Y-130847880D01*
X222227952Y-131181214D02*
X221847000Y-131181214D01*
X222085095Y-131847880D02*
X222085095Y-130990738D01*
X222037476Y-130895500D01*
X221942238Y-130847880D01*
X221847000Y-130847880D01*
X226561285Y-133410261D02*
X226418428Y-133457880D01*
X226180333Y-133457880D01*
X226085095Y-133410261D01*
X226037476Y-133362642D01*
X225989857Y-133267404D01*
X225989857Y-133172166D01*
X226037476Y-133076928D01*
X226085095Y-133029309D01*
X226180333Y-132981690D01*
X226370809Y-132934071D01*
X226466047Y-132886452D01*
X226513666Y-132838833D01*
X226561285Y-132743595D01*
X226561285Y-132648357D01*
X226513666Y-132553119D01*
X226466047Y-132505500D01*
X226370809Y-132457880D01*
X226132714Y-132457880D01*
X225989857Y-132505500D01*
X225656523Y-132791214D02*
X225466047Y-133457880D01*
X225275571Y-132981690D01*
X225085095Y-133457880D01*
X224894619Y-132791214D01*
X224513666Y-133457880D02*
X224513666Y-132791214D01*
X224513666Y-132457880D02*
X224561285Y-132505500D01*
X224513666Y-132553119D01*
X224466047Y-132505500D01*
X224513666Y-132457880D01*
X224513666Y-132553119D01*
X224180333Y-132791214D02*
X223799380Y-132791214D01*
X224037476Y-132457880D02*
X224037476Y-133315023D01*
X223989857Y-133410261D01*
X223894619Y-133457880D01*
X223799380Y-133457880D01*
X223037476Y-133410261D02*
X223132714Y-133457880D01*
X223323190Y-133457880D01*
X223418428Y-133410261D01*
X223466047Y-133362642D01*
X223513666Y-133267404D01*
X223513666Y-132981690D01*
X223466047Y-132886452D01*
X223418428Y-132838833D01*
X223323190Y-132791214D01*
X223132714Y-132791214D01*
X223037476Y-132838833D01*
X222608904Y-133457880D02*
X222608904Y-132457880D01*
X222180333Y-133457880D02*
X222180333Y-132934071D01*
X222227952Y-132838833D01*
X222323190Y-132791214D01*
X222466047Y-132791214D01*
X222561285Y-132838833D01*
X222608904Y-132886452D01*
X168107000Y-74521785D02*
X168357000Y-74164642D01*
X168535571Y-74521785D02*
X168535571Y-73771785D01*
X168249857Y-73771785D01*
X168178428Y-73807500D01*
X168142714Y-73843214D01*
X168107000Y-73914642D01*
X168107000Y-74021785D01*
X168142714Y-74093214D01*
X168178428Y-74128928D01*
X168249857Y-74164642D01*
X168535571Y-74164642D01*
X167857000Y-73771785D02*
X167357000Y-74521785D01*
X167357000Y-73771785D02*
X167857000Y-74521785D01*
X167071285Y-74521785D02*
X167071285Y-73771785D01*
X166892714Y-73771785D01*
X166785571Y-73807500D01*
X166714142Y-73878928D01*
X166678428Y-73950357D01*
X166642714Y-74093214D01*
X166642714Y-74200357D01*
X166678428Y-74343214D01*
X166714142Y-74414642D01*
X166785571Y-74486071D01*
X166892714Y-74521785D01*
X167071285Y-74521785D01*
X174489857Y-80757642D02*
X174189857Y-81657642D01*
X173889857Y-80757642D01*
X173632714Y-81614785D02*
X173504142Y-81657642D01*
X173289857Y-81657642D01*
X173204142Y-81614785D01*
X173161285Y-81571928D01*
X173118428Y-81486214D01*
X173118428Y-81400500D01*
X173161285Y-81314785D01*
X173204142Y-81271928D01*
X173289857Y-81229071D01*
X173461285Y-81186214D01*
X173547000Y-81143357D01*
X173589857Y-81100500D01*
X173632714Y-81014785D01*
X173632714Y-80929071D01*
X173589857Y-80843357D01*
X173547000Y-80800500D01*
X173461285Y-80757642D01*
X173247000Y-80757642D01*
X173118428Y-80800500D01*
X172818428Y-80757642D02*
X172604142Y-81657642D01*
X172432714Y-81014785D01*
X172261285Y-81657642D01*
X172047000Y-80757642D01*
X184914857Y-121924071D02*
X185248190Y-121924071D01*
X185248190Y-122447880D02*
X185248190Y-121447880D01*
X184772000Y-121447880D01*
X183962476Y-121781214D02*
X183962476Y-122447880D01*
X184391047Y-121781214D02*
X184391047Y-122305023D01*
X184343428Y-122400261D01*
X184248190Y-122447880D01*
X184105333Y-122447880D01*
X184010095Y-122400261D01*
X183962476Y-122352642D01*
X183533904Y-122400261D02*
X183438666Y-122447880D01*
X183248190Y-122447880D01*
X183152952Y-122400261D01*
X183105333Y-122305023D01*
X183105333Y-122257404D01*
X183152952Y-122162166D01*
X183248190Y-122114547D01*
X183391047Y-122114547D01*
X183486285Y-122066928D01*
X183533904Y-121971690D01*
X183533904Y-121924071D01*
X183486285Y-121828833D01*
X183391047Y-121781214D01*
X183248190Y-121781214D01*
X183152952Y-121828833D01*
X182295809Y-122400261D02*
X182391047Y-122447880D01*
X182581523Y-122447880D01*
X182676761Y-122400261D01*
X182724380Y-122305023D01*
X182724380Y-121924071D01*
X182676761Y-121828833D01*
X182581523Y-121781214D01*
X182391047Y-121781214D01*
X182295809Y-121828833D01*
X182248190Y-121924071D01*
X182248190Y-122019309D01*
X182724380Y-122114547D01*
X186486285Y-123057880D02*
X185867238Y-123057880D01*
X186200571Y-123438833D01*
X186057714Y-123438833D01*
X185962476Y-123486452D01*
X185914857Y-123534071D01*
X185867238Y-123629309D01*
X185867238Y-123867404D01*
X185914857Y-123962642D01*
X185962476Y-124010261D01*
X186057714Y-124057880D01*
X186343428Y-124057880D01*
X186438666Y-124010261D01*
X186486285Y-123962642D01*
X185486285Y-123772166D02*
X185010095Y-123772166D01*
X185581523Y-124057880D02*
X185248190Y-123057880D01*
X184914857Y-124057880D01*
X183486285Y-123534071D02*
X183819619Y-123534071D01*
X183819619Y-124057880D02*
X183819619Y-123057880D01*
X183343428Y-123057880D01*
X182533904Y-124057880D02*
X182533904Y-123534071D01*
X182581523Y-123438833D01*
X182676761Y-123391214D01*
X182867238Y-123391214D01*
X182962476Y-123438833D01*
X182533904Y-124010261D02*
X182629142Y-124057880D01*
X182867238Y-124057880D01*
X182962476Y-124010261D01*
X183010095Y-123915023D01*
X183010095Y-123819785D01*
X182962476Y-123724547D01*
X182867238Y-123676928D01*
X182629142Y-123676928D01*
X182533904Y-123629309D01*
X182105333Y-124010261D02*
X182010095Y-124057880D01*
X181819619Y-124057880D01*
X181724380Y-124010261D01*
X181676761Y-123915023D01*
X181676761Y-123867404D01*
X181724380Y-123772166D01*
X181819619Y-123724547D01*
X181962476Y-123724547D01*
X182057714Y-123676928D01*
X182105333Y-123581690D01*
X182105333Y-123534071D01*
X182057714Y-123438833D01*
X181962476Y-123391214D01*
X181819619Y-123391214D01*
X181724380Y-123438833D01*
X181391047Y-123391214D02*
X181010095Y-123391214D01*
X181248190Y-123057880D02*
X181248190Y-123915023D01*
X181200571Y-124010261D01*
X181105333Y-124057880D01*
X181010095Y-124057880D01*
X173011285Y-78782642D02*
X173482714Y-78182642D01*
X173011285Y-78182642D02*
X173482714Y-78782642D01*
X104584142Y-104639785D02*
X104441285Y-104639785D01*
X104369857Y-104675500D01*
X104298428Y-104746928D01*
X104262714Y-104889785D01*
X104262714Y-105139785D01*
X104298428Y-105282642D01*
X104369857Y-105354071D01*
X104441285Y-105389785D01*
X104584142Y-105389785D01*
X104655571Y-105354071D01*
X104727000Y-105282642D01*
X104762714Y-105139785D01*
X104762714Y-104889785D01*
X104727000Y-104746928D01*
X104655571Y-104675500D01*
X104584142Y-104639785D01*
X103941285Y-104639785D02*
X103941285Y-105246928D01*
X103905571Y-105318357D01*
X103869857Y-105354071D01*
X103798428Y-105389785D01*
X103655571Y-105389785D01*
X103584142Y-105354071D01*
X103548428Y-105318357D01*
X103512714Y-105246928D01*
X103512714Y-104639785D01*
X103262714Y-104639785D02*
X102834142Y-104639785D01*
X103048428Y-105389785D02*
X103048428Y-104639785D01*
X102262714Y-104889785D02*
X102262714Y-105389785D01*
X102441285Y-104604071D02*
X102619857Y-105139785D01*
X102155571Y-105139785D01*
X170261285Y-81532642D02*
X170732714Y-80932642D01*
X170261285Y-80932642D02*
X170732714Y-81532642D01*
X107674142Y-109139785D02*
X107531285Y-109139785D01*
X107459857Y-109175500D01*
X107388428Y-109246928D01*
X107352714Y-109389785D01*
X107352714Y-109639785D01*
X107388428Y-109782642D01*
X107459857Y-109854071D01*
X107531285Y-109889785D01*
X107674142Y-109889785D01*
X107745571Y-109854071D01*
X107817000Y-109782642D01*
X107852714Y-109639785D01*
X107852714Y-109389785D01*
X107817000Y-109246928D01*
X107745571Y-109175500D01*
X107674142Y-109139785D01*
X107031285Y-109139785D02*
X107031285Y-109746928D01*
X106995571Y-109818357D01*
X106959857Y-109854071D01*
X106888428Y-109889785D01*
X106745571Y-109889785D01*
X106674142Y-109854071D01*
X106638428Y-109818357D01*
X106602714Y-109746928D01*
X106602714Y-109139785D01*
X106352714Y-109139785D02*
X105924142Y-109139785D01*
X106138428Y-109889785D02*
X106138428Y-109139785D01*
X105745571Y-109139785D02*
X105245571Y-109139785D01*
X105567000Y-109889785D01*
X121565571Y-98869071D02*
X121232238Y-98869071D01*
X121089380Y-99392880D02*
X121565571Y-99392880D01*
X121565571Y-98392880D01*
X121089380Y-98392880D01*
X120756047Y-99392880D02*
X120232238Y-98726214D01*
X120756047Y-98726214D02*
X120232238Y-99392880D01*
X119994142Y-98726214D02*
X119613190Y-98726214D01*
X119851285Y-98392880D02*
X119851285Y-99250023D01*
X119803666Y-99345261D01*
X119708428Y-99392880D01*
X119613190Y-99392880D01*
X119279857Y-99392880D02*
X119279857Y-98726214D01*
X119279857Y-98916690D02*
X119232238Y-98821452D01*
X119184619Y-98773833D01*
X119089380Y-98726214D01*
X118994142Y-98726214D01*
X118232238Y-99392880D02*
X118232238Y-98869071D01*
X118279857Y-98773833D01*
X118375095Y-98726214D01*
X118565571Y-98726214D01*
X118660809Y-98773833D01*
X118232238Y-99345261D02*
X118327476Y-99392880D01*
X118565571Y-99392880D01*
X118660809Y-99345261D01*
X118708428Y-99250023D01*
X118708428Y-99154785D01*
X118660809Y-99059547D01*
X118565571Y-99011928D01*
X118327476Y-99011928D01*
X118232238Y-98964309D01*
X116803666Y-98392880D02*
X116613190Y-98392880D01*
X116517952Y-98440500D01*
X116422714Y-98535738D01*
X116375095Y-98726214D01*
X116375095Y-99059547D01*
X116422714Y-99250023D01*
X116517952Y-99345261D01*
X116613190Y-99392880D01*
X116803666Y-99392880D01*
X116898904Y-99345261D01*
X116994142Y-99250023D01*
X117041761Y-99059547D01*
X117041761Y-98726214D01*
X116994142Y-98535738D01*
X116898904Y-98440500D01*
X116803666Y-98392880D01*
X115517952Y-98726214D02*
X115517952Y-99392880D01*
X115946523Y-98726214D02*
X115946523Y-99250023D01*
X115898904Y-99345261D01*
X115803666Y-99392880D01*
X115660809Y-99392880D01*
X115565571Y-99345261D01*
X115517952Y-99297642D01*
X115184619Y-98726214D02*
X114803666Y-98726214D01*
X115041761Y-98392880D02*
X115041761Y-99250023D01*
X114994142Y-99345261D01*
X114898904Y-99392880D01*
X114803666Y-99392880D01*
X114470333Y-98726214D02*
X114470333Y-99726214D01*
X114470333Y-98773833D02*
X114375095Y-98726214D01*
X114184619Y-98726214D01*
X114089380Y-98773833D01*
X114041761Y-98821452D01*
X113994142Y-98916690D01*
X113994142Y-99202404D01*
X114041761Y-99297642D01*
X114089380Y-99345261D01*
X114184619Y-99392880D01*
X114375095Y-99392880D01*
X114470333Y-99345261D01*
X113137000Y-98726214D02*
X113137000Y-99392880D01*
X113565571Y-98726214D02*
X113565571Y-99250023D01*
X113517952Y-99345261D01*
X113422714Y-99392880D01*
X113279857Y-99392880D01*
X113184619Y-99345261D01*
X113137000Y-99297642D01*
X112803666Y-98726214D02*
X112422714Y-98726214D01*
X112660809Y-98392880D02*
X112660809Y-99250023D01*
X112613190Y-99345261D01*
X112517952Y-99392880D01*
X112422714Y-99392880D01*
X111327476Y-98726214D02*
X111327476Y-99726214D01*
X111327476Y-98773833D02*
X111232238Y-98726214D01*
X111041761Y-98726214D01*
X110946523Y-98773833D01*
X110898904Y-98821452D01*
X110851285Y-98916690D01*
X110851285Y-99202404D01*
X110898904Y-99297642D01*
X110946523Y-99345261D01*
X111041761Y-99392880D01*
X111232238Y-99392880D01*
X111327476Y-99345261D01*
X110422714Y-99392880D02*
X110422714Y-98726214D01*
X110422714Y-98392880D02*
X110470333Y-98440500D01*
X110422714Y-98488119D01*
X110375095Y-98440500D01*
X110422714Y-98392880D01*
X110422714Y-98488119D01*
X109946523Y-98726214D02*
X109946523Y-99392880D01*
X109946523Y-98821452D02*
X109898904Y-98773833D01*
X109803666Y-98726214D01*
X109660809Y-98726214D01*
X109565571Y-98773833D01*
X109517952Y-98869071D01*
X109517952Y-99392880D01*
X109089380Y-99345261D02*
X108994142Y-99392880D01*
X108803666Y-99392880D01*
X108708428Y-99345261D01*
X108660809Y-99250023D01*
X108660809Y-99202404D01*
X108708428Y-99107166D01*
X108803666Y-99059547D01*
X108946523Y-99059547D01*
X109041761Y-99011928D01*
X109089380Y-98916690D01*
X109089380Y-98869071D01*
X109041761Y-98773833D01*
X108946523Y-98726214D01*
X108803666Y-98726214D01*
X108708428Y-98773833D01*
X107644142Y-104619785D02*
X107501285Y-104619785D01*
X107429857Y-104655500D01*
X107358428Y-104726928D01*
X107322714Y-104869785D01*
X107322714Y-105119785D01*
X107358428Y-105262642D01*
X107429857Y-105334071D01*
X107501285Y-105369785D01*
X107644142Y-105369785D01*
X107715571Y-105334071D01*
X107787000Y-105262642D01*
X107822714Y-105119785D01*
X107822714Y-104869785D01*
X107787000Y-104726928D01*
X107715571Y-104655500D01*
X107644142Y-104619785D01*
X107001285Y-104619785D02*
X107001285Y-105226928D01*
X106965571Y-105298357D01*
X106929857Y-105334071D01*
X106858428Y-105369785D01*
X106715571Y-105369785D01*
X106644142Y-105334071D01*
X106608428Y-105298357D01*
X106572714Y-105226928D01*
X106572714Y-104619785D01*
X106322714Y-104619785D02*
X105894142Y-104619785D01*
X106108428Y-105369785D02*
X106108428Y-104619785D01*
X105715571Y-104619785D02*
X105251285Y-104619785D01*
X105501285Y-104905500D01*
X105394142Y-104905500D01*
X105322714Y-104941214D01*
X105287000Y-104976928D01*
X105251285Y-105048357D01*
X105251285Y-105226928D01*
X105287000Y-105298357D01*
X105322714Y-105334071D01*
X105394142Y-105369785D01*
X105608428Y-105369785D01*
X105679857Y-105334071D01*
X105715571Y-105298357D01*
X165625095Y-78412404D02*
X165891761Y-78031452D01*
X166082238Y-78412404D02*
X166082238Y-77612404D01*
X165777476Y-77612404D01*
X165701285Y-77650500D01*
X165663190Y-77688595D01*
X165625095Y-77764785D01*
X165625095Y-77879071D01*
X165663190Y-77955261D01*
X165701285Y-77993357D01*
X165777476Y-78031452D01*
X166082238Y-78031452D01*
X165396523Y-77612404D02*
X164939380Y-77612404D01*
X165167952Y-78412404D02*
X165167952Y-77612404D01*
X164710809Y-78374309D02*
X164596523Y-78412404D01*
X164406047Y-78412404D01*
X164329857Y-78374309D01*
X164291761Y-78336214D01*
X164253666Y-78260023D01*
X164253666Y-78183833D01*
X164291761Y-78107642D01*
X164329857Y-78069547D01*
X164406047Y-78031452D01*
X164558428Y-77993357D01*
X164634619Y-77955261D01*
X164672714Y-77917166D01*
X164710809Y-77840976D01*
X164710809Y-77764785D01*
X164672714Y-77688595D01*
X164634619Y-77650500D01*
X164558428Y-77612404D01*
X164367952Y-77612404D01*
X164253666Y-77650500D01*
X174077952Y-90818404D02*
X174077952Y-90018404D01*
X173735095Y-90094595D02*
X173697000Y-90056500D01*
X173620809Y-90018404D01*
X173430333Y-90018404D01*
X173354142Y-90056500D01*
X173316047Y-90094595D01*
X173277952Y-90170785D01*
X173277952Y-90246976D01*
X173316047Y-90361261D01*
X173773190Y-90818404D01*
X173277952Y-90818404D01*
X172477952Y-90742214D02*
X172516047Y-90780309D01*
X172630333Y-90818404D01*
X172706523Y-90818404D01*
X172820809Y-90780309D01*
X172897000Y-90704119D01*
X172935095Y-90627928D01*
X172973190Y-90475547D01*
X172973190Y-90361261D01*
X172935095Y-90208880D01*
X172897000Y-90132690D01*
X172820809Y-90056500D01*
X172706523Y-90018404D01*
X172630333Y-90018404D01*
X172516047Y-90056500D01*
X172477952Y-90094595D01*
X174249380Y-92068309D02*
X174135095Y-92106404D01*
X173944619Y-92106404D01*
X173868428Y-92068309D01*
X173830333Y-92030214D01*
X173792238Y-91954023D01*
X173792238Y-91877833D01*
X173830333Y-91801642D01*
X173868428Y-91763547D01*
X173944619Y-91725452D01*
X174097000Y-91687357D01*
X174173190Y-91649261D01*
X174211285Y-91611166D01*
X174249380Y-91534976D01*
X174249380Y-91458785D01*
X174211285Y-91382595D01*
X174173190Y-91344500D01*
X174097000Y-91306404D01*
X173906523Y-91306404D01*
X173792238Y-91344500D01*
X172992238Y-92030214D02*
X173030333Y-92068309D01*
X173144619Y-92106404D01*
X173220809Y-92106404D01*
X173335095Y-92068309D01*
X173411285Y-91992119D01*
X173449380Y-91915928D01*
X173487476Y-91763547D01*
X173487476Y-91649261D01*
X173449380Y-91496880D01*
X173411285Y-91420690D01*
X173335095Y-91344500D01*
X173220809Y-91306404D01*
X173144619Y-91306404D01*
X173030333Y-91344500D01*
X172992238Y-91382595D01*
X172268428Y-92106404D02*
X172649380Y-92106404D01*
X172649380Y-91306404D01*
X170160095Y-103827880D02*
X170683904Y-103161214D01*
X170160095Y-103161214D02*
X170683904Y-103827880D01*
X170972000Y-106977880D02*
X170972000Y-105977880D01*
X170495809Y-106977880D02*
X170495809Y-105977880D01*
X170257714Y-105977880D01*
X170114857Y-106025500D01*
X170019619Y-106120738D01*
X169972000Y-106215976D01*
X169924380Y-106406452D01*
X169924380Y-106549309D01*
X169972000Y-106739785D01*
X170019619Y-106835023D01*
X170114857Y-106930261D01*
X170257714Y-106977880D01*
X170495809Y-106977880D01*
X171520809Y-93393404D02*
X171520809Y-92593404D01*
X171216047Y-92593404D01*
X171139857Y-92631500D01*
X171101761Y-92669595D01*
X171063666Y-92745785D01*
X171063666Y-92860071D01*
X171101761Y-92936261D01*
X171139857Y-92974357D01*
X171216047Y-93012452D01*
X171520809Y-93012452D01*
X170797000Y-92593404D02*
X170606523Y-93393404D01*
X170454142Y-92821976D01*
X170301761Y-93393404D01*
X170111285Y-92593404D01*
X169806523Y-93393404D02*
X169806523Y-92593404D01*
X169539857Y-93164833D01*
X169273190Y-92593404D01*
X169273190Y-93393404D01*
X170625571Y-93957595D02*
X170587476Y-93919500D01*
X170511285Y-93881404D01*
X170320809Y-93881404D01*
X170244619Y-93919500D01*
X170206523Y-93957595D01*
X170168428Y-94033785D01*
X170168428Y-94109976D01*
X170206523Y-94224261D01*
X170663666Y-94681404D01*
X170168428Y-94681404D01*
X107654142Y-106829785D02*
X107511285Y-106829785D01*
X107439857Y-106865500D01*
X107368428Y-106936928D01*
X107332714Y-107079785D01*
X107332714Y-107329785D01*
X107368428Y-107472642D01*
X107439857Y-107544071D01*
X107511285Y-107579785D01*
X107654142Y-107579785D01*
X107725571Y-107544071D01*
X107797000Y-107472642D01*
X107832714Y-107329785D01*
X107832714Y-107079785D01*
X107797000Y-106936928D01*
X107725571Y-106865500D01*
X107654142Y-106829785D01*
X107011285Y-106829785D02*
X107011285Y-107436928D01*
X106975571Y-107508357D01*
X106939857Y-107544071D01*
X106868428Y-107579785D01*
X106725571Y-107579785D01*
X106654142Y-107544071D01*
X106618428Y-107508357D01*
X106582714Y-107436928D01*
X106582714Y-106829785D01*
X106332714Y-106829785D02*
X105904142Y-106829785D01*
X106118428Y-107579785D02*
X106118428Y-106829785D01*
X105297000Y-106829785D02*
X105654142Y-106829785D01*
X105689857Y-107186928D01*
X105654142Y-107151214D01*
X105582714Y-107115500D01*
X105404142Y-107115500D01*
X105332714Y-107151214D01*
X105297000Y-107186928D01*
X105261285Y-107258357D01*
X105261285Y-107436928D01*
X105297000Y-107508357D01*
X105332714Y-107544071D01*
X105404142Y-107579785D01*
X105582714Y-107579785D01*
X105654142Y-107544071D01*
X105689857Y-107508357D01*
X104554142Y-102339785D02*
X104411285Y-102339785D01*
X104339857Y-102375500D01*
X104268428Y-102446928D01*
X104232714Y-102589785D01*
X104232714Y-102839785D01*
X104268428Y-102982642D01*
X104339857Y-103054071D01*
X104411285Y-103089785D01*
X104554142Y-103089785D01*
X104625571Y-103054071D01*
X104697000Y-102982642D01*
X104732714Y-102839785D01*
X104732714Y-102589785D01*
X104697000Y-102446928D01*
X104625571Y-102375500D01*
X104554142Y-102339785D01*
X103911285Y-102339785D02*
X103911285Y-102946928D01*
X103875571Y-103018357D01*
X103839857Y-103054071D01*
X103768428Y-103089785D01*
X103625571Y-103089785D01*
X103554142Y-103054071D01*
X103518428Y-103018357D01*
X103482714Y-102946928D01*
X103482714Y-102339785D01*
X103232714Y-102339785D02*
X102804142Y-102339785D01*
X103018428Y-103089785D02*
X103018428Y-102339785D01*
X102589857Y-102411214D02*
X102554142Y-102375500D01*
X102482714Y-102339785D01*
X102304142Y-102339785D01*
X102232714Y-102375500D01*
X102197000Y-102411214D01*
X102161285Y-102482642D01*
X102161285Y-102554071D01*
X102197000Y-102661214D01*
X102625571Y-103089785D01*
X102161285Y-103089785D01*
X170235095Y-96402880D02*
X170758904Y-95736214D01*
X170235095Y-95736214D02*
X170758904Y-96402880D01*
X168105095Y-69392404D02*
X168371761Y-69011452D01*
X168562238Y-69392404D02*
X168562238Y-68592404D01*
X168257476Y-68592404D01*
X168181285Y-68630500D01*
X168143190Y-68668595D01*
X168105095Y-68744785D01*
X168105095Y-68859071D01*
X168143190Y-68935261D01*
X168181285Y-68973357D01*
X168257476Y-69011452D01*
X168562238Y-69011452D01*
X167800333Y-69354309D02*
X167686047Y-69392404D01*
X167495571Y-69392404D01*
X167419380Y-69354309D01*
X167381285Y-69316214D01*
X167343190Y-69240023D01*
X167343190Y-69163833D01*
X167381285Y-69087642D01*
X167419380Y-69049547D01*
X167495571Y-69011452D01*
X167647952Y-68973357D01*
X167724142Y-68935261D01*
X167762238Y-68897166D01*
X167800333Y-68820976D01*
X167800333Y-68744785D01*
X167762238Y-68668595D01*
X167724142Y-68630500D01*
X167647952Y-68592404D01*
X167457476Y-68592404D01*
X167343190Y-68630500D01*
X167114619Y-68592404D02*
X166657476Y-68592404D01*
X166886047Y-69392404D02*
X166886047Y-68592404D01*
X174510095Y-100287404D02*
X174052952Y-100287404D01*
X174281523Y-101087404D02*
X174281523Y-100287404D01*
X173900571Y-100287404D02*
X173443428Y-100287404D01*
X173672000Y-101087404D02*
X173672000Y-100287404D01*
X172795809Y-101087404D02*
X173176761Y-101087404D01*
X173176761Y-100287404D01*
X172567238Y-100363595D02*
X172529142Y-100325500D01*
X172452952Y-100287404D01*
X172262476Y-100287404D01*
X172186285Y-100325500D01*
X172148190Y-100363595D01*
X172110095Y-100439785D01*
X172110095Y-100515976D01*
X172148190Y-100630261D01*
X172605333Y-101087404D01*
X172110095Y-101087404D01*
X168193428Y-77675500D02*
X168264857Y-77639785D01*
X168372000Y-77639785D01*
X168479142Y-77675500D01*
X168550571Y-77746928D01*
X168586285Y-77818357D01*
X168622000Y-77961214D01*
X168622000Y-78068357D01*
X168586285Y-78211214D01*
X168550571Y-78282642D01*
X168479142Y-78354071D01*
X168372000Y-78389785D01*
X168300571Y-78389785D01*
X168193428Y-78354071D01*
X168157714Y-78318357D01*
X168157714Y-78068357D01*
X168300571Y-78068357D01*
X167836285Y-78389785D02*
X167836285Y-77639785D01*
X167407714Y-78389785D01*
X167407714Y-77639785D01*
X167050571Y-78389785D02*
X167050571Y-77639785D01*
X166872000Y-77639785D01*
X166764857Y-77675500D01*
X166693428Y-77746928D01*
X166657714Y-77818357D01*
X166622000Y-77961214D01*
X166622000Y-78068357D01*
X166657714Y-78211214D01*
X166693428Y-78282642D01*
X166764857Y-78354071D01*
X166872000Y-78389785D01*
X167050571Y-78389785D01*
X174054142Y-86046928D02*
X173292238Y-86046928D01*
X173673190Y-86427880D02*
X173673190Y-85665976D01*
X172339857Y-85427880D02*
X172816047Y-85427880D01*
X172863666Y-85904071D01*
X172816047Y-85856452D01*
X172720809Y-85808833D01*
X172482714Y-85808833D01*
X172387476Y-85856452D01*
X172339857Y-85904071D01*
X172292238Y-85999309D01*
X172292238Y-86237404D01*
X172339857Y-86332642D01*
X172387476Y-86380261D01*
X172482714Y-86427880D01*
X172720809Y-86427880D01*
X172816047Y-86380261D01*
X172863666Y-86332642D01*
X171544619Y-83377880D02*
X170925571Y-83377880D01*
X171258904Y-83758833D01*
X171116047Y-83758833D01*
X171020809Y-83806452D01*
X170973190Y-83854071D01*
X170925571Y-83949309D01*
X170925571Y-84187404D01*
X170973190Y-84282642D01*
X171020809Y-84330261D01*
X171116047Y-84377880D01*
X171401761Y-84377880D01*
X171497000Y-84330261D01*
X171544619Y-84282642D01*
X170497000Y-84282642D02*
X170449380Y-84330261D01*
X170497000Y-84377880D01*
X170544619Y-84330261D01*
X170497000Y-84282642D01*
X170497000Y-84377880D01*
X170116047Y-83377880D02*
X169497000Y-83377880D01*
X169830333Y-83758833D01*
X169687476Y-83758833D01*
X169592238Y-83806452D01*
X169544619Y-83854071D01*
X169497000Y-83949309D01*
X169497000Y-84187404D01*
X169544619Y-84282642D01*
X169592238Y-84330261D01*
X169687476Y-84377880D01*
X169973190Y-84377880D01*
X170068428Y-84330261D01*
X170116047Y-84282642D01*
X170160095Y-86352880D02*
X170683904Y-85686214D01*
X170160095Y-85686214D02*
X170683904Y-86352880D01*
X174077952Y-93393404D02*
X174077952Y-92593404D01*
X173735095Y-92669595D02*
X173697000Y-92631500D01*
X173620809Y-92593404D01*
X173430333Y-92593404D01*
X173354142Y-92631500D01*
X173316047Y-92669595D01*
X173277952Y-92745785D01*
X173277952Y-92821976D01*
X173316047Y-92936261D01*
X173773190Y-93393404D01*
X173277952Y-93393404D01*
X172477952Y-93317214D02*
X172516047Y-93355309D01*
X172630333Y-93393404D01*
X172706523Y-93393404D01*
X172820809Y-93355309D01*
X172897000Y-93279119D01*
X172935095Y-93202928D01*
X172973190Y-93050547D01*
X172973190Y-92936261D01*
X172935095Y-92783880D01*
X172897000Y-92707690D01*
X172820809Y-92631500D01*
X172706523Y-92593404D01*
X172630333Y-92593404D01*
X172516047Y-92631500D01*
X172477952Y-92669595D01*
X174268428Y-94643309D02*
X174154142Y-94681404D01*
X173963666Y-94681404D01*
X173887476Y-94643309D01*
X173849380Y-94605214D01*
X173811285Y-94529023D01*
X173811285Y-94452833D01*
X173849380Y-94376642D01*
X173887476Y-94338547D01*
X173963666Y-94300452D01*
X174116047Y-94262357D01*
X174192238Y-94224261D01*
X174230333Y-94186166D01*
X174268428Y-94109976D01*
X174268428Y-94033785D01*
X174230333Y-93957595D01*
X174192238Y-93919500D01*
X174116047Y-93881404D01*
X173925571Y-93881404D01*
X173811285Y-93919500D01*
X173468428Y-94681404D02*
X173468428Y-93881404D01*
X173277952Y-93881404D01*
X173163666Y-93919500D01*
X173087476Y-93995690D01*
X173049380Y-94071880D01*
X173011285Y-94224261D01*
X173011285Y-94338547D01*
X173049380Y-94490928D01*
X173087476Y-94567119D01*
X173163666Y-94643309D01*
X173277952Y-94681404D01*
X173468428Y-94681404D01*
X172706523Y-94452833D02*
X172325571Y-94452833D01*
X172782714Y-94681404D02*
X172516047Y-93881404D01*
X172249380Y-94681404D01*
X228411285Y-153697880D02*
X228411285Y-152697880D01*
X228173190Y-152697880D01*
X228030333Y-152745500D01*
X227935095Y-152840738D01*
X227887476Y-152935976D01*
X227839857Y-153126452D01*
X227839857Y-153269309D01*
X227887476Y-153459785D01*
X227935095Y-153555023D01*
X228030333Y-153650261D01*
X228173190Y-153697880D01*
X228411285Y-153697880D01*
X226839857Y-153602642D02*
X226887476Y-153650261D01*
X227030333Y-153697880D01*
X227125571Y-153697880D01*
X227268428Y-153650261D01*
X227363666Y-153555023D01*
X227411285Y-153459785D01*
X227458904Y-153269309D01*
X227458904Y-153126452D01*
X227411285Y-152935976D01*
X227363666Y-152840738D01*
X227268428Y-152745500D01*
X227125571Y-152697880D01*
X227030333Y-152697880D01*
X226887476Y-152745500D01*
X226839857Y-152793119D01*
X226649380Y-153793119D02*
X225887476Y-153793119D01*
X225649380Y-153697880D02*
X225649380Y-152697880D01*
X225268428Y-152697880D01*
X225173190Y-152745500D01*
X225125571Y-152793119D01*
X225077952Y-152888357D01*
X225077952Y-153031214D01*
X225125571Y-153126452D01*
X225173190Y-153174071D01*
X225268428Y-153221690D01*
X225649380Y-153221690D01*
X224744619Y-152697880D02*
X224506523Y-153697880D01*
X224316047Y-152983595D01*
X224125571Y-153697880D01*
X223887476Y-152697880D01*
X222935095Y-153697880D02*
X223268428Y-153221690D01*
X223506523Y-153697880D02*
X223506523Y-152697880D01*
X223125571Y-152697880D01*
X223030333Y-152745500D01*
X222982714Y-152793119D01*
X222935095Y-152888357D01*
X222935095Y-153031214D01*
X222982714Y-153126452D01*
X223030333Y-153174071D01*
X223125571Y-153221690D01*
X223506523Y-153221690D01*
X227458904Y-154926928D02*
X226697000Y-154926928D01*
X227077952Y-155307880D02*
X227077952Y-154545976D01*
X225697000Y-155307880D02*
X226268428Y-155307880D01*
X225982714Y-155307880D02*
X225982714Y-154307880D01*
X226077952Y-154450738D01*
X226173190Y-154545976D01*
X226268428Y-154593595D01*
X224792238Y-154307880D02*
X225268428Y-154307880D01*
X225316047Y-154784071D01*
X225268428Y-154736452D01*
X225173190Y-154688833D01*
X224935095Y-154688833D01*
X224839857Y-154736452D01*
X224792238Y-154784071D01*
X224744619Y-154879309D01*
X224744619Y-155117404D01*
X224792238Y-155212642D01*
X224839857Y-155260261D01*
X224935095Y-155307880D01*
X225173190Y-155307880D01*
X225268428Y-155260261D01*
X225316047Y-155212642D01*
X224458904Y-154307880D02*
X224125571Y-155307880D01*
X223792238Y-154307880D01*
X166303666Y-75712404D02*
X165846523Y-75712404D01*
X166075095Y-76512404D02*
X166075095Y-75712404D01*
X165579857Y-76512404D02*
X165579857Y-75712404D01*
X165313190Y-76283833D01*
X165046523Y-75712404D01*
X165046523Y-76512404D01*
X164703666Y-76474309D02*
X164589380Y-76512404D01*
X164398904Y-76512404D01*
X164322714Y-76474309D01*
X164284619Y-76436214D01*
X164246523Y-76360023D01*
X164246523Y-76283833D01*
X164284619Y-76207642D01*
X164322714Y-76169547D01*
X164398904Y-76131452D01*
X164551285Y-76093357D01*
X164627476Y-76055261D01*
X164665571Y-76017166D01*
X164703666Y-75940976D01*
X164703666Y-75864785D01*
X164665571Y-75788595D01*
X164627476Y-75750500D01*
X164551285Y-75712404D01*
X164360809Y-75712404D01*
X164246523Y-75750500D01*
X174485095Y-97912404D02*
X174027952Y-97912404D01*
X174256523Y-98712404D02*
X174256523Y-97912404D01*
X173875571Y-97912404D02*
X173418428Y-97912404D01*
X173647000Y-98712404D02*
X173647000Y-97912404D01*
X172770809Y-98712404D02*
X173151761Y-98712404D01*
X173151761Y-97912404D01*
X172085095Y-98712404D02*
X172542238Y-98712404D01*
X172313666Y-98712404D02*
X172313666Y-97912404D01*
X172389857Y-98026690D01*
X172466047Y-98102880D01*
X172542238Y-98140976D01*
X173060095Y-106702880D02*
X173583904Y-106036214D01*
X173060095Y-106036214D02*
X173583904Y-106702880D01*
X175542095Y-154604880D02*
X175542095Y-153604880D01*
X175304000Y-153604880D01*
X175161142Y-153652500D01*
X175065904Y-153747738D01*
X175018285Y-153842976D01*
X174970666Y-154033452D01*
X174970666Y-154176309D01*
X175018285Y-154366785D01*
X175065904Y-154462023D01*
X175161142Y-154557261D01*
X175304000Y-154604880D01*
X175542095Y-154604880D01*
X174589714Y-153700119D02*
X174542095Y-153652500D01*
X174446857Y-153604880D01*
X174208761Y-153604880D01*
X174113523Y-153652500D01*
X174065904Y-153700119D01*
X174018285Y-153795357D01*
X174018285Y-153890595D01*
X174065904Y-154033452D01*
X174637333Y-154604880D01*
X174018285Y-154604880D01*
X134654142Y-102557642D02*
X134701761Y-102510023D01*
X134749380Y-102367166D01*
X134749380Y-102271928D01*
X134701761Y-102129071D01*
X134606523Y-102033833D01*
X134511285Y-101986214D01*
X134320809Y-101938595D01*
X134177952Y-101938595D01*
X133987476Y-101986214D01*
X133892238Y-102033833D01*
X133797000Y-102129071D01*
X133749380Y-102271928D01*
X133749380Y-102367166D01*
X133797000Y-102510023D01*
X133844619Y-102557642D01*
X134749380Y-103510023D02*
X134749380Y-102938595D01*
X134749380Y-103224309D02*
X133749380Y-103224309D01*
X133892238Y-103129071D01*
X133987476Y-103033833D01*
X134035095Y-102938595D01*
X134082714Y-104367166D02*
X134749380Y-104367166D01*
X133701761Y-104129071D02*
X134416047Y-103890976D01*
X134416047Y-104510023D01*
X154854738Y-84023119D02*
X154949976Y-83975500D01*
X155045214Y-83880261D01*
X155188071Y-83737404D01*
X155283309Y-83689785D01*
X155378547Y-83689785D01*
X155330928Y-83927880D02*
X155426166Y-83880261D01*
X155521404Y-83785023D01*
X155569023Y-83594547D01*
X155569023Y-83261214D01*
X155521404Y-83070738D01*
X155426166Y-82975500D01*
X155330928Y-82927880D01*
X155140452Y-82927880D01*
X155045214Y-82975500D01*
X154949976Y-83070738D01*
X154902357Y-83261214D01*
X154902357Y-83594547D01*
X154949976Y-83785023D01*
X155045214Y-83880261D01*
X155140452Y-83927880D01*
X155330928Y-83927880D01*
X153949976Y-83927880D02*
X154521404Y-83927880D01*
X154235690Y-83927880D02*
X154235690Y-82927880D01*
X154330928Y-83070738D01*
X154426166Y-83165976D01*
X154521404Y-83213595D01*
X147854142Y-102107642D02*
X147901761Y-102060023D01*
X147949380Y-101917166D01*
X147949380Y-101821928D01*
X147901761Y-101679071D01*
X147806523Y-101583833D01*
X147711285Y-101536214D01*
X147520809Y-101488595D01*
X147377952Y-101488595D01*
X147187476Y-101536214D01*
X147092238Y-101583833D01*
X146997000Y-101679071D01*
X146949380Y-101821928D01*
X146949380Y-101917166D01*
X146997000Y-102060023D01*
X147044619Y-102107642D01*
X147949380Y-103060023D02*
X147949380Y-102488595D01*
X147949380Y-102774309D02*
X146949380Y-102774309D01*
X147092238Y-102679071D01*
X147187476Y-102583833D01*
X147235095Y-102488595D01*
X146949380Y-103393357D02*
X146949380Y-104060023D01*
X147949380Y-103631452D01*
X180913666Y-150852880D02*
X181389857Y-150852880D01*
X181389857Y-149852880D01*
X180627952Y-149948119D02*
X180580333Y-149900500D01*
X180485095Y-149852880D01*
X180247000Y-149852880D01*
X180151761Y-149900500D01*
X180104142Y-149948119D01*
X180056523Y-150043357D01*
X180056523Y-150138595D01*
X180104142Y-150281452D01*
X180675571Y-150852880D01*
X180056523Y-150852880D01*
X154877357Y-95362880D02*
X155210690Y-94886690D01*
X155448785Y-95362880D02*
X155448785Y-94362880D01*
X155067833Y-94362880D01*
X154972595Y-94410500D01*
X154924976Y-94458119D01*
X154877357Y-94553357D01*
X154877357Y-94696214D01*
X154924976Y-94791452D01*
X154972595Y-94839071D01*
X155067833Y-94886690D01*
X155448785Y-94886690D01*
X153924976Y-95362880D02*
X154496404Y-95362880D01*
X154210690Y-95362880D02*
X154210690Y-94362880D01*
X154305928Y-94505738D01*
X154401166Y-94600976D01*
X154496404Y-94648595D01*
X153448785Y-95362880D02*
X153258309Y-95362880D01*
X153163071Y-95315261D01*
X153115452Y-95267642D01*
X153020214Y-95124785D01*
X152972595Y-94934309D01*
X152972595Y-94553357D01*
X153020214Y-94458119D01*
X153067833Y-94410500D01*
X153163071Y-94362880D01*
X153353547Y-94362880D01*
X153448785Y-94410500D01*
X153496404Y-94458119D01*
X153544023Y-94553357D01*
X153544023Y-94791452D01*
X153496404Y-94886690D01*
X153448785Y-94934309D01*
X153353547Y-94981928D01*
X153163071Y-94981928D01*
X153067833Y-94934309D01*
X153020214Y-94886690D01*
X152972595Y-94791452D01*
D13*
X128314619Y-104205023D02*
X128314619Y-105233119D01*
X128254142Y-105354071D01*
X128193666Y-105414547D01*
X128072714Y-105475023D01*
X127830809Y-105475023D01*
X127709857Y-105414547D01*
X127649380Y-105354071D01*
X127588904Y-105233119D01*
X127588904Y-104205023D01*
X126439857Y-104628357D02*
X126439857Y-105475023D01*
X126742238Y-104144547D02*
X127044619Y-105051690D01*
X126258428Y-105051690D01*
X162676523Y-47207880D02*
X163704619Y-47207880D01*
X163825571Y-47268357D01*
X163886047Y-47328833D01*
X163946523Y-47449785D01*
X163946523Y-47691690D01*
X163886047Y-47812642D01*
X163825571Y-47873119D01*
X163704619Y-47933595D01*
X162676523Y-47933595D01*
X163946523Y-49203595D02*
X163946523Y-48477880D01*
X163946523Y-48840738D02*
X162676523Y-48840738D01*
X162857952Y-48719785D01*
X162978904Y-48598833D01*
X163039380Y-48477880D01*
D10*
X224829142Y-138783833D02*
X224876761Y-138736214D01*
X224924380Y-138593357D01*
X224924380Y-138498119D01*
X224876761Y-138355261D01*
X224781523Y-138260023D01*
X224686285Y-138212404D01*
X224495809Y-138164785D01*
X224352952Y-138164785D01*
X224162476Y-138212404D01*
X224067238Y-138260023D01*
X223972000Y-138355261D01*
X223924380Y-138498119D01*
X223924380Y-138593357D01*
X223972000Y-138736214D01*
X224019619Y-138783833D01*
X223924380Y-139117166D02*
X223924380Y-139736214D01*
X224305333Y-139402880D01*
X224305333Y-139545738D01*
X224352952Y-139640976D01*
X224400571Y-139688595D01*
X224495809Y-139736214D01*
X224733904Y-139736214D01*
X224829142Y-139688595D01*
X224876761Y-139640976D01*
X224924380Y-139545738D01*
X224924380Y-139260023D01*
X224876761Y-139164785D01*
X224829142Y-139117166D01*
X151739857Y-95852880D02*
X152073190Y-95376690D01*
X152311285Y-95852880D02*
X152311285Y-94852880D01*
X151930333Y-94852880D01*
X151835095Y-94900500D01*
X151787476Y-94948119D01*
X151739857Y-95043357D01*
X151739857Y-95186214D01*
X151787476Y-95281452D01*
X151835095Y-95329071D01*
X151930333Y-95376690D01*
X152311285Y-95376690D01*
X151406523Y-94852880D02*
X150787476Y-94852880D01*
X151120809Y-95233833D01*
X150977952Y-95233833D01*
X150882714Y-95281452D01*
X150835095Y-95329071D01*
X150787476Y-95424309D01*
X150787476Y-95662404D01*
X150835095Y-95757642D01*
X150882714Y-95805261D01*
X150977952Y-95852880D01*
X151263666Y-95852880D01*
X151358904Y-95805261D01*
X151406523Y-95757642D01*
X150216047Y-95281452D02*
X150311285Y-95233833D01*
X150358904Y-95186214D01*
X150406523Y-95090976D01*
X150406523Y-95043357D01*
X150358904Y-94948119D01*
X150311285Y-94900500D01*
X150216047Y-94852880D01*
X150025571Y-94852880D01*
X149930333Y-94900500D01*
X149882714Y-94948119D01*
X149835095Y-95043357D01*
X149835095Y-95090976D01*
X149882714Y-95186214D01*
X149930333Y-95233833D01*
X150025571Y-95281452D01*
X150216047Y-95281452D01*
X150311285Y-95329071D01*
X150358904Y-95376690D01*
X150406523Y-95471928D01*
X150406523Y-95662404D01*
X150358904Y-95757642D01*
X150311285Y-95805261D01*
X150216047Y-95852880D01*
X150025571Y-95852880D01*
X149930333Y-95805261D01*
X149882714Y-95757642D01*
X149835095Y-95662404D01*
X149835095Y-95471928D01*
X149882714Y-95376690D01*
X149930333Y-95329071D01*
X150025571Y-95281452D01*
X151338904Y-67292880D02*
X151338904Y-68102404D01*
X151291285Y-68197642D01*
X151243666Y-68245261D01*
X151148428Y-68292880D01*
X150957952Y-68292880D01*
X150862714Y-68245261D01*
X150815095Y-68197642D01*
X150767476Y-68102404D01*
X150767476Y-67292880D01*
X150338904Y-67388119D02*
X150291285Y-67340500D01*
X150196047Y-67292880D01*
X149957952Y-67292880D01*
X149862714Y-67340500D01*
X149815095Y-67388119D01*
X149767476Y-67483357D01*
X149767476Y-67578595D01*
X149815095Y-67721452D01*
X150386523Y-68292880D01*
X149767476Y-68292880D01*
X190460095Y-133302880D02*
X190460095Y-134112404D01*
X190412476Y-134207642D01*
X190364857Y-134255261D01*
X190269619Y-134302880D01*
X190079142Y-134302880D01*
X189983904Y-134255261D01*
X189936285Y-134207642D01*
X189888666Y-134112404D01*
X189888666Y-133302880D01*
X188888666Y-134302880D02*
X189460095Y-134302880D01*
X189174380Y-134302880D02*
X189174380Y-133302880D01*
X189269619Y-133445738D01*
X189364857Y-133540976D01*
X189460095Y-133588595D01*
X188269619Y-133302880D02*
X188174380Y-133302880D01*
X188079142Y-133350500D01*
X188031523Y-133398119D01*
X187983904Y-133493357D01*
X187936285Y-133683833D01*
X187936285Y-133921928D01*
X187983904Y-134112404D01*
X188031523Y-134207642D01*
X188079142Y-134255261D01*
X188174380Y-134302880D01*
X188269619Y-134302880D01*
X188364857Y-134255261D01*
X188412476Y-134207642D01*
X188460095Y-134112404D01*
X188507714Y-133921928D01*
X188507714Y-133683833D01*
X188460095Y-133493357D01*
X188412476Y-133398119D01*
X188364857Y-133350500D01*
X188269619Y-133302880D01*
X164377357Y-42937642D02*
X164424976Y-42985261D01*
X164567833Y-43032880D01*
X164663071Y-43032880D01*
X164805928Y-42985261D01*
X164901166Y-42890023D01*
X164948785Y-42794785D01*
X164996404Y-42604309D01*
X164996404Y-42461452D01*
X164948785Y-42270976D01*
X164901166Y-42175738D01*
X164805928Y-42080500D01*
X164663071Y-42032880D01*
X164567833Y-42032880D01*
X164424976Y-42080500D01*
X164377357Y-42128119D01*
X163424976Y-43032880D02*
X163996404Y-43032880D01*
X163710690Y-43032880D02*
X163710690Y-42032880D01*
X163805928Y-42175738D01*
X163901166Y-42270976D01*
X163996404Y-42318595D01*
X162567833Y-42032880D02*
X162758309Y-42032880D01*
X162853547Y-42080500D01*
X162901166Y-42128119D01*
X162996404Y-42270976D01*
X163044023Y-42461452D01*
X163044023Y-42842404D01*
X162996404Y-42937642D01*
X162948785Y-42985261D01*
X162853547Y-43032880D01*
X162663071Y-43032880D01*
X162567833Y-42985261D01*
X162520214Y-42937642D01*
X162472595Y-42842404D01*
X162472595Y-42604309D01*
X162520214Y-42509071D01*
X162567833Y-42461452D01*
X162663071Y-42413833D01*
X162853547Y-42413833D01*
X162948785Y-42461452D01*
X162996404Y-42509071D01*
X163044023Y-42604309D01*
X150389857Y-97302880D02*
X150723190Y-96826690D01*
X150961285Y-97302880D02*
X150961285Y-96302880D01*
X150580333Y-96302880D01*
X150485095Y-96350500D01*
X150437476Y-96398119D01*
X150389857Y-96493357D01*
X150389857Y-96636214D01*
X150437476Y-96731452D01*
X150485095Y-96779071D01*
X150580333Y-96826690D01*
X150961285Y-96826690D01*
X149532714Y-96636214D02*
X149532714Y-97302880D01*
X149770809Y-96255261D02*
X150008904Y-96969547D01*
X149389857Y-96969547D01*
X148818428Y-96302880D02*
X148723190Y-96302880D01*
X148627952Y-96350500D01*
X148580333Y-96398119D01*
X148532714Y-96493357D01*
X148485095Y-96683833D01*
X148485095Y-96921928D01*
X148532714Y-97112404D01*
X148580333Y-97207642D01*
X148627952Y-97255261D01*
X148723190Y-97302880D01*
X148818428Y-97302880D01*
X148913666Y-97255261D01*
X148961285Y-97207642D01*
X149008904Y-97112404D01*
X149056523Y-96921928D01*
X149056523Y-96683833D01*
X149008904Y-96493357D01*
X148961285Y-96398119D01*
X148913666Y-96350500D01*
X148818428Y-96302880D01*
X154314857Y-108402880D02*
X154648190Y-107926690D01*
X154886285Y-108402880D02*
X154886285Y-107402880D01*
X154505333Y-107402880D01*
X154410095Y-107450500D01*
X154362476Y-107498119D01*
X154314857Y-107593357D01*
X154314857Y-107736214D01*
X154362476Y-107831452D01*
X154410095Y-107879071D01*
X154505333Y-107926690D01*
X154886285Y-107926690D01*
X153457714Y-107736214D02*
X153457714Y-108402880D01*
X153695809Y-107355261D02*
X153933904Y-108069547D01*
X153314857Y-108069547D01*
X152410095Y-108402880D02*
X152981523Y-108402880D01*
X152695809Y-108402880D02*
X152695809Y-107402880D01*
X152791047Y-107545738D01*
X152886285Y-107640976D01*
X152981523Y-107688595D01*
D13*
X151051523Y-101082880D02*
X152079619Y-101082880D01*
X152200571Y-101143357D01*
X152261047Y-101203833D01*
X152321523Y-101324785D01*
X152321523Y-101566690D01*
X152261047Y-101687642D01*
X152200571Y-101748119D01*
X152079619Y-101808595D01*
X151051523Y-101808595D01*
X151051523Y-103018119D02*
X151051523Y-102413357D01*
X151656285Y-102352880D01*
X151595809Y-102413357D01*
X151535333Y-102534309D01*
X151535333Y-102836690D01*
X151595809Y-102957642D01*
X151656285Y-103018119D01*
X151777238Y-103078595D01*
X152079619Y-103078595D01*
X152200571Y-103018119D01*
X152261047Y-102957642D01*
X152321523Y-102836690D01*
X152321523Y-102534309D01*
X152261047Y-102413357D01*
X152200571Y-102352880D01*
D10*
X157601166Y-90257880D02*
X157934500Y-89781690D01*
X158172595Y-90257880D02*
X158172595Y-89257880D01*
X157791642Y-89257880D01*
X157696404Y-89305500D01*
X157648785Y-89353119D01*
X157601166Y-89448357D01*
X157601166Y-89591214D01*
X157648785Y-89686452D01*
X157696404Y-89734071D01*
X157791642Y-89781690D01*
X158172595Y-89781690D01*
X156696404Y-89257880D02*
X157172595Y-89257880D01*
X157220214Y-89734071D01*
X157172595Y-89686452D01*
X157077357Y-89638833D01*
X156839261Y-89638833D01*
X156744023Y-89686452D01*
X156696404Y-89734071D01*
X156648785Y-89829309D01*
X156648785Y-90067404D01*
X156696404Y-90162642D01*
X156744023Y-90210261D01*
X156839261Y-90257880D01*
X157077357Y-90257880D01*
X157172595Y-90210261D01*
X157220214Y-90162642D01*
X162264857Y-57102880D02*
X162598190Y-56626690D01*
X162836285Y-57102880D02*
X162836285Y-56102880D01*
X162455333Y-56102880D01*
X162360095Y-56150500D01*
X162312476Y-56198119D01*
X162264857Y-56293357D01*
X162264857Y-56436214D01*
X162312476Y-56531452D01*
X162360095Y-56579071D01*
X162455333Y-56626690D01*
X162836285Y-56626690D01*
X161883904Y-56198119D02*
X161836285Y-56150500D01*
X161741047Y-56102880D01*
X161502952Y-56102880D01*
X161407714Y-56150500D01*
X161360095Y-56198119D01*
X161312476Y-56293357D01*
X161312476Y-56388595D01*
X161360095Y-56531452D01*
X161931523Y-57102880D01*
X161312476Y-57102880D01*
X160693428Y-56102880D02*
X160598190Y-56102880D01*
X160502952Y-56150500D01*
X160455333Y-56198119D01*
X160407714Y-56293357D01*
X160360095Y-56483833D01*
X160360095Y-56721928D01*
X160407714Y-56912404D01*
X160455333Y-57007642D01*
X160502952Y-57055261D01*
X160598190Y-57102880D01*
X160693428Y-57102880D01*
X160788666Y-57055261D01*
X160836285Y-57007642D01*
X160883904Y-56912404D01*
X160931523Y-56721928D01*
X160931523Y-56483833D01*
X160883904Y-56293357D01*
X160836285Y-56198119D01*
X160788666Y-56150500D01*
X160693428Y-56102880D01*
X198859333Y-127359071D02*
X199192666Y-127359071D01*
X199192666Y-127882880D02*
X199192666Y-126882880D01*
X198716476Y-126882880D01*
X197811714Y-127882880D02*
X198383142Y-127882880D01*
X198097428Y-127882880D02*
X198097428Y-126882880D01*
X198192666Y-127025738D01*
X198287904Y-127120976D01*
X198383142Y-127168595D01*
X158905333Y-66712880D02*
X158905333Y-67427166D01*
X158952952Y-67570023D01*
X159048190Y-67665261D01*
X159191047Y-67712880D01*
X159286285Y-67712880D01*
X158000571Y-67046214D02*
X158000571Y-67712880D01*
X158238666Y-66665261D02*
X158476761Y-67379547D01*
X157857714Y-67379547D01*
D13*
X143056523Y-100962880D02*
X144084619Y-100962880D01*
X144205571Y-101023357D01*
X144266047Y-101083833D01*
X144326523Y-101204785D01*
X144326523Y-101446690D01*
X144266047Y-101567642D01*
X144205571Y-101628119D01*
X144084619Y-101688595D01*
X143056523Y-101688595D01*
X143056523Y-102172404D02*
X143056523Y-103019071D01*
X144326523Y-102474785D01*
D10*
X143063666Y-63257642D02*
X143111285Y-63305261D01*
X143254142Y-63352880D01*
X143349380Y-63352880D01*
X143492238Y-63305261D01*
X143587476Y-63210023D01*
X143635095Y-63114785D01*
X143682714Y-62924309D01*
X143682714Y-62781452D01*
X143635095Y-62590976D01*
X143587476Y-62495738D01*
X143492238Y-62400500D01*
X143349380Y-62352880D01*
X143254142Y-62352880D01*
X143111285Y-62400500D01*
X143063666Y-62448119D01*
X142111285Y-63352880D02*
X142682714Y-63352880D01*
X142397000Y-63352880D02*
X142397000Y-62352880D01*
X142492238Y-62495738D01*
X142587476Y-62590976D01*
X142682714Y-62638595D01*
X143739857Y-67452880D02*
X144073190Y-66976690D01*
X144311285Y-67452880D02*
X144311285Y-66452880D01*
X143930333Y-66452880D01*
X143835095Y-66500500D01*
X143787476Y-66548119D01*
X143739857Y-66643357D01*
X143739857Y-66786214D01*
X143787476Y-66881452D01*
X143835095Y-66929071D01*
X143930333Y-66976690D01*
X144311285Y-66976690D01*
X143406523Y-66452880D02*
X142787476Y-66452880D01*
X143120809Y-66833833D01*
X142977952Y-66833833D01*
X142882714Y-66881452D01*
X142835095Y-66929071D01*
X142787476Y-67024309D01*
X142787476Y-67262404D01*
X142835095Y-67357642D01*
X142882714Y-67405261D01*
X142977952Y-67452880D01*
X143263666Y-67452880D01*
X143358904Y-67405261D01*
X143406523Y-67357642D01*
X141930333Y-66452880D02*
X142120809Y-66452880D01*
X142216047Y-66500500D01*
X142263666Y-66548119D01*
X142358904Y-66690976D01*
X142406523Y-66881452D01*
X142406523Y-67262404D01*
X142358904Y-67357642D01*
X142311285Y-67405261D01*
X142216047Y-67452880D01*
X142025571Y-67452880D01*
X141930333Y-67405261D01*
X141882714Y-67357642D01*
X141835095Y-67262404D01*
X141835095Y-67024309D01*
X141882714Y-66929071D01*
X141930333Y-66881452D01*
X142025571Y-66833833D01*
X142216047Y-66833833D01*
X142311285Y-66881452D01*
X142358904Y-66929071D01*
X142406523Y-67024309D01*
X135302357Y-66127642D02*
X135349976Y-66175261D01*
X135492833Y-66222880D01*
X135588071Y-66222880D01*
X135730928Y-66175261D01*
X135826166Y-66080023D01*
X135873785Y-65984785D01*
X135921404Y-65794309D01*
X135921404Y-65651452D01*
X135873785Y-65460976D01*
X135826166Y-65365738D01*
X135730928Y-65270500D01*
X135588071Y-65222880D01*
X135492833Y-65222880D01*
X135349976Y-65270500D01*
X135302357Y-65318119D01*
X134349976Y-66222880D02*
X134921404Y-66222880D01*
X134635690Y-66222880D02*
X134635690Y-65222880D01*
X134730928Y-65365738D01*
X134826166Y-65460976D01*
X134921404Y-65508595D01*
X133969023Y-65318119D02*
X133921404Y-65270500D01*
X133826166Y-65222880D01*
X133588071Y-65222880D01*
X133492833Y-65270500D01*
X133445214Y-65318119D01*
X133397595Y-65413357D01*
X133397595Y-65508595D01*
X133445214Y-65651452D01*
X134016642Y-66222880D01*
X133397595Y-66222880D01*
X209251380Y-143381183D02*
X209251380Y-142904992D01*
X208251380Y-142904992D01*
X209251380Y-144238326D02*
X209251380Y-143666897D01*
X209251380Y-143952611D02*
X208251380Y-143952611D01*
X208394238Y-143857373D01*
X208489476Y-143762135D01*
X208537095Y-143666897D01*
X164687095Y-132816880D02*
X164687095Y-133626404D01*
X164639476Y-133721642D01*
X164591857Y-133769261D01*
X164496619Y-133816880D01*
X164306142Y-133816880D01*
X164210904Y-133769261D01*
X164163285Y-133721642D01*
X164115666Y-133626404D01*
X164115666Y-132816880D01*
X163115666Y-133816880D02*
X163687095Y-133816880D01*
X163401380Y-133816880D02*
X163401380Y-132816880D01*
X163496619Y-132959738D01*
X163591857Y-133054976D01*
X163687095Y-133102595D01*
X162163285Y-133816880D02*
X162734714Y-133816880D01*
X162449000Y-133816880D02*
X162449000Y-132816880D01*
X162544238Y-132959738D01*
X162639476Y-133054976D01*
X162734714Y-133102595D01*
X201231095Y-155112880D02*
X201231095Y-154112880D01*
X200993000Y-154112880D01*
X200850142Y-154160500D01*
X200754904Y-154255738D01*
X200707285Y-154350976D01*
X200659666Y-154541452D01*
X200659666Y-154684309D01*
X200707285Y-154874785D01*
X200754904Y-154970023D01*
X200850142Y-155065261D01*
X200993000Y-155112880D01*
X201231095Y-155112880D01*
X199707285Y-155112880D02*
X200278714Y-155112880D01*
X199993000Y-155112880D02*
X199993000Y-154112880D01*
X200088238Y-154255738D01*
X200183476Y-154350976D01*
X200278714Y-154398595D01*
X116216523Y-97082880D02*
X116216523Y-97797166D01*
X116264142Y-97940023D01*
X116359380Y-98035261D01*
X116502238Y-98082880D01*
X116597476Y-98082880D01*
X115216523Y-98082880D02*
X115787952Y-98082880D01*
X115502238Y-98082880D02*
X115502238Y-97082880D01*
X115597476Y-97225738D01*
X115692714Y-97320976D01*
X115787952Y-97368595D01*
X114359380Y-97416214D02*
X114359380Y-98082880D01*
X114597476Y-97035261D02*
X114835571Y-97749547D01*
X114216523Y-97749547D01*
X160417238Y-88823119D02*
X160512476Y-88775500D01*
X160607714Y-88680261D01*
X160750571Y-88537404D01*
X160845809Y-88489785D01*
X160941047Y-88489785D01*
X160893428Y-88727880D02*
X160988666Y-88680261D01*
X161083904Y-88585023D01*
X161131523Y-88394547D01*
X161131523Y-88061214D01*
X161083904Y-87870738D01*
X160988666Y-87775500D01*
X160893428Y-87727880D01*
X160702952Y-87727880D01*
X160607714Y-87775500D01*
X160512476Y-87870738D01*
X160464857Y-88061214D01*
X160464857Y-88394547D01*
X160512476Y-88585023D01*
X160607714Y-88680261D01*
X160702952Y-88727880D01*
X160893428Y-88727880D01*
X160083904Y-87823119D02*
X160036285Y-87775500D01*
X159941047Y-87727880D01*
X159702952Y-87727880D01*
X159607714Y-87775500D01*
X159560095Y-87823119D01*
X159512476Y-87918357D01*
X159512476Y-88013595D01*
X159560095Y-88156452D01*
X160131523Y-88727880D01*
X159512476Y-88727880D01*
X226649380Y-138758833D02*
X226173190Y-138425500D01*
X226649380Y-138187404D02*
X225649380Y-138187404D01*
X225649380Y-138568357D01*
X225697000Y-138663595D01*
X225744619Y-138711214D01*
X225839857Y-138758833D01*
X225982714Y-138758833D01*
X226077952Y-138711214D01*
X226125571Y-138663595D01*
X226173190Y-138568357D01*
X226173190Y-138187404D01*
X225649380Y-139615976D02*
X225649380Y-139425500D01*
X225697000Y-139330261D01*
X225744619Y-139282642D01*
X225887476Y-139187404D01*
X226077952Y-139139785D01*
X226458904Y-139139785D01*
X226554142Y-139187404D01*
X226601761Y-139235023D01*
X226649380Y-139330261D01*
X226649380Y-139520738D01*
X226601761Y-139615976D01*
X226554142Y-139663595D01*
X226458904Y-139711214D01*
X226220809Y-139711214D01*
X226125571Y-139663595D01*
X226077952Y-139615976D01*
X226030333Y-139520738D01*
X226030333Y-139330261D01*
X226077952Y-139235023D01*
X226125571Y-139187404D01*
X226220809Y-139139785D01*
X160174380Y-89583833D02*
X159698190Y-89250500D01*
X160174380Y-89012404D02*
X159174380Y-89012404D01*
X159174380Y-89393357D01*
X159222000Y-89488595D01*
X159269619Y-89536214D01*
X159364857Y-89583833D01*
X159507714Y-89583833D01*
X159602952Y-89536214D01*
X159650571Y-89488595D01*
X159698190Y-89393357D01*
X159698190Y-89012404D01*
X159507714Y-90440976D02*
X160174380Y-90440976D01*
X159126761Y-90202880D02*
X159841047Y-89964785D01*
X159841047Y-90583833D01*
X142364857Y-65927880D02*
X142698190Y-65451690D01*
X142936285Y-65927880D02*
X142936285Y-64927880D01*
X142555333Y-64927880D01*
X142460095Y-64975500D01*
X142412476Y-65023119D01*
X142364857Y-65118357D01*
X142364857Y-65261214D01*
X142412476Y-65356452D01*
X142460095Y-65404071D01*
X142555333Y-65451690D01*
X142936285Y-65451690D01*
X142031523Y-64927880D02*
X141412476Y-64927880D01*
X141745809Y-65308833D01*
X141602952Y-65308833D01*
X141507714Y-65356452D01*
X141460095Y-65404071D01*
X141412476Y-65499309D01*
X141412476Y-65737404D01*
X141460095Y-65832642D01*
X141507714Y-65880261D01*
X141602952Y-65927880D01*
X141888666Y-65927880D01*
X141983904Y-65880261D01*
X142031523Y-65832642D01*
X141079142Y-64927880D02*
X140412476Y-64927880D01*
X140841047Y-65927880D01*
X123269380Y-98276333D02*
X122793190Y-97943000D01*
X123269380Y-97704904D02*
X122269380Y-97704904D01*
X122269380Y-98085857D01*
X122317000Y-98181095D01*
X122364619Y-98228714D01*
X122459857Y-98276333D01*
X122602714Y-98276333D01*
X122697952Y-98228714D01*
X122745571Y-98181095D01*
X122793190Y-98085857D01*
X122793190Y-97704904D01*
X123269380Y-99228714D02*
X123269380Y-98657285D01*
X123269380Y-98943000D02*
X122269380Y-98943000D01*
X122412238Y-98847761D01*
X122507476Y-98752523D01*
X122555095Y-98657285D01*
X134138666Y-63052880D02*
X134472000Y-62576690D01*
X134710095Y-63052880D02*
X134710095Y-62052880D01*
X134329142Y-62052880D01*
X134233904Y-62100500D01*
X134186285Y-62148119D01*
X134138666Y-62243357D01*
X134138666Y-62386214D01*
X134186285Y-62481452D01*
X134233904Y-62529071D01*
X134329142Y-62576690D01*
X134710095Y-62576690D01*
X133805333Y-62052880D02*
X133186285Y-62052880D01*
X133519619Y-62433833D01*
X133376761Y-62433833D01*
X133281523Y-62481452D01*
X133233904Y-62529071D01*
X133186285Y-62624309D01*
X133186285Y-62862404D01*
X133233904Y-62957642D01*
X133281523Y-63005261D01*
X133376761Y-63052880D01*
X133662476Y-63052880D01*
X133757714Y-63005261D01*
X133805333Y-62957642D01*
X146380333Y-54335261D02*
X146237476Y-54382880D01*
X145999380Y-54382880D01*
X145904142Y-54335261D01*
X145856523Y-54287642D01*
X145808904Y-54192404D01*
X145808904Y-54097166D01*
X145856523Y-54001928D01*
X145904142Y-53954309D01*
X145999380Y-53906690D01*
X146189857Y-53859071D01*
X146285095Y-53811452D01*
X146332714Y-53763833D01*
X146380333Y-53668595D01*
X146380333Y-53573357D01*
X146332714Y-53478119D01*
X146285095Y-53430500D01*
X146189857Y-53382880D01*
X145951761Y-53382880D01*
X145808904Y-53430500D01*
X145475571Y-53382880D02*
X145237476Y-54382880D01*
X145047000Y-53668595D01*
X144856523Y-54382880D01*
X144618428Y-53382880D01*
X143713666Y-54382880D02*
X144285095Y-54382880D01*
X143999380Y-54382880D02*
X143999380Y-53382880D01*
X144094619Y-53525738D01*
X144189857Y-53620976D01*
X144285095Y-53668595D01*
D14*
X170404000Y-153302500D02*
X170404000Y-150002500D01*
X170404000Y-153302500D02*
X177304000Y-153302500D01*
X170404000Y-150002500D02*
X177304000Y-150002500D01*
X134757000Y-99941733D02*
X134757000Y-100234267D01*
X133737000Y-99941733D02*
X133737000Y-100234267D01*
X154759500Y-87435500D02*
X155409500Y-87435500D01*
X154759500Y-84315500D02*
X154109500Y-84315500D01*
X154759500Y-84315500D02*
X156434500Y-84315500D01*
X154759500Y-87435500D02*
X154109500Y-87435500D01*
X146867000Y-99394233D02*
X146867000Y-99686767D01*
X147887000Y-99394233D02*
X147887000Y-99686767D01*
X173073000Y-136749850D02*
X170323000Y-136749850D01*
X169673000Y-137399850D02*
X169673000Y-148899850D01*
X173073000Y-149549850D02*
X170323000Y-149549850D01*
X181823000Y-136749850D02*
X179073000Y-136749850D01*
X182473000Y-148899850D02*
X182473000Y-137399850D01*
X181823000Y-149549850D02*
X179073000Y-149549850D01*
X169673000Y-148899850D02*
G75*
G03*
X170323000Y-149549850I650001J1D01*
G01*
X170323000Y-136749850D02*
G75*
G03*
X169673000Y-137399850I0J-650000D01*
G01*
X182473000Y-137399850D02*
G75*
G03*
X181823000Y-136749850I-650000J0D01*
G01*
X181823000Y-149549850D02*
G75*
G03*
X182473000Y-148899850I-1J650001D01*
G01*
X154489224Y-96863000D02*
X153979776Y-96863000D01*
X154489224Y-95818000D02*
X153979776Y-95818000D01*
D15*
X122397000Y-103300500D02*
X122397000Y-106500500D01*
D11*
X131842000Y-109100500D02*
X131842000Y-109100500D01*
D15*
X132297000Y-103300500D02*
X132297000Y-106500500D01*
D11*
X131842000Y-109200500D02*
X131842000Y-109200500D01*
X131842000Y-109100500D02*
G75*
G03*
X131842000Y-109200500I0J-50000D01*
G01*
X131842000Y-109200500D02*
G75*
G03*
X131842000Y-109100500I0J50000D01*
G01*
D15*
X161772000Y-53125500D02*
X164972000Y-53125500D01*
D11*
X167672000Y-43680500D02*
X167672000Y-43680500D01*
X167572000Y-43680500D02*
X167572000Y-43680500D01*
D15*
X161772000Y-43225500D02*
X164972000Y-43225500D01*
D11*
X167572000Y-43680500D02*
G75*
G03*
X167672000Y-43680500I50000J0D01*
G01*
X167672000Y-43680500D02*
G75*
G03*
X167572000Y-43680500I-50000J0D01*
G01*
D14*
X223926250Y-136165733D02*
X223926250Y-136458267D01*
X224946250Y-136165733D02*
X224946250Y-136458267D01*
X147662276Y-95763000D02*
X148171724Y-95763000D01*
X147662276Y-94718000D02*
X148171724Y-94718000D01*
X151247000Y-87570500D02*
X152027000Y-87570500D01*
X126282000Y-69330500D02*
X132702000Y-69330500D01*
X152027000Y-87570500D02*
X152027000Y-86570500D01*
X151247000Y-69330500D02*
X152027000Y-69330500D01*
X126282000Y-87570500D02*
X132702000Y-87570500D01*
X152027000Y-69330500D02*
X152027000Y-70330500D01*
X126282000Y-69330500D02*
X126282000Y-87570500D01*
X132702000Y-69330500D02*
X132702000Y-68950500D01*
X183897000Y-144275500D02*
X183897000Y-145775500D01*
X183897000Y-145775500D02*
X184847000Y-145775500D01*
X184847000Y-145775500D02*
X184847000Y-146875500D01*
X194297000Y-145775500D02*
X193347000Y-145775500D01*
X193347000Y-145775500D02*
X193347000Y-150900500D01*
X194297000Y-144275500D02*
X194297000Y-145775500D01*
X163588233Y-41660500D02*
X163880767Y-41660500D01*
X163588233Y-40640500D02*
X163880767Y-40640500D01*
X146329776Y-96253000D02*
X146839224Y-96253000D01*
X146329776Y-97298000D02*
X146839224Y-97298000D01*
X150714224Y-108373000D02*
X150204776Y-108373000D01*
X150714224Y-107328000D02*
X150204776Y-107328000D01*
D15*
X154247000Y-103900500D02*
X154247000Y-100200500D01*
X149247000Y-103900500D02*
X154247000Y-103900500D01*
X148897000Y-98375500D02*
X148897000Y-99850500D01*
X149247000Y-100200500D02*
X149247000Y-103900500D01*
X154247000Y-100200500D02*
X149247000Y-100200500D01*
D14*
X157179776Y-88898000D02*
X157689224Y-88898000D01*
X157179776Y-87853000D02*
X157689224Y-87853000D01*
X161861724Y-54558000D02*
X161352276Y-54558000D01*
X161861724Y-55603000D02*
X161352276Y-55603000D01*
X187447000Y-126050500D02*
X211447000Y-126050500D01*
X187447000Y-119950500D02*
X187447000Y-126050500D01*
X211447000Y-126050500D02*
X211447000Y-119950500D01*
X211447000Y-119950500D02*
X187447000Y-119950500D01*
X155972000Y-83050500D02*
X155972000Y-83620500D01*
X155972000Y-68260500D02*
X155972000Y-68830500D01*
X162612000Y-68830500D02*
X161172000Y-68830500D01*
X161172000Y-72890500D02*
X161172000Y-73910500D01*
X161172000Y-68260500D02*
X155972000Y-68260500D01*
X155972000Y-80510500D02*
X155972000Y-81530500D01*
X161172000Y-75430500D02*
X161172000Y-76450500D01*
X161172000Y-83620500D02*
X155972000Y-83620500D01*
X155972000Y-70350500D02*
X155972000Y-71370500D01*
X155972000Y-75430500D02*
X155972000Y-76450500D01*
X155972000Y-72890500D02*
X155972000Y-73910500D01*
X161172000Y-77970500D02*
X161172000Y-78990500D01*
X161172000Y-80510500D02*
X161172000Y-81530500D01*
X161172000Y-68260500D02*
X161172000Y-68830500D01*
X155972000Y-77970500D02*
X155972000Y-78990500D01*
X161172000Y-83050500D02*
X161172000Y-83620500D01*
X161172000Y-70350500D02*
X161172000Y-71370500D01*
D15*
X146602000Y-105605500D02*
X146602000Y-104130500D01*
X146252000Y-100080500D02*
X141252000Y-100080500D01*
X141252000Y-103780500D02*
X146252000Y-103780500D01*
X146252000Y-103780500D02*
X146252000Y-100080500D01*
X141252000Y-100080500D02*
X141252000Y-103780500D01*
D14*
X140453267Y-62400500D02*
X140160733Y-62400500D01*
X140453267Y-63420500D02*
X140160733Y-63420500D01*
X139679776Y-66528000D02*
X140189224Y-66528000D01*
X139679776Y-67573000D02*
X140189224Y-67573000D01*
X134805767Y-67710500D02*
X134513233Y-67710500D01*
X134805767Y-66690500D02*
X134513233Y-66690500D01*
X198549000Y-137147850D02*
X195799000Y-137147850D01*
X207299000Y-137147850D02*
X204549000Y-137147850D01*
X195149000Y-137797850D02*
X195149000Y-149297850D01*
X207299000Y-149947850D02*
X204549000Y-149947850D01*
X198549000Y-149947850D02*
X195799000Y-149947850D01*
X207949000Y-149297850D02*
X207949000Y-137797850D01*
X207949000Y-137797850D02*
G75*
G03*
X207299000Y-137147850I-650000J0D01*
G01*
X195799000Y-137147850D02*
G75*
G03*
X195149000Y-137797850I0J-650000D01*
G01*
X195149000Y-149297850D02*
G75*
G03*
X195799000Y-149947850I650001J1D01*
G01*
X207299000Y-149947850D02*
G75*
G03*
X207949000Y-149297850I-1J650001D01*
G01*
X158268000Y-143892500D02*
X158268000Y-145392500D01*
X168668000Y-143892500D02*
X168668000Y-145392500D01*
X159218000Y-145392500D02*
X159218000Y-146492500D01*
X168668000Y-145392500D02*
X167718000Y-145392500D01*
X167718000Y-145392500D02*
X167718000Y-150517500D01*
X158268000Y-145392500D02*
X159218000Y-145392500D01*
X196093000Y-153810500D02*
X196093000Y-150510500D01*
X196093000Y-150510500D02*
X202993000Y-150510500D01*
X196093000Y-153810500D02*
X202993000Y-153810500D01*
X112697000Y-107540500D02*
X112697000Y-108560500D01*
X117897000Y-105000500D02*
X117897000Y-106020500D01*
X117897000Y-110080500D02*
X117897000Y-110650500D01*
X112697000Y-110080500D02*
X112697000Y-110650500D01*
X117897000Y-110650500D02*
X112697000Y-110650500D01*
X112697000Y-102460500D02*
X112697000Y-103480500D01*
X117897000Y-102460500D02*
X117897000Y-103480500D01*
X117897000Y-107540500D02*
X117897000Y-108560500D01*
X119337000Y-100940500D02*
X117897000Y-100940500D01*
X112697000Y-100370500D02*
X112697000Y-100940500D01*
X112697000Y-105000500D02*
X112697000Y-106020500D01*
X117897000Y-100370500D02*
X112697000Y-100370500D01*
X117897000Y-100370500D02*
X117897000Y-100940500D01*
X160322000Y-84315500D02*
X159672000Y-84315500D01*
X160322000Y-87435500D02*
X160972000Y-87435500D01*
X160322000Y-84315500D02*
X160972000Y-84315500D01*
X160322000Y-87435500D02*
X158647000Y-87435500D01*
X226574750Y-136101276D02*
X226574750Y-136610724D01*
X225529750Y-136101276D02*
X225529750Y-136610724D01*
X157024500Y-85583276D02*
X157024500Y-86092724D01*
X158069500Y-85583276D02*
X158069500Y-86092724D01*
X138329776Y-65673000D02*
X138839224Y-65673000D01*
X138329776Y-64628000D02*
X138839224Y-64628000D01*
X124769500Y-98188276D02*
X124769500Y-98697724D01*
X123724500Y-98188276D02*
X123724500Y-98697724D01*
X136404776Y-62078000D02*
X136914224Y-62078000D01*
X136404776Y-63123000D02*
X136914224Y-63123000D01*
X148197000Y-54980500D02*
X141897000Y-54980500D01*
X148197000Y-61880500D02*
X148197000Y-61630500D01*
X148197000Y-55230500D02*
X148197000Y-54980500D01*
X141897000Y-61630500D02*
X141897000Y-61880500D01*
X141897000Y-61880500D02*
X148197000Y-61880500D01*
X141897000Y-54980500D02*
X141897000Y-55230500D01*
X148197000Y-59730500D02*
X148197000Y-57130500D01*
X141897000Y-57130500D02*
X141897000Y-59730500D01*
%LPC*%
D16*
X97947000Y-28150500D03*
X155622000Y-163025500D03*
X177622000Y-116175500D03*
X228647000Y-123475500D03*
X161847000Y-27975500D03*
X228247000Y-162575500D03*
X98697000Y-162750500D03*
D17*
X229489000Y-137364500D03*
X229489000Y-135364500D03*
D18*
X229489000Y-133364500D03*
D19*
X229489000Y-139464500D03*
X229489000Y-131264500D03*
D20*
X204622000Y-133925500D03*
X204622000Y-128925500D03*
D21*
X172247000Y-124425500D03*
D22*
X105522000Y-65215500D03*
D23*
X105522000Y-62675500D03*
X105522000Y-60135500D03*
D22*
X176664000Y-31571000D03*
D23*
X179204000Y-31571000D03*
X176664000Y-34111000D03*
X179204000Y-34111000D03*
X176664000Y-36651000D03*
X179204000Y-36651000D03*
X176664000Y-39191000D03*
X179204000Y-39191000D03*
X176664000Y-41731000D03*
X179204000Y-41731000D03*
X176664000Y-44271000D03*
X179204000Y-44271000D03*
X176664000Y-46811000D03*
X179204000Y-46811000D03*
X176664000Y-49351000D03*
X179204000Y-49351000D03*
X176664000Y-51891000D03*
X179204000Y-51891000D03*
X176664000Y-54431000D03*
X179204000Y-54431000D03*
X176664000Y-56971000D03*
X179204000Y-56971000D03*
X176664000Y-59511000D03*
X179204000Y-59511000D03*
D24*
X221215500Y-147196500D03*
D25*
X224015500Y-142596500D03*
D24*
X227315500Y-147196500D03*
D20*
X192622000Y-129625500D03*
X187622000Y-129625500D03*
D23*
X105647000Y-123155500D03*
X105647000Y-125695500D03*
X105647000Y-128235500D03*
D22*
X105647000Y-130775500D03*
X176964000Y-78621000D03*
D23*
X179504000Y-78621000D03*
X176964000Y-81161000D03*
X179504000Y-81161000D03*
X176964000Y-83701000D03*
X179504000Y-83701000D03*
X176964000Y-86241000D03*
X179504000Y-86241000D03*
X176964000Y-88781000D03*
X179504000Y-88781000D03*
X176964000Y-91321000D03*
X179504000Y-91321000D03*
X176964000Y-93861000D03*
X179504000Y-93861000D03*
X176964000Y-96401000D03*
X179504000Y-96401000D03*
X176964000Y-98941000D03*
X179504000Y-98941000D03*
X176964000Y-101481000D03*
X179504000Y-101481000D03*
X176964000Y-104021000D03*
X179504000Y-104021000D03*
X176964000Y-106561000D03*
X179504000Y-106561000D03*
D22*
X105547000Y-86425500D03*
D23*
X105547000Y-83885500D03*
X105547000Y-81345500D03*
X105547000Y-78805500D03*
X105547000Y-76265500D03*
X105547000Y-73725500D03*
D21*
X164547000Y-124375500D03*
D20*
X179959000Y-130062500D03*
X174959000Y-130062500D03*
D26*
X172304000Y-151652500D03*
X177304000Y-151652500D03*
D27*
X134247000Y-99225500D03*
X134247000Y-100950500D03*
D28*
X155697000Y-84925500D03*
X155697000Y-86825500D03*
X153822000Y-85875500D03*
D27*
X147377000Y-98678000D03*
X147377000Y-100403000D03*
D29*
X176073000Y-147999850D03*
X176073000Y-138299850D03*
D30*
X155147000Y-96340500D03*
X153322000Y-96340500D03*
D31*
X131842000Y-107725500D03*
D32*
X130522000Y-107725500D03*
X129252000Y-107725500D03*
X127982000Y-107725500D03*
X126712000Y-107725500D03*
X125442000Y-107725500D03*
X124172000Y-107725500D03*
D31*
X122852000Y-107725500D03*
X122852000Y-102075500D03*
D32*
X124172000Y-102075500D03*
X125442000Y-102075500D03*
X126712000Y-102075500D03*
X127982000Y-102075500D03*
X129252000Y-102075500D03*
X130522000Y-102075500D03*
D31*
X131842000Y-102075500D03*
D33*
X166197000Y-43680500D03*
D34*
X166197000Y-45000500D03*
X166197000Y-46270500D03*
X166197000Y-47540500D03*
X166197000Y-48810500D03*
X166197000Y-50080500D03*
X166197000Y-51350500D03*
D33*
X166197000Y-52670500D03*
X160547000Y-52670500D03*
D34*
X160547000Y-51350500D03*
X160547000Y-50080500D03*
X160547000Y-48810500D03*
X160547000Y-47540500D03*
X160547000Y-46270500D03*
X160547000Y-45000500D03*
D33*
X160547000Y-43680500D03*
D27*
X224436250Y-135449500D03*
X224436250Y-137174500D03*
D35*
X147004500Y-95240500D03*
X148829500Y-95240500D03*
D36*
X133892000Y-69950500D03*
X135162000Y-69950500D03*
X136432000Y-69950500D03*
X137702000Y-69950500D03*
X138972000Y-69950500D03*
X140242000Y-69950500D03*
X141512000Y-69950500D03*
X142782000Y-69950500D03*
X144052000Y-69950500D03*
X145322000Y-69950500D03*
X146592000Y-69950500D03*
X147862000Y-69950500D03*
X149132000Y-69950500D03*
X150402000Y-69950500D03*
D37*
X151402000Y-72735500D03*
X151402000Y-74005500D03*
X151402000Y-75275500D03*
X151402000Y-76545500D03*
X151402000Y-77815500D03*
X151402000Y-79085500D03*
X151402000Y-80355500D03*
X151402000Y-81625500D03*
X151402000Y-82895500D03*
X151402000Y-84165500D03*
D36*
X150402000Y-86950500D03*
X149132000Y-86950500D03*
X147862000Y-86950500D03*
X146592000Y-86950500D03*
X145322000Y-86950500D03*
X144052000Y-86950500D03*
X142782000Y-86950500D03*
X141512000Y-86950500D03*
X140242000Y-86950500D03*
X138972000Y-86950500D03*
X137702000Y-86950500D03*
X136432000Y-86950500D03*
X135162000Y-86950500D03*
X133892000Y-86950500D03*
D38*
X141392000Y-77450500D03*
D39*
X185697000Y-148600500D03*
X187397000Y-148600500D03*
D40*
X189097000Y-139450500D03*
D39*
X189097000Y-148600500D03*
X190797000Y-148600500D03*
X192497000Y-148600500D03*
D41*
X162872000Y-41150500D03*
X164597000Y-41150500D03*
D35*
X145672000Y-96775500D03*
X147497000Y-96775500D03*
D30*
X151372000Y-107850500D03*
X149547000Y-107850500D03*
D42*
X149472000Y-99112500D03*
X150122000Y-99112500D03*
X150772000Y-99112500D03*
X151422000Y-99112500D03*
X152072000Y-99112500D03*
X152722000Y-99112500D03*
X153372000Y-99112500D03*
X154022000Y-99112500D03*
X154022000Y-104988500D03*
X153372000Y-104988500D03*
X152722000Y-104988500D03*
X152072000Y-104988500D03*
X151422000Y-104988500D03*
X150772000Y-104988500D03*
X150122000Y-104988500D03*
X149472000Y-104988500D03*
D35*
X156522000Y-88375500D03*
X158347000Y-88375500D03*
D30*
X162519500Y-55080500D03*
X160694500Y-55080500D03*
D43*
X205097000Y-123000500D03*
X209697000Y-123000500D03*
X189197000Y-123000500D03*
X193797000Y-123000500D03*
D44*
X161097000Y-69590500D03*
X156047000Y-69590500D03*
X161097000Y-72130500D03*
X156047000Y-72130500D03*
X161097000Y-74670500D03*
X156047000Y-74670500D03*
X161097000Y-77210500D03*
X156047000Y-77210500D03*
X161097000Y-79750500D03*
X156047000Y-79750500D03*
X161097000Y-82290500D03*
X156047000Y-82290500D03*
D42*
X146027000Y-104868500D03*
X145377000Y-104868500D03*
X144727000Y-104868500D03*
X144077000Y-104868500D03*
X143427000Y-104868500D03*
X142777000Y-104868500D03*
X142127000Y-104868500D03*
X141477000Y-104868500D03*
X141477000Y-98992500D03*
X142127000Y-98992500D03*
X142777000Y-98992500D03*
X143427000Y-98992500D03*
X144077000Y-98992500D03*
X144727000Y-98992500D03*
X145377000Y-98992500D03*
X146027000Y-98992500D03*
D45*
X141169500Y-62910500D03*
X139444500Y-62910500D03*
D35*
X139022000Y-67050500D03*
X140847000Y-67050500D03*
D45*
X135522000Y-67200500D03*
X133797000Y-67200500D03*
D29*
X201549000Y-148397850D03*
X201549000Y-138697850D03*
D39*
X160068000Y-148217500D03*
X161768000Y-148217500D03*
D40*
X163468000Y-139067500D03*
D39*
X163468000Y-148217500D03*
X165168000Y-148217500D03*
X166868000Y-148217500D03*
D26*
X197993000Y-152160500D03*
X202993000Y-152160500D03*
D44*
X117822000Y-101700500D03*
X112772000Y-101700500D03*
X117822000Y-104240500D03*
X112772000Y-104240500D03*
X117822000Y-106780500D03*
X112772000Y-106780500D03*
X117822000Y-109320500D03*
X112772000Y-109320500D03*
D46*
X159384500Y-86825500D03*
X159384500Y-84925500D03*
X161259500Y-85875500D03*
D47*
X226052250Y-135443500D03*
X226052250Y-137268500D03*
X157547000Y-84925500D03*
X157547000Y-86750500D03*
D35*
X137672000Y-65150500D03*
X139497000Y-65150500D03*
D47*
X124247000Y-97530500D03*
X124247000Y-99355500D03*
D35*
X135747000Y-62600500D03*
X137572000Y-62600500D03*
D48*
X149022000Y-56180500D03*
X141072000Y-56180500D03*
X141072000Y-60680500D03*
X149022000Y-60680500D03*
M02*
